<svg width="445" height="396" fill="none" xmlns="http://www.w3.org/2000/svg"><rect x=".5" y=".5" width="444" height="395" rx="9.5" fill="#fff"/><path fill="#5DBD6D" d="M0 0h445v52H0z"/><path d="M417.167 18.87H401v1.87h16.167v-1.87zm0 6.203H401v1.87h16.167v-1.87zm0 6.203H401v1.871h16.167v-1.87z" fill="#fff"/><path d="M404.702 22.592a2.796 2.796 0 100-5.592 2.796 2.796 0 000 5.592zm10.988 3.505a2.802 2.802 0 01-1.74 2.57 2.796 2.796 0 111.74-2.57zm-8.408 8.921a2.796 2.796 0 100-5.592 2.796 2.796 0 000 5.592zM16.948 33V22.09h4.304c.828 0 1.532.159 2.115.475a3.21 3.21 0 011.331 1.305c.31.554.464 1.193.464 1.918 0 .724-.156 1.363-.469 1.917A3.233 3.233 0 0123.335 29c-.59.309-1.303.463-2.142.463H18.45v-1.848h2.37c.445 0 .81-.077 1.098-.23.291-.156.508-.37.65-.644.145-.277.218-.595.218-.953 0-.363-.073-.679-.218-.948a1.458 1.458 0 00-.65-.634c-.291-.153-.66-.23-1.108-.23h-1.555V33h-2.307zm11.783.154a3.41 3.41 0 01-1.396-.271 2.246 2.246 0 01-.97-.815c-.234-.362-.35-.813-.35-1.353 0-.455.083-.836.25-1.145.166-.31.394-.558.681-.746.288-.188.615-.33.98-.426a7.47 7.47 0 011.162-.203 31 31 0 001.15-.138c.291-.046.503-.114.634-.203a.445.445 0 00.197-.394v-.032c0-.337-.106-.598-.32-.783-.209-.184-.507-.277-.894-.277-.409 0-.734.09-.975.272a1.25 1.25 0 00-.48.671l-2.098-.17c.106-.497.316-.927.628-1.29a3.017 3.017 0 011.21-.841c.497-.199 1.072-.298 1.725-.298.455 0 .89.053 1.306.16.419.106.79.271 1.113.495.326.224.584.511.772.863.188.348.282.765.282 1.252V33h-2.152v-1.135h-.064a2.31 2.31 0 01-.527.677 2.44 2.44 0 01-.793.453c-.31.106-.666.16-1.071.16zm.65-1.566a1.9 1.9 0 00.884-.197 1.57 1.57 0 00.602-.543 1.4 1.4 0 00.218-.772v-.869a1.212 1.212 0 01-.293.128 5.33 5.33 0 01-.41.101c-.153.029-.305.055-.458.08l-.415.059c-.267.039-.5.101-.698.186-.2.086-.354.201-.464.347a.843.843 0 00-.165.532c0 .31.112.545.336.709.227.16.515.24.863.24zm12.872-6.77v6.616h1.305v4.197h-2.206V33H35.1v-8.182h2.168v6.398h2.844v-6.398h2.142zM44.957 33v-8.182h2.27V33h-2.27zm1.14-9.236c-.337 0-.627-.112-.868-.336a1.088 1.088 0 01-.357-.815c0-.313.119-.58.357-.804.241-.228.53-.341.868-.341.338 0 .625.113.863.34.242.224.362.492.362.805 0 .316-.12.588-.362.815a1.214 1.214 0 01-.863.335zm6.644 9.396c-.828 0-1.543-.176-2.147-.527a3.61 3.61 0 01-1.39-1.481c-.327-.636-.49-1.373-.49-2.21 0-.846.163-1.585.49-2.217.327-.636.79-1.13 1.39-1.48.604-.356 1.32-.533 2.147-.533.827 0 1.541.177 2.141.532a3.556 3.556 0 011.396 1.481c.327.632.49 1.37.49 2.216 0 .838-.163 1.575-.49 2.21a3.599 3.599 0 01-1.396 1.482c-.6.351-1.314.527-2.141.527zm.01-1.758c.377 0 .691-.107.943-.32.253-.216.442-.511.57-.884.132-.373.197-.797.197-1.273 0-.476-.065-.9-.197-1.273-.128-.373-.317-.668-.57-.884-.252-.217-.566-.325-.942-.325-.38 0-.7.108-.96.325-.255.216-.448.511-.58.884a3.914 3.914 0 00-.192 1.273c0 .476.064.9.192 1.273.132.373.325.668.58.884.26.213.58.32.96.32zm11.187-3.398v1.784h-4.272v-1.784h4.272zm-3.527-3.186V33h-2.168v-8.182h2.168zm4.949 0V33h-2.152v-8.182h2.152zm8.929 8.342c-.838 0-1.56-.178-2.163-.533a3.6 3.6 0 01-1.385-1.491c-.32-.636-.48-1.367-.48-2.195 0-.838.162-1.573.486-2.205a3.602 3.602 0 011.39-1.486c.6-.359 1.314-.538 2.141-.538.714 0 1.339.13 1.875.389s.96.623 1.273 1.091c.313.47.485 1.02.517 1.652h-2.141c-.06-.409-.22-.737-.48-.986-.255-.252-.591-.378-1.007-.378a1.52 1.52 0 00-.921.288c-.26.188-.462.463-.607.825-.146.363-.219.801-.219 1.316 0 .522.071.966.213 1.332.146.366.35.644.613.836.263.192.57.288.921.288.26 0 .492-.054.698-.16.21-.107.382-.261.517-.463.138-.207.229-.453.272-.74h2.14c-.035.624-.205 1.175-.51 1.65a3.09 3.09 0 01-1.252 1.108c-.533.267-1.163.4-1.891.4zm5.107-.16v-8.182h7.153V33h-2.167v-6.397h-2.845V33h-2.141zm12.661.16c-.827 0-1.543-.176-2.146-.527a3.61 3.61 0 01-1.39-1.481c-.327-.636-.49-1.373-.49-2.21 0-.846.163-1.585.49-2.217.326-.636.79-1.13 1.39-1.48.603-.356 1.319-.533 2.146-.533.828 0 1.541.177 2.142.532a3.556 3.556 0 011.395 1.481c.327.632.49 1.37.49 2.216 0 .838-.163 1.575-.49 2.21a3.599 3.599 0 01-1.395 1.482c-.6.351-1.314.527-2.142.527zm.011-1.758c.376 0 .69-.107.943-.32.252-.216.442-.511.57-.884.131-.373.197-.797.197-1.273 0-.476-.066-.9-.197-1.273-.128-.373-.318-.668-.57-.884-.252-.217-.567-.325-.943-.325-.38 0-.7.108-.959.325-.255.216-.449.511-.58.884a3.914 3.914 0 00-.192 1.273c0 .476.064.9.192 1.273.131.373.325.668.58.884.26.213.579.32.959.32zm5.492 4.666v-11.25h2.237v1.374h.101c.1-.22.244-.443.432-.67.191-.231.44-.423.745-.576.309-.156.693-.234 1.151-.234.597 0 1.147.156 1.651.468.505.31.908.776 1.209 1.401.302.622.453 1.401.453 2.339 0 .912-.147 1.683-.442 2.311-.291.625-.689 1.1-1.193 1.423a3.06 3.06 0 01-1.683.48c-.441 0-.815-.074-1.124-.22a2.314 2.314 0 01-.751-.548 2.759 2.759 0 01-.448-.676h-.069v4.378h-2.27zm2.221-7.159c0 .487.067.911.203 1.273.134.362.33.645.585.847.256.199.567.298.933.298.369 0 .681-.1.937-.303.256-.206.449-.49.581-.852.135-.366.202-.787.202-1.263a3.62 3.62 0 00-.197-1.246 1.852 1.852 0 00-.581-.842c-.255-.202-.57-.304-.942-.304-.37 0-.682.098-.938.293-.252.196-.446.473-.58.831-.135.359-.203.782-.203 1.268zm6.479-2.306v-1.785h7.414v1.785h-2.636V33h-2.163v-6.397h-2.615zm12.194 6.557c-.838 0-1.559-.178-2.163-.533a3.6 3.6 0 01-1.385-1.491c-.319-.636-.479-1.367-.479-2.195 0-.838.161-1.573.485-2.205a3.597 3.597 0 011.39-1.486c.6-.359 1.314-.538 2.141-.538.714 0 1.339.13 1.875.389s.961.623 1.273 1.091c.313.47.485 1.02.517 1.652h-2.141c-.061-.409-.221-.737-.48-.986-.255-.252-.591-.378-1.007-.378a1.52 1.52 0 00-.921.288c-.259.188-.462.463-.607.825-.146.363-.219.801-.219 1.316 0 .522.071.966.213 1.332.146.366.35.644.613.836.263.192.57.288.921.288.26 0 .492-.054.698-.16.21-.107.382-.261.517-.463.138-.207.229-.453.272-.74h2.141c-.036.624-.206 1.175-.511 1.65-.302.473-.72.842-1.252 1.108-.533.267-1.163.4-1.891.4zm9.943-2.669l2.216-5.673h1.726L129.149 33h-1.508l-3.116-8.182h1.72l2.152 5.673zm-2.668-5.673V33h-2.168v-8.182h2.168zM131.178 33v-8.182h2.141V33h-2.141zm7.625.16c-.841 0-1.566-.17-2.173-.512a3.502 3.502 0 01-1.396-1.46c-.326-.631-.49-1.379-.49-2.242 0-.841.164-1.58.49-2.216a3.625 3.625 0 011.38-1.486c.596-.355 1.296-.532 2.099-.532a4.29 4.29 0 011.507.26c.469.171.877.429 1.225.773.352.345.625.778.821 1.3.195.518.293 1.125.293 1.821v.624h-6.909v-1.406h4.772a1.74 1.74 0 00-.213-.869 1.527 1.527 0 00-.591-.591 1.685 1.685 0 00-.868-.218c-.345 0-.65.08-.916.24a1.679 1.679 0 00-.618.633 1.786 1.786 0 00-.229.879v1.337c0 .405.074.755.223 1.05.153.294.368.521.645.681.277.16.605.24.985.24.253 0 .483-.036.693-.107a1.44 1.44 0 00.538-.32c.149-.141.263-.315.341-.521l2.099.138a2.864 2.864 0 01-.656 1.321 3.287 3.287 0 01-1.267.874c-.515.206-1.11.309-1.785.309zm10.931-5.156v1.784h-4.272v-1.784h4.272zm-3.527-3.186V33h-2.168v-8.182h2.168zm4.949 0V33h-2.152v-8.182h2.152zm4.093 8.336c-.522 0-.987-.09-1.395-.271a2.244 2.244 0 01-.97-.815c-.234-.362-.351-.813-.351-1.353 0-.455.083-.836.25-1.145.167-.31.394-.558.682-.746.288-.188.614-.33.98-.426a7.46 7.46 0 011.161-.203c.476-.05.86-.096 1.151-.138.291-.046.502-.114.634-.203a.446.446 0 00.197-.394v-.032c0-.337-.107-.598-.32-.783-.209-.184-.508-.277-.895-.277-.408 0-.733.09-.974.272a1.248 1.248 0 00-.48.671l-2.099-.17a2.86 2.86 0 01.629-1.29 3.017 3.017 0 011.209-.841c.497-.199 1.073-.298 1.726-.298.455 0 .89.053 1.305.16.419.106.79.271 1.113.495.327.224.584.511.773.863.188.348.282.765.282 1.252V33h-2.152v-1.135h-.064a2.304 2.304 0 01-.527.677 2.44 2.44 0 01-.794.453c-.309.106-.666.16-1.071.16zm.65-1.566c.334 0 .629-.065.884-.197a1.56 1.56 0 00.602-.543c.146-.227.219-.485.219-.772v-.869a1.217 1.217 0 01-.293.128 5.43 5.43 0 01-.41.101c-.153.029-.306.055-.458.08l-.416.059a2.822 2.822 0 00-.698.186 1.117 1.117 0 00-.463.347.844.844 0 00-.165.532c0 .31.112.545.335.709.228.16.515.24.863.24z" fill="#fff"/><path d="M7 152.785l22.666-.214 22.667-.072 45.321-.154 45.333.143 22.667.083 22.666.214-22.666.226-22.667.072-45.333.155-45.321-.155-22.666-.072L7 152.785z" fill="#EBEBEB"/><path d="M20.769 139v-10.39H24.4c.724 0 1.32.126 1.79.376.471.247.821.58 1.051.999.23.416.345.878.345 1.385 0 .447-.08.815-.238 1.106a1.853 1.853 0 01-.62.69 2.808 2.808 0 01-.826.375v.102c.318.02.637.132.959.335.32.203.59.493.806.872.217.379.325.842.325 1.39 0 .521-.118.99-.355 1.406-.237.415-.61.745-1.121.989-.511.243-1.176.365-1.994.365h-3.754zm1.258-1.116h2.496c.822 0 1.405-.159 1.75-.477a1.53 1.53 0 00.523-1.167c0-.351-.09-.676-.27-.974a1.943 1.943 0 00-.765-.72c-.332-.183-.724-.274-1.177-.274h-2.557v3.612zm0-4.708h2.333a2.3 2.3 0 001.025-.223c.308-.149.552-.359.73-.629.183-.271.275-.589.275-.954 0-.456-.16-.844-.477-1.162-.318-.321-.822-.481-1.512-.481h-2.374v3.449zm7.87 5.824v-7.792h1.198V139h-1.197zm.61-9.091a.85.85 0 01-.604-.238.767.767 0 01-.249-.574c0-.223.083-.414.249-.573a.85.85 0 01.604-.238c.233 0 .432.079.598.238.17.159.254.35.254.573a.76.76 0 01-.254.574.833.833 0 01-.599.238zm2.334 2.415v-1.116h6.331v1.116h-2.556V139h-1.198v-6.676h-2.577zm9.966 6.859c-.494 0-.942-.093-1.344-.279a2.314 2.314 0 01-.959-.817c-.237-.359-.355-.792-.355-1.299 0-.446.088-.808.264-1.085.176-.281.41-.501.705-.66a3.71 3.71 0 01.974-.355 12.16 12.16 0 011.08-.193c.474-.061.858-.106 1.152-.137.298-.034.514-.089.65-.167.138-.078.208-.213.208-.406v-.041c0-.5-.138-.889-.411-1.166-.271-.278-.682-.416-1.233-.416-.572 0-1.02.125-1.344.375-.325.25-.553.517-.685.802l-1.137-.406c.203-.474.474-.842.812-1.106a3.047 3.047 0 011.116-.558 4.644 4.644 0 011.197-.163c.25 0 .538.031.863.092.328.057.644.177.948.36.308.183.563.458.766.827.203.368.305.862.305 1.481V139h-1.197v-1.055h-.061c-.082.169-.217.35-.406.543a2.38 2.38 0 01-.756.492c-.315.135-.699.203-1.152.203zm.183-1.076c.473 0 .872-.093 1.197-.279a1.9 1.9 0 00.995-1.649v-1.095c-.051.061-.163.116-.335.167a5.76 5.76 0 01-.589.127 25.636 25.636 0 01-1.146.152 4.63 4.63 0 00-.873.198 1.498 1.498 0 00-.65.401c-.162.176-.243.416-.243.72 0 .416.154.731.462.944.311.209.705.314 1.182.314zm9.835-.73l2.72-6.169h1.136L53.312 139h-.974l-3.307-7.792h1.116l2.678 6.169zm-3.064-6.169V139h-1.197v-7.792h1.197zM55.89 139v-7.792h1.198V139H55.89zm3.39 0v-7.792h1.196V139h-1.197zm.608-9.091a.85.85 0 01-.604-.238.767.767 0 01-.248-.574c0-.223.083-.414.248-.573a.85.85 0 01.604-.238c.233 0 .433.079.599.238.169.159.253.35.253.573a.76.76 0 01-.253.574.833.833 0 01-.6.238zm7.996 4.647v1.116h-4.302v-1.116h4.302zm-4.018-3.348V139h-1.197v-7.792h1.197zm4.931 0V139H67.6v-7.792h1.197zm3.384 6.027l3.754-6.027h1.38V139h-1.197v-6.027L72.383 139h-1.4v-7.792h1.197v6.027z" fill="#777575"/><path d="M7 200.285l22.666-.214 22.667-.072 45.321-.154 45.333.143 22.667.083 22.666.214-22.666.226-22.667.072-45.333.155-45.321-.155-22.666-.072L7 200.285z" fill="#EBEBEB"/><path d="M20.769 188.237v-10.389h6.27v1.116h-5.012v3.247h2.638c.744 0 1.371.121 1.882.365.514.243.903.587 1.167 1.03.267.443.4.965.4 1.567s-.133 1.133-.4 1.593c-.264.46-.653.82-1.167 1.081-.51.26-1.138.39-1.882.39h-3.896zm1.258-1.095h2.638c.473 0 .874-.095 1.202-.285a1.964 1.964 0 001.01-1.704c0-.497-.191-.925-.573-1.284-.383-.361-.929-.542-1.64-.542h-2.637v3.815zm7.996 1.095v-7.792h1.198v7.792h-1.198zm.61-9.091a.85.85 0 01-.605-.238.766.766 0 01-.248-.573c0-.223.083-.415.248-.573a.852.852 0 01.604-.239c.233 0 .433.08.599.239.169.158.253.35.253.573a.759.759 0 01-.253.573.833.833 0 01-.599.238zm2.09 9.091v-1.116h.285c.233 0 .427-.045.583-.137.155-.094.28-.258.375-.492.098-.237.173-.565.224-.984.054-.423.093-.96.116-1.613l.142-3.45h5.195v7.792h-1.197v-6.676h-2.861l-.122 2.78a12.618 12.618 0 01-.173 1.69c-.084.483-.214.889-.39 1.217a1.79 1.79 0 01-.69.741c-.288.165-.648.248-1.08.248h-.407zm9.117 0v-7.792h1.197v3.389h.791l2.8-3.389h1.543l-3.145 3.754 3.185 4.038H46.67l-2.557-3.287h-1.075v3.287H41.84zm8.87-1.765l3.754-6.027h1.38v7.792h-1.198v-6.026l-3.733 6.026h-1.4v-7.792h1.197v6.027z" fill="#777575"/><path d="M7 245.832l22.655-.214 22.666-.083 45.333-.155 45.333.155 22.655.071 22.666.226-22.666.215-22.655.083-45.333.143-45.333-.143-22.666-.083L7 245.832z" fill="#EBEBEB"/><path d="M26.917 225.348v10.389H25.66v-10.389h1.258zm-7.02 10.389l3.368-5.418-3.085-4.971h1.522l2.7 4.606h3.794l2.699-4.606h1.521l-3.104 4.992 3.368 5.397h-1.44l-2.821-4.606h-4.261l-2.841 4.606h-1.42zm15.467-1.765l3.754-6.027h1.38v7.792H39.3v-6.026l-3.734 6.026h-1.4v-7.792h1.197v6.027zm7.327 4.687v-10.714h1.156v1.238h.142c.088-.135.21-.308.366-.517.159-.214.385-.403.68-.569.297-.169.7-.253 1.207-.253.656 0 1.234.164 1.735.492.5.328.89.793 1.172 1.395.28.602.42 1.312.42 2.131 0 .825-.14 1.54-.42 2.145-.281.602-.67 1.069-1.167 1.401-.497.328-1.07.492-1.72.492-.5 0-.901-.083-1.202-.249a2.227 2.227 0 01-.695-.573 7.818 7.818 0 01-.376-.538h-.101v4.119H42.69zm1.177-6.818c0 .589.086 1.108.258 1.558.173.446.425.796.756 1.05.332.25.737.375 1.218.375.5 0 .918-.132 1.253-.396.338-.267.592-.625.76-1.075a4.22 4.22 0 00.26-1.512 4.1 4.1 0 00-.254-1.481 2.288 2.288 0 00-.756-1.05c-.335-.261-.756-.391-1.263-.391-.487 0-.897.124-1.228.371-.331.243-.582.585-.75 1.024-.17.437-.254.946-.254 1.527zm8.725 2.131l3.754-6.027h1.38v7.792H56.53v-6.026l-3.734 6.026h-1.4v-7.792h1.197v6.027z" fill="#777575"/><path d="M7 289.617l22.666-.214 22.667-.071 45.321-.155 45.333.155 22.667.071 22.666.214-22.666.226-22.667.072-45.333.155-45.321-.155-22.666-.072L7 289.617z" fill="#EBEBEB"/><path d="M21.96 281.272v-10.389h3.632c.723 0 1.32.125 1.79.375.47.247.82.58 1.05 1 .23.416.345.877.345 1.385 0 .446-.08.815-.238 1.106-.156.29-.362.52-.619.689-.254.17-.53.295-.827.376v.101c.318.021.638.132.959.335.321.203.59.494.807.873.216.379.324.842.324 1.39 0 .521-.118.989-.355 1.405-.237.416-.61.746-1.121.989-.51.244-1.175.365-1.994.365H21.96zm1.257-1.116h2.496c.822 0 1.405-.159 1.75-.476a1.53 1.53 0 00.523-1.167c0-.352-.09-.677-.269-.974a1.953 1.953 0 00-.766-.721c-.331-.182-.724-.274-1.177-.274h-2.557v3.612zm0-4.707h2.334a2.3 2.3 0 001.025-.224c.308-.148.551-.358.73-.629a1.66 1.66 0 00.274-.953 1.58 1.58 0 00-.477-1.162c-.318-.321-.822-.482-1.511-.482h-2.375v3.45zm8.642 8.746a2.61 2.61 0 01-.543-.051 1.424 1.424 0 01-.33-.092l.305-1.055c.29.075.548.102.771.081a.923.923 0 00.594-.299c.176-.176.336-.461.482-.857l.223-.609-2.882-7.833h1.3l2.15 6.21h.081l2.151-6.21h1.299l-3.308 8.929a3.384 3.384 0 01-.553.999 2.08 2.08 0 01-.766.594 2.37 2.37 0 01-.974.193zm11.99-10.715v1.116h-3.612v6.676H39.04v-7.792h4.81zm.402 7.792v-1.116h.285c.233 0 .427-.045.583-.137.155-.094.28-.258.375-.492.098-.236.173-.564.224-.984.054-.423.092-.96.116-1.613l.142-3.45h5.195v7.792h-1.197v-6.676h-2.861l-.122 2.78c-.027.64-.085 1.203-.173 1.69-.084.483-.214.889-.39 1.217a1.792 1.792 0 01-.69.741c-.288.166-.648.248-1.08.248h-.407zm12.384.163c-.751 0-1.399-.166-1.943-.497a3.338 3.338 0 01-1.253-1.401c-.291-.602-.437-1.302-.437-2.1s.146-1.501.437-2.11c.294-.612.703-1.089 1.227-1.431.528-.345 1.143-.517 1.847-.517.406 0 .806.067 1.202.203.396.135.756.355 1.08.659.325.301.584.7.777 1.197.193.498.289 1.11.289 1.837v.507h-6.006v-1.035h4.789c0-.439-.088-.832-.264-1.177a1.982 1.982 0 00-.74-.816c-.319-.2-.694-.3-1.127-.3-.477 0-.89.119-1.238.355-.345.234-.61.538-.796.914a2.678 2.678 0 00-.28 1.207v.69c0 .588.102 1.087.305 1.496.206.406.492.716.857.929.366.209.79.314 1.274.314.314 0 .598-.044.852-.132a1.82 1.82 0 00.664-.405c.186-.183.33-.41.432-.68l1.156.324a2.558 2.558 0 01-.613 1.035 2.973 2.973 0 01-1.066.69 3.936 3.936 0 01-1.425.244zm5.047-.163v-7.792h3.186c.839 0 1.505.19 1.999.568.494.379.74.88.74 1.502 0 .474-.14.841-.42 1.101-.281.257-.641.431-1.081.522.287.041.566.143.837.305.274.162.5.385.68.669.179.281.269.626.269 1.035 0 .399-.102.756-.305 1.071a2.092 2.092 0 01-.872.746c-.38.182-.832.273-1.36.273h-3.673zm1.137-1.095h2.536c.413 0 .736-.098.97-.295.232-.196.35-.463.35-.801 0-.403-.118-.719-.35-.949-.234-.233-.557-.35-.97-.35H62.82v2.395zm0-3.43h2.05c.32 0 .596-.044.826-.132.23-.091.406-.219.528-.385a.98.98 0 00.187-.599.883.883 0 00-.41-.771c-.275-.189-.652-.284-1.132-.284h-2.05v2.171zm10.05 4.688c-.703 0-1.32-.168-1.851-.502a3.415 3.415 0 01-1.238-1.406c-.294-.602-.441-1.305-.441-2.11 0-.812.147-1.52.441-2.126a3.408 3.408 0 011.238-1.41c.53-.335 1.148-.502 1.852-.502.703 0 1.319.167 1.846.502a3.36 3.36 0 011.238 1.41c.297.606.446 1.314.446 2.126 0 .805-.149 1.508-.446 2.11a3.368 3.368 0 01-1.238 1.406c-.527.334-1.143.502-1.846.502zm0-1.076c.535 0 .975-.137 1.32-.411.345-.274.6-.634.766-1.08a4.14 4.14 0 00.248-1.451 4.18 4.18 0 00-.249-1.456 2.457 2.457 0 00-.765-1.091c-.345-.277-.785-.416-1.32-.416-.534 0-.974.139-1.319.416-.344.278-.6.641-.766 1.091a4.18 4.18 0 00-.248 1.456c0 .521.083 1.004.248 1.451.166.446.422.806.766 1.08.346.274.785.411 1.32.411zm4.527 3.146v-3.349h.65c.158-.165.295-.345.41-.537a3.31 3.31 0 00.3-.685 6.37 6.37 0 00.223-.974c.06-.386.115-.851.162-1.395l.264-3.085h4.951v6.676h1.197v3.349h-1.197v-2.233h-5.763v2.233h-1.197zm2.009-3.349h3.754v-5.56H80.52l-.203 1.969c-.085.815-.19 1.527-.315 2.135-.125.609-.324 1.095-.598 1.456zm8.935-.649l3.754-6.027h1.38v7.792h-1.198v-6.026l-3.733 6.026h-1.4v-7.792h1.197v6.027z" fill="#777575"/><path d="M7 331.653l22.666-.227 22.667-.071 45.321-.155 45.333.155 22.667.071 22.666.227-22.666.214-22.667.083-45.333.143-45.321-.155-22.666-.071L7 331.653z" fill="#EBEBEB"/><path d="M21.96 314.68h1.5l3.532 8.624h.121l3.531-8.624h1.502v10.389h-1.177v-7.893h-.102l-3.246 7.893h-1.137l-3.246-7.893h-.102v7.893H21.96V314.68zm12.546 10.389v-7.792h1.197v7.792h-1.197zm.609-9.091a.85.85 0 01-.604-.238.766.766 0 01-.248-.573c0-.223.083-.414.248-.573a.852.852 0 01.604-.239c.233 0 .433.08.599.239.169.159.253.35.253.573a.759.759 0 01-.253.573.833.833 0 01-.6.238zm7.996 4.647v1.116H38.81v-1.116h4.302zm-4.018-3.348v7.792h-1.197v-7.792h1.197zm4.931 0v7.792h-1.197v-7.792h1.197zm5.454 7.955c-.751 0-1.399-.166-1.943-.497a3.339 3.339 0 01-1.253-1.401c-.291-.602-.436-1.302-.436-2.1s.145-1.501.436-2.11c.294-.612.703-1.089 1.228-1.431.527-.345 1.143-.517 1.846-.517.406 0 .807.067 1.202.203a2.98 2.98 0 011.081.659c.325.301.583.7.776 1.197.193.498.29 1.11.29 1.837v.507h-6.007v-1.035h4.789c0-.439-.088-.832-.264-1.177a1.982 1.982 0 00-.74-.816c-.319-.2-.694-.3-1.127-.3-.477 0-.89.119-1.238.355-.345.234-.61.538-.796.913a2.686 2.686 0 00-.28 1.208v.69c0 .588.102 1.087.305 1.496.206.406.492.716.858.929.365.209.79.314 1.273.314.314 0 .599-.044.852-.132a1.81 1.81 0 00.665-.406 1.84 1.84 0 00.43-.679l1.158.324a2.555 2.555 0 01-.614 1.035 3 3 0 01-1.066.69 3.937 3.937 0 01-1.425.244zm5.047 2.759v-10.714h1.157v1.238h.142c.088-.135.21-.308.365-.517a2.15 2.15 0 01.68-.569c.298-.169.7-.253 1.208-.253.656 0 1.234.164 1.735.492.5.328.89.793 1.171 1.395s.422 1.312.422 2.131c0 .825-.14 1.54-.422 2.145-.28.602-.67 1.069-1.166 1.401-.498.328-1.07.492-1.72.492-.5 0-.901-.083-1.202-.249a2.227 2.227 0 01-.695-.573 7.818 7.818 0 01-.376-.538h-.101v4.119h-1.197zm1.177-6.818c0 .589.087 1.108.26 1.558.172.446.424.796.755 1.05.331.25.737.375 1.218.375.5 0 .918-.132 1.253-.396.338-.267.591-.625.76-1.075.173-.453.26-.957.26-1.512a4.1 4.1 0 00-.254-1.481 2.289 2.289 0 00-.756-1.05c-.335-.261-.756-.391-1.263-.391-.487 0-.897.124-1.228.371-.331.243-.582.585-.75 1.024-.17.437-.255.946-.255 1.527zm9.822 4.079a3.17 3.17 0 01-1.345-.279 2.306 2.306 0 01-.958-.817c-.237-.358-.355-.791-.355-1.298 0-.447.087-.809.263-1.086a1.86 1.86 0 01.706-.66c.294-.159.618-.277.973-.355.359-.081.72-.145 1.081-.193.474-.06.857-.106 1.152-.136.297-.034.514-.09.649-.168.139-.078.208-.213.208-.406v-.04c0-.501-.137-.89-.41-1.167-.272-.277-.682-.416-1.234-.416-.571 0-1.02.125-1.344.375-.325.251-.553.518-.685.802l-1.136-.406c.203-.473.473-.842.811-1.106a3.047 3.047 0 011.116-.558 4.642 4.642 0 011.198-.162c.25 0 .537.03.862.091.328.058.644.178.949.36.308.183.563.458.766.827.203.369.304.863.304 1.481v5.134h-1.197v-1.055h-.06c-.082.169-.217.35-.407.543-.19.193-.441.357-.756.492-.314.135-.698.203-1.151.203zm.182-1.076c.474 0 .873-.093 1.198-.279a1.9 1.9 0 00.994-1.648v-1.096c-.05.061-.162.117-.335.167-.169.048-.365.09-.588.127-.22.034-.435.064-.645.092-.206.023-.373.043-.502.06a4.63 4.63 0 00-.872.198 1.507 1.507 0 00-.65.401c-.162.176-.243.416-.243.72 0 .416.154.731.461.944.312.21.706.314 1.182.314zm4.885.893v-1.116h.284c.233 0 .427-.045.583-.137.156-.094.28-.258.375-.492.098-.237.173-.565.224-.984.054-.423.093-.96.116-1.613l.142-3.45h5.195v7.792h-1.197v-6.676h-2.861l-.122 2.78a12.633 12.633 0 01-.173 1.69c-.084.483-.214.889-.39 1.217a1.792 1.792 0 01-.69.741c-.288.165-.648.248-1.08.248h-.406zm10.15-4.971h2.233c.913 0 1.611.231 2.095.695.483.463.725 1.05.725 1.76 0 .467-.108.891-.324 1.273a2.36 2.36 0 01-.954.909c-.42.223-.934.334-1.542.334h-3.267v-7.792h1.197v6.676h2.07c.473 0 .862-.125 1.166-.375a1.19 1.19 0 00.457-.964c0-.413-.152-.749-.456-1.01-.305-.26-.694-.39-1.167-.39h-2.232v-1.116zm12.09.527v1.116H88.53v-1.116h4.302zm-4.017-3.348v7.792h-1.197v-7.792h1.197zm4.931 0v7.792h-1.197v-7.792h1.197zm2.186 7.792v-7.792h1.198v7.792H95.93zm.61-9.091a.85.85 0 01-.605-.238.766.766 0 01-.248-.573c0-.223.083-.414.248-.573a.852.852 0 01.604-.239c.234 0 .433.08.599.239a.76.76 0 01.254.573.759.759 0 01-.254.573.833.833 0 01-.599.238zm9.964 9.254c-.731 0-1.36-.173-1.887-.518a3.37 3.37 0 01-1.218-1.425c-.284-.606-.426-1.297-.426-2.075 0-.792.145-1.49.436-2.095.295-.609.704-1.084 1.228-1.426.528-.345 1.143-.517 1.847-.517.547 0 1.041.101 1.481.304.44.203.8.487 1.08.852.281.366.455.792.523 1.279h-1.197c-.092-.355-.294-.67-.609-.944-.311-.277-.731-.416-1.258-.416-.467 0-.876.122-1.228.365-.348.241-.62.58-.817 1.02-.192.436-.289.949-.289 1.537 0 .602.095 1.126.284 1.573.193.446.464.793.812 1.04.352.247.764.37 1.238.37.311 0 .593-.054.847-.162a1.742 1.742 0 001.02-1.197h1.197c-.068.46-.235.874-.502 1.243a2.807 2.807 0 01-1.05.872c-.433.213-.937.32-1.512.32zm7.98 0c-.704 0-1.321-.168-1.852-.503-.528-.334-.94-.803-1.238-1.405-.294-.602-.441-1.305-.441-2.11 0-.812.147-1.52.441-2.126.298-.605.71-1.075 1.238-1.41.531-.335 1.148-.502 1.852-.502.703 0 1.319.167 1.846.502a3.36 3.36 0 011.238 1.41c.298.606.447 1.314.447 2.126 0 .805-.149 1.508-.447 2.11a3.358 3.358 0 01-1.238 1.405c-.527.335-1.143.503-1.846.503zm0-1.076c.534 0 .974-.137 1.319-.411.345-.274.6-.634.766-1.08.165-.447.248-.93.248-1.451s-.083-1.006-.248-1.456a2.46 2.46 0 00-.766-1.091c-.345-.277-.785-.416-1.319-.416-.535 0-.974.139-1.319.416a2.452 2.452 0 00-.766 1.091c-.166.45-.249.935-.249 1.456 0 .521.083 1.004.249 1.451.165.446.421.806.766 1.08.345.274.784.411 1.319.411zm4.668.913v-1.116h.284c.234 0 .428-.045.584-.137.155-.094.28-.258.375-.492.098-.237.173-.565.223-.984.054-.423.093-.96.117-1.613l.142-3.45h5.195v7.792h-1.197v-6.676h-2.862l-.121 2.78a12.594 12.594 0 01-.173 1.69c-.084.483-.215.889-.391 1.217a1.79 1.79 0 01-.689.741c-.288.165-.648.248-1.081.248h-.406zm9.116 0v-7.792h1.198v7.792h-1.198zm.609-9.091a.854.854 0 01-.604-.238.768.768 0 01-.248-.573c0-.223.083-.414.248-.573a.854.854 0 01.604-.239c.233 0 .433.08.599.239.169.159.253.35.253.573a.758.758 0 01-.253.573.835.835 0 01-.599.238z" fill="#777575"/><path d="M423.34 114H213.66c-5.887 0-10.66 4.773-10.66 10.66v201.258c0 5.888 4.773 10.66 10.66 10.66h209.68c5.887 0 10.66-4.772 10.66-10.66V124.66c0-5.887-4.773-10.66-10.66-10.66z" fill="#F9FAFC"/><path d="M372.15 146.484H266.406v2.42H372.15v-2.42zm-18.093 5.061H284.48v2.42h69.577v-2.42z" fill="#5DBD6D"/><path d="M350.942 205.194a16.424 16.424 0 01-7.313 2.131 16.357 16.357 0 01-7.474-1.411 16.883 16.883 0 01-6.112-4.666 17.599 17.599 0 01-3.502-6.968 17.944 17.944 0 01-.18-7.85 17.662 17.662 0 013.18-7.132 16.942 16.942 0 015.891-4.959 16.386 16.386 0 017.401-1.775v17.39l8.109 15.24z" fill="#263238"/><path d="M352.809 175.923l-9.975 14v-17.39a16.34 16.34 0 019.975 3.39z" fill="#5DBD6D"/><path d="M359.66 189.925c.006 4.368-1.587 8.576-4.461 11.779l-12.365-11.779 9.975-14a17.202 17.202 0 015.044 6.154 17.833 17.833 0 011.807 7.846z" fill="#A6A6A6"/><path d="M361.246 209.773a16.723 16.723 0 01-4.238 3.42l-8.098-15.24 12.336 11.82z" fill="#455A64"/><path d="M297.426 173.193l-4.615 16.73v17.39c-4.462 0-8.742-1.832-11.897-5.094-3.156-3.261-4.929-7.684-4.929-12.296 0-4.612 1.773-9.035 4.929-12.296 3.155-3.262 7.435-5.094 11.897-5.094 1.56.003 3.113.225 4.615.66z" fill="#A6A6A6"/><path d="M302.767 203.924a16.339 16.339 0 01-9.956 3.39v-17.39l9.956 14z" fill="#263238"/><path d="M309.598 189.924a17.799 17.799 0 01-1.809 7.848 17.186 17.186 0 01-5.051 6.152l-9.956-14 13.082-10.93c2.425 3.09 3.744 6.951 3.734 10.93z" fill="#455A64"/><path d="M309.598 173.363l-13.052 10.93 4.625-16.73c3.319.993 6.261 3.018 8.427 5.8z" fill="#5DBD6D"/><path d="M242.778 172.533v17.39l-11.33 12.85a17.523 17.523 0 01-5.042-8.868 17.945 17.945 0 01.689-10.262c1.225-3.27 3.379-6.081 6.178-8.064a16.447 16.447 0 019.505-3.046z" fill="#455A64"/><path d="M254.825 177.783l-12.046 12.14v-17.39a16.318 16.318 0 016.538 1.363 16.756 16.756 0 015.508 3.887z" fill="#5DBD6D"/><path d="M259.604 189.924a17.796 17.796 0 01-1.626 7.46 17.25 17.25 0 01-4.576 6.01l-10.643-13.47 12.046-12.14c3.074 3.243 4.797 7.601 4.799 12.14z" fill="#A6A6A6"/><path d="M253.403 207.953c-3.125 2.632-7.06 4.016-11.089 3.903-4.029-.114-7.884-1.719-10.865-4.523l11.33-12.85 10.624 13.47z" fill="#263238"/><path d="M392.866 172.533v34.78c-4.463 0-8.742-1.832-11.898-5.094-3.155-3.261-4.928-7.684-4.928-12.296 0-4.612 1.773-9.035 4.928-12.296 3.156-3.262 7.435-5.094 11.898-5.094z" fill="#5DBD6D"/><path d="M397.113 173.093l-4.247 16.83v-17.39c1.433.001 2.86.19 4.247.56z" fill="#263238"/><path d="M412.594 188.925a17.804 17.804 0 01-1.17 6.369l-15.655-6.369 4.247-16.83c3.602.973 6.791 3.152 9.066 6.198a17.778 17.778 0 013.512 10.632z" fill="#455A64"/><path d="M408.521 196.294c-1.243 3.243-3.4 6.026-6.191 7.987a16.466 16.466 0 01-9.464 3.013v-17.37l15.655 6.37z" fill="#A6A6A6"/><path d="M254.66 217.533h-19.641v1.95h19.641v-1.95zm-6.608 4.071h-13.033v1.949h13.033v-1.949z" fill="#5DBD6D"/><path d="M231.836 217.514h-5.883v6.08h5.883v-6.08z" fill="#455A64"/><path d="M304.693 217.533h-19.641v1.95h19.641v-1.95zm-6.608 4.071h-13.033v1.949h13.033v-1.949z" fill="#5DBD6D"/><path d="M281.868 217.514h-5.883v6.08h5.883v-6.08z" fill="#A6A6A6"/><path d="M354.725 217.533h-19.642v1.95h19.642v-1.95zm-6.609 4.071h-13.033v1.949h13.033v-1.949z" fill="#5DBD6D"/><path d="M331.9 217.514h-5.882v6.08h5.882v-6.08z" fill="#263238"/><path d="M404.757 217.533h-19.641v1.95h19.641v-1.95zm-6.608 4.071h-13.033v1.949h13.033v-1.949zm-16.216-4.09h-5.883v6.08h5.883v-6.08zm-157.277 24.45l45.475-.12c15.152 0 30.314 0 45.476.12-15.152.11-30.314.08-45.476.13l-45.475-.13zm0 3.829l45.475-.12c15.152 0 30.314 0 45.476.12-15.152.11-30.314.09-45.476.13l-45.475-.13zm0 3.84l45.475-.13c15.152.05 30.314 0 45.476.13-15.152.1-30.314.08-45.476.12l-45.475-.12zm0 3.83l45.475-.13c15.152.05 30.314 0 45.476.13-15.152.11-30.314.08-45.476.12l-45.475-.12zm0 3.83l45.475-.12c15.152 0 30.314 0 45.476.12-15.152.11-30.314.08-45.476.13l-45.475-.13zm0 3.83l45.475-.12c15.152 0 30.314 0 45.476.12-15.152.11-30.314.09-45.476.13l-45.475-.13zm0 3.839l45.475-.13c15.152.05 30.314 0 45.476.13-15.152.1-30.314.08-45.476.12l-45.475-.12zm0 3.831l45.475-.13c15.152.05 30.314 0 45.476.13-15.152.11-30.314.08-45.476.12l-45.475-.12zm0 3.831l45.475-.12c15.152 0 30.314 0 45.476.12-15.152.11-30.314.08-45.476.13l-45.475-.13zm0 3.829l45.475-.12c15.152 0 30.314 0 45.476.12-15.152.11-30.314.09-45.476.13l-45.475-.13zm0 3.84l45.475-.13c15.152.05 30.314 0 45.476.13-15.152.1-30.314.08-45.476.12l-45.475-.12zm0 3.83l45.475-.13c15.152 0 30.314 0 45.476.13-15.152.11-30.314.08-45.476.12l-45.475-.12zm0 3.83l45.475-.12c15.152 0 30.314 0 45.476.12-15.152.11-30.314.08-45.476.13l-45.475-.13zm0 3.83l45.475-.12c15.152 0 30.314 0 45.476.12-15.152.11-30.314.09-45.476.13l-45.475-.13zm0 3.84l45.475-.13c15.152 0 30.314 0 45.476.13-15.152.1-30.314.08-45.476.12l-45.475-.12z" fill="#5DBD6D"/><path d="M241.173 268.793h-6.899v31.3h6.899v-31.3z" fill="#5DBD6D"/><path d="M253.964 255.553h-6.899v44.529h6.899v-44.529z" fill="#455A64"/><path d="M266.755 265.093h-6.899v34.999h6.899v-34.999z" fill="#A6A6A6"/><path d="M279.546 253.463h-6.899v46.629h6.899v-46.629z" fill="#5DBD6D"/><path d="M292.337 259.713h-6.899v40.369h6.899v-40.369z" fill="#455A64"/><path d="M305.128 282.593h-6.899v17.5h6.899v-17.5z" fill="#A6A6A6"/><path d="M227.124 239.273l.184 15.21.135 15.2c.087 10.13.106 20.27.126 30.4l-.445-.46h22.118l22.118.06 22.109.15 22.118.28-22.118.27-22.109.15-22.118.06h-22.573v-.47c0-10.127.042-20.26.126-30.4l.126-15.2.203-15.25zm14.049 64.03h-6.899v.64h6.899v-.64zm12.791 0h-6.899v.64h6.899v-.64zm12.791 0h-6.899v.64h6.899v-.64zm12.791 0h-6.899v.64h6.899v-.64zm12.791 0h-6.899v.64h6.899v-.64zm12.791 0h-6.899v.64h6.899v-.64z" fill="#5DBD6D"/><path d="M412.042 256.103h-75.904v8.519h75.904v-8.519z" fill="#F0F0F0"/><path d="M372.257 258.523h-33.371v3.69h33.371v-3.69z" fill="#455A64"/><path d="M325.505 260.634a1.02 1.02 0 01-.246.723.957.957 0 01-.668.332.953.953 0 01-.7-.254 1.018 1.018 0 01-.321-.691 1.922 1.922 0 010-.24 2.57 2.57 0 01.135-.84c.097-.283.276-.527.513-.7.177-.117.381-.182.59-.19a.207.207 0 01.086.013.226.226 0 01.126.119.264.264 0 01.021.088.25.25 0 01-.061.163.233.233 0 01-.152.077.622.622 0 00-.368.11.728.728 0 00-.251.29l-.058.1a.952.952 0 011.064.205c.181.184.285.433.29.695zm-.435 0a.548.548 0 00-.153-.382.515.515 0 00-.739 0 .548.548 0 000 .763.512.512 0 00.739 0 .547.547 0 00.153-.381zm1.054-.441a1.835 1.835 0 01.271-1 .852.852 0 01.309-.327.814.814 0 01.853 0 .85.85 0 01.308.327c.186.297.277.646.262 1a1.78 1.78 0 01-.262 1 .847.847 0 01-.308.326.82.82 0 01-.853 0 .85.85 0 01-.309-.326 1.857 1.857 0 01-.271-1zm1.567 0a1.341 1.341 0 00-.193-.73.473.473 0 00-.368-.25.48.48 0 00-.217.079.514.514 0 00-.16.171 1.429 1.429 0 00-.184.73c-.003.256.06.508.184.73a.511.511 0 00.377.25.478.478 0 00.368-.25c.131-.219.198-.473.193-.73zm1.258-.731a.7.7 0 01.161-.533.656.656 0 01.492-.229.648.648 0 01.493.229.671.671 0 01.135.249.683.683 0 01.025.284.693.693 0 01-.396.671.639.639 0 01-.262.059.637.637 0 01-.476-.22.707.707 0 01-.172-.51zm.968 0a.388.388 0 00-.073-.274.36.36 0 00-.237-.145c-.184 0-.3.189-.3.409 0 .23.126.41.31.41s.242-.17.242-.4h.058zm-.503 1.92l1.819-2.57a.144.144 0 01.135-.069.154.154 0 01.155.16c.01.032.01.067 0 .099l-1.819 2.57a.164.164 0 01-.145.07.153.153 0 01-.11-.046.164.164 0 01-.045-.114.178.178 0 01-.048-.1h.058zm1.219-.45a.709.709 0 01.178-.51.656.656 0 01.48-.22.654.654 0 01.476.221.686.686 0 01.172.509.703.703 0 01-.161.534.656.656 0 01-.492.229.648.648 0 01-.493-.229.686.686 0 01-.16-.534zm.967 0c0-.23-.125-.41-.309-.41s-.291.18-.291.41c0 .24.126.42.3.42s.233-.16.233-.42h.067z" fill="#263238"/><path d="M412.042 243.593h-75.904v8.52h75.904v-8.52z" fill="#F0F0F0"/><path d="M355.344 246.014h-16.458v3.69h16.458v-3.69z" fill="#5DBD6D"/><path d="M325.079 247.373a1.008 1.008 0 01.296.72 1.008 1.008 0 01-.296.72.964.964 0 01-.697.3.953.953 0 01-.687-.3.245.245 0 010-.33.21.21 0 01.31 0 .517.517 0 00.377.16.514.514 0 00.387-.16.547.547 0 00.155-.39.527.527 0 00-.155-.39.515.515 0 00-.377-.16.196.196 0 01-.092-.02.21.21 0 01-.073-.06.24.24 0 01-.05-.075.252.252 0 010-.179.245.245 0 01.05-.076l.406-.43h-.648a.219.219 0 01-.157-.067.233.233 0 01-.065-.163.23.23 0 01.065-.162.216.216 0 01.157-.068h1.171c.059 0 .116.024.157.068a.23.23 0 01.065.162c.01.036.01.074 0 .11.003.02.003.04 0 .06l-.493.53c.074.056.14.123.194.2zm.967.311a1.768 1.768 0 01.271-1 .85.85 0 01.306-.334.81.81 0 01.859 0 .85.85 0 01.306.334c.18.3.271.647.261 1 .008.352-.083.699-.261 1a.867.867 0 01-.309.327.823.823 0 01-1.162-.327 1.81 1.81 0 01-.271-1zm1.568 0a1.342 1.342 0 00-.194-.73c-.116-.17-.242-.26-.367-.25a.446.446 0 00-.22.075.484.484 0 00-.158.175 1.449 1.449 0 00-.184.73c-.004.253.059.502.184.72a.466.466 0 00.378.26.464.464 0 00.367-.26c.116-.22.166-.47.145-.72h.049zm1.161-.73a.703.703 0 01.16-.533.648.648 0 01.763-.17.673.673 0 01.358.418.703.703 0 01.025.285.697.697 0 01-.396.671.663.663 0 01-.262.059.65.65 0 01-.477-.22.692.692 0 01-.171-.51zm.967 0c0-.23-.125-.42-.3-.42-.174 0-.299.19-.299.41 0 .23.125.41.309.41s.271-.16.271-.4h.019zm-.493 1.92l1.819-2.57a.154.154 0 01.135-.08c.041 0 .081.017.11.047.029.03.045.07.045.113a.15.15 0 010 .11l-1.819 2.57a.144.144 0 01-.058.054.14.14 0 01-.077.016.145.145 0 01-.059-.012.178.178 0 01-.051-.035.177.177 0 01-.033-.052.162.162 0 01-.012-.061.152.152 0 01-.019-.1h.019zm1.219-.45a.703.703 0 01.161-.533.648.648 0 01.762-.17.673.673 0 01.358.418.686.686 0 01.025.285.686.686 0 01-.16.533.657.657 0 01-.493.229.644.644 0 01-.492-.229.688.688 0 01-.161-.533zm.968 0c0-.23-.126-.42-.31-.42s-.3.19-.3.41a.387.387 0 00.073.274.363.363 0 00.237.146c.155 0 .271-.19.271-.41h.029z" fill="#263238"/><path d="M412.042 293.643h-75.904v8.519h75.904v-8.519z" fill="#F0F0F0"/><path d="M395.836 296.063h-56.95v3.69h56.95v-3.69z" fill="#5DBD6D"/><path d="M323.589 297.283a1.015 1.015 0 01.552-.955.941.941 0 011.065.162 1.012 1.012 0 01.318.693c.004.076.004.153 0 .23.003.286-.043.57-.136.84a1.395 1.395 0 01-.513.7 1.085 1.085 0 01-.59.2.22.22 0 01-.157-.068.23.23 0 01-.065-.162c0-.061.023-.12.065-.163a.219.219 0 01.157-.067.71.71 0 00.368-.11.8.8 0 00.251-.29.374.374 0 00.049-.11.788.788 0 01-.377.09.95.95 0 01-.694-.283 1.013 1.013 0 01-.293-.707zm.435 0c0 .143.055.28.153.382a.515.515 0 00.739 0 .551.551 0 000-.764.515.515 0 00-.739 0 .548.548 0 00-.153.382zm2.1.449a1.835 1.835 0 01.271-1 .843.843 0 01.306-.334.81.81 0 01.858 0c.13.08.236.196.306.334.186.297.277.647.262 1 .012.353-.079.701-.262 1a.829.829 0 01-1.47 0 1.896 1.896 0 01-.271-1zm1.567 0a1.324 1.324 0 00-.193-.73c-.116-.17-.242-.26-.368-.25-.126.01-.251.08-.377.25a1.51 1.51 0 000 1.45.498.498 0 00.377.26.469.469 0 00.368-.26c.132-.215.2-.466.193-.72zm1.258-.729a.703.703 0 01.161-.534.656.656 0 01.492-.229.648.648 0 01.493.229.686.686 0 01.16.534.683.683 0 01-.025.284.671.671 0 01-.358.418.648.648 0 01-.54 0 .688.688 0 01-.383-.702zm.968 0a.38.38 0 00-.074-.271.35.35 0 00-.236-.139c-.184 0-.3.18-.3.41 0 .24.126.42.31.42s.242-.23.242-.42h.058zm-.503 1.91l1.819-2.56a.147.147 0 01.057-.059.154.154 0 01.233.139c.01.035.01.074 0 .11l-1.819 2.57a.176.176 0 01-.145.07.154.154 0 01-.11-.047.163.163 0 01-.045-.113.214.214 0 01-.048-.11h.058zm1.219-.44a.703.703 0 01.178-.511.648.648 0 01.48-.219.643.643 0 01.473.216.703.703 0 01.175.504.7.7 0 01-.161.533.656.656 0 01-.492.229.648.648 0 01-.493-.229.671.671 0 01-.135-.249.683.683 0 01-.025-.284v.01zm.967 0c0-.23-.125-.42-.309-.42s-.291.19-.291.41c0 .23.126.42.3.42s.233-.19.233-.41h.067z" fill="#263238"/><path d="M412.042 281.134h-75.904v8.52h75.904v-8.52z" fill="#F0F0F0"/><path d="M390.069 283.543h-51.183v3.69h51.183v-3.69z" fill="#455A64"/><path d="M325.437 285.672c0 .266-.102.52-.284.708a.951.951 0 01-.684.292.951.951 0 01-.684-.292 1.017 1.017 0 01-.284-.708 1.028 1.028 0 01.426-.81.69.69 0 01.057-.89.648.648 0 01.466-.2c.174 0 .342.072.465.2a.691.691 0 01.057.89.992.992 0 01.33.345c.081.142.127.301.135.465zm-.436 0a.524.524 0 00-.316-.489.496.496 0 00-.559.115.534.534 0 00-.111.577.505.505 0 00.836.172.539.539 0 00.15-.375zm-.735-1.22a.231.231 0 00.13.22.216.216 0 00.246-.043.24.24 0 00.064-.118.23.23 0 00-.093-.239.216.216 0 00-.279.024.233.233 0 00-.068.156zm1.78.741a1.89 1.89 0 01.271-1 .86.86 0 01.309-.327.817.817 0 01.853 0 .86.86 0 01.309.327c.185.297.28.646.271 1 .011.354-.083.703-.271 1a.857.857 0 01-.306.334.81.81 0 01-.859 0 .857.857 0 01-.306-.334 1.857 1.857 0 01-.271-1zm1.568 0a1.38 1.38 0 00-.194-.73.458.458 0 00-.368-.25.485.485 0 00-.216.08.524.524 0 00-.161.17 1.472 1.472 0 00-.184.73c-.004.256.059.508.184.73a.51.51 0 00.377.25.457.457 0 00.368-.25c.143-.215.22-.47.223-.73h-.029zm1.238-.701a.692.692 0 01.383-.703.65.65 0 01.541 0 .669.669 0 01.358.418.721.721 0 01.025.285.688.688 0 01-.383.702.633.633 0 01-.541 0 .663.663 0 01-.358-.418.718.718 0 01-.025-.284zm.968 0c0-.23-.126-.42-.31-.42-.183 0-.3.19-.3.41 0 .23.126.42.31.42s.29-.19.29-.41h.01zm-.503 1.91l1.819-2.57a.14.14 0 01.135-.07c.021 0 .041.004.06.012.018.008.035.02.05.035a.149.149 0 01.033.052c.008.019.012.04.012.061.01.036.01.074 0 .11l-1.819 2.56a.172.172 0 01-.063.057.18.18 0 01-.082.023.152.152 0 01-.109-.047.161.161 0 01-.046-.113.227.227 0 010-.11h.01zm1.219-.45a.706.706 0 01.396-.678.658.658 0 01.262-.062c.09.001.178.021.26.059a.672.672 0 01.354.398c.029.087.041.18.034.273a.688.688 0 01-.396.671.655.655 0 01-.262.059.641.641 0 01-.479-.213.693.693 0 01-.179-.507h.01zm.968 0c0-.23-.126-.42-.31-.42s-.29.19-.29.41c0 .23.125.41.3.41.174 0 .28-.16.28-.4h.02z" fill="#263238"/><path d="M412.042 268.613h-75.904v8.52h75.904v-8.52z" fill="#F0F0F0"/><path d="M382.329 271.032h-43.443v3.69h43.443v-3.69z" fill="#5DBD6D"/><path d="M325.36 271.583l-.968 2.42a.196.196 0 01-.203.13h-.077a.226.226 0 01-.118-.125.235.235 0 01.002-.175l.851-2.1h-1.026a.211.211 0 01-.199-.143.212.212 0 01-.013-.087c0-.058.022-.114.062-.155a.207.207 0 01.15-.065h1.491v.13s.048.16.048.17zm.464 1.12a1.846 1.846 0 01.271-1 .917.917 0 01.745-.45.877.877 0 01.726.45c.188.296.282.646.271 1 .01.354-.085.703-.271 1a.877.877 0 01-.726.45.876.876 0 01-.427-.128.925.925 0 01-.318-.322 1.866 1.866 0 01-.271-1zm1.568 0a1.472 1.472 0 00-.184-.73.404.404 0 00-.595-.184.41.41 0 00-.15.184 1.466 1.466 0 000 1.46.402.402 0 00.15.183.393.393 0 00.445 0 .415.415 0 00.15-.183c.123-.222.187-.474.184-.73zm1.209-.72a.715.715 0 01.177-.514.686.686 0 01.481-.226c.09.001.178.021.26.059a.672.672 0 01.354.398.703.703 0 01.034.273.703.703 0 01-.16.533.647.647 0 01-.985 0 .692.692 0 01-.161-.533v.01zm.968 0c0-.23-.126-.42-.31-.42s-.29.19-.29.41c0 .23.125.42.3.42.174 0 .29-.2.29-.41h.01zm-.504 1.91l1.819-2.57a.164.164 0 01.059-.055.146.146 0 01.077-.015.166.166 0 01.164.16.17.17 0 010 .1l-1.819 2.57a.167.167 0 01-.063.055.167.167 0 01-.082.015.124.124 0 01-.057-.008.143.143 0 01-.049-.032.148.148 0 01-.039-.11.189.189 0 01-.019-.11h.009zm1.22-.45a.69.69 0 01.396-.671.639.639 0 01.262-.059.637.637 0 01.476.22.704.704 0 01.172.51.712.712 0 01-.171.513.663.663 0 01-.477.227.655.655 0 01-.491-.219.719.719 0 01-.177-.521h.01zm.967 0c0-.23-.126-.41-.3-.41s-.3.18-.3.41c0 .24.126.42.3.42s.281-.2.281-.42h.019z" fill="#263238"/><path d="M166 133.206c1.1.876 3.41 2.944 3.85 4.206 1.283-2.103 4.51-6.73 7.15-8.412m-11 50.618c1.1.876 3.41 2.944 3.85 4.206 1.283-2.103 4.51-6.73 7.15-8.412m-11 50.618c1.1.876 3.41 2.944 3.85 4.206 1.283-2.103 4.51-6.729 7.15-8.412m-11 50.618c1.1.876 3.41 2.944 3.85 4.206 1.283-2.103 4.51-6.729 7.15-8.412m-11 50.618c1.1.877 3.41 2.944 3.85 4.206 1.283-2.103 4.51-6.729 7.15-8.412" stroke="#5DBD6D" stroke-width="1.294" stroke-linecap="round" stroke-linejoin="round"/><rect x=".5" y=".5" width="444" height="395" rx="9.5" stroke="#ECEBEB"/></svg>