<svg width="705" height="481" fill="none" xmlns="http://www.w3.org/2000/svg"><path d="M466.533 425.014c91.974 0 166.533-6.048 166.533-13.507 0-7.46-74.559-13.507-166.533-13.507C374.559 398 300 404.047 300 411.507c0 7.459 74.559 13.507 166.533 13.507z" fill="url(#paint0_linear_1_1332)" fill-opacity=".2"/><path d="M255.403 371.652l50.149-.239 50.148-.077 100.287-.162 100.288.162 50.148.077 50.148.239-50.148.229-50.148.086-100.288.163-100.287-.163-50.148-.086-50.149-.229z" fill="#263238"/><path d="M557.47 58.465H403.09a15.758 15.758 0 00-11.108 4.734 15.782 15.782 0 00-4.507 11.212V392.51a15.796 15.796 0 004.517 11.194 15.766 15.766 0 0011.098 4.724h154.38a15.77 15.77 0 0011.107-4.72 15.801 15.801 0 004.527-11.198V74.41a15.796 15.796 0 00-9.605-14.688 15.765 15.765 0 00-6.029-1.257zm5.864 324.208c0 8.375-6.265 15.143-13.991 15.143H411.236c-7.745 0-14.01-6.768-14.01-15.143V86.447c0-17.055 6.265-17.887 14.01-17.887h27.696c1.614 0 2.923 1.826 2.923 4.092v.956c0 5.306 2.865 5.325 6.465 5.325h63.987c3.6 0 6.484 0 6.484-5.325v-.956c0-2.266 1.299-4.092 2.932-4.092h27.696c7.726 0 13.991 2.266 13.991 17.887l-.076 296.226z" fill="#263238"/><path d="M563.334 86.447v296.226c0 8.375-6.265 15.144-13.991 15.144H411.236c-7.745 0-14.01-6.769-14.01-15.144V86.447c0-17.055 6.265-17.886 14.01-17.886h27.696c1.614 0 2.922 1.825 2.922 4.091v.956c0 5.306 2.865 5.325 6.466 5.325h63.987c3.6 0 6.484 0 6.484-5.325v-.956c0-2.266 1.299-4.091 2.932-4.091h27.696c7.65 0 13.915 2.265 13.915 17.886z" fill="#fff"/><path d="M434.128 75.214c-.086.086-.181.172-.267.268l-.153.143a3.611 3.611 0 00-2.56-1.061 3.548 3.548 0 00-2.578 1.07l-.143-.152c-.096-.086-.182-.182-.268-.268.115-.096.22-.2.344-.296.224-.199.471-.369.735-.507a4.07 4.07 0 011.041-.354l.516-.067h.812c.326.037.647.114.955.23.22.083.434.182.64.296.218.127.425.27.62.43l.277.258.029.01z" fill="#fff"/><path d="M429.401 76.466l-.421-.411a3.041 3.041 0 013.32-.664c.37.154.705.38.988.664l-.43.42a2.418 2.418 0 00-1.719-.717 2.461 2.461 0 00-1.738.708z" fill="#fff"/><path d="M432.438 76.896l-.42.42a1.241 1.241 0 00-.884-.373 1.224 1.224 0 00-.883.374l-.42-.42a1.825 1.825 0 011.303-.545 1.826 1.826 0 011.304.544z" fill="#fff"/><path d="M431.511 77.7a.372.372 0 01-.372.373.384.384 0 01-.407-.218.385.385 0 01.243-.528.384.384 0 01.164-.01.374.374 0 01.372.383zm-23.445-1.683a1.1 1.1 0 011.311-1.068 1.096 1.096 0 01.863.856 1.103 1.103 0 01-1.057 1.321 1.098 1.098 0 01-1.117-1.109zm3.467.001a1.1 1.1 0 011.878-.765c.153.154.257.35.298.563a1.098 1.098 0 01-1.078 1.31 1.107 1.107 0 01-1.098-1.108zm3.467-.001a1.11 1.11 0 01.686-1.025 1.106 1.106 0 011.509.815 1.11 1.11 0 01-1.097 1.32 1.106 1.106 0 01-1.098-1.11zm3.466 0a1.11 1.11 0 01.686-1.025 1.106 1.106 0 011.509.815 1.103 1.103 0 01-1.097 1.32 1.108 1.108 0 01-1.098-1.11zm3.467 0a1.11 1.11 0 01.686-1.025 1.106 1.106 0 011.509.815 1.11 1.11 0 01-1.097 1.32 1.106 1.106 0 01-1.098-1.11zm128.947 2.409h-8.948v-4.158h8.967l-.019 4.158zm-8.509-.459h8.051v-3.24h-8.051v3.24z" fill="#fff"/><path d="M548.435 74.975h-5.778v2.743h5.778v-2.743zm3.239.258h-.793v2.228h.793v-2.228zm-62.66-2.906h-17.448a1.07 1.07 0 01-1.08-1.08 1.082 1.082 0 011.08-1.081h17.448a1.088 1.088 0 011.079 1.08 1.082 1.082 0 01-1.079 1.08z" fill="#fff"/><path d="M425.304 170.25a6.88 6.88 0 017.624-6.678 6.879 6.879 0 013.473 1.41 1.071 1.071 0 01.21 1.511 1.09 1.09 0 01-1.509.162 4.844 4.844 0 00-2.932-1.003 4.634 4.634 0 00-3.352 1.357 4.422 4.422 0 000 6.444 4.634 4.634 0 003.352 1.357 5.083 5.083 0 002.541-.707v-2.553h-2.608a1.067 1.067 0 01-1.06-1.061 1.068 1.068 0 01.315-.741 1.047 1.047 0 01.745-.301h3.696a1.038 1.038 0 01.758.294 1.067 1.067 0 01.322.748v4.111a1.458 1.458 0 01-.058.315v.096a.817.817 0 01-.353.449 6.848 6.848 0 01-4.212 1.453 6.75 6.75 0 01-4.868-1.876 6.784 6.784 0 01-2.084-4.787zm14.87 2.027a4.604 4.604 0 014.536-4.656 4.45 4.45 0 013.119 1.247 4.46 4.46 0 011.361 3.074v.096a.49.49 0 010 .162.895.895 0 01-.955.746h-5.912c.084.464.303.894.63 1.233.479.48 1.111.775 1.786.832a3.012 3.012 0 001.91-.459 1.05 1.05 0 011.395-.057.834.834 0 01.253.602.838.838 0 01-.253.602 4.666 4.666 0 01-3.324 1.234 4.618 4.618 0 01-4.546-4.656zm2.025-.956h5.262a3.056 3.056 0 00-2.751-1.979 2.597 2.597 0 00-2.511 2.027v-.048zm13.389-2.677a1.05 1.05 0 01-1.041 1.033h-.477v5.191a1.02 1.02 0 01.732.303 1.01 1.01 0 01.29.739 1.002 1.002 0 01-.628.95 1.002 1.002 0 01-.394.073 2.083 2.083 0 01-2.063-2.065v-5.191h-.535a1.021 1.021 0 01-1.022-1.033 1.002 1.002 0 01.628-.95c.125-.051.259-.075.394-.073h.535v-2.696a1.03 1.03 0 011.041-1.022 1.002 1.002 0 011.022 1.022v2.696h.468a1.043 1.043 0 011.05 1.023zm10.897-3.346a1.018 1.018 0 01-.287.723 1.007 1.007 0 01-.716.3 1.02 1.02 0 01-1.012-1.023v-.392a1 1 0 011.012-.956.965.965 0 01.706.263.952.952 0 01.297.693v.392zm0 3.365v7.266a.953.953 0 01-.279.725.953.953 0 01-.724.279 1.009 1.009 0 01-.715-.291.997.997 0 01-.297-.713v-7.266a.95.95 0 011.012-1.022.947.947 0 01.732.285.95.95 0 01.271.737zm10.926 2.829v4.455a.956.956 0 01-.955.956 1.009 1.009 0 01-.955-.956v-4.455a1.915 1.915 0 00-1.91-1.912 1.844 1.844 0 00-1.369.543 1.852 1.852 0 00-.541 1.369v4.455a.374.374 0 010 .182 1.015 1.015 0 01-.955.803.956.956 0 01-.955-.956v-7.333a.958.958 0 01.955-.956.961.961 0 01.955.584 3.741 3.741 0 011.976-.584 3.9 3.9 0 013.754 3.805zm13.408-2.848a1.054 1.054 0 01-1.041 1.033h-.468v5.191a1.03 1.03 0 01.729 1.762 1.028 1.028 0 01-.729.303 2.083 2.083 0 01-2.063-2.065v-5.191h-.535a1.021 1.021 0 01-1.022-1.033 1.022 1.022 0 01.297-.726 1.01 1.01 0 01.725-.297h.535v-2.696a1.03 1.03 0 011.041-1.022 1.002 1.002 0 011.022 1.022v2.696h.468a1.047 1.047 0 01.732.296 1.027 1.027 0 01.309.727zm3.839 6.93a4.654 4.654 0 01-1.289-3.279 4.78 4.78 0 011.289-3.24 4.318 4.318 0 013.19-1.415 4.133 4.133 0 013.113 1.415 4.696 4.696 0 011.299 3.259 4.544 4.544 0 01-1.299 3.28 4.158 4.158 0 01-3.113 1.414 4.335 4.335 0 01-3.19-1.434zm.745-3.279a2.975 2.975 0 00.668 1.97 2.492 2.492 0 001.777.688 2.434 2.434 0 001.719-.688 2.872 2.872 0 00.726-1.97 2.806 2.806 0 00-.726-1.912 2.627 2.627 0 00-1.719-.707 2.682 2.682 0 00-1.777.707 2.874 2.874 0 00-.668 1.912zm13.409 4.637a3.89 3.89 0 01-3.82-3.871v-4.446a1.009 1.009 0 01.955-.956.955.955 0 01.955.956v4.446a1.914 1.914 0 001.91 1.912 1.91 1.91 0 001.91-1.912v-4.446a.953.953 0 01.955-.956 1.04 1.04 0 011.012.956v4.446a3.924 3.924 0 01-3.877 3.871zm7.066-4.636a4.786 4.786 0 011.419-3.296 4.773 4.773 0 013.309-1.379 4.899 4.899 0 012.951 1.023 1.021 1.021 0 01.229 1.367.953.953 0 01-1.394.191 2.964 2.964 0 00-1.767-.592 2.666 2.666 0 000 5.334 3.01 3.01 0 001.767-.593c.214-.153.479-.217.739-.177.261.039.496.178.655.388a1.031 1.031 0 01-.21 1.376 5.124 5.124 0 01-2.951.956 4.714 4.714 0 01-4.747-4.598zm13.343 3.614a1.05 1.05 0 01-.309.727 1.037 1.037 0 01-.732.296 1.058 1.058 0 01-.955-.765 1.851 1.851 0 010-.258v-10.985a1.003 1.003 0 01.296-.726 1.01 1.01 0 01.725-.297 1.037 1.037 0 01.959.629c.053.125.081.259.082.394v3.241a4.227 4.227 0 011.987-.545 4.052 4.052 0 012.871 1.2 4.059 4.059 0 011.178 2.882v4.207a1.022 1.022 0 11-2.044 0v-4.207a1.997 1.997 0 10-3.992 0l-.066 4.207z" fill="#A6A6A6"/><path d="M546.449 187.496H414.111v131.785h132.338V187.496z" fill="#fff"/><path d="M546.449 319.281l-132.338.057h-.057v-.057l-.096-131.785v-.124h.115l132.337.057h.067v.067l-.028 131.785zm0 0l-.058-131.785.058.058-132.338.057.124-.115-.057 131.785-.067-.057 132.338.057z" fill="#DBDBDB"/><path d="M426.536 203.958a.311.311 0 01-.092.223.307.307 0 01-.223.093.307.307 0 01-.223-.093.32.32 0 01-.092-.223v-3.355a.32.32 0 01.133-.259.31.31 0 01.109-.054.288.288 0 01.234.037.29.29 0 01.087.084l1.815 2.582v-2.39a.315.315 0 11.63 0v3.336a.317.317 0 01-.208.292.317.317 0 01-.346-.091l-1.824-2.581v2.399zm6.16-1.108v1.118a.31.31 0 01-.089.217.308.308 0 01-.41.02.292.292 0 01-.102-.179 1.258 1.258 0 01-.764.248 1.351 1.351 0 01-.955-.42 1.519 1.519 0 010-2.018 1.323 1.323 0 011.747-.181.299.299 0 01.296-.249.307.307 0 01.306.306l-.029 1.138zm-.611 0a.847.847 0 00-.22-.593.688.688 0 00-.534-.239.662.662 0 00-.535.239.804.804 0 00-.22.593.815.815 0 00.22.583.684.684 0 00.535.229.727.727 0 00.534-.229.859.859 0 00.239-.583h-.019zm4.135-.258v1.377a.306.306 0 01-.305.306.317.317 0 01-.315-.306v-1.377a.583.583 0 00-1.166 0v1.357a.325.325 0 01-.286.182h-.057a.326.326 0 01-.249-.306v-2.103c0-.081.032-.159.09-.216a.303.303 0 01.216-.09.286.286 0 01.277.172c.184-.113.395-.173.611-.172a1.198 1.198 0 01.955.392 1.164 1.164 0 01.898-.392 1.19 1.19 0 011.105.744c.06.146.09.303.089.461v1.357a.307.307 0 01-.612 0v-1.367a.595.595 0 00-.587-.518.593.593 0 00-.587.518l-.077-.019zm2.855.248a1.425 1.425 0 01.4-1.006 1.429 1.429 0 01.994-.428 1.369 1.369 0 011.385 1.329v.086a.288.288 0 01-.305.23h-1.805c.029.141.099.27.2.373a.795.795 0 00.544.258.895.895 0 00.602-.144.326.326 0 01.43 0 .265.265 0 01.059.085.273.273 0 010 .203.265.265 0 01-.059.085 1.445 1.445 0 01-1.032.373 1.396 1.396 0 01-1.009-.425 1.413 1.413 0 01-.404-1.019zm.621-.277h1.623a.95.95 0 00-.85-.612.804.804 0 00-.725.612h-.048z" fill="#A6A6A6"/><path opacity=".2" d="M535.256 207.764H425.304v9.263h109.952v-9.263z" fill="#5DBD6D"/><path d="M425.906 229.044v-3.393a.322.322 0 01.021-.123.313.313 0 01.172-.172.317.317 0 01.122-.021h1.91a.326.326 0 01.325.316.326.326 0 01-.325.325h-1.547v1.051h1.337a.315.315 0 110 .631h-1.337v1.061h1.547a.315.315 0 01.14.007.319.319 0 01.21.176.326.326 0 01-.35.458h-1.853a.321.321 0 01-.261-.069.324.324 0 01-.111-.247zm5.739-1.367v1.367a.315.315 0 01-.305.306.32.32 0 01-.217-.092.323.323 0 01-.099-.214v-1.367a.584.584 0 00-1.165 0v1.367a.336.336 0 01-.286.182h-.057a.307.307 0 01-.249-.297v-2.256a.307.307 0 01.306-.315.298.298 0 01.277.172c.188-.111.402-.17.621-.172a1.193 1.193 0 01.897.401 1.174 1.174 0 01.898-.401 1.201 1.201 0 011.194 1.204v1.367a.307.307 0 01-.306.306.312.312 0 01-.305-.306v-1.367a.596.596 0 00-.588-.517.592.592 0 00-.587.517l-.029.115zm5.483.248v1.128a.307.307 0 01-.306.306.325.325 0 01-.296-.249 1.315 1.315 0 01-1.738-.172 1.473 1.473 0 01-.392-1.013 1.452 1.452 0 01.392-1.013 1.327 1.327 0 01.955-.431c.276.001.544.092.764.259a.327.327 0 01.296-.259.306.306 0 01.219.093.313.313 0 01.086.223l.02 1.128zm-.612 0a.868.868 0 00-.219-.593.725.725 0 00-.829-.178.704.704 0 00-.241.178.874.874 0 00-.22.593.896.896 0 00.22.593.715.715 0 00.535.22.741.741 0 00.535-.22.89.89 0 00.219-.593zm2.359-2.161a.307.307 0 01-.306.316.315.315 0 01-.315-.316v-.124a.301.301 0 01.093-.22.307.307 0 01.222-.086.307.307 0 01.306.306v.124zm0 1.042v2.237a.307.307 0 01-.427.292.32.32 0 01-.17-.171.311.311 0 01-.024-.121v-2.237a.324.324 0 01.092-.223.32.32 0 01.223-.092.301.301 0 01.22.093.312.312 0 01.086.222zm1.222-1.471a.326.326 0 01.325.315v3.394a.32.32 0 01-.111.193.32.32 0 01-.418 0 .325.325 0 01-.111-.193v-3.394a.315.315 0 01.315-.315zm5.224 2.59v1.128a.306.306 0 01-.305.306.325.325 0 01-.296-.249 1.315 1.315 0 01-1.738-.172 1.473 1.473 0 01-.392-1.013 1.452 1.452 0 01.392-1.013 1.327 1.327 0 01.955-.431c.275.001.544.092.764.259a.327.327 0 01.296-.259.306.306 0 01.219.093.313.313 0 01.086.223l.019 1.128zm-.611 0a.871.871 0 00-.191-.554.738.738 0 00-.828-.179.676.676 0 00-.241.179.867.867 0 00-.22.592.886.886 0 00.22.593.705.705 0 00.534.22.757.757 0 00.535-.22.888.888 0 00.191-.631zm4.336 1.119a.307.307 0 01-.272.34.31.31 0 01-.339-.273 1.462 1.462 0 01-.784.249 1.444 1.444 0 010-2.868c.276.004.544.087.774.239v-1.081a.317.317 0 01.31-.26.317.317 0 01.311.26v3.394zm-1.395-1.912a.77.77 0 00-.544.23.82.82 0 00-.229.583c0 .213.082.419.229.573a.756.756 0 00.835.17.74.74 0 00.244-.17.84.84 0 00.239-.573.83.83 0 00-.239-.583.74.74 0 00-.535-.249v.019zm4.346-.344a.286.286 0 01-.083.216.304.304 0 01-.213.09.52.52 0 00-.344.105.832.832 0 00-.267.277 1.595 1.595 0 00-.239.488v1.09a.311.311 0 01-.108.186.315.315 0 01-.513-.186v-2.266a.317.317 0 01.311-.261.317.317 0 01.31.261l.124-.115c.214-.146.467-.223.726-.22a.305.305 0 01.224.1.293.293 0 01.072.235zm.267 1.128a1.428 1.428 0 011.404-1.434 1.349 1.349 0 01.965.384 1.37 1.37 0 01.41.954v.076a.285.285 0 01-.296.23h-1.833a.777.777 0 00.2.382.954.954 0 001.146.115.328.328 0 01.43 0 .265.265 0 01.059.085.271.271 0 010 .203.265.265 0 01-.059.085 1.44 1.44 0 01-1.022.382 1.418 1.418 0 01-1.308-.91 1.428 1.428 0 01-.096-.552zm.621-.278h1.633a.964.964 0 00-.334-.433.967.967 0 00-.516-.179.812.812 0 00-.783.612zm2.942.899a.287.287 0 01.204-.117.305.305 0 01.226.069c.175.153.398.241.63.249a.797.797 0 00.392-.106.23.23 0 00.095-.172.11.11 0 000-.057.189.189 0 00-.076-.067 1.368 1.368 0 00-.459-.162 2.393 2.393 0 01-.496-.153.948.948 0 01-.401-.335.735.735 0 01-.096-.363.812.812 0 01.344-.631c.206-.138.449-.211.697-.211.315.013.619.123.869.316a.323.323 0 01.086.43.304.304 0 01-.42.077.956.956 0 00-.535-.211.601.601 0 00-.344.105.17.17 0 00-.057.053.169.169 0 00-.029.072.066.066 0 000 .048.134.134 0 00.067.057c.129.076.272.125.42.143.186.033.366.091.535.172a.848.848 0 01.401.335.691.691 0 01.115.382.844.844 0 01-.363.67c-.22.149-.479.229-.745.229a1.695 1.695 0 01-1.022-.402.295.295 0 01-.038-.42zm2.76 0a.287.287 0 01.204-.117.305.305 0 01.226.069c.177.15.398.238.63.249a.734.734 0 00.392-.106.213.213 0 00.073-.073.231.231 0 00.032-.099.11.11 0 000-.057l-.077-.067a1.225 1.225 0 00-.458-.162 2.614 2.614 0 01-.506-.153.964.964 0 01-.392-.335.636.636 0 01-.095-.363.798.798 0 01.334-.631c.209-.139.455-.212.707-.211.312.011.614.121.859.316a.315.315 0 01.096.43.315.315 0 01-.43.077.957.957 0 00-.525-.211.601.601 0 00-.344.105c-.077.048-.096.096-.096.125v.048a.127.127 0 00.023.034 1.157 1.157 0 00.455.166c.186.031.366.089.535.172a.868.868 0 01.41.335.767.767 0 01.105.382.83.83 0 01-.363.67 1.276 1.276 0 01-.745.229 1.697 1.697 0 01-1.021-.401.308.308 0 01-.029-.421z" fill="#A6A6A6"/><path opacity=".2" d="M535.256 232.84H425.304v9.263h109.952v-9.263z" fill="#5DBD6D"/><path d="M428.705 250.955l-1.185 1.616v1.568a.302.302 0 01-.193.294.314.314 0 01-.122.021.316.316 0 01-.315-.315v-1.549l-1.165-1.616a.304.304 0 01.067-.439.3.3 0 01.108-.055.293.293 0 01.322.121l.955 1.348.955-1.348a.3.3 0 01.328-.121c.04.01.078.029.111.055a.315.315 0 01.134.42zm.237 3.06a1.434 1.434 0 01-.401-1.014c.004-.373.147-.731.401-1.003a1.354 1.354 0 01.955-.431 1.25 1.25 0 01.955.431 1.458 1.458 0 01.309 1.552 1.412 1.412 0 01-.309.465 1.253 1.253 0 01-.955.44 1.367 1.367 0 01-.522-.123 1.37 1.37 0 01-.433-.317zm.229-1.014a.958.958 0 00.201.612.744.744 0 00.554.211.725.725 0 00.525-.211.896.896 0 00.229-.612.86.86 0 00-.229-.592.806.806 0 00-.525-.22.849.849 0 00-.554.22.96.96 0 00-.201.592zm4.136 1.434a1.193 1.193 0 01-1.194-1.195v-1.376a.305.305 0 01.306-.306.306.306 0 01.305.306v1.376a.584.584 0 00.583.583.597.597 0 00.553-.357.603.603 0 00.049-.226v-1.376a.296.296 0 01.296-.297.327.327 0 01.315.297v1.376a1.212 1.212 0 01-1.213 1.195zm4.145-2.572a.303.303 0 01-.09.216.303.303 0 01-.216.09.572.572 0 00-.344.115.851.851 0 00-.257.267c-.104.15-.185.314-.239.488v1.099a.314.314 0 01-.311.261.314.314 0 01-.31-.261v-2.265a.314.314 0 01.31-.261.313.313 0 01.311.261v.047a.672.672 0 01.124-.114c.209-.15.459-.23.716-.23a.294.294 0 01.212.08.298.298 0 01.094.207zm4.88.89v1.386a.31.31 0 01-.089.217.308.308 0 01-.217.089.316.316 0 01-.315-.306v-1.376a.569.569 0 00-.177-.41.585.585 0 00-.824.014.585.585 0 00-.164.415v1.415a.327.327 0 01-.286.181h-.058a.316.316 0 01-.175-.111.321.321 0 01-.073-.195v-2.246a.307.307 0 01.306-.306.288.288 0 01.277.172c.183-.114.395-.174.611-.172a1.192 1.192 0 01.907.392 1.164 1.164 0 01.898-.392 1.19 1.19 0 011.106.744c.059.146.089.303.088.46v1.415a.306.306 0 11-.612 0v-1.357a.592.592 0 00-1.174 0l-.029-.029zm2.856.248c-.003-.185.031-.37.1-.542a1.424 1.424 0 011.294-.892 1.38 1.38 0 011.385 1.329v.077a.277.277 0 01-.306.229h-1.824a.742.742 0 00.201.383c.143.15.337.242.544.258a.898.898 0 00.602-.144.335.335 0 01.429 0 .265.265 0 01.08.187.265.265 0 01-.08.186 1.474 1.474 0 01-1.031.383 1.425 1.425 0 01-1.3-.905 1.409 1.409 0 01-.094-.549zm.62-.286h1.624a.956.956 0 00-.85-.603.802.802 0 00-.774.603zm2.932.898a.292.292 0 01.091-.077.292.292 0 01.114-.036.298.298 0 01.225.065c.176.152.398.243.63.258.139 0 .275-.04.392-.115a.218.218 0 00.105-.172.11.11 0 000-.057l-.076-.067a1.256 1.256 0 00-.459-.163 2.073 2.073 0 01-.506-.143 1.016 1.016 0 01-.392-.335.67.67 0 01-.095-.363.784.784 0 01.334-.631c.207-.143.455-.217.707-.21.314.006.616.117.859.315a.312.312 0 01.083.083.307.307 0 01-.001.333.312.312 0 01-.083.083.328.328 0 01-.108.044.329.329 0 01-.117 0 .304.304 0 01-.108-.046 1.022 1.022 0 00-.525-.21.594.594 0 00-.409.16.174.174 0 00-.03.079.053.053 0 00-.006.024c0 .008.002.016.006.024l.057.057c.13.071.273.116.42.134.185.028.366.083.535.163a.89.89 0 01.411.344.749.749 0 01.105.373.827.827 0 01-.363.669 1.28 1.28 0 01-.745.229 1.64 1.64 0 01-1.022-.392.312.312 0 01-.029-.42zm2.77 0a.292.292 0 01.091-.077.3.3 0 01.339.029c.174.156.396.247.63.258a.784.784 0 00.391-.115.232.232 0 00.071-.075.235.235 0 00.034-.097.092.092 0 000-.057.286.286 0 00-.076-.067 1.245 1.245 0 00-.458-.163 2.095 2.095 0 01-.497-.143 1.025 1.025 0 01-.401-.335.768.768 0 01-.096-.363.808.808 0 01.344-.631c.207-.143.455-.217.707-.21.313.008.615.119.859.315a.305.305 0 01.003.505.3.3 0 01-.229.041.294.294 0 01-.108-.049 1.022 1.022 0 00-.525-.21.571.571 0 00-.344.105.182.182 0 00-.065.055.174.174 0 00-.03.079.079.079 0 000 .048l.066.057c.13.072.273.118.421.134.185.03.365.084.535.163.166.07.306.19.401.344.074.11.114.24.114.373a.826.826 0 01-.363.669 1.31 1.31 0 01-.745.229 1.637 1.637 0 01-1.021-.392.312.312 0 01-.048-.42zm5.424-.611v1.137a.31.31 0 01-.089.217.308.308 0 01-.411.02.302.302 0 01-.102-.179c-.22.164-.489.251-.764.248a1.332 1.332 0 01-.955-.42 1.46 1.46 0 01-.391-1.014 1.433 1.433 0 01.391-1.004 1.305 1.305 0 01.955-.43c.275.002.541.089.764.249a.304.304 0 01.102-.18.305.305 0 01.5.237v1.119zm-.611 0a.872.872 0 00-.22-.593.729.729 0 00-.535-.23.698.698 0 00-.534.23.952.952 0 000 1.185.715.715 0 00.534.23.765.765 0 00.535-.23.87.87 0 00.182-.592h.038zm4.431.019v1.061a1.386 1.386 0 01-1.375 1.386 1.431 1.431 0 01-.602-.143.316.316 0 01-.156-.182.314.314 0 01.023-.239.307.307 0 01.41-.143.64.64 0 00.325.086.772.772 0 00.755-.622 1.263 1.263 0 01-1.278.118 1.327 1.327 0 01-.432-.318 1.444 1.444 0 01-.401-1.014c.001-.379.144-.744.401-1.023a1.34 1.34 0 01.955-.42c.277-.004.548.079.774.239a.295.295 0 01.305-.239.296.296 0 01.296.296v1.157zm-.611 0a.885.885 0 00-.219-.583.688.688 0 00-.545-.249.675.675 0 00-.525.249.87.87 0 000 1.176.698.698 0 00.525.239.727.727 0 00.545-.239.903.903 0 00.248-.603l-.029.01zm1.662-.02a1.425 1.425 0 011.404-1.434 1.378 1.378 0 011.366 1.329.267.267 0 01-.296.23h-1.824c.024.143.09.277.191.382a.958.958 0 001.146.115.332.332 0 01.429 0 .237.237 0 01.059.085.25.25 0 010 .203.237.237 0 01-.059.085 1.443 1.443 0 01-1.021.382 1.423 1.423 0 01-1.395-1.377zm.631-.286h1.623a.956.956 0 00-.85-.603.792.792 0 00-.773.603z" fill="#A6A6A6"/><path opacity=".2" d="M535.256 257.925H425.304v47.274h109.952v-47.274z" fill="#5DBD6D"/><path d="M481.765 143.807a9.566 9.566 0 01-1.623-5.258c0-6.692 7.306-12.046 16.302-12.046 8.996 0 16.293 5.392 16.293 12.046 0 6.653-7.297 12.045-16.293 12.045a19.569 19.569 0 01-11.241-3.327l-5.615 1.425 2.177-4.885z" fill="#5DBD6D"/><g filter="url(#filter0_b_1_1332)"><path d="M493.987 131.02a11.84 11.84 0 002.025-6.548c0-8.289-9.101-15.019-20.313-15.019-11.212 0-20.314 6.692-20.314 15.019s9.092 15.019 20.314 15.019a24.418 24.418 0 0014.01-4.14l7 1.778-2.722-6.109z" fill="#DFF2E2"/></g><path d="M493.987 131.02a11.953 11.953 0 001.91-6.195 11.559 11.559 0 00-1.709-6.214 18.472 18.472 0 00-10.267-7.591 27.121 27.121 0 00-12.883-.841 21.316 21.316 0 00-11.46 5.641 13.304 13.304 0 00-3.352 5.401 10.886 10.886 0 00-.086 6.3 13.382 13.382 0 003.266 5.468 19.087 19.087 0 005.243 3.748 23.657 23.657 0 006.169 2.007c2.14.405 4.32.552 6.495.44a23.904 23.904 0 0012.272-3.977h.133l6.982 1.912-.096.105-2.617-6.204zm0 0l2.789 6.071.067.143h-.153l-7.019-1.702h.133a24.219 24.219 0 01-12.415 4.226 26.068 26.068 0 01-12.988-2.495 19.509 19.509 0 01-5.434-3.824 13.927 13.927 0 01-3.458-5.736 11.49 11.49 0 01.067-6.692 14.008 14.008 0 013.543-5.679 19.714 19.714 0 015.482-3.824 23.978 23.978 0 016.361-1.979 28.05 28.05 0 016.637-.325c2.213.171 4.397.611 6.504 1.31a21.346 21.346 0 015.911 3.03 15.83 15.83 0 014.47 4.885 11.628 11.628 0 01-.497 12.562v.029z" fill="#E6F9E6"/><path d="M508.591 333.104h-56.613v17.18h56.613v-17.18z" fill="#5DBD6D"/><path d="M466.981 343.42a.592.592 0 01.831-.077 3.708 3.708 0 002.187.88 2.502 2.502 0 001.433-.421 1.025 1.025 0 00.496-.822.673.673 0 00-.105-.373 1.047 1.047 0 00-.344-.344 4.557 4.557 0 00-1.566-.536 6.009 6.009 0 01-1.47-.449 2.388 2.388 0 01-1.07-.889 1.791 1.791 0 01-.268-.956 2.118 2.118 0 01.955-1.673 3.396 3.396 0 011.987-.602 4.44 4.44 0 012.493.956.591.591 0 01-.259.97.59.59 0 01-.391-.014 3.294 3.294 0 00-1.843-.736 2.163 2.163 0 00-1.28.392.893.893 0 00-.439.717.571.571 0 00.076.325 1.2 1.2 0 00.315.296c.439.263.926.435 1.433.507a6.65 6.65 0 011.585.478c.465.203.863.535 1.146.956.176.287.269.618.268.956a2.242 2.242 0 01-.955 1.778 3.58 3.58 0 01-2.12.65 4.95 4.95 0 01-2.932-1.147.61.61 0 01-.163-.822zm7.364-.87a2.865 2.865 0 012.798-2.868 2.75 2.75 0 012.76 2.667v.057a.46.46 0 010 .105.561.561 0 01-.213.343.56.56 0 01-.389.107h-3.648c.054.287.19.553.391.765.297.292.685.474 1.099.516.418.034.836-.066 1.194-.287a.646.646 0 01.859 0 .536.536 0 010 .746 2.866 2.866 0 01-2.053.755 2.868 2.868 0 01-2.798-2.906zm1.251-.555h3.247a1.922 1.922 0 00-.668-.866 1.92 1.92 0 00-1.032-.358 1.609 1.609 0 00-1.547 1.224zm10.944.096v2.744a.6.6 0 01-.592.602.616.616 0 01-.611-.602v-2.744a1.174 1.174 0 00-1.185-1.157 1.137 1.137 0 00-1.146 1.157v2.744a.204.204 0 010 .115.623.623 0 01-.601.487.61.61 0 01-.612-.602v-4.522a.618.618 0 01.14-.379.614.614 0 011.026.13 2.312 2.312 0 011.222-.363 2.396 2.396 0 012.359 2.39zm7.173 2.705a.634.634 0 01-.621.622.625.625 0 01-.601-.488 2.871 2.871 0 01-3.681-.411 2.878 2.878 0 01-.736-2.483 2.866 2.866 0 012.86-2.354 2.705 2.705 0 011.528.487v-2.16a.634.634 0 01.625-.554.63.63 0 01.626.554v6.787zm-2.779-3.824a1.485 1.485 0 00-1.079.469c-.299.31-.463.725-.459 1.156-.002.425.162.834.459 1.138a1.468 1.468 0 001.662.346 1.47 1.47 0 00.486-.346c.297-.304.461-.713.459-1.138a1.642 1.642 0 00-.459-1.156 1.451 1.451 0 00-1.069-.507v.038z" fill="#fff"/><path d="M14.463.025l.504.126A.302.302 0 0014.879 0l-.415.025z" fill="#263238"/><path d="M0 363.034h.228v-.164l-.228.164z" fill="#FFCCB3"/><path d="M260.679 276.849l-2.978 17.88-20.205 109.078h-3.254l14.688-109.078 2.174-17.88h9.575z" fill="#DBDBDB"/><path d="M251.104 276.849h9.575l-2.978 17.88h-8.771l2.174-17.88z" fill="#A6A6A6"/><path d="M324.12 403.807h-3.267L300.66 294.729l-2.99-17.88h9.587l2.174 17.88 14.689 109.078z" fill="#DBDBDB"/><path d="M307.258 276.849l2.174 17.88h-8.771l-2.99-17.88h9.587z" fill="#A6A6A6"/><path d="M384.709 403.807h-3.254L361.25 294.729l-2.978-17.88h9.575l2.174 17.88 14.688 109.078z" fill="#DBDBDB"/><path d="M370.021 294.729h-8.771l-2.978-17.88h9.575l2.174 17.88z" fill="#A6A6A6"/><path d="M379.545 285.242h-148.03v-15.593h55.412l18.622-81.234h68.342l5.654 96.827z" fill="#DBDBDB"/><path d="M379.545 285.242h-8.079l-5.252-96.827h7.677l5.654 96.827z" fill="#A6A6A6"/><path d="M144.815 376.93c2.588 1.52 82.314 18.182 85.757 16.9 1.256-.477 4.41-11.949 7.765-25.922a885.386 885.386 0 002.187-9.298c4.724-20.594 9.298-42.483 9.298-42.483l-53.302-11.309-7.79 42.848-1.722 9.398s-33.385 7.276-37.004 9.085c-3.619 1.809-7.79 9.273-5.189 10.781z" fill="#FFCCB3"/><path d="M144.815 376.93c2.588 1.521 82.314 18.182 85.757 16.9 1.257-.477 4.411-11.949 7.765-25.922a873.733 873.733 0 002.187-9.298c.176-.741.339-1.483.502-2.224l-52.145-9.776-.189 1.006-1.721 9.398s-33.386 7.276-37.004 9.085c-3.619 1.809-7.753 9.323-5.152 10.831z" fill="#EBEBEB"/><path d="M144.363 376.943c2.626 1.533 83.269 18.27 86.699 16.963 1.332-.477 4.449-12.062 7.816-26.186.041-.145.074-.291.101-.439l-51.907-11.385-.164.893s-33.725 7.375-37.394 9.222c-3.669 1.848-7.752 9.412-5.151 10.932z" fill="#5DBD6D"/><path d="M145.934 374.015c13.658 2.513 68.53 13.822 81.849 17.303.101 0 .088.113 0 .088-13.595-2.174-68.367-13.935-81.874-17.177-.377-.063-.264-.302.025-.214zm35.358-19.174c5.554.113 11.924 2.299 15.229 6.948.125.189-.138.365-.289.277a76.491 76.491 0 00-15.078-6.534.352.352 0 01-.127-.639.35.35 0 01.265-.052zm-4.348 1.495c5.566.113 11.937 2.287 15.229 6.936.126.188-.126.364-.289.276a76.2 76.2 0 00-15.078-6.533.354.354 0 01-.215-.397.352.352 0 01.353-.282zm-4.334 1.558c5.553.113 11.924 2.287 15.216 6.949.138.176-.126.352-.289.264a75.804 75.804 0 00-15.078-6.534.352.352 0 01.151-.679z" fill="#263238"/><path d="M176.756 341.748c2.701-2.451 6.345-.34 8.192 1.997a29.165 29.165 0 015.692 13.948c0 .113-.075.163-.163.163a.681.681 0 01-.671.577.677.677 0 01-.309-.074c-4.071-2.513-8.796-4.775-11.925-8.507-1.884-2.174-3.367-5.78-.816-8.104zm7.35 11.471c1.973 1.257 4.009 2.514 5.931 3.883-1.118-2.714-2.111-5.466-3.506-8.079a32.544 32.544 0 00-2.199-3.644c-1.256-1.772-6.961-6.157-7.225-.101-.163 3.343 4.65 6.396 6.999 7.941z" fill="#263238"/><path d="M204.525 359.126c-4.8.955-9.838-.189-14.626-.704a.7.7 0 01-.477-.382.692.692 0 01.012-.611.148.148 0 01-.058-.119c0-.023.005-.046.015-.067a.154.154 0 01.043-.052 28.993 28.993 0 0113.118-7.426c2.89-.704 7.062-.101 7.665 3.493.541 3.405-2.89 5.302-5.692 5.868zm3.204-3.318c3.544-4.925-3.618-5.026-5.729-4.385a31.948 31.948 0 00-3.996 1.508 86.898 86.898 0 00-7.753 4.172c2.362.113 4.7.427 7.062.615 2.814.239 8.469.817 10.416-1.91z" fill="#263238"/><path d="M216.236 415.216c2.89.805 84.187-3.405 87.227-5.516.654-.465-.088-11.396-1.017-21.235-.679-7.313-18.446-58.051-18.446-58.051l-54.432 2.651 22.353 52.171s-30.42 15.543-33.461 18.219c-3.041 2.677-5.076 10.957-2.224 11.761z" fill="#FFCCB3"/><path d="M216.236 415.216c2.89.805 84.187-3.405 87.227-5.516.654-.465-.088-11.396-1.017-21.235-.227-2.412-2.3-9.524-5.026-17.981l-49.972 4.423 4.423 10.304s-30.421 15.543-33.461 18.219c-3.041 2.677-5.026 10.982-2.174 11.786z" fill="#EBEBEB"/><path d="M215.205 415.958c2.928.791 85.142-4.046 88.157-6.208 1.043-.728.352-8.795-.691-21.888-.113-1.458-1.558-6.773-1.558-6.924l-50.11 3.569.063.892s-30.634 15.908-33.7 18.647c-3.066 2.739-5.089 11.12-2.161 11.912z" fill="#5DBD6D"/><path d="M215.897 412.716c13.821-1.156 69.774-4.511 83.533-4.599.113 0 .126.076 0 .088-13.696 1.445-69.649 4.348-83.533 4.737-.227.013-.239-.201 0-.226zm29.201-27.706c5.403-1.345 12.113-.905 16.511 2.739.176.138 0 .377-.214.327a77.704 77.704 0 00-16.234-2.388.34.34 0 11-.063-.678zm-3.795 2.6c5.391-1.344 12.113-.904 16.511 2.739.176.139 0 .377-.214.327a77.636 77.636 0 00-16.234-2.387.343.343 0 01-.294-.557.343.343 0 01.231-.122zm-3.795 2.653c5.391-1.332 12.113-.893 16.511 2.751.163.139 0 .377-.214.327a77.626 77.626 0 00-16.234-2.387.352.352 0 01-.063-.691z" fill="#263238"/><path d="M237.257 373.537c1.973-3.066 6.044-1.973 8.432-.201a29.117 29.117 0 019.134 11.987.161.161 0 01.01.065.166.166 0 01-.019.062.159.159 0 01-.044.049.16.16 0 01-.06.025.67.67 0 01-.223.572.677.677 0 01-.593.157c-4.612-1.407-9.701-2.324-13.734-5.101-2.3-1.609-4.712-4.712-2.903-7.615zm10.052 9.173c2.25.741 4.511 1.369 6.735 2.199a84.96 84.96 0 00-5.491-6.886 32.264 32.264 0 00-3.066-2.953c-1.708-1.37-8.318-4.134-7.011 1.784.817 3.267 6.245 4.964 8.921 5.868l-.088-.012z" fill="#263238"/><path d="M268.67 383.075c-4.372 2.186-9.549 2.387-14.299 3.129a.674.674 0 01-.566-.233.67.67 0 01-.142-.281.67.67 0 01.005-.315.164.164 0 01-.062-.034.164.164 0 01-.04-.057.165.165 0 01-.009-.07.145.145 0 01.023-.066 29.043 29.043 0 0110.718-10.579c2.613-1.433 6.797-1.936 8.318 1.382 1.52 3.317-1.433 5.855-3.946 7.124zm2.237-4.021c2.136-5.679-4.8-3.87-6.685-2.739a30.517 30.517 0 00-3.455 2.513c-2.3 1.847-4.297 3.983-6.396 6.044 2.312-.503 4.637-.817 6.974-1.257 2.752-.515 8.368-1.432 9.537-4.561h.025z" fill="#263238"/><path d="M342.955 256.832c-16.209 18.057-70.679 3.77-73.933 10.982-2.878 6.283 34.303 108.136 34.303 108.136l-59.484 6.409s-51.354-112.421-32.971-144.902c9.914-17.591 53.603-10.555 79.965-13.759 7.954-.967 11.685-17.365 11.685-17.365h47.082s11.887 29.855-6.647 50.499z" fill="#37474F"/><path d="M227.381 227.392l49.946 38.223c16.586-.351 52.9 5.391 65.628-8.795 18.534-20.645 6.647-50.5 6.647-50.5h-47.107s-3.769 16.398-11.685 17.365c-18.509 2.262-45.524-.54-63.429 3.707zm14.186 141.698c1.634-.515 17.064-2.236 20.469-2.601 6.81-.741 28.246-2.739 32.129-2.739.019.007.036.02.047.037a.1.1 0 01-.047.151c-3.368.704-17.051 2.3-20.456 2.652-6.811.703-30.232 2.978-32.129 2.789a.149.149 0 01-.081-.051.158.158 0 01-.034-.089.156.156 0 01.026-.091.156.156 0 01.076-.058z" fill="#263238"/><path d="M261.796 261.846c3.833-1.898 32.821-.955 53.629-2.903 6.772-.615 13.557-2.086 18.747-6.521a31.063 31.063 0 009.26-15.254c1.998-7.112 1.797-14.513 1.458-21.801-.088-1.797-.214-3.581-.327-5.378 0-.1.176-.113.189 0 1.583 13.043 2.789 27.644-5.692 38.952a27.162 27.162 0 01-15.166 9.939c-12.566 3.305-59.71 2.513-61.381 3.77-1.973 1.52 28.523 94.365 29.126 96.136.113.327-.478.553-.616.226-3.003-7.187-32.556-95.508-29.227-97.166zm-53.087-21.248c2.802-7.124 9.198-11.547 18.609-13.244.163 0 .151.202 0 .239-8.218 2.4-14.086 5.705-17.315 12.641-1.508 3.229-2.287 7.778-2.676 13.821-1.948 30.408 24.577 99.416 25.13 100.61a.092.092 0 01.007.071.094.094 0 01-.045.055.092.092 0 01-.125-.038c-3.757-6.245-35.17-84.765-23.585-114.155z" fill="#263238"/><path d="M187.197 344.889l45.034 9.575s-35.534-106.05-18.848-119.734c4.624-3.769 14.714-5.126 26.701 0 17.905 7.778 38.638 23.598 58.152 29.315 18.295 5.39 40.007.427 47.471-7.803 15.706-17.277 3.895-49.922 3.895-49.922l-61.77-2.437s-.277.791-3.368 3.531c0 0-39.844-8.633-56.38 1.47-29.842 18.232-40.887 136.005-40.887 136.005z" fill="#37474F"/><path d="M321.62 210.102a.114.114 0 01.193-.08c.021.022.033.05.033.08a37.056 37.056 0 00.553 7.263 12.566 12.566 0 003.267 6.031c3.543 3.594 8.645 4.813 13.294 6.283.251.088.201.515-.075.477-5.165-.804-10.593-2.111-14.362-5.981a12.567 12.567 0 01-3.343-6.508 15.45 15.45 0 01.44-7.565zm-107.106 22.605c6.923-4.348 17.754-1.056 22.931.93.113 0 0 .226 0 .176-4.762-1.709-16.623-4.31-22.969.188-14.663 10.379 4.963 81.385 17.818 120.463.201.615-.277.452-.553-.139-2.124-4.636-18.697-54.03-23.02-86.699-.716-5.001-4.134-28.662 5.793-34.919z" fill="#263238"/><path d="M192.336 332.914c1.357 0 13.03 2.513 15.606 3.116 5.139 1.156 17.064 4.247 19.853 5.303.063 0 0 .188-.063.176-2.663-.252-8.883-1.621-11.446-2.212-5.14-1.193-22.743-5.415-24.038-6.107-.113-.062-.05-.276.088-.276zm24.39-102.054c4.661-2.513 10.202-2.965 15.379-2.325a53.504 53.504 0 0115.707 4.913c10.542 4.813 20.582 10.706 31.124 15.493 10.542 4.788 21.687 8.494 33.247 8.796 9.889.314 22.391-1.433 28.749-10.316 9.789-13.696 4.084-37.319 3.971-38.839 0-.113.151-.113.176 0 7.539 29.025-2.174 40.296-8.796 45.033-5.239 3.77-12.753 4.725-17.729 5.14-11.497.967-23.032-1.847-33.688-6.094-10.919-4.348-21.172-10.203-31.639-15.556-10.052-5.139-21.21-10.429-32.669-7.539a27.777 27.777 0 00-3.77 1.256c-.088.176-.125.063-.062.038zm56.832-91.902a.553.553 0 00.44.591l2.274.15c2.035-5.315 4.234-9.524 3.656-7.878a27.4 27.4 0 00-1.42 8.004l4.486.226c1.772-9.336 4.046-16.259 3.908-14.123-.578 8.62-.063 11.397.528 14.349 10.831.516 25.042 1.031 35.333 1.169 1.181-5.152 2.224-10.743 2.4-10.354 1.407 2.915 1.784 7.15 1.809 10.417 3.28 0 5.893 0 7.539-.126 0 0 .767-4.335.88-5.767a29.85 29.85 0 00-1.143-10.882 54.07 54.07 0 00-4.75-10.052v-.075a30.168 30.168 0 01-2.727-6.735 31.06 31.06 0 01-.842-5.177c-.477-6.37-4.058-11.887-10.052-13.583-11.308-10.668-22.617-6.195-26.085 1.985a34.467 34.467 0 00-.955 2.702c-1.156 3.694-2.199 8.469-3.166 12.163a37.989 37.989 0 01-1.345 4.272c-3.091 6.647-9.562 10.417-10.768 28.724z" fill="#263238"/><path d="M277.566 117.358c2.777-3.618 5.667-6.697 7.3-11.183 1.483-4.083 2.325-8.393 3.77-12.477h.1c-2.324 7.25-2.776 14.563-7.463 20.657-2.513 3.305-5.026 6.371-6.76 10.342a35.181 35.181 0 00-2.639 13.105.114.114 0 01-.113.113.114.114 0 01-.113-.113 29.29 29.29 0 015.918-20.444z" fill="#263238"/><path d="M239.645 106.778l13.646 33.537a1.263 1.263 0 01.146 1.268 1.258 1.258 0 01-1.039.742l-17.93 2.513a2.934 2.934 0 01-2.752-1.495l-13.633-33.536a1.261 1.261 0 01-.151-1.264 1.257 1.257 0 011.03-.747l17.944-2.513a2.93 2.93 0 012.739 1.495z" fill="#37474F"/><path d="M237.521 107.068l13.633 33.524a1.257 1.257 0 01-.88 2.01l-17.943 2.513a2.896 2.896 0 01-2.739-1.495l-13.696-33.562a1.257 1.257 0 01.88-2.01l17.943-2.513a2.951 2.951 0 012.802 1.533z" fill="#455A64"/><path d="M232.822 109.342a1.542 1.542 0 001.745 1.152 1.545 1.545 0 001.295-1.642 1.558 1.558 0 00-1.771-1.256 1.534 1.534 0 00-1.269 1.746z" fill="#263238"/><path d="M304.845 151.297c-6.911 23.095-25.469 54.533-34.868 56.066-4.473.729-12.314 2.991-18.961-1.257-14.513-9.323-28.448-29.201-32.468-41.176-1.433-4.259 18.433-16.912 22.114-13.821 8.595 7.237 19.602 22.328 20.884 22.039 4.774-1.093 21.273-19.602 32.77-32.669 13.972-15.757 13.306 1.608 10.529 10.818zm-90.205-8.909c.93-9.21 2.576-11.434-.766-19.639-2.199-5.378.289-9.085 4.913-5.202 7.539 6.358 8.871 18.508 8.104 22.843l-12.251 1.998z" fill="#FFCCB3"/><path d="M220.156 168.574s-5.818-11.786-5.805-21.7c0-6.86 1.696-21.788 19.35-32.167 4.184-2.513 11.899-3.003 6.521 3.506-3.769 4.612-7.639 6.396-9.373 9.487 0 0 9.889.477 12.201 4.762a90.887 90.887 0 015.214 11.648c-.672.429-1.369.819-2.086 1.169 0 0 2.023 4.083-.251 10.642l-25.771 12.653z" fill="#FFCCB3"/><path d="M215.406 140.328c2.375-2.714 7.539-8.356 13.282-11.522 6.433-3.519 19.777-8.557 22.315-3.77 1.873 3.493-3.053 5.868-3.053 5.868s5.956-.917 6.949 2.614c.904 3.216-3.016 4.825-3.016 4.825s3.77.062 3.996 3.329c.326 3.933-7.539 3.154-10.605 7.439-.691.942-29.868-8.783-29.868-8.783z" fill="#FFCCB3"/><path d="M231.264 136.219a29.234 29.234 0 0116.561-5.403c.15 0 .226.113.088.139a71.709 71.709 0 00-16.612 5.327l-.037-.063zm3.744 6.395a32.771 32.771 0 0116.85-4.41c.151 0 .214.126.076.151a76.665 76.665 0 00-16.901 4.372s-.062-.1-.025-.113z" fill="#263238"/><path d="M219.666 173.965s22.617 31.815 33.348 34.278c10.73 2.462 16.661.666 20.343-.465a10.058 10.058 0 003.706-2.513c9.123-8.796 23.548-37.369 28.8-52.988 3.933-11.736 1.834-21.511-6.132-17.063a28.475 28.475 0 00-7.049 6.144c-13.583 15.342-29.742 30.446-30.672 30.157-.929-.289-11.974-13.118-11.974-13.118l-30.37 15.568z" fill="#5DBD6D"/><path d="M224.943 179.582c1.068-.817 11.309-6.71 13.621-7.941 2.312-1.232 11.472-6.358 13.91-7.439a.102.102 0 01.11.045.1.1 0 01.014.061.1.1 0 01-.024.058c-2.199 1.507-11.472 6.709-13.746 8.004-2.275 1.294-12.565 6.91-13.822 7.375-.088.038-.126-.1-.063-.163z" fill="#263238"/><path d="M269.273 165.47a163.334 163.334 0 0024.339 14.551 247.21 247.21 0 005.692-11.598 142.474 142.474 0 01-20.808-11.937c-3.418 3.443-6.584 6.522-9.223 8.984z" fill="#EBEBEB"/><path opacity=".1" d="M245.412 203.694c2.84 2.374 5.466 4.058 7.627 4.548 10.705 2.513 16.661.666 20.343-.465a10.046 10.046 0 003.707-2.513c9.122-8.795 23.547-37.369 28.799-52.987 3.569-10.643 2.174-19.665-4.046-17.943-14.211 17.34-41.214 50.6-56.43 69.36z" fill="#000"/><path d="M285.545 184.934l-2.513 20.506 70.83 4.587s-16.334-59.522-29.189-72.703c-8.67-8.921-18.533-7.966-24.665-1.407-1.546 1.659-17.692 21.361-19.438 30.973-1.521 8.507 4.975 18.044 4.975 18.044z" fill="#5DBD6D"/><path d="M282.492 179.167c13.444 1.91 41.239 4.825 61.808.176-1.91-5.566-4.008-11.309-6.195-16.812a193.907 193.907 0 01-55.563-1.257 23.231 23.231 0 00-1.973 5.604c-.766 4.273.49 8.796 1.923 12.289z" fill="#EBEBEB"/><path d="M284.188 196.218a421.92 421.92 0 001.696-11.246v-.113l-.076-.126a33.543 33.543 0 01-4.058-8.67 22.067 22.067 0 01-.892-4.674 14.8 14.8 0 01.251-4.712 24.702 24.702 0 011.445-4.561 39.59 39.59 0 012.036-4.386 82.65 82.65 0 015.026-8.305 57.61 57.61 0 00-5.579 8.004 32.505 32.505 0 00-3.77 9.059 18.858 18.858 0 00.628 9.839 30.887 30.887 0 004.373 8.795v-.238c-.44 3.782-.791 7.551-1.08 11.334z" fill="#263238"/><path d="M286.048 152.139a17.405 17.405 0 00-1.897 3.618 14.696 14.696 0 00-.641 1.948 7.97 7.97 0 00-.302 2.036c.49-1.257 1.03-2.513 1.521-3.77a35.723 35.723 0 001.319-3.832z" fill="#263238"/><path d="M322.6 134.083c24.929 12.653 53.54 41.226 51.869 50.738-1.872 10.58-37.695-7.313-37.331-8.896.314-1.357-7.212-12.729-17.968-29.026-10.944-16.573-2.752-15.945 3.43-12.816z" fill="#5DBD6D"/><path d="M329.636 162.832c3.305 5.114 5.705 8.972 6.81 11.158a180.785 180.785 0 0025.131-10.278c-2.953-3.104-6.283-6.283-9.877-9.437a145.907 145.907 0 01-22.064 8.557z" fill="#EBEBEB"/><path d="M374.469 184.821c-2.187 7.388-13.219 12.339-39.819 27.43-3.682 2.086-25.394-19.928-21.575-22.354 4.8-3.065 24.113-13.909 25.633-14.512 12.754-5.19 37.244 4.41 35.761 9.436z" fill="#FFCCB3"/><path d="M318.327 186.706s-11.446 5.855-16.51 10.781a45.658 45.658 0 00-11.007 18.747c-2.287 7.602-2.576 27.556 3.154 28.636 5.189.993 4.46-19.426 4.46-19.426s-2.689 20.934 3.77 20.972c6.458.037 4.259-23.61 4.259-23.61s-2.274 21.574 4.398 20.556c5.026-.779 4.26-22.303 4.26-22.303s-1.835 18.559 3.392 17.981c5.768-.628 6.283-20.544 6.283-20.544 12.992-3.694 17.742-10.768 20.531-16.209.616-1.319-26.99-15.581-26.99-15.581z" fill="#FFCCB3"/><path d="M298.826 218.119c-.414 2.45-.842 4.926-1.018 7.401-.175 2.475-.289 5.026-.238 7.439a42.53 42.53 0 001.093 9.637c-.892-5.704-.364-14.575-.176-17.051.188-2.475.339-4.913.49-7.426h-.151zm9.009.515c-.377 3.154-.879 6.283-1.118 9.437-.239 3.154-.189 6.157-.214 9.311 0 .251.126.163.139-.076.15-3.154.527-6.069.716-9.21.188-3.141.251-6.283.553-9.449 0-.05-.076-.05-.076-.013zm7.753-.942a72.207 72.207 0 00-.603 14.538c0 .251.176.125.176-.126.113-4.837.163-8.632.603-14.387 0-.088-.151-.126-.176-.025z" fill="#263238"/><path d="M312.648 187.322s30.609 23.333 30.923 23.258c.314-.076 30.408-17.83 30.898-25.759.49-7.928-24.427-13.884-35.735-9.499-11.309 4.385-26.086 12-26.086 12z" fill="#5DBD6D"/><path d="M323.002 183.954c1.256.716 10.869 8.507 12.929 10.241 2.061 1.734 10.568 8.795 12.566 10.73a.1.1 0 01-.003.126.094.094 0 01-.057.034.095.095 0 01-.066-.009c-2.312-1.558-10.907-8.62-13.043-10.354-2.136-1.733-11.535-9.637-12.452-10.642-.088-.088.038-.176.126-.126zm29.34-9.813c-2.626-.415-9.851-1.018-15.719 1.922v.088a48.057 48.057 0 0115.668-1.91s.126-.1.051-.1z" fill="#263238"/><path d="M314.52 188.767l-1.847-1.508v.151l6.069-3.016a273.521 273.521 0 016.107-2.927c4.083-1.935 8.205-3.77 12.389-5.454l.49-.201-.251-.452c-2.337-4.26-4.75-8.456-7.338-12.565a137.205 137.205 0 00-8.318-11.899 252.643 252.643 0 017.702 12.263c2.45 4.172 4.875 8.343 7.124 12.565l.239-.641c-4.209 1.709-8.318 3.619-12.377 5.63a302.596 302.596 0 00-6.018 3.141c-1.998 1.068-3.946 2.199-5.906 3.33l-.126.075.114.076 1.947 1.432z" fill="#263238"/><path d="M327.953 159.98a25.842 25.842 0 00-2.35-2.727 18.918 18.918 0 00-2.764-2.312 19.59 19.59 0 002.312 2.765c.439.414.867.829 1.332 1.256.457.385.949.726 1.47 1.018zm24.489 45.071a28.13 28.13 0 00-7.125 4.423 24.58 24.58 0 003.77-1.948 25.837 25.837 0 003.355-2.475z" fill="#263238"/><path d="M325.401 135.566s-12.892 11.686-22.152 11.133c-9.261-.553-7.891-8.13-7.891-8.13s6.634-7.891 15.681-7.753a23.676 23.676 0 0114.362 4.75z" fill="#FFCCB3"/><path d="M313.905 134.937c-.327 1.86-4.737 10.304-10.404 10.053-2.915-.088-2.978-10.304-2.978-10.304l-.138-.754-2.011-10.517 14.312-8.469s1.37 19.464 1.219 19.991z" fill="#FFCCB3"/><path d="M313.213 122.234a21.505 21.505 0 01-12.791 11.698l-2.01-10.517 14.324-8.481s.226 3.367.477 7.3z" fill="#263238"/><path d="M283.673 107.344c-1.646 18.709 9.374 21.8 13.407 22.152 3.669.314 16.184.93 19.753-17.503 3.568-18.433-4.624-25.13-12.955-26.299-8.331-1.169-18.571 2.928-20.205 21.65z" fill="#FFCCB3"/><path d="M286.889 103.147c.423-.054.843-.134 1.257-.238.46-.014.903-.182 1.256-.478a.663.663 0 000-.817 1.653 1.653 0 00-1.621-.439 2.431 2.431 0 00-1.545.816.717.717 0 00.653 1.156zm12.013.403c-.44-.075-.829-.201-1.257-.314a2.021 2.021 0 01-1.256-.553.665.665 0 010-.817 1.657 1.657 0 011.646-.339 2.51 2.51 0 011.495.905.718.718 0 01.032.753.712.712 0 01-.66.365zm-2.588 4.661s.1.063.088.113c-.101 1.257 0 2.752 1.118 3.242v.063c-1.458-.314-1.558-2.224-1.206-3.418z" fill="#263238"/><path d="M297.469 106.93c2.061 0 2.011 4.083.101 4.134-1.91.05-1.822-4.084-.101-4.134z" fill="#263238"/><path d="M298.287 107.168c.352.239.703.653 1.131.704.427.05.892-.377 1.256-.792h.076c0 .792-.315 1.596-1.169 1.709-.854.113-1.257-.616-1.508-1.407-.063-.101.063-.314.214-.214zm-9.06.729s-.101.063-.101.114c0 1.256-.138 2.751-1.256 3.166v.075c1.382-.188 1.595-2.148 1.357-3.355z" fill="#263238"/><path d="M288.096 106.553c-2.061-.164-2.25 3.958-.34 4.108 1.91.151 2.061-3.97.34-4.108z" fill="#263238"/><path d="M287.217 106.792c-.327.201-.666.578-1.068.59-.403.013-.767-.452-1.031-.892-.063.792.164 1.621.917 1.81.754.188 1.257-.478 1.445-1.257-.025-.113-.125-.339-.263-.251zm9.41 11.497c-.226.352-.439.817-.892.955a3.124 3.124 0 01-1.407 0s-.075 0 0 .075a1.704 1.704 0 001.734.339 1.351 1.351 0 00.741-1.319c-.037-.1-.138-.1-.176-.05zm-5.704-4.662s-.314 1.91-.339 2.802c.84.228 1.726.225 2.565-.009a4.832 4.832 0 002.197-1.323c.076-.075 0-.188-.138-.125a6.43 6.43 0 01-3.933 1.017c0-.251.641-3.242.503-3.254a7.679 7.679 0 00-2.061.415c.528-3.984 1.696-7.854 2.174-11.824a.122.122 0 00-.024-.082.12.12 0 00-.07-.048.122.122 0 00-.084.007.127.127 0 00-.061.06 64.834 64.834 0 00-2.877 12.628c-.088.515 1.784-.063 2.148-.264z" fill="#263238"/><path d="M291.815 116.341a4.63 4.63 0 001.86 1.458c.399.16.838.19 1.256.088.917-.239.955-1.081.792-1.797a5.062 5.062 0 00-.415-1.118 5.944 5.944 0 01-3.493 1.369z" fill="#263238"/><path d="M293.675 117.824c.399.16.838.191 1.256.088.917-.239.955-1.081.792-1.797-.484.013-.95.188-1.322.498a2.155 2.155 0 00-.726 1.211z" fill="#FF9BBC"/><path d="M314.206 88.044c-1.658-.478-3.882-9.349 1.709-14.086 5.592-4.737 13.533-.427 10.919 7.188-1.62 4.812-9.16 7.903-12.628 6.898z" fill="#263238"/><path d="M324.132 72.79a10.156 10.156 0 013.858 5.44 6.127 6.127 0 01-1.357 5.931 12.39 12.39 0 01-5.655 3.33 18.73 18.73 0 01-3.342.666 9.274 9.274 0 01-3.43-.113 8.09 8.09 0 003.455.742 14.262 14.262 0 003.569-.327 11.886 11.886 0 006.358-3.43 7.1 7.1 0 001.709-3.38 7.177 7.177 0 00-.365-3.77 8.782 8.782 0 00-4.8-5.089z" fill="#263238"/><path d="M315.777 111.466c-3.494.502-4.536-7.539-4.536-7.539s-14.978-2.287-16.448-14.425a20.569 20.569 0 01-10.191 11.434s.289-13.344 10.819-16.108c0 0 13.043-5.026 20.594 5.29 7.552 10.316 2.111 21.009-.238 21.348z" fill="#263238"/><path d="M294.73 88.622c-.152 1.88.105 3.77.754 5.541a13.812 13.812 0 002.903 4.876c.301.364.691.653 1.03.992l.528.478c.176.151.377.276.565.414.402.264.779.553 1.181.805l1.257.653.628.314.666.239 1.257.49c.917.226 1.834.427 2.739.59-.867-.351-1.747-.615-2.589-.98l-1.256-.59-.616-.289c-.201-.101-.389-.226-.59-.352a33.91 33.91 0 00-1.169-.704c-.402-.226-.716-.54-1.081-.816l-.54-.403-.49-.464c-.337-.3-.656-.618-.955-.955a15.646 15.646 0 01-2.928-4.524 17.872 17.872 0 01-1.357-5.315h.063z" fill="#263238"/><path d="M313.552 110.8s4.097-5.856 6.76-4.398c2.664 1.458-.427 9.964-3.555 11.12a3.171 3.171 0 01-2.495.054 3.175 3.175 0 01-1.765-1.763l1.055-5.013z" fill="#FFCCB3"/><path d="M319.371 108.802v.075a8.094 8.094 0 00-4.159 5.026 1.743 1.743 0 011.955-.82c.246.064.475.181.671.343v.113a1.96 1.96 0 00-2.149.678 10.565 10.565 0 00-1.03 1.734c-.101.201-.453.101-.377-.125-.088-2.827 2.136-6.723 5.089-7.024z" fill="#263238"/><path d="M316.417 116.831a.815.815 0 01-.992.566.805.805 0 01-.572-.987.807.807 0 011.479-.194.812.812 0 01.085.615z" fill="#455A64"/><path d="M315.991 116.718a.372.372 0 01-.175.234.358.358 0 01-.29.03.388.388 0 01-.277-.465.394.394 0 01.456-.212.39.39 0 01.286.413z" fill="#263238"/><path d="M317.812 115.851a.572.572 0 01-.483.426.575.575 0 01-.652-.615.575.575 0 01.733-.514.578.578 0 01.402.703z" fill="#455A64"/><defs><linearGradient id="paint0_linear_1_1332" x1="300" y1="398" x2="338.666" y2="519.05" gradientUnits="userSpaceOnUse"><stop stop-color="#38CC63" stop-opacity=".47"/><stop offset="1" stop-color="#FD576C" stop-opacity=".63"/></linearGradient><filter id="filter0_b_1_1332" x="439.723" y="93.791" width="72.649" height="61.366" filterUnits="userSpaceOnUse" color-interpolation-filters="sRGB"><feFlood flood-opacity="0" result="BackgroundImageFix"/><feGaussianBlur in="BackgroundImage" stdDeviation="7.831"/><feComposite in2="SourceAlpha" operator="in" result="effect1_backgroundBlur_1_1332"/><feBlend in="SourceGraphic" in2="effect1_backgroundBlur_1_1332" result="shape"/></filter></defs></svg>