<svg width="541" height="413" fill="none" xmlns="http://www.w3.org/2000/svg"><g clip-path="url(#clip0_1_1508)"><path d="M480.159 239.986s-37.266 82.93 23.717 82.93c60.984 0 21.494-85.755 21.494-85.755s14.111-6.203-2.257-52.467c-16.368-46.265-23.692-46.256-30.496-46.256-8.589 0-16.591 20.03-10.746 50.774-.017-.009-21.469 38.359-1.712 50.774z" fill="#EBEBEB"/><path d="M509.291 377.92l-5.877-124.933-5.878 124.933h11.755z" fill="#A6A6A6"/><path d="M505.803 305.364l-22.163-25.862 17.384 29.282 4.779-3.42z" fill="#A6A6A6"/><path d="M87.98 244.422s36.068 80.27-22.956 80.27-20.766-83.005-20.766-83.005-13.665-6.005 2.19-50.774c15.856-44.769 22.924-44.777 29.504-44.777 8.317 0 16.063 19.386 10.383 49.139 0 0 20.766 37.136 1.645 49.147z" fill="#DBDBDB"/><path d="M59.791 377.92l5.688-120.918 5.687 120.918H59.791z" fill="#A6A6A6"/><path d="M63.164 307.702l21.452-25.036-16.823 28.348-4.629-3.312z" fill="#A6A6A6"/><path d="M205.26 244.422s-36.068 80.27 22.948 80.27 20.766-83.005 20.766-83.005 13.665-6.005-2.183-50.774c-15.847-44.769-22.931-44.777-29.512-44.777-8.316 0-16.053 19.386-10.383 49.139 0 0-20.765 37.136-1.636 49.147z" fill="#DBDBDB"/><path d="M233.449 377.92l-5.687-120.918-5.688 120.918h11.375z" fill="#A6A6A6"/><path d="M230.068 307.702l-21.443-25.036 16.822 28.348 4.621-3.312z" fill="#A6A6A6"/><path d="M449.507 238.359s18.807-7.434 33.736 18.503c15.31 26.613-3.877 44.149-19.112 33.709 0 0-11.938 25.061-35.828 19.097-23.891-5.964-27.768-25.061-27.768-25.061s-21.196 1.487-21.799-14.323c-.604-15.81 14.929-29.835 14.929-29.835s.902-39.384 26.578-39.078c25.676.306 29.264 36.988 29.264 36.988z" fill="#DBDBDB"/><path d="M432.047 377.92l-5.373-117.185-5.382 117.185h10.755z" fill="#A6A6A6"/><path d="M428.972 303.365l15.781-31.463-20.385 28.704 4.604 2.759z" fill="#A6A6A6"/><path d="M156.181 225.448s-20.551-8.152-36.862 20.213c-16.723 29.075 4.241 48.238 20.874 36.831 0 0 13.053 27.382 39.151 20.856 26.098-6.525 30.338-27.373 30.338-27.373s23.147 1.652 23.817-15.653c.669-17.305-16.286-32.594-16.286-32.594s-.975-43.026-29.032-42.696c-28.057.331-32 40.416-32 40.416z" fill="#EBEBEB"/><path d="M175.269 377.92l5.869-128.022 5.869 128.022h-11.738z" fill="#A6A6A6"/><path d="M178.616 296.468l-17.227-34.378 22.262 31.355-5.035 3.023z" fill="#A6A6A6"/><path d="M443.282 66.245c5.943 0 105.954.66 112.236.462.455 0 .695-.677.248-.9-3.968-1.958-8.456-1.57-12.573-2.957-2.422-.826-3.91-2.395-5.597-4.212a11.571 11.571 0 00-5.2-3.395 11.008 11.008 0 00-5.67-.174c-2.026.48-3.787 1.652-5.729 2.379-4.803 1.809-9.466.083-12.896-3.47-2.836-2.923-5.613-5.69-9.457-7.26a12.55 12.55 0 00-10.02-.14c-3.67 1.652-6.191 4.956-9.63 7.004-4.092 2.387-8.97 1.826-13.483 2.544-4.514.719-7.978 4.519-11.937 6.7a8.364 8.364 0 01-4.307 1.337c-.885 0-1.753-.264-2.629-.371-1.364-.166-2.654-.133-3.571 1.007-.223.273-.174 1.446.215 1.446zM18.632 49.081c4.34 0 77.35.48 81.947.339.322 0 .504-.496.174-.661-2.894-1.429-6.176-1.14-9.176-2.156-1.77-.595-2.86-1.751-4.084-3.073a8.432 8.432 0 00-3.803-2.478 7.975 7.975 0 00-4.133-.132 35.42 35.42 0 00-4.183 1.735c-3.505 1.321-6.92.066-9.424-2.528-2.058-2.14-4.133-4.13-6.903-5.303a9.2 9.2 0 00-7.316-.132c-2.678 1.214-4.513 3.651-7.026 5.121-2.985 1.743-6.548 1.33-9.846 1.859-3.298.529-5.787 3.304-8.713 4.89a6.19 6.19 0 01-3.15.974 19.153 19.153 0 01-1.918-.272 2.623 2.623 0 00-2.604.735c-.165.231-.132 1.082.158 1.082zm307.883 63.759c4.34 0 77.36.479 81.948.331.33 0 .504-.496.173-.653-2.885-1.437-6.167-1.148-9.176-2.156-1.769-.595-2.852-1.751-4.083-3.081a8.434 8.434 0 00-3.803-2.478 8.058 8.058 0 00-4.133-.124c-1.48.347-2.77 1.198-4.183 1.735-3.505 1.322-6.911.066-9.416-2.528-2.067-2.139-4.133-4.13-6.911-5.31a9.142 9.142 0 00-7.308-.1c-2.678 1.214-4.522 3.651-7.035 5.113-2.984 1.743-6.547 1.33-9.845 1.858-3.299.529-5.787 3.304-8.705 4.89-.94.609-2.03.946-3.15.975-.644 0-1.281-.19-1.918-.264-1-.124-1.942-.099-2.612.735-.157.198-.124 1.057.157 1.057zM184.461 72.333c4.34 0 77.36.487 81.948.339.33 0 .504-.496.182-.661-2.894-1.43-6.176-1.14-9.185-2.156-1.769-.595-2.852-1.751-4.084-3.073a8.446 8.446 0 00-3.794-2.478 8.007 8.007 0 00-4.133-.132 35.428 35.428 0 00-4.183 1.735c-3.505 1.321-6.911.066-9.416-2.528-2.067-2.14-4.133-4.13-6.911-5.303a9.14 9.14 0 00-7.308-.099c-2.678 1.206-4.521 3.65-7.035 5.113-2.992 1.743-6.555 1.338-9.862 1.858-3.306.52-5.786 3.305-8.704 4.89a6.249 6.249 0 01-3.15.975 18.782 18.782 0 01-1.918-.273 2.628 2.628 0 00-2.612.736c-.149.206-.149 1.057.165 1.057zm109.913 145.731c4.34 0 77.36.479 81.948.338.33 0 .504-.495.182-.66-2.894-1.429-6.176-1.14-9.185-2.156-1.769-.595-2.852-1.751-4.083-3.073a8.47 8.47 0 00-3.795-2.478 8.101 8.101 0 00-4.133-.124c-1.48.355-2.761 1.198-4.175 1.735-3.513 1.321-6.919.066-9.424-2.528-2.067-2.139-4.133-4.13-6.903-5.311a9.194 9.194 0 00-7.316-.099c-2.678 1.214-4.513 3.651-7.034 5.121-2.976 1.743-6.548 1.33-9.838 1.85-3.29.521-5.828 3.304-8.713 4.899a6.215 6.215 0 01-3.149.974 19.035 19.035 0 01-1.918-.272 2.63 2.63 0 00-1.408.006 2.628 2.628 0 00-1.205.729c-.132.165-.132 1.049.149 1.049zM57.452 93.577c.082.248 115.08 0 113.633 0-.661 0 1.001-.99.356-1.305-3.745-1.858-7.837-1.908-11.912-2.288a18.41 18.41 0 01-6.969-1.652c-2.166-1.131-3.514-3.105-5.051-4.956a21.645 21.645 0 00-19.642-7.434c-8.176 1.28-14.624 7.509-22.816 8.649-4.918.693-9.573-1.215-14.376-1.884a17.67 17.67 0 00-10.804 1.974c-2.596 1.289-4.96 2.371-7.92 2.57-2.256.156-4.513-.1-6.77-.125a15.2 15.2 0 00-9.92 3.982c-.405.322-1.562 2.47 2.19 2.47zm334.775 42.556c.083.24 115.08 0 113.634 0-.662 0 1-.991.355-1.313-3.745-1.859-7.837-1.908-11.912-2.28a18.415 18.415 0 01-6.969-1.652c-2.166-1.14-3.513-3.106-5.051-4.956a21.6 21.6 0 00-19.641-7.434c-8.176 1.28-14.624 7.5-22.816 8.648-4.919.686-9.573-1.214-14.376-1.883a17.607 17.607 0 00-10.805 1.941c-2.595 1.289-4.96 2.371-7.919 2.569-2.257.165-4.514-.099-6.771-.116a15.189 15.189 0 00-9.92 3.973c-.405.347-1.562 2.503 2.191 2.503zm84.816-47.223a16.63 16.63 0 01-6.828 1.892 16.622 16.622 0 01-2.836-6.476c-.628-3.056 1.133-6.533 3.927-6.137 3.091.43 2.48 5.105 2.48 5.105s3.306-3.436 5.538-1.297c2.051 1.941.488 5.477-2.281 6.914zM183.32 107.331a16.554 16.554 0 01-6.82 1.892 16.693 16.693 0 01-2.835-6.476c-.629-3.056 1.124-6.542 3.918-6.146 3.092.438 2.48 5.105 2.48 5.105s3.307-3.428 5.539-1.297c2.05 1.941.479 5.477-2.282 6.922zm197.937-50.006a10.396 10.396 0 01-2.099 3.89 10.34 10.34 0 01-4.134-1.528c-1.653-1.032-2.48-3.304-1.074-4.42 1.529-1.197 3.381 1.091 3.381 1.091s-.133-2.957 1.802-3.056c1.761-.083 2.67 2.156 2.124 4.023zM469.115 108a27.317 27.317 0 01-8.796 7.64 27.308 27.308 0 01-8.795-7.624c-3.1-4.13-2.943-10.507 1.488-11.894 4.893-1.537 7.307 5.831 7.307 5.831s2.439-7.434 7.308-5.831c4.414 1.42 4.588 7.781 1.488 11.878zM97.76 68.26a10.397 10.397 0 01-2.067 3.891 10.34 10.34 0 01-4.133-1.528c-1.653-1.032-2.48-3.304-1.075-4.419 1.53-1.198 3.373 1.09 3.373 1.09s-.124-2.957 1.81-3.048c1.72-.082 2.637 2.148 2.092 4.015zm20.956 93.702a27.259 27.259 0 01-8.804 7.624 27.31 27.31 0 01-8.796-7.624c-3.091-4.13-2.942-10.506 1.488-11.894 4.903-1.536 7.308 5.832 7.308 5.832s2.48-7.434 7.316-5.832c4.415 1.437 4.58 7.798 1.488 11.894z" fill="#EBEBEB"/><path d="M194.835 377.977h-47.12s.108-7.004 4.737-8.871a6.316 6.316 0 017.391 1.776s1.884-12.886 10.515-12.886c8.63 0 12.763 11.11 12.763 11.11s1.935-3.354 6.721-2.734c4.787.619 4.993 11.605 4.993 11.605z" fill="#455A64"/><path d="M457.277 377.977s-1.446-6.731-4.331-7.772c-2.886-1.041-4.638 1.982-4.638 1.982s-.678-6.434-4.77-8.359c-4.092-1.925-7.159 2.024-7.159 2.024s-3.141-8.169-8.746-8.169-8.432 11.944-8.432 11.944-3.307-3.56-6.704-1.545c-3.398 2.015-3.39 9.912-3.39 9.912l48.17-.017zm-301.113.001h-43.441s1.43-6.121 4.315-6.559c2.885-.438 4.216 2.412 4.216 2.412s-.132-8.541 5.249-9.995c5.382-1.453 9.92 6.088 9.92 6.088s3.373-4.295 7.969-4.023c4.597.273 5.787 7.377 5.787 7.377s4.142-2.462 5.985 4.7z" fill="#37474F"/><path d="M412.224 377.978h-26.693s.058-3.973 2.687-5.022a3.57 3.57 0 014.183.999s1.066-7.302 5.96-7.302 7.225 6.303 7.225 6.303a3.754 3.754 0 013.811-1.553c2.72.355 2.827 6.575 2.827 6.575z" fill="#455A64"/><path d="M535.736 377.978H34.272v4.443h501.464v-4.443z" fill="#A6A6A6"/><path d="M60.072 377.978a6.022 6.022 0 010 4.443 5.982 5.982 0 010-4.443zm29.992 0a6.023 6.023 0 010 4.443 5.98 5.98 0 010-4.443zm29.983 0a5.986 5.986 0 010 4.443 6.065 6.065 0 010-4.443zm29.991 0a5.976 5.976 0 010 4.443 6.025 6.025 0 010-4.443zm29.975 0a5.986 5.986 0 010 4.443 6.025 6.025 0 010-4.443zm30.008 0a5.976 5.976 0 010 4.443 6.025 6.025 0 010-4.443zm29.992 0a5.986 5.986 0 010 4.443 6.015 6.015 0 010-4.443zm29.991 0a6.025 6.025 0 010 4.443 6.025 6.025 0 010-4.443zm29.991 0a6.015 6.015 0 010 4.443 6.025 6.025 0 010-4.443zm29.992 0a6.015 6.015 0 010 4.443 5.986 5.986 0 010-4.443zm29.992 0a6.025 6.025 0 010 4.443 5.976 5.976 0 010-4.443zm30.007 0a6.015 6.015 0 010 4.443 5.986 5.986 0 010-4.443zm29.975 0a6.015 6.015 0 010 4.443 5.986 5.986 0 010-4.443zm29.992 0a6.065 6.065 0 010 4.443 5.986 5.986 0 010-4.443zm29.983 0a5.976 5.976 0 010 4.443 6.025 6.025 0 010-4.443zm29.992 0a5.986 5.986 0 010 4.443 6.015 6.015 0 010-4.443z" fill="#263238"/><path d="M33.313 382.438c161.25-.503 342.124-.503 503.374 0-161.25.513-342.124.504-503.374 0z" fill="#263238"/><path d="M345.859 53.913c0 3.918-1.09 7.758-3.147 11.092a21.149 21.149 0 01-8.504 7.791 21.168 21.168 0 01-22.118-1.916l-10.366 2.635 4.315-9.648a21.127 21.127 0 01-.692-18.542 21.142 21.142 0 015.721-7.614 21.173 21.173 0 0132.65 6.908 21.13 21.13 0 012.141 9.278v.017z" fill="#fff"/><path d="M345.859 53.913c-.107 17.875-20.509 27.258-33.695 17.255l-10.35 2.71-.727.19.306-.686 4.274-9.664v.355c-4.869-8.656-2.48-20.353 5.183-26.564 13.913-11.457 34.935-1.602 34.984 16.404h.025zm0 0c.066-13.513-13.169-23.838-26.246-20.27a20.897 20.897 0 00-13.914 11.817 20.879 20.879 0 00.687 18.233l.099.174-.083.181-4.348 9.632-.421-.504 10.382-2.578c14.153 10.218 33.497.959 33.844-16.685z" fill="#263238"/><path d="M335.79 58.646a34.352 34.352 0 01-11.027 9.549 34.374 34.374 0 01-11.02-9.549c-3.885-5.13-3.687-13.166 1.86-14.868 6.142-1.924 9.16 7.31 9.16 7.31s3.058-9.292 9.159-7.31c5.539 1.752 5.745 9.73 1.868 14.868z" fill="#5DBD6D"/><path d="M320.431 64.139l-1.67-6.963-1.091 2.461h-6.762v-.785h6.249l1.827-4.105 1.306 5.427 1.844-11.25 1.628 8.896 1.282-3.717 2.033 6.087.447-1.346h11.11v.785h-10.54l-1.017 3.04-2.042-6.121-1.512 4.353-1.348-7.376-1.744 10.614z" fill="#fff"/><path d="M154.113 122.372c-13.788 14.29-32.57 27.448-37.572 23.458-6.729-5.369-17.12-21.922-20.6-31.933-1.017-2.94 22.047-10.424 23.147-7.285 1.33 3.799 9.093 16.966 9.308 17.296.512.694 15.864-8.458 23.576-11.316 9.028-3.345 8.581 3.098 2.141 9.78z" fill="#FFCCB3"/><path d="M92.75 102.2c0 5.179 4.076 15.785 6.051 17.966 1.976 2.181 20.254-4.188 21.212-7.046.959-2.858-.322-20.303-3.604-24.433-3.282-4.13-23.634 8.153-23.659 13.513z" fill="#FFCCB3"/><path d="M127.418 94.709l1.354 4.018 4.626-1.557-1.354-4.018-4.626 1.557z" fill="#DBDBDB"/><path d="M123.672 95.253l2.183 6.543 5.27-1.756-2.183-6.543-5.27 1.756z" fill="#C7C7C7"/><path d="M115.649 92.933l-24.09 8.037 5.184 15.545 24.13-8.037c4.77-1.594 7.44-5.823 5.861-10.59-1.579-4.765-6.307-6.55-11.085-4.955z" fill="#5DBD6D"/><path opacity=".1" d="M115.649 92.933l-24.09 8.037 5.184 15.545 24.13-8.037c4.77-1.594 7.44-5.823 5.861-10.59-1.579-4.765-6.307-6.55-11.085-4.955z" fill="#000"/><path d="M125.18 99.326a.635.635 0 10.404 1.205.635.635 0 00-.404-1.205zm-7.994-5.906a.635.635 0 00-.405.826.637.637 0 00.329.376.64.64 0 00.498.03.653.653 0 00.077-1.203.647.647 0 00-.499-.028zm1.654 7.079a.654.654 0 00-.281 1.043.654.654 0 00.438.219.652.652 0 00.465-.155.624.624 0 00.219-.438.633.633 0 00-.031-.248.629.629 0 00-.317-.378.631.631 0 00-.493-.043zm-5.994 1.33a.635.635 0 00-.446.573.623.623 0 00.041.253.648.648 0 00.575.441.656.656 0 00.33-1.241.624.624 0 00-.5-.026zm-3.926 8.276a.636.636 0 10.403 1.206.636.636 0 00-.403-1.206zm5.547-1.189a.639.639 0 00-.376.328.637.637 0 00-.029.498.647.647 0 00.33.372.647.647 0 00.717-.094.633.633 0 00.184-.7.633.633 0 00-.325-.382.623.623 0 00-.501-.022zm5.663-2.057a.633.633 0 00-.329.919.632.632 0 00.629.309.643.643 0 00.532-.458.63.63 0 00-.334-.741.642.642 0 00-.498-.029zm2.62-3.791a.636.636 0 00-.405.826.624.624 0 00.32.367.645.645 0 00.486.034.643.643 0 00.432-.56.641.641 0 00-.031-.246.645.645 0 00-.313-.378.633.633 0 00-.489-.043zm-6.216 1.405a.631.631 0 00-.401.805.624.624 0 00.32.367.645.645 0 00.486.033.632.632 0 00.401-.805.637.637 0 00-.806-.4zm4.562-8.113a.635.635 0 00-.06 1.169.638.638 0 00.887-.764.651.651 0 00-.827-.404zm-6.133 1.232a.64.64 0 00-.433.559.643.643 0 00.352.613.635.635 0 10.081-1.172zm-4.175 8.433a.641.641 0 00-.414.567.64.64 0 00.361.602.635.635 0 00.879-.773.625.625 0 00-.826-.396zm-6.969-4.931a.658.658 0 00-.376.328.64.64 0 00.191.791.64.64 0 00.949-.233.633.633 0 00-.398-.891.642.642 0 00-.366.005zm-4.53 1.611a.64.64 0 00-.433.559.634.634 0 00.592.678.636.636 0 10-.159-1.237zm6.481 4.584a.63.63 0 00-.443.574.655.655 0 00.038.252.643.643 0 001.181.084.644.644 0 00.035-.489.63.63 0 00-.316-.381.635.635 0 00-.495-.04zm-6.117 5.319a.629.629 0 00-.405.826.635.635 0 001.173.081.638.638 0 00.034-.485.628.628 0 00-.802-.422zm7.795-9.358a.624.624 0 00-.367.32.641.641 0 00.09.701.628.628 0 00.436.216.641.641 0 00.462-.155.635.635 0 00-.621-1.082zm-4.943 1.561a.623.623 0 00-.223.125.62.62 0 00-.221.449.637.637 0 00.039.252.634.634 0 00.806.401.637.637 0 00.401-.806.645.645 0 00-.313-.378.633.633 0 00-.489-.043zm-4.911 1.636a.639.639 0 10.778.884.651.651 0 00.032-.496.645.645 0 00-.81-.388zm-3.298-2.321a.637.637 0 10.827.404.634.634 0 00-.325-.382.625.625 0 00-.502-.022zm10.002 7.02a.643.643 0 00-.415.564.635.635 0 001.051.515.64.64 0 00.069-.899.623.623 0 00-.451-.221.628.628 0 00-.254.041zm-3.199-2.305a.637.637 0 10.827.405.658.658 0 00-.328-.376.66.66 0 00-.499-.029zm-5.497-8.358a.641.641 0 00-.405.826.64.64 0 001.215-.405.626.626 0 00-.316-.382.646.646 0 00-.494-.039zm.694 9.813a.632.632 0 00-.415.564.633.633 0 00.355.604.635.635 0 00.887-.763.634.634 0 00-.827-.405zm8.945-13.126a.635.635 0 00-.405.826.639.639 0 001.239-.159.642.642 0 00-.032-.245.638.638 0 00-.802-.421zm-4.762 1.587a.653.653 0 00-.376.328.656.656 0 00-.029.498.655.655 0 001.203.076.64.64 0 00.029-.498.628.628 0 00-.827-.404zm8.267.553a.65.65 0 00-.441.574.626.626 0 00.256.544.63.63 0 00.7.036.632.632 0 00.309-.629.64.64 0 00-.458-.53.637.637 0 00-.366.005zm1.926-4.32a.64.64 0 10.405 1.214.64.64 0 00-.405-1.214z" fill="#fff"/><path d="M120.179 96.064c-1.43 2.337-3.373-.686-3.373-.686s1.753 5.03-.661 6.872c-2.414 1.842-4.539-1.966-4.704-2.23.091.264 1.571 4.956-1.042 6.534-2.612 1.577-4.298-2.478-4.397-2.743 0 .281 0 3.965-2.241 4.733-3.885 1.322-4.183-8.103-6.704-10.267 0 0-4.01 2.14-4.133 2.23 0 0-.629-7.26 2.48-10.49a2.87 2.87 0 013.554-.504s-.47-2.874 1.546-4.204c1.034-.677 3.042.38 3.042.38a3.59 3.59 0 011.588-3.387c1.488-.826 3.306.33 3.306.33s.761-2.345 2.563-2.725c3.604-.785 12.235 11.143 9.176 16.157z" fill="#FFCCB3"/><path d="M103.53 85.614c0-.05 0-.107.074-.066a23.876 23.876 0 018.044 14.521c0 .199-.157.397-.199.174-.76-3.8-4.811-11.035-7.919-14.629zm2.38 18.619c-.884-5.51-3.455-10.176-6.786-14.595-.042-.058 0-.108.09-.075 2.216 1.718 4.051 4.758 5.266 7.236a14.702 14.702 0 011.654 7.434c-.033.074-.199.124-.224 0z" fill="#263238"/><path d="M116.806 95.378c.252.993.407 2.008.463 3.031a5.612 5.612 0 01-.48 2.891 1.846 1.846 0 01-1 .876 2.629 2.629 0 01-1.356.116 3.262 3.262 0 01-2.091-1.652l-1.124-1.95.38 2.222a9.266 9.266 0 010 2.982 3.3 3.3 0 01-1.331 2.346 1.893 1.893 0 01-2.364-.132 5.67 5.67 0 01-1.513-2.421l-.893-2.478v2.652a8.5 8.5 0 01-.256 2.189 3.624 3.624 0 01-.984 1.809 1.72 1.72 0 01-1.761.314 3.787 3.787 0 01-1.455-1.512 29.444 29.444 0 01-1.868-4.221c-.29-.727-.57-1.454-.893-2.172A5.55 5.55 0 0097 98.31c.49.603.854 1.296 1.075 2.04.264.727.496 1.471.727 2.222.41 1.519.965 2.996 1.653 4.411a4.34 4.34 0 001.654 1.867 2.4 2.4 0 002.612-.372 4.395 4.395 0 001.281-2.205 9.604 9.604 0 00.323-2.478l-.827.14a6.51 6.51 0 001.761 2.875 2.791 2.791 0 001.711.694 3.021 3.021 0 001.744-.529 4.123 4.123 0 001.654-2.965 9.907 9.907 0 00-.091-3.304l-.744.272a3.915 3.915 0 002.695 1.925 3.384 3.384 0 001.653-.231c.536-.231.97-.648 1.224-1.173.395-1 .504-2.09.314-3.147a13.359 13.359 0 00-.612-2.974z" fill="#263238"/><path d="M121.006 112.617s9.382-19.824-.182-19.725c-2.844.041-14.467 3.601-13.797 5.947.826 3.032 5.993 2.478 9.159 1.57 0 0-4.133 6.31-.611 10.498a5.453 5.453 0 005.431 1.71z" fill="#FFCCB3"/><path d="M121.617 92.925a11.69 11.69 0 00-3.348.149 24.729 24.729 0 00-3.306.76 39.353 39.353 0 00-6.291 2.428 6.434 6.434 0 00-1.472 1.016c-.254.227-.452.51-.578.826a1.755 1.755 0 00-.124.553c-.008.187.014.374.066.554a2.888 2.888 0 001.19 1.561 5.428 5.428 0 001.703.669c1.146.214 2.32.231 3.472.05a23.629 23.629 0 003.307-.711l-.422-.595a13.695 13.695 0 00-1.124 2.322 12.62 12.62 0 00-.661 2.478 8.8 8.8 0 000 2.552c.118.839.399 1.647.826 2.379a7.29 7.29 0 01-.554-2.412 8.9 8.9 0 01.224-2.429c.173-.797.428-1.575.76-2.321a13.22 13.22 0 011.174-2.122l.57-.827-.992.224a25.588 25.588 0 01-3.215.586 9.697 9.697 0 01-3.175-.083c-.975-.214-1.967-.743-2.19-1.569-.224-.826.727-1.429 1.653-1.933a30.592 30.592 0 012.968-1.412c1.017-.438 2.033-.826 3.075-1.231a21.346 21.346 0 016.464-1.462z" fill="#263238"/><path d="M256.248 366.207c.827-.116 15.409-1.462 16.492-2.751 10.978-13.026 24.461-45.075 24.602-46.619.115-.967-14.723-10.011-14.806-10.077-1.587-1.322-30.917-21.014-30.917-21.014l-22.204 29.736 30.297 19.824.504.364a93.933 93.933 0 01-1.413 16.52c-.207 1.115-4.225 6.351-4.415 7.277-.62 3.147.736 6.897 1.86 6.74z" fill="#FFCCB3"/><path d="M256.248 366.198c.827-.115 15.409-1.454 16.533-2.75 10.97-13.018 24.453-45.067 24.602-46.612.107-.966-14.731-10.011-14.814-10.077-.388-.322-2.48-1.767-5.381-3.758l-21.758 29.521 4.323 2.833.496.364a95.387 95.387 0 01-1.405 16.52c-.223 1.107-4.233 6.344-4.423 7.277-.653 3.097.695 6.847 1.827 6.682z" fill="#EBEBEB"/><path d="M255.719 366.505c.513.247 16.476-1.884 17.36-2.982 8.812-10.507 25.147-45.298 25.147-47.165 0-.966-8.051-6.401-16.69-10.738l-21.493 30.124s-.083 10.639-1.315 16.52c-.281 1.338-4.265 6.171-4.555 7.153-.901 3.065.81 6.724 1.546 7.088z" fill="#5DBD6D"/><path opacity=".1" d="M255.719 366.505c.513.247 16.476-1.884 17.36-2.982 8.812-10.507 25.147-45.298 25.147-47.165 0-.966-8.051-6.401-16.69-10.738l-21.493 30.124s-.083 10.639-1.315 16.52c-.281 1.338-4.265 6.171-4.555 7.153-.901 3.065.81 6.724 1.546 7.088z" fill="#000"/><path d="M255.744 357.997a9.674 9.674 0 017.085-2.354 8.272 8.272 0 015.729 2.857c0 .058-.067.141-.116.091-3.232-2.882-8.829-3.163-12.615-.487a.09.09 0 01-.024.012.057.057 0 01-.026.001.067.067 0 01-.057-.049c-.002-.009-.003-.018-.002-.026a.054.054 0 01.009-.025.055.055 0 01.017-.02zm28.289-42.341c2.207-3.635 7.853-.207 5.646 3.428-2.207 3.634-7.862.206-5.646-3.428zm-30.207 24.755a20.564 20.564 0 006.34-2.371c.141-.074.282-.14.414-.223a69.84 69.84 0 012.48-1.264.357.357 0 00.182-.231.46.46 0 00-.133-.512.1.1 0 00.029-.122.1.1 0 00-.029-.035l-.355-.165-.116-.058-.446-.182a11.204 11.204 0 00-1.083-.38 19.96 19.96 0 00-8.134-.925c-2.009.231-4.555 1.578-4.134 4.039.422 2.33 3.092 2.718 4.985 2.429zm-2.819-1.38c-3.414-2.329 1.166-4.039 2.654-4.13a21.28 21.28 0 012.901.05c1.388.102 2.768.287 4.134.553.504.099 1.016.182 1.529.273h.231l-.231.107-.248.108c-.604.264-1.199.536-1.794.826l-2.058 1.016c-1.736.826-5.233 2.478-7.118 1.197z" fill="#263238"/><path d="M263.226 336.347c.826-1.057 1.736-2.098 2.587-3.172a18.967 18.967 0 003.075-5.022c.645-1.751.827-4.287-1.141-5.27a1.64 1.64 0 00-.239-.124c-2.298-.941-4.134 1.256-4.77 3.18a19.651 19.651 0 00-.827 7.434c.035.636.115 1.268.24 1.892.014.174.047.345.099.512a.202.202 0 000 .124c.01.097.027.194.05.289 0 .074.091.099.149.074a.456.456 0 00.593.222.466.466 0 00.184-.139zm-.191-1.313a5.56 5.56 0 00-.314.454c-.099.157-.091.107-.132.173v-.223c.05-1.189.066-2.379.149-3.568a23.73 23.73 0 01.207-2.181c.127-.961.318-1.913.57-2.849.347-1.198 2.199-4.246 3.728-3.048.398.35.7.797.876 1.297.868 2.114-1.496 5.195-2.645 6.731-.802 1.058-1.645 2.123-2.439 3.214z" fill="#263238"/><path d="M259.133 340.312c1.802-3.304 5.109-6.509 8.961-7.054.149 0 .182.19.075.256a51.982 51.982 0 00-8.664 7.087.24.24 0 01-.393-.128.237.237 0 01.021-.161zm-.43 3.072c1.803-3.304 5.109-6.509 8.961-7.054.149 0 .182.19.075.264a52.026 52.026 0 00-8.664 7.079.24.24 0 01-.372-.289zm-.429 3.115c1.802-3.304 5.108-6.517 8.961-7.062.149 0 .182.19.074.264a51.92 51.92 0 00-8.663 7.079.239.239 0 01-.154.09.237.237 0 01-.173-.045.23.23 0 01-.09-.154.226.226 0 01.045-.172zm-.431 3.105c1.794-3.304 5.109-6.517 8.962-7.062.148 0 .181.198.074.264a52.342 52.342 0 00-8.663 7.079.247.247 0 01-.068.061.243.243 0 01-.177.024.239.239 0 01-.143-.107.243.243 0 01-.024-.177.248.248 0 01.039-.082zm-2.562 14.736c4.29-1.198 8.779-1.743 13.111-2.792l1.521-.371a2.335 2.335 0 001.48-.678 24.51 24.51 0 001.604-2.792c1.074-1.891 2.141-3.799 3.207-5.699 4.274-7.657 8.424-15.372 12.532-23.128a729.805 729.805 0 013.489-6.559c1.165-2.188 2.48-4.295 3.645-6.484a.07.07 0 01.039-.035.069.069 0 01.088.041.067.067 0 01-.003.052c-.959 2.032-1.785 4.13-2.785 6.146-1.001 2.015-1.993 4.047-3.018 6.046a660.164 660.164 0 01-6.266 11.87 987.792 987.792 0 01-6.464 11.754c-1.1 1.965-2.216 3.931-3.307 5.889-.537.942-1.075 1.891-1.653 2.833a2.712 2.712 0 01-1.86 1.47c-5.01 1.206-10.21 1.818-15.269 2.792-.207.058-.306-.297-.091-.355z" fill="#263238"/><path d="M149.426 158.129s-3.1 26.498 2.373 32.536c0 0 18.55 64.825 23.386 79.296 5.308 15.909 69.804 55.797 69.804 55.797l21.642-29.91s-14.64-12.258-29.479-23.268c-10.746-7.946-23.353-13.216-23.427-13.877-1.108-8.582-20.171-62.636-19.642-64.106 6.051-16.71-3.737-36.493-3.737-36.493l-40.92.025z" fill="#37474F"/><path d="M151.799 190.665s7.779 27.019 13.566 46.834l28.701-42.877v-.091c5.985-16.685-3.769-36.402-3.769-36.402h-42.375s-1.587 26.498 3.877 32.536z" fill="#263238"/><path d="M37.826 355.023c1.571 1.379 53.924 23.227 56.445 22.789.422-.066 3.307-8.59 7.341-18.395 4.96-12.2 11.152-26.192 11.152-26.192l-32.455-11.234-11.69 24.97s-23.146.57-25.85 1.347c-2.702.776-6.538 5.344-4.943 6.715z" fill="#FFCCB3"/><path d="M103.232 355.403l-1.653 4.014c-3.993 9.805-6.911 18.329-7.34 18.395a10.691 10.691 0 01-2.812-.702l-.959-.322-.702-.24-.744-.256-1.654-.595c-.826-.313-1.793-.669-2.785-1.04l-.827-.322a774.354 774.354 0 01-9.746-3.833l-.951-.388-2.753-1.107-2.48-1.024c-14.293-5.84-29.173-12.234-30-12.96-1.083-.934.372-3.387 2.265-5.089a9.8 9.8 0 01.662-.545c.423-.323.88-.6 1.364-.826.14-.066.29-.124.43-.173l.223-.075a28.982 28.982 0 014.257-.47h.488l.926-.058 2.058-.116 1.091-.058 1.116-.049 1.133-.058c2.29-.099 4.646-.19 6.787-.256h5.125l2.092-.058h.777l1.149-5.204 1.083.446 32.38 12.969z" fill="#EBEBEB"/><path d="M37.587 354.907c1.57 1.363 54.163 23.78 56.676 23.359.95-.157 3.951-8.772 6.952-17.941l-32.95-13.736s-23.04.826-25.743 1.652c-2.703.826-6.498 5.286-4.935 6.666z" fill="#5DBD6D"/><path d="M39.207 353.131c8.829 3.436 44.095 18.123 52.56 22.187.066 0 .05.082 0 .057-8.82-3.213-43.97-18.172-52.593-22.103-.207-.083-.149-.215.033-.141zm7.448-5.385a7.605 7.605 0 014.332 4.311 7.34 7.34 0 010 5.477c0 .049-.124 0-.108 0a8.782 8.782 0 00-4.282-9.64.079.079 0 01-.045-.103.08.08 0 01.042-.044.076.076 0 01.061-.001zm18.501-1.429c3.513 1.412 7.051 4.344 8.035 8.103a.15.15 0 01-.256.107 52.677 52.677 0 00-8.019-7.806.237.237 0 01-.047-.301.239.239 0 01.287-.103zm-3.141-.075c3.521 1.413 7.06 4.337 8.035 8.104a.145.145 0 01-.256.099 52.596 52.596 0 00-8.02-7.798.24.24 0 01.24-.405zm-3.133-.074c3.513 1.413 7.051 4.337 8.027 8.104 0 .148-.174.198-.248.099a51.922 51.922 0 00-8.027-7.798.238.238 0 01-.053-.31.245.245 0 01.133-.104.243.243 0 01.168.009zm-3.142-.074c3.514 1.412 7.052 4.336 8.027 8.103.041.14-.165.198-.248.099a52.262 52.262 0 00-8.018-7.797.24.24 0 01.24-.405zM93.007 366.1c3.918 1.652 1.364 7.74-2.563 6.088-3.927-1.652-1.364-7.74 2.563-6.088z" fill="#263238"/><path d="M63.453 340.65a20.525 20.525 0 003.067 6.021l.273.397a83.87 83.87 0 011.537 2.305.331.331 0 00.249.156.476.476 0 00.496-.19.087.087 0 00.042.021.094.094 0 00.088-.023.1.1 0 00.026-.039c0-.124.075-.239.116-.372l.05-.123a3.22 3.22 0 01.132-.463c.091-.363.182-.735.248-1.115a19.93 19.93 0 000-8.186c-.454-1.966-2.083-4.345-4.472-3.609-2.282.677-2.398 3.337-1.852 5.22zm1.05-2.949c1.934-3.659 4.133.694 4.43 2.164.16.954.255 1.917.282 2.883a37.23 37.23 0 01-.074 4.188 32.28 32.28 0 00-.1 1.553v.239l-.132-.215a2.377 2.377 0 00-.132-.239 44.077 44.077 0 00-1.025-1.652c-.347-.529-.827-1.322-1.232-1.982-1.058-1.644-3.116-4.932-2.058-6.939h.041z" fill="#263238"/><path d="M68.513 349.522c1.14.71 2.29 1.486 3.447 2.213a19.1 19.1 0 005.34 2.478c1.819.446 4.356.306 5.117-1.726.035-.081.066-.163.09-.248.679-2.395-1.719-3.973-3.703-4.386a19.972 19.972 0 00-7.44 0c-.627.107-1.246.258-1.851.454a1.874 1.874 0 00-.496.157.168.168 0 00-.116.05c-.096.017-.19.045-.281.083a.116.116 0 00-.038.026.12.12 0 00-.032.086c.001.015.005.03.012.044a.47.47 0 00-.23.371.467.467 0 00.18.398zm1.29-.331a5.857 5.857 0 00-.497-.264.819.819 0 00-.19-.107 1.78 1.78 0 01.231 0c1.19-.083 2.365-.199 3.563-.257.736 0 1.455-.066 2.191 0a21.24 21.24 0 012.893.248c1.232.207 4.48 1.702 3.456 3.354a3.03 3.03 0 01-1.19 1.016c-2.001 1.107-5.333-.892-6.994-1.867a66.44 66.44 0 00-3.464-2.123z" fill="#263238"/><path d="M76.184 330.763l32.24 12.456a308.283 308.283 0 0019.013-45.587c5.059-15.95 10.457-33.618 11.11-34.692 2.141-3.576 40.986-53.979 52.907-66.955 15.707-17.074-.124-37.881-.124-37.881h-43.35l-.215 15.628c-3.423 5.502-39.102 57.697-43.417 70.45-7.589 22.294-28.164 86.581-28.164 86.581z" fill="#37474F"/><path d="M161.562 232.618c-3.017 3.857-5.952 7.64-8.672 11.159l-10.16-15.289 7.936-12.233 10.896 16.363zm-11.714 15.124l-2.075 2.66-9.779-14.695 1.876-2.907 9.978 14.942z" fill="#5DBD6D"/><path d="M156.718 166.34a40.113 40.113 0 01-9.011 7.434 40.288 40.288 0 019.011-7.434z" fill="#37474F"/><path d="M159.983 81.056a3.853 3.853 0 011.529-.232c2.381.116 4.208 1.884 5.49 3.717 1.364 1.974 2.364 4.395 4.348 5.84.752.61 1.702.921 2.67.876a3.654 3.654 0 002.521-1.702c.653-.884 1.232-2.081 2.373-2.428a3.1 3.1 0 012.711.694c1.951 1.495 2.207 4.286 3.357 6.327a12.444 12.444 0 005.34 5.047 12.243 12.243 0 0010.093.23c1.166-.511 2.199-1.271 3.307-1.833a4.398 4.398 0 013.505-.438c.885.356 2.984 3.197 2.918 7.509 0 .314.554.297.67 0 .234-.594.433-1.201.595-1.818a16.603 16.603 0 00-3.307-14.785 17.307 17.307 0 00-6.795-4.906 28.273 28.273 0 01-4.323-1.884 8.842 8.842 0 01-2.827-2.973c-1.373-2.28-2.183-4.857-3.952-6.89a14.542 14.542 0 00-5.894-4.005 17.274 17.274 0 00-14.219 1.156c-4.356 2.396-10.391 12.588-10.11 12.498z" fill="#263238"/><path d="M160.173 81.005a6.619 6.619 0 013.067-.115 5.638 5.638 0 012.422 1.33c1.554 1.404 2.397 3.304 3.307 5.162.909 1.859 1.818 3.544 3.554 4.518.75.445 1.609.668 2.48.645a3.573 3.573 0 002.414-1.264c1.174-1.272 2.249-3.255 4.258-3.164 2.008.091 3.058 2.148 3.885 3.626 2.017 3.627 4.092 8.624 8.787 9.235a15.304 15.304 0 007.176-1.198c1.595-.603 3.604-1.387 5.224-.462.058.041 0 .124-.066.09-1.728-.957-3.604.182-5.208.868a16.105 16.105 0 01-6.018 1.412 7.976 7.976 0 01-5.572-2.213 18.404 18.404 0 01-3.645-5.154c-.505-.967-.992-1.933-1.53-2.883a6.603 6.603 0 00-1.843-2.297 2.307 2.307 0 00-2.745 0 12.211 12.211 0 00-2.066 2.214 4.683 4.683 0 01-2.166 1.528 4.31 4.31 0 01-2.174 0 6.736 6.736 0 01-3.894-2.882c-1.314-1.942-1.943-4.263-3.307-6.187a6.701 6.701 0 00-2.678-2.379 6.809 6.809 0 00-3.596-.24.121.121 0 01-.05-.029.135.135 0 01-.032-.049.126.126 0 01.016-.112zm10.631-14.488c4.365-2.477 9.862-2.064 14.053.463a17.417 17.417 0 015.787 5.782c1.364 2.18 2.48 4.593 4.274 6.451 2.008 2.049 4.794 2.635 7.39 3.602a15.485 15.485 0 015.597 3.584 16.513 16.513 0 014.794 11.647c0 .553 0 1.098-.091 1.652a.052.052 0 01-.021.026.059.059 0 01-.032.01.06.06 0 01-.033-.01.058.058 0 01-.021-.026 15.881 15.881 0 00-4.134-11.894 15.707 15.707 0 00-5.05-3.784c-2.373-1.098-5.051-1.486-7.283-2.899-2.092-1.338-3.415-3.51-4.613-5.617-1.306-2.304-2.604-4.567-4.629-6.327a14.172 14.172 0 00-13.847-2.957c-5.324 1.867-8.54 6.773-10.929 11.564l-.942 1.933c0 .074-.157 0-.124-.041 2.24-5.022 4.927-10.292 9.854-13.159z" fill="#263238"/><path d="M158.288 78.652a2.414 2.414 0 012.075-1.181c.546.165 3.092 3.808 2.836 4.881-.257 1.074-2.29.9-2.29.9l-2.621-4.6z" fill="#5DBD6D"/><path d="M146.632 151.282l1.298 6.847h42.417s-6.614-34.733-22.163-45.033c-7.771-5.155-14.88-2.891-18.303 2.882-.876 1.462-9.754 16.785-9.498 24.136.24 6.484 6.249 11.168 6.249 11.168z" fill="#FFCCB3"/><path d="M140.374 140.114c.232 6.079 5.547 10.581 6.2 11.118l41.334-2.792c-.959-3.37-2.208-7.326-3.795-11.407a75.483 75.483 0 01-12.301-.562c-1.81-.338-5.786-6.343-10.97-5.732-5.183.611-10.275 5.732-10.275 5.732a16.631 16.631 0 00-8.399-4.84c-1.083 3.188-1.835 6.22-1.794 8.483z" fill="#263238"/><path d="M140.374 140.114c.248 6.484 6.266 11.167 6.266 11.167l.405 2.693 42.888-3.99c-3.125-10.002-10.416-29.389-21.725-36.889a18.587 18.587 0 00-4.133-2.081c-2.546 4.08-10.747 16.842-14.054 15.999-2.976-.776-.661-8.582.554-12.125-.256.347-.496.702-.727 1.09-.843 1.462-9.722 16.784-9.474 24.136zm25.701-27.523c3.605-.281 11.574 11.564 13.392 19.585 1.083 4.708-.19 8.4-2.91 8.764-3.306.454-8.324-3.222-10.523-7.971-3.637-7.905-4.109-20.056.041-20.378z" fill="#37474F"/><path d="M160.355 145.524a40.341 40.341 0 00-6.828 1.793 44.81 44.81 0 00-3.258 1.396c-.537.247-1.074.479-1.653.702a6.379 6.379 0 01-1.752.512c-.058 0-.05.107 0 .107a10.908 10.908 0 001.711-.148 10.2 10.2 0 001.604-.471c1.124-.405 2.232-.876 3.306-1.305 2.265-.826 4.522-1.702 6.829-2.354.19-.033.148-.248.041-.232zm5.886 2.123a42.334 42.334 0 00-5.787 0c-.959.074-1.909.215-2.868.38a38.27 38.27 0 00-1.356.273c-.455.099-.984.297-1.48.396-.058 0-.049.107 0 .099.472-.074.959-.058 1.43-.099l1.439-.132c.959-.091 1.918-.165 2.877-.264 1.918-.199 3.827-.364 5.786-.488.075.041.058-.157-.041-.165z" fill="#263238"/><path d="M160.909 111.51c-.157.941-4.199 7.244-8.457 7.318-1.389 0-1.835-7.533-1.835-7.533l-.165-.554-2.249-7.698 8.812-6.476 1.282-.826s.471 2.148 1.033 4.832c0 .124.058.248.083.38.041.144.074.29.099.438.091.397.182.826.264 1.214.083.388.124.612.174.942.05.33.116.644.182.975.419 2.308.678 4.643.777 6.988z" fill="#FFCCB3"/><path d="M159.347 100.557a16.078 16.078 0 01-8.879 10.21l-2.248-7.699 8.812-6.475 1.281-.826 1.034 4.79z" fill="#263238"/><path d="M135.745 90.538c-1.372 14.042 6.87 16.412 9.92 16.701 2.745.265 12.127.826 14.938-12.968s-3.307-18.866-9.515-19.824c-6.208-.958-13.971 2.073-15.343 16.09z" fill="#FFCCB3"/><path d="M138.2 88.505c.331 0 .637-.082.959-.124.348 0 .686-.11.967-.314a.516.516 0 00.042-.61 1.26 1.26 0 00-1.199-.389c-.452.03-.876.228-1.19.553a.533.533 0 00-.075.579.533.533 0 00.496.305zm9.226.637a7.524 7.524 0 01-.943-.248 1.571 1.571 0 01-.909-.438.51.51 0 010-.61 1.24 1.24 0 011.24-.224c.444.088.839.338 1.108.702a.532.532 0 01.011.566.527.527 0 01-.507.252zm-2.133 2.783s.075.05.066.09c-.124.95-.115 2.066.719 2.479v.05c-1.041-.265-1.041-1.735-.785-2.62z" fill="#263238"/><path d="M146.269 91.017c1.545 0 1.347 3.13-.083 3.09-1.43-.042-1.215-3.123.083-3.09z" fill="#263238"/><path d="M146.864 91.224c.256.19.504.512.826.57.323.057.678-.248.943-.546h.058c0 .595-.298 1.182-.943 1.231-.644.05-.967-.504-1.074-1.107-.017-.074.082-.231.19-.148zm-6.787.181s-.083 0-.083.075c0 .966-.215 2.056-1.099 2.329v.05c1.074-.091 1.306-1.545 1.182-2.454z" fill="#263238"/><path d="M139.275 90.356c-1.538-.207-1.827 2.874-.405 3.064 1.422.19 1.686-2.89.405-3.064z" fill="#263238"/><path d="M138.613 90.496c-.264.14-.529.413-.826.405-.298-.008-.554-.364-.736-.71h-.058c-.066.586.066 1.222.62 1.387.554.165.934-.322 1.133-.892.041-.074-.066-.248-.133-.19zm6.564 8.888c-.223.23-.446.545-.826.586a2.634 2.634 0 01-1.034-.215s-.066 0-.041.05a1.28 1.28 0 001.232.487 1.01 1.01 0 00.727-.826c.058-.099-.025-.115-.058-.082zm-3.902-3.568s-.239 1.42-.264 2.098c0 .066.165.099.388.124a3.212 3.212 0 003.15-1.107c.05-.066 0-.132-.099-.091a4.846 4.846 0 01-2.951.743c0-.19.496-2.42.388-2.478a6.197 6.197 0 00-1.546.298c.414-2.982 1.306-5.873 1.654-8.847a.094.094 0 00-.065-.101.093.093 0 00-.065.005.092.092 0 00-.044.047 48.964 48.964 0 00-2.215 9.457c-.009.405 1.397-.057 1.669-.148z" fill="#263238"/><path d="M142.102 97.856c.332.443.774.793 1.281 1.016.28.117.591.14.885.066.645-.157.67-.744.554-1.248a3.81 3.81 0 00-.273-.776 4.21 4.21 0 01-2.447.942z" fill="#263238"/><path d="M143.384 98.872c.28.117.59.14.884.066.645-.157.67-.744.554-1.248a1.507 1.507 0 00-1.438 1.182z" fill="#FF9CBD"/><path d="M158.834 95.527c-2.612.174-2.918-5.782-2.918-5.782s-10.937-2.536-11.342-11.564a15.22 15.22 0 01-8.176 7.864s.976-9.83 8.912-11.275c0 0 9.92-2.95 14.88 5.071 4.96 8.02.397 15.57-1.356 15.686z" fill="#263238"/><path d="M144.574 77.486a9.997 9.997 0 00.248 4.13 10.26 10.26 0 001.868 3.75c.216.291.45.567.703.826l.364.389c.132.115.264.23.405.338.273.223.537.455.826.661l.893.553c.149.083.298.182.455.265l.471.215.951.43c.653.23 1.322.42 1.984.602-.62-.314-1.257-.562-1.86-.876l-.885-.503-.446-.248c-.141-.091-.273-.198-.413-.297a18.664 18.664 0 00-.827-.579c-.281-.181-.504-.446-.761-.669l-.372-.33-.339-.372a7.117 7.117 0 01-.653-.752 11.654 11.654 0 01-1.901-3.51 12.124 12.124 0 01-.504-1.958 11.926 11.926 0 01-.207-2.065z" fill="#263238"/><path d="M157.784 94.932s2.918-4.502 4.96-3.486c2.042 1.016 0 7.475-2.348 8.434a2.388 2.388 0 01-2.686-.387 2.38 2.38 0 01-.554-.778l.628-3.783z" fill="#FFCCB3"/><path d="M162.091 93.28v.066c-1.653.727-2.422 2.28-2.976 3.874a1.326 1.326 0 011.959-.43s0 .1-.041.092a1.48 1.48 0 00-1.595.57 6.929 6.929 0 00-.72 1.33c-.074.148-.339.082-.289-.091-.091-2.123 1.422-5.113 3.662-5.41z" fill="#263238"/><path d="M171.829 112.592c20.402 3.973 38.795 17.833 40.201 23.871 2.008 8.656-12.144 32.429-16.658 41.721-1.405 2.891-19.84-14.76-18.327-17.841 1.513-3.081 12.888-19.444 12.888-19.866 0-.892-17.898-15.405-22.469-18.998-4.1-3.279-6.729-11.052 4.365-8.887z" fill="#FFCCB3"/><path d="M155.577 183.182a3.826 3.826 0 003.794 2.18 5.711 5.711 0 00.744 3.8c1.298 1.949 4.96.76 4.96.76a7.038 7.038 0 001.43 3.882c1.43 1.735 5.258 1.065 5.258 1.065a6.181 6.181 0 003.406 2.619c3.819 1.016 8.266-3.098 11.052-5.691 2.786-2.594 8.424-12.58 9.689-14.381l-16.484-18.279s-15.988 8.004-18.881 11.564c-2.472 2.924-6.159 9.73-4.968 12.481z" fill="#FFCCB3"/><path d="M159.231 184.958c1.835-3.775 4.687-6.798 7.357-9.978a.076.076 0 01.052-.027c.02-.001.04.005.056.018a.081.081 0 01.026.052.075.075 0 01-.018.056c-2.703 3.13-4.737 6.757-7.308 9.986-.049.091-.215-.041-.165-.107zm5.654 4.675c.5-.817 1.106-1.564 1.802-2.222a77.555 77.555 0 012.108-2.189 113.53 113.53 0 014.398-4.212c.066-.058.174 0 .108.09a140.895 140.895 0 00-4.183 4.395c-.686.751-1.356 1.503-2.026 2.263a13.426 13.426 0 01-1.959 2.057.156.156 0 01-.1.061.154.154 0 01-.148-.243zm6.903 5.17a7.573 7.573 0 011.728-1.908c.669-.644 1.33-1.288 1.984-1.941a146.27 146.27 0 003.901-3.94c.067-.066.174 0 .108.091-1.281 1.371-2.546 2.759-3.836 4.13-.636.669-1.281 1.338-1.926 1.999a7.21 7.21 0 01-1.893 1.652s-.108-.041-.066-.083zm10.085-42.72c.661-.941 1.331-1.875 2.009-2.808a36.338 36.338 0 012.372-2.784h.05c-.637.967-1.199 1.974-1.885 2.908a80.066 80.066 0 00-2.034 2.924c-1.298 1.933-2.686 3.808-3.976 5.782-.041.058-.149 0-.116-.066a65.774 65.774 0 013.58-5.956zm-9.11-25.615l.976.504a66.128 66.128 0 01-3.894-3.56s0-.074.05-.05a113.191 113.191 0 014.72 3.668c.728.603 1.48 1.189 2.182 1.817.703.628 1.555 1.446 2.39 2.106.099.075 0 .232-.108.157-.827-.636-1.653-1.181-2.48-1.784s-1.389-1.09-2.075-1.652c-.248-.107-.496-.206-.736-.338-.388-.207-.777-.413-1.149-.653-.752-.463-1.479-.958-2.215-1.446.785.438 1.554.843 2.339 1.231z" fill="#263238"/><path d="M428.749 118.746c8.391-7.69 22.585-26.498 22.585-32.792 0-5.006-10.673-17.561-17.939-26.193-1.967-2.33-14.235 11.275-12.078 13.695 4.522 5.105 10.416 12.638 10.698 14.092.578 3.023-7.854 16.941-10.747 24.086-4.596 11.135 1.785 12.324 7.481 7.112z" fill="#FFCCB3"/><path d="M416.142 67.848c1.72 3.866 7.391 8.029 7.391 8.029l11.507-14.125s-4.489-5.906-5.481-10.127c-.24-1.04-.678-6.236-1.959-11.49-1.455-5.971-3.72-12.05-4.357-12.455-1.182-.826-3.05.685-3.017 4.956.033 4.27 1.513 12.522 1.472 13.042-.037.17-.084.339-.141.504-.132.19-5.63 2.693-6.167 5.36-.537 2.669.29 15.686.752 16.306z" fill="#FFCCB3"/><path d="M424.864 53.294s2.149-10.127 1.306-12.109c-.843-1.982-4.075-14.653-5.249-15.47-1.174-.819-3.051.693-3.026 4.955.025 4.262 1.521 12.522 1.48 13.043-.041.52-3.356 9.011-3.422 9.912-.067.9 8.911-.33 8.911-.33z" fill="#FFCCB3"/><path d="M426.881 47.76c0-1.132-.075-2.264-.133-3.395a57.347 57.347 0 00-.14-1.702c0-.28-.058-.561-.091-.826 0-.14-.05-.289-.075-.43a3.013 3.013 0 00-.115-.437 500.376 500.376 0 00-1.959-6.492c-.67-2.156-1.34-4.32-2.075-6.484a7.433 7.433 0 00-.827-1.553 3.083 3.083 0 00-.604-.67 1.431 1.431 0 00-.826-.363 1.132 1.132 0 00-.827.355 2.539 2.539 0 00-.512.719 6.1 6.1 0 00-.513 1.652c.161-.54.38-1.06.653-1.553a2.52 2.52 0 01.521-.62.912.912 0 01.686-.239 1.812 1.812 0 011.157.95c.283.472.508.977.67 1.503a404.948 404.948 0 001.943 6.5c.669 2.165 1.347 4.32 2.099 6.469.17.537.283 1.09.339 1.651.083.554.149 1.116.224 1.652l.405 3.313z" fill="#263238"/><path d="M422.954 54.64s2.307-11.101 1.464-13.083c-.844-1.983-4.076-14.662-5.241-15.48-1.166-.817-3.051.694-3.026 4.956.025 4.262 1.513 12.523 1.471 13.043-.041.52-2.389 9.086-2.48 9.912-.091.826 7.812.652 7.812.652z" fill="#FFCCB3"/><path d="M425.591 49.445a110.33 110.33 0 00-.347-4.13 91.971 91.971 0 00-.273-2.073 20.158 20.158 0 00-.165-1.033 7.994 7.994 0 00-.273-1.032c-.827-2.652-1.653-5.312-2.48-7.955l-1.29-3.965-.338-.983a7.925 7.925 0 00-.389-.999 3.975 3.975 0 00-.595-.933 1.871 1.871 0 00-.976-.653 1.072 1.072 0 00-.644.05 1.427 1.427 0 00-.488.355 2.981 2.981 0 00-.587.941 8.975 8.975 0 00-.562 2.04 12.221 12.221 0 000 4.18 12.97 12.97 0 01.248-4.13c.139-.667.35-1.318.628-1.94a2.78 2.78 0 01.529-.827.766.766 0 01.744-.248c.278.1.52.282.694.52.199.256.368.533.505.827.256.595.438 1.28.653 1.94l1.265 3.966a284.817 284.817 0 002.612 7.921c.127.316.226.642.298.975.074.33.148.669.214 1.007.124.678.24 1.363.348 2.049l.669 4.13z" fill="#263238"/><path d="M423.318 54.632s-.265-10.11-1.042-11.96c-.777-1.85-2.48-10.631-3.538-11.39-1.058-.76-2.835.643-2.811 4.592.025 3.948.066 8.648 0 9.135-.066.488-.719 8.161-.785 8.979-.066.818 8.176.644 8.176.644z" fill="#FFCCB3"/><path d="M424.087 51.914c-.157-1.784-.348-3.56-.529-5.344-.091-.884-.182-1.776-.29-2.668l-.082-.669a4.73 4.73 0 00-.133-.677c-.099-.438-.223-.868-.347-1.305a92.257 92.257 0 00-1.653-5.113c-.298-.826-.612-1.652-.934-2.528a41.256 41.256 0 00-.521-1.247 7.365 7.365 0 00-.628-1.247 1.04 1.04 0 00-.714-.497 1.033 1.033 0 00-.841.224c-.404.29-.737.67-.975 1.107a5.833 5.833 0 00-.76 2.693c-.042 1.8-.042 3.584-.042 5.377v5.352c0 .884-.091 1.785-.149 2.676a58.287 58.287 0 00-.099 2.685c.314-1.768.554-3.535.752-5.328v-5.377c0-1.792 0-3.585.083-5.36a5.346 5.346 0 01.67-2.43 2.84 2.84 0 01.768-.924.491.491 0 01.778.124c.224.366.417.75.578 1.148.182.396.356.826.521 1.222.331.826.645 1.652.951 2.478.603 1.652 1.215 3.362 1.752 5.064.133.42.265.826.38 1.272.1.43.178.866.232 1.305l.38 2.651.852 5.336z" fill="#263238"/><path opacity=".1" d="M428.749 118.747a101.573 101.573 0 009.92-10.928l-6.993-18.032c-1.654 5.096-7.97 15.859-10.425 21.848-4.579 11.134 1.802 12.324 7.498 7.112z" fill="#000"/><path d="M361.657 377.408c2.083.652 53.361.884 55.576-.603.827-.554 1.158-9.185 1.224-19.634v-.339c0-2.156.19-37.484.19-37.484l-37.431-.066-.992 37.996v.644s-14.467 9.086-16.732 10.953c-2.265 1.867-3.919 7.897-1.835 8.533z" fill="#FFCCB3"/><path d="M361.657 377.417c2.091.644 53.361.875 55.585-.612.827-.545 1.157-9.185 1.215-19.642v-5.014h-38.109l-.133 5.146v.653s-14.458 9.086-16.731 10.953c-2.274 1.866-3.919 7.871-1.827 8.516z" fill="#EBEBEB"/><path d="M361.657 377.417c2.091.644 53.361.875 55.585-.612.826-.537 1.149-9.028 1.215-19.353h-38.233v.496s-14.459 9.086-16.732 10.952c-2.273 1.867-3.927 7.872-1.835 8.517z" fill="#5DBD6D"/><path d="M363.79 375.831c8.547-.405 43.094-1.165 51.584-.826.066 0 .066.049 0 .057-8.474.612-42.987 1.058-51.584.95-.182-.066-.182-.181 0-.181zm2.331-8.98a10.521 10.521 0 017.646 1.421c1.736 1.198 3.307 3.007 3.621 5.22 0 .067-.132.091-.149 0-1.364-4.039-6.258-6.987-11.094-6.533a.058.058 0 01-.03.018.07.07 0 01-.035 0 .058.058 0 01-.03-.018.06.06 0 01-.017-.031.07.07 0 01.001-.035.072.072 0 01.051-.045.074.074 0 01.036.003zm16.004-7.871c3.745-.561 8.267.166 11.036 2.916.108.108-.05.256-.165.215a52.41 52.41 0 00-10.871-2.66.238.238 0 01-.195-.235c0-.056.019-.11.055-.153a.244.244 0 01.14-.083zm-2.745 1.528c3.745-.562 8.267.165 11.036 2.916.108.099-.049.256-.165.206a52.73 52.73 0 00-10.871-2.668.238.238 0 01-.118-.367.238.238 0 01.118-.087zm-2.744 1.528c3.745-.57 8.267.166 11.036 2.908.107.107-.041.256-.165.215a52.614 52.614 0 00-10.871-2.652.238.238 0 010-.471zm-2.744 1.529c3.753-.57 8.266.157 11.036 2.907.107.107-.042.256-.166.215a52.115 52.115 0 00-10.87-2.652.238.238 0 010-.47zm36.902 2.354c4.257-.075 4.373 6.525.116 6.608-4.258.082-4.39-6.551-.116-6.608z" fill="#263238"/><path d="M377.744 354.982a20.505 20.505 0 005.704 3.634c.149.066.289.141.438.199.827.404 1.653.825 2.48 1.205a.382.382 0 00.297 0 .476.476 0 00.331-.413c.015.002.031 0 .045-.005a.122.122 0 00.038-.026.094.094 0 00.022-.039.114.114 0 00.003-.045c0-.124-.058-.248-.083-.388v-.124c-.041-.149-.091-.314-.124-.471a11.816 11.816 0 00-.339-1.09 20.204 20.204 0 00-4.133-7.054c-1.397-1.462-4.001-2.685-5.696-.826-1.695 1.858-.372 4.08 1.017 5.443zm-.595-3.073c-.191-4.13 3.926-1.503 4.918-.388.62.745 1.192 1.528 1.711 2.346a35.122 35.122 0 012.051 3.651c.231.47.471.917.71 1.387l.1.215-.215-.124-.24-.14c-.579-.314-1.149-.628-1.744-.934-.595-.305-1.381-.71-2.067-1.082-1.67-.834-5.117-2.659-5.224-4.964v.033z" fill="#263238"/><path d="M386.68 360.037c1.339 0 2.719.116 4.092.157a19.07 19.07 0 005.861-.57c1.794-.537 3.91-1.949 3.53-4.08a1.696 1.696 0 00-.05-.265c-.628-2.403-3.497-2.552-5.415-1.899a19.911 19.911 0 00-6.439 3.807c-.486.414-.944.858-1.373 1.33a2.286 2.286 0 00-.339.389.165.165 0 00-.074.099 1.31 1.31 0 00-.207.214.12.12 0 00-.025.128.12.12 0 00.025.038.463.463 0 00-.045.223.463.463 0 00.459.429zm.934-.933h-.554a.924.924 0 00-.223 0c.058-.05.132-.083.19-.132.992-.678 1.942-1.38 2.943-2.032.612-.413 1.223-.826 1.868-1.149a21.145 21.145 0 012.621-1.255c1.165-.446 4.72-.826 4.679 1.14a3 3 0 01-.505 1.478c-1.165 1.966-5.051 1.933-6.977 1.941-1.38.025-2.72-.016-4.075.009h.033z" fill="#263238"/><path d="M434.015 160.946s-5.456 33.239-5.787 34.312c0 0-2.025.958-5.687 2.652l-3.729 149.911-39.035-.182s-2.397-120.274 3.555-166.67c.653-5.072 4.133-20.023 4.133-20.023h46.55z" fill="#37474F"/><path d="M407.694 347.746h-.57a41.33 41.33 0 00.487-4.196c.083-2.114-.33-4.634-2.48-5.575a5.781 5.781 0 00-5.356.743c-2.91 1.958-3.72 5.633-4.572 8.979h-.57c.727-2.825 1.38-5.708 3.257-8.013 1.876-2.304 5.332-3.56 7.985-1.982 3.348 2.016 2.299 6.831 1.819 10.044zm6.39-12.39c-1.827 3.767.257 7.897 1.654 11.432.124.33.248.669.363 1.008h.595c-.09-.281-.181-.554-.281-.826-1.413-3.8-4.133-8.888-.992-12.588a6.2 6.2 0 013.77-2.024v-.554a6.623 6.623 0 00-5.109 3.552zm-24.601-6.608c-3.414-.413-6.614 1.578-10.003 1.561v.529c.833.014 1.664-.064 2.48-.231 3.026-.612 8.953-3.189 10.565 1.024.719 1.883-.38 3.973-1.654 5.336-1.421 1.536-3.348 2.296-5.257 3.04-2.183.826-4.357 1.759-5.944 3.304v.76a12.448 12.448 0 015.026-3.106c3.307-1.305 6.812-2.553 8.226-6.137 1.082-2.71-.397-5.675-3.439-6.08zm19.013-2.106c-8.639-1.578-13.483-10.201-20.973-14.042a14.56 14.56 0 00-8.266-1.702v.521c7.018-1.099 13.756 5.856 18.699 10.077 2.935 2.478 6.216 4.84 10.06 5.617a16.44 16.44 0 0011.26-1.842v-.678a15.876 15.876 0 01-10.755 2.082l-.025-.033zm-8.994-27.258a9.833 9.833 0 00-4.53 7.351 5.977 5.977 0 004.522 6.46c3.529.826 7.249-.959 10.168-2.767 2.918-1.809 6.613-4.197 10.11-3.759v-.537l-.405-.041c-4.299-.281-7.879 2.726-11.425 4.667-3.24 1.776-8.333 3.494-11.193.116-2.364-2.801-.942-7.096 1.29-9.499 2.959-3.189 7.795-3.602 11.887-3.817 3.381-.181 6.828-.214 10.094-1.206v-.636a33.892 33.892 0 01-8.705 1.149c-3.968.19-8.275.371-11.788 2.535l-.025-.016zm-.538-25.482c1.555-2.635 1.753-6.047-.462-8.392-2.051-2.164-5.341-2.478-8.127-1.974-3.728.619-6.745 2.783-9.92 4.666a32.87 32.87 0 01-1.099.628v.702a47.71 47.71 0 002.025-1.164c3.307-1.966 6.424-4.13 10.342-4.386 3.571-.265 7.622 1.329 7.87 5.418.248 4.254-3.406 7.508-7.093 8.789-4.133 1.437-8.573 1.288-12.789 2.321l-.429.115v.628c3.405-.933 6.985-1.024 10.44-1.71 3.696-.71 7.275-2.263 9.267-5.625l-.025-.016zm6.878 5.534c-6.712 5.179-10.275 13.596-17.558 18.131a14.948 14.948 0 01-9.044 2.354v.545a16.793 16.793 0 0010.234-2.957c7.052-4.907 10.573-13.373 17.641-18.255a15.16 15.16 0 0112.152-2.577c.42.104.834.231 1.24.38v-.619a13.727 13.727 0 00-3.918-.719 16.67 16.67 0 00-10.722 3.734l-.025-.017zm9.772-34.37c-2.051 3.205-.191 6.922 1.306 9.912 1.008 2.007 2.025 4.056 2.075 6.344a5.418 5.418 0 01-2.712 5.129c-3.158 1.561-7.308-.437-9.027-3.238-2.406-3.907-1.81-8.863-1.463-13.216.306-3.915.463-8.202-1.538-11.745a8.416 8.416 0 00-7.084-4.238 5.468 5.468 0 00-5.787 4.783c-.455 3.576 1.653 6.922 1.405 10.49a6.235 6.235 0 01-2.811 4.544 6.244 6.244 0 01-5.298.709c-1.918-.677-3.2-2.436-4.902-3.469l-.174-.099v.752c1.281.826 2.356 1.982 3.67 2.808a6.844 6.844 0 004.243.857 6.843 6.843 0 003.908-1.856c2.563-2.371 2.141-5.782 1.397-8.863-.785-3.304-2.008-8.26 2.265-9.722 3.307-1.132 7.035.735 8.672 3.634 2.125 3.758 1.695 8.359 1.364 12.489-.331 4.13-.587 8.5 1.496 12.184a8.751 8.751 0 007.292 4.32 5.632 5.632 0 005.704-5.303c.413-4.13-2.414-7.434-3.704-11.135-.678-1.949-.827-4.13.405-5.93a6.325 6.325 0 013.976-2.396 8.678 8.678 0 011.1-.149v-.644a7.237 7.237 0 00-5.778 3.048zm-12.797-44.092a15.09 15.09 0 003.926-10.531c-.338-5.584-5.406-12.324-11.573-9.565-4.613 2.048-6.026 8.004-7.87 12.2-1.008 2.279-2.207 4.716-4.274 6.228a6.513 6.513 0 01-1.512.826l-.05.826a9.285 9.285 0 004.257-3.494c3.026-4.304 3.621-10.044 7.134-14.042a6.67 6.67 0 017.796-1.958c3.307 1.495 5.216 5.295 5.497 8.739.356 4.279-1.785 8.648-4.885 11.506-3.1 2.858-6.928 4.312-10.747 5.642a77.922 77.922 0 00-9.622 3.725c0 .248 0 .504-.042.752 4.026-2.082 8.647-3.304 12.797-4.956 3.398-1.346 6.737-3.114 9.201-5.898h-.033zm-11.574-37.418c.505-.826 1.05-1.734 1.654-2.61h-.769c-1.306 1.95-2.414 4.023-3.828 5.914a18.842 18.842 0 01-2.926 3.197c-.066.314-.132.628-.207.942 2.638-1.851 4.489-4.733 6.093-7.451l-.017.008zm16.36-2.197a3.621 3.621 0 00-.066-.413h-.711a9.537 9.537 0 01-3.083 8.715c-2.985 2.791-7.06 4.13-10.929 5.146-2.984.826-6.018 1.511-8.936 2.544-.05.28-.099.561-.149.826 3.737-1.355 7.647-2.123 11.449-3.304 3.547-1.091 7.176-2.611 9.747-5.386a10.038 10.038 0 002.695-8.128h-.017zm.165 67.79c-1.463-4.246 1.282-8.466.662-12.77-.455-3.122-2.753-5.708-6.126-5.088-3.373.619-5.786 3.667-7.44 6.492-3.116 5.262-5.348 13.596-12.218 15.058a8.154 8.154 0 01-2.653.124v.661c6.613.702 10.316-5.534 12.912-10.68 1.538-3.048 3.026-6.451 5.547-8.822 1.496-1.396 3.646-2.635 5.787-2.189 2.141.446 3.265 2.478 3.563 4.51.628 4.254-2.026 8.368-.72 12.613a10.33 10.33 0 007.093 6.707c2.457.674 5.065.541 7.44-.38v-.71a12.323 12.323 0 01-4.009.826c-4.224.149-8.416-2.28-9.821-6.352h-.017zm5.663-33.139c-1.967 2.478-2 5.889.364 8.12 2.364 2.23 5.629 2.882 8.432 4.204v-.661a17.024 17.024 0 00-1.116-.504c-2.852-1.173-6.919-2.197-8.209-5.36a5.608 5.608 0 011.496-5.948c1.654-1.734 4.134-2.412 6.498-2.61 2.546-.215 5.224.099 7.738-.438.041-.214.074-.429.115-.669a22.55 22.55 0 01-4.803.389c-3.736.016-7.969.28-10.498 3.477h-.017zm8.796-15.066a11.124 11.124 0 01-5.613-2.379 10.441 10.441 0 01-2.803-4.204 13.045 13.045 0 01.364-9.855 14.768 14.768 0 012.397-3.56h-.892a13.571 13.571 0 00-3.307 7.765c-.29 3.11.543 6.221 2.348 8.772 2.257 3.031 5.571 3.865 9.159 4.369 2.133.298 4.324.579 6.167 1.776l.199.141c.041-.232.082-.463.115-.702-2.347-1.454-5.381-1.644-8.134-2.123z" fill="#263238"/><path d="M409.438 256.226c-.612-1.941.612-58.646 2.001-60.678.248-.389 12.119 1.883 25.246 1.652 2.662-.058 28.983-1.595 28.983-1.595l-.686 35.048-35.935.826s-9.92 20.914-11.673 23.029c-1.752 2.114-7.341 3.659-7.936 1.718z" fill="#FFCCB3"/><path d="M409.43 256.225c-.595-1.949.62-58.604 2-60.678.24-.371 12.111.488 24.676 1.512v35.204l-7.059-.826s-9.92 20.906-11.673 23.029c-1.752 2.123-7.341 3.7-7.944 1.759z" fill="#EBEBEB"/><path d="M409.273 256.598c-.62-1.991.132-59.109 1.538-61.24.529-.826 9.647.223 19.261 1.19l-.827 35.385s-10.102 20.7-11.896 22.864c-1.793 2.164-7.456 3.783-8.076 1.801z" fill="#5DBD6D"/><path d="M411.546 255.829c.422-9.449 1.248-47.619.951-56.994 0-.074-.05-.074-.058 0-.629 9.367-1.141 47.536-1.05 56.994 0 .231.149.231.157 0zm7.953-4.618a7.586 7.586 0 00-2.199-5.707 7.35 7.35 0 00-5.01-2.214c-.058 0-.058.099 0 .107a8.797 8.797 0 017.085 7.814.064.064 0 00.024.032.07.07 0 00.075 0 .072.072 0 00.025-.032zm8.779-16.337c.132-3.783-1.116-8.194-4.133-10.614-.124-.091-.248.074-.199.19a52.563 52.563 0 013.894 10.482c.024.04.059.073.101.094.043.02.09.028.137.022a.235.235 0 00.126-.057.235.235 0 00.074-.117zm-1.199 2.899c.124-3.783-1.116-8.194-4.133-10.614-.124-.091-.256.074-.199.19a52.547 52.547 0 013.894 10.482.238.238 0 00.238.116.236.236 0 00.2-.174zm-1.199 2.899c.124-3.783-1.124-8.194-4.133-10.615-.116-.09-.248.075-.19.19a52.609 52.609 0 013.894 10.482.24.24 0 00.429-.057zm-1.173 2.899c.132-3.783-1.116-8.194-4.134-10.614-.115-.091-.248.074-.19.19a52.6 52.6 0 013.828 10.523.243.243 0 00.107.161.255.255 0 00.19.037.243.243 0 00.161-.107.28.28 0 00.038-.091.274.274 0 000-.099zm-3.266-42.15c.075-4.246-6.53-4.37-6.613-.116-.083 4.254 6.572 4.369 6.613.116z" fill="#263238"/><path d="M438.305 239.185c1.654-1.891.116-4.344-1.496-5.55a19.92 19.92 0 00-7.489-3.304 11.575 11.575 0 00-1.125-.223 4.276 4.276 0 01-.479-.066h-.141l-.396-.042a.098.098 0 00-.048.005.088.088 0 00-.038.028.083.083 0 00-.019.044.084.084 0 00.005.047.454.454 0 00-.372.372.346.346 0 00.05.289c.496.752.992 1.545 1.488 2.338.074.14.156.275.248.404a20.228 20.228 0 004.266 5.245c1.521 1.215 4.001 2.189 5.546.413zm-7.952-4.815c-.446-.636-.885-1.289-1.314-1.925-.43-.636-.753-1.09-1.133-1.652-.05-.074-.116-.148-.165-.215l-.149-.206.231.083c.488.19.968.371 1.464.536a37.826 37.826 0 013.86 1.652c.873.419 1.718.893 2.53 1.421 1.223.826 4.315 4.642.181 4.956-2.24.141-4.414-3.081-5.505-4.65z" fill="#263238"/><path d="M427.385 230.809a.104.104 0 00.083.039.102.102 0 00.045-.01.096.096 0 00.037-.029c.071-.068.134-.142.19-.223a.185.185 0 00.091-.09c.129-.118.245-.248.348-.389.422-.474.809-.979 1.157-1.511a19.863 19.863 0 003.042-6.831c.43-1.983-.049-4.808-2.48-5.155a1.455 1.455 0 00-.264 0c-2.166-.132-3.307 2.132-3.654 3.974a18.957 18.957 0 00.115 5.881c.199 1.363.439 2.717.629 4.047a.448.448 0 00.254.318.443.443 0 00.407-.021zm-.331-5.352c-.215-1.916-.694-5.782 1.116-7.145a3.044 3.044 0 011.414-.677c1.934-.265 1.984 3.304 1.653 4.51a21.524 21.524 0 01-.95 2.75c-.273.678-.587 1.33-.926 1.983-.529 1.073-1.116 2.098-1.654 3.155 0 .066-.066.14-.107.207a.966.966 0 000-.215c0-.19 0-.372-.041-.562-.166-1.33-.372-2.66-.505-3.965v-.041z" fill="#263238"/><path d="M409.942 160.946h25.933s1.893 6.683 3.307 7.228c7.489 2.94 39.266 11.514 57.668 21.245 15.839 8.375 18.112 31.222-4.076 37.426-29.148 8.144-60.346 8.053-60.346 8.053l-.389-39.21s23.147-3.164 45.219-2.61c0 0-23.345 7.012-48.261 2.734-2.439-.421-5.712-1.198-8.663-1.958a273.398 273.398 0 01-7.341-1.982l-3.051-30.926z" fill="#37474F"/><path d="M460.741 221.6a17.659 17.659 0 01-.992 5.228c-.587 2.016-1.232 4.007-1.653 6.055 0 .14-.058.281-.091.421l-.67.066c.579-3.023 1.653-5.947 2.431-8.929.446-1.809.826-4.287-.654-5.782-1.727-1.759-4.67-.718-6.257.694-4.216 3.75-3.58 9.681-4.613 14.868h-.653c.645-2.949.595-6.129 1.306-9.011.752-3.032 2.48-6.295 5.472-7.583a4.918 4.918 0 014.82.248 4.649 4.649 0 011.554 3.725zm-28.231-36.534c-2.48-3.354-6.613-3.478-10.308-4.13a11.12 11.12 0 01-5.613-2.379 10.441 10.441 0 01-2.803-4.204 13.043 13.043 0 01.364-9.854 14.725 14.725 0 012.397-3.561h-.892a13.565 13.565 0 00-3.307 7.765c-.29 3.11.543 6.221 2.348 8.772 2.257 3.031 5.571 3.866 9.159 4.37 2.133.297 4.324.578 6.167 1.775 1.844 1.198 3.373 3.172 2.728 5.378-1.025 3.502-5.836 3.51-8.771 3.527a22.501 22.501 0 00-6.175.669l1.232.322a15.088 15.088 0 011.893-.273c3.207-.272 6.613.306 9.663-1.057a4.62 4.62 0 002.802-5.197 4.602 4.602 0 00-.884-1.923zm2.365-4.601c2.711 2.296 6.249.124 8.316-1.982 2.067-2.107 3.571-4.742 5.167-7.236l-.695-.215c-.826 1.33-1.653 2.693-2.587 3.99-1.794 2.569-5.572 7.326-9.193 5.294-1.554-.875-2.207-2.783-2.215-4.485 0-2.164 1.165-4.13 2.438-5.782.686-.9 1.472-1.817 2.224-2.759-.116-.19-.231-.404-.347-.627-1.381 1.759-2.968 3.419-3.993 5.385-1.356 2.61-1.562 6.369.885 8.417zm-.571 16.124a10.634 10.634 0 011.761-1.231l.314-.165c3.671-1.933 7.986-2.354 11.962-3.304 4.133-1.008 8.341-2.404 11.871-4.898a18.07 18.07 0 006.969-9.574l-.629-.215a13.63 13.63 0 01-1.297 3.238 20.009 20.009 0 01-9.788 8.392c-4.059 1.785-8.407 2.602-12.714 3.544-2.761.595-5.787 1.388-8.168 3.04a9.02 9.02 0 00-1.322 1.074c-.244.23-.476.472-.695.726a6.985 6.985 0 00-.512.686v1.421a9.796 9.796 0 012.248-2.734zm42.16-14.183c-3.43-1.123-7.58 1.074-10.432 2.842a44.305 44.305 0 00-8.093 6.756c-.488.496-.968.992-1.439 1.495-1.107 1.157-2.19 2.33-3.306 3.494-1.116 1.165-1.993 2.115-3.018 3.147-2.645 2.668-5.538 5.436-8.953 7.088-2.876 1.404-7.142 1.891-9.093-.769v1.033c1.653 1.652 4.324 1.949 6.68 1.371 3.554-.876 6.555-3.304 9.217-5.699 2.166-1.958 4.133-4.13 6.167-6.237.562-.603 1.116-1.206 1.653-1.8a37.685 37.685 0 011.587-1.652 55.711 55.711 0 016.614-6.047 28.793 28.793 0 014.646-2.874c1.86-.909 4.009-1.801 6.117-1.735a4.957 4.957 0 014.555 3.626 7.433 7.433 0 01-.695 5.881c-2.033 3.751-6.059 6.361-9.647 8.467-7.44 4.361-15.789 6.93-22.915 11.779-6.175 4.196-11.896 10.738-12.755 18.42a16.672 16.672 0 000 3.956h.686a16.94 16.94 0 01.545-6.666c2.282-8.078 9.193-13.934 16.319-17.767 7.588-4.08 15.946-6.823 22.865-12.06 2.852-2.155 5.928-4.956 6.498-8.689.488-2.974-.827-6.393-3.803-7.393v.033zm8.589 31.008a8.526 8.526 0 00-6.993-5.41 7.992 7.992 0 00-7.878 3.94c-1.844 3.114-1.406 6.468.413 9.458a36.768 36.768 0 013.24 5.93c.445 1.15.78 2.339 1.001 3.552l.62-.107a18.816 18.816 0 00-1.166-4.13 38.074 38.074 0 00-3.034-5.444c-1.174-1.899-1.934-3.89-1.537-6.145a7.603 7.603 0 017.754-6.459c4.133.231 6.935 3.304 7.539 7.268.496 3.247 0 6.559.529 9.797a8.81 8.81 0 00.959 2.792l.678-.165a11.924 11.924 0 01-1.224-5.13c-.165-3.221.232-6.649-.901-9.747zm14.599 4.651c-1.314-4.089-4.034-7.385-6.547-10.788-2.513-3.403-4.96-7.434-4.307-11.845a12.984 12.984 0 014.547-7.723l-.637-.305a14.362 14.362 0 00-3.645 4.906 12.142 12.142 0 00.33 10.267c1.811 3.833 4.82 6.897 7.085 10.449 1.976 3.106 3.786 7.186 3.166 10.978.223-.133.446-.265.661-.405a13.444 13.444 0 00-.653-5.534zm4.671-5.328c-2.149-3.791 1-7.773 3.637-10.565a10.858 10.858 0 00-.248-.677 21.39 21.39 0 00-3.125 3.783c-1.793 2.916-2.48 6.798.381 9.309a8.802 8.802 0 002.314 1.462c.1-.198.19-.388.273-.586a6.687 6.687 0 01-3.232-2.759v.033z" fill="#263238"/><path d="M487.913 192.756a123.511 123.511 0 00-13.97-.826 93.97 93.97 0 015.398-.991c.099 0 .099-.174 0-.165a34.47 34.47 0 00-6.25 1.156c-3.091 0-6.175.107-9.258.264-8.069.413-9.821.587-17.865 1.372-4.563.454-9.217 1.519-13.78 1.99a.396.396 0 00-.38.397c0 1.189.091 2.387.132 3.576a.24.24 0 00.389.14.235.235 0 00.082-.14c.05-1.073.124-2.147.157-3.221 7.936-.661 9.68-1.346 17.625-2.032 7.944-.686 16.087-1.198 24.163-1.388a275.68 275.68 0 0113.549 0c.083.033.108-.115.008-.132zm-59.189-6.476a124.7 124.7 0 00-20.311 8.656c-.256.132-.116.545.157.438a400.729 400.729 0 0020.402-8.64c.521-.24.29-.62-.248-.454z" fill="#263238"/><path d="M422.227 189.831c0 .612-.265 4.527-.215 5.667a.23.23 0 10.462 0c.215-1.652.29-5.369.265-5.741-.033-.537-.512-.479-.512.074zM404.751 82.997a3.856 3.856 0 00-1.406.66c-1.909 1.43-2.43 3.916-2.48 6.155 0 2.395.496 4.956-.33 7.268a4.006 4.006 0 01-1.728 2.222 3.725 3.725 0 01-3.042 0c-1.034-.371-2.191-1.04-3.307-.685a3.087 3.087 0 00-1.86 2.09c-.769 2.329.579 4.79.769 7.12a12.415 12.415 0 01-1.596 7.169 12.129 12.129 0 01-5.017 4.725c-1.017.52-2.103.893-3.224 1.107-1.249.223-2.53.182-3.795.347a4.391 4.391 0 00-3.141 1.602c-.537.826-.686 4.312 1.785 7.856.174.247-.297.553-.562.363a16.61 16.61 0 01-7.068-15.223c.3-2.819 1.291-5.52 2.885-7.864a28.011 28.011 0 002.48-3.981 8.578 8.578 0 00.678-4.047c-.132-2.66-.909-5.246-.578-7.922a14.51 14.51 0 012.637-6.608 17.278 17.278 0 0112.524-7.03c4.943-.478 15.648 4.594 15.376 4.676z" fill="#263238"/><path d="M404.585 83.039a6.837 6.837 0 00-2.595 1.652 5.59 5.59 0 00-1.265 2.478c-.504 2.032-.132 4.08.165 6.112.298 2.032.48 3.948-.421 5.732a4.5 4.5 0 01-1.654 1.908 3.577 3.577 0 01-2.703.306c-1.653-.405-3.687-1.445-5.299-.248-1.612 1.198-1.339 3.494-1.19 5.188.355 4.13 1.43 9.424-2.117 12.563a15.34 15.34 0 01-6.613 3.015c-1.653.388-3.761.826-4.588 2.544 0 .058.075.091.099 0 .901-1.759 3.092-1.867 4.803-2.197a16.269 16.269 0 005.787-2.189 7.928 7.928 0 003.381-4.956c.404-2.083.448-4.22.132-6.319-.115-1.074-.264-2.156-.347-3.238a6.588 6.588 0 01.24-2.932 2.311 2.311 0 012.29-1.512 12.41 12.41 0 012.951.678 4.64 4.64 0 002.662.057 4.22 4.22 0 001.81-1.197 6.693 6.693 0 001.612-4.56c0-2.346-.777-4.625-.736-6.971a5.52 5.52 0 013.737-5.675.137.137 0 00.064-.085.143.143 0 00-.014-.105.14.14 0 00-.191-.05zM387.631 77c-5.018.364-9.325 3.8-11.417 8.26a17.338 17.338 0 00-1.537 8.004c.091 2.57.529 5.18.066 7.732-.521 2.825-2.48 4.865-4.133 7.12a15.548 15.548 0 00-2.629 6.096 16.507 16.507 0 002.554 12.34c.305.454.636.89.992 1.305.05.058.132 0 .083-.066a16.152 16.152 0 01-3.384-8.869 16.155 16.155 0 012.185-9.237c1.356-2.238 3.356-4.055 4.415-6.476.983-2.279.868-4.815.678-7.235-.207-2.635-.397-5.237.289-7.83a14.166 14.166 0 019.821-10.193c5.456-1.43 10.87.825 15.541 3.493l1.868 1.074c.075 0 .149-.058.075-.107-4.597-2.924-9.805-5.824-15.467-5.41z" fill="#263238"/><path d="M406.52 80.651a2.399 2.399 0 00-2.306-.594c-.488.297-1.993 4.468-1.464 5.443.529.975 2.439.273 2.439.273l1.331-5.121z" fill="#5DBD6D"/><path d="M432.453 144.228l3.422 16.718-48.517.422s6.613-36.344 15.054-46.612c5.687-6.946 12.854-6.872 17.674-2.527 1.215 1.099 12.507 15.587 14.367 22.426 1.612 6.046-2 9.573-2 9.573z" fill="#263238"/><path d="M414.902 141.428a44.13 44.13 0 017.118 1.107c1.165.297 2.306.652 3.455 1.032a33.22 33.22 0 001.711.529 7.042 7.042 0 001.836.339c.008.003.016.01.021.018a.043.043 0 01.008.027c0 .01-.002.019-.008.027a.045.045 0 01-.021.018c-.584.046-1.17.046-1.753 0a11.586 11.586 0 01-1.653-.305c-1.182-.289-2.356-.636-3.53-.942-2.381-.611-4.762-1.222-7.176-1.652-.124 0-.124-.206-.008-.198zm-5.836 2.486a47.359 47.359 0 015.911-.471c.992 0 1.976.042 2.959.124.472.042.943.083 1.414.141.471.057 1.033.198 1.546.247.058 0 .058.1 0 .091h-11.83c-.066.05-.066-.124 0-.132z" fill="#37474F"/><path d="M410.091 110.825c.347 1.322 3.985 7.162 8.06 6.707 2.092-.231 1.571-7.591 1.571-7.591l.066-.545.868-7.681-10.747-5.312s.083 14.051.182 14.422z" fill="#FFCCB3"/><path d="M409.926 101.64a15.54 15.54 0 009.862 7.756l.876-7.682-10.796-5.32s.025 2.404.058 5.246z" fill="#263238"/><path d="M430.403 89.29c2.215 13.382-5.564 16.223-8.449 16.694-2.621.43-11.573 1.561-15.194-11.564-3.621-13.125 1.942-18.345 7.886-19.642 5.944-1.297 13.541 1.123 15.757 14.513z" fill="#FFCCB3"/><path d="M426.55 86.54a8.683 8.683 0 01-.934-.09 1.554 1.554 0 01-.934-.28.488.488 0 01-.058-.587 1.214 1.214 0 011.141-.405c.437.02.851.2 1.165.504a.507.507 0 01.092.554.515.515 0 01-.472.305zm-9.234 1.017c.315-.075.587-.19.893-.29.319-.065.608-.23.827-.47a.479.479 0 00-.066-.587 1.201 1.201 0 00-1.199-.148 1.739 1.739 0 00-1.033.735.514.514 0 00.578.76zm2.158 3.196s-.066.05-.058.09c.149.91.157 1.983-.628 2.396v.05c1.008-.273.958-1.694.686-2.536z" fill="#263238"/><path d="M418.531 89.903c-1.488.074-1.223 3.047.157 2.973 1.381-.074 1.059-3.04-.157-2.974z" fill="#263238"/><path d="M417.961 90.11c-.24.19-.471.511-.827.57-.355.057-.653-.216-.917-.497h-.05c0 .57.314 1.132.934 1.165.62.033.918-.512 1.009-1.098.058-.067-.017-.215-.149-.14zm7.167-.018s.075.041.075.082c.049.917.256 1.966 1.116 2.206v.05c-1.034-.058-1.298-1.454-1.191-2.338z" fill="#263238"/><path d="M425.872 89.068c1.472-.232 1.827 2.725.463 2.94-1.364.215-1.703-2.742-.463-2.94z" fill="#263238"/><path d="M426.509 89.208c.256.133.521.389.827.372.305-.016.529-.363.694-.702h.05c.091.562 0 1.173-.563 1.346-.562.174-.901-.28-1.107-.826-.05-.099 0-.264.099-.19zm-2.083 5.097s.33 1.346.396 1.999a3.515 3.515 0 01-3.496-.703c-.058-.057 0-.132.082-.099.884.478 1.898.66 2.894.52 0-.19-.637-2.304-.538-2.32a5.882 5.882 0 011.505.181c-.604-2.833-1.653-5.55-2.216-8.392a.091.091 0 01.119-.092.094.094 0 01.047.034 46.806 46.806 0 012.769 8.938c.091.363-1.281.016-1.562-.066z" fill="#263238"/><path d="M423.93 96.32a3.432 3.432 0 01-1.257 1.157 1.53 1.53 0 01-.909.132c-.678-.124-.744-.727-.662-1.256.041-.283.116-.56.223-.826a4.386 4.386 0 002.605.793z" fill="#263238"/><path d="M422.673 97.468a1.53 1.53 0 01-.909.132c-.678-.124-.744-.727-.662-1.255a1.558 1.558 0 011.571 1.123z" fill="#FF9BBC"/><path d="M407.487 94.033c2.546.165 2.852-5.667 2.852-5.667s10.672-2.478 11.061-11.291a14.874 14.874 0 007.977 7.673s-.95-9.581-8.688-11.01c0 0-9.672-2.875-14.549 4.956-4.878 7.83-.364 15.223 1.347 15.339z" fill="#263238"/><path d="M421.4 76.422a9.626 9.626 0 01-.24 4.03 9.897 9.897 0 01-1.827 3.668 7.4 7.4 0 01-.686.768l-.347.38-.397.33c-.264.216-.52.439-.826.645l-.827.537c-.149.082-.289.182-.438.256l-.463.215-.926.421a28.59 28.59 0 01-1.943.578c.604-.305 1.224-.545 1.819-.826l.868-.487.43-.24.397-.289c.273-.198.537-.388.826-.57.29-.181.488-.438.736-.652l.364-.322.331-.364c.225-.233.437-.479.636-.735a11.554 11.554 0 001.86-3.42 12.53 12.53 0 00.488-1.916c.11-.663.166-1.335.165-2.007z" fill="#263238"/><path d="M409.058 93.43s-3.307-3.998-5.117-2.792c-1.811 1.206.827 7.145 3.174 7.814a2.31 2.31 0 002.528-.668c.202-.234.354-.507.448-.802l-1.033-3.552z" fill="#FFCCB3"/><path d="M404.759 92.322v.058c1.654.52 2.571 1.916 3.266 3.387a1.275 1.275 0 00-.913-.543 1.27 1.27 0 00-1.005.344s0 .091.049.083a1.4 1.4 0 011.587.372c.318.365.595.764.827 1.19.083.14.331 0 .265-.116-.124-2.049-1.902-4.742-4.076-4.775z" fill="#263238"/><path d="M407.347 97.922a.595.595 0 00.752.356.589.589 0 00.303-.73.587.587 0 00-.7-.369.585.585 0 00-.355.743z" fill="#455A64"/><path d="M407.619 97.824a.29.29 0 00.355.165.267.267 0 00.183-.242.27.27 0 00-.018-.105.278.278 0 00-.052-.093.283.283 0 00-.188-.094.272.272 0 00-.266.156.282.282 0 00-.014.213z" fill="#263238"/><path d="M406.264 97.295a.4.4 0 00.369.275.416.416 0 00.408-.547.414.414 0 10-.777.272z" fill="#455A64"/><path d="M407.347 112.568c-5.25-1.47-11.309 16.735-6.614 18.23 5.506 1.767 11.135-16.958 6.614-18.23z" fill="#FFCCB3"/><path d="M401.08 121.538c-8.539-7.872-21.228-23.533-22.278-31.983-.67-5.303 12.921-23.244 18.815-30.909 2.124-2.742 12.97 12.638 11.069 15.826-3.307 5.46-10.747 13.638-10.243 15.9.463 2.025 2.224 7.848 7.176 17.165 6.547 12.332 1.446 19.518-4.539 14.001z" fill="#FFCCB3"/><path d="M400.204 116.334s2.794 3.634 3.175 5.295c.38 1.66.934 3.816.934 3.816" fill="#263238"/><path d="M414.406 67.848c-1.719 3.866-7.39 8.029-7.39 8.029L395.5 61.752s4.498-5.906 5.481-10.127c.24-1.04.678-6.236 1.959-11.49 1.455-5.971 3.737-12.042 4.357-12.455 1.182-.826 3.05.685 3.026 4.956-.025 4.27-1.521 12.522-1.48 13.042.037.171.087.34.149.504.132.19 5.629 2.693 6.167 5.36.537 2.669-.298 15.686-.753 16.306z" fill="#FFCCB3"/><path d="M405.693 53.294s-2.141-10.127-1.306-12.109c.835-1.982 4.076-14.653 5.249-15.47 1.174-.819 3.051.693 3.026 4.955-.025 4.262-1.521 12.522-1.48 13.043.042.52 3.357 9.011 3.423 9.912.066.9-8.912-.33-8.912-.33z" fill="#FFCCB3"/><path d="M403.66 47.76c0-1.132.082-2.264.132-3.395 0-.57.083-1.132.14-1.702 0-.28.058-.561.1-.826 0-.14 0-.289.066-.43.066-.14.074-.313.116-.437a470.943 470.943 0 011.959-6.492c.669-2.156 1.339-4.32 2.075-6.484.209-.55.487-1.072.826-1.553.162-.253.363-.479.596-.67.229-.206.519-.333.826-.363a1.164 1.164 0 01.827.355c.206.21.377.453.504.719a6.1 6.1 0 01.513 1.652 7.405 7.405 0 00-.653-1.553 2.37 2.37 0 00-.521-.62.912.912 0 00-.686-.239 1.812 1.812 0 00-1.158.95 6.838 6.838 0 00-.669 1.503 336.819 336.819 0 01-1.943 6.5c-.67 2.165-1.339 4.32-2.1 6.469a8.311 8.311 0 00-.339 1.651c-.082.554-.148 1.116-.214 1.652l-.397 3.313z" fill="#263238"/><path d="M407.587 54.64s-2.307-11.101-1.464-13.083c.844-1.983 4.076-14.662 5.241-15.48 1.166-.817 3.059.694 3.026 4.956-.033 4.262-1.513 12.523-1.471 13.043.041.52 2.389 9.086 2.48 9.912.09.826-7.812.652-7.812.652z" fill="#FFCCB3"/><path d="M404.949 49.445a95.61 95.61 0 01.356-4.13c.074-.694.165-1.38.264-2.073.05-.347.099-.694.166-1.033.067-.35.158-.695.272-1.032.827-2.652 1.654-5.312 2.48-7.955l1.298-3.965.331-.983c.11-.34.24-.674.388-.999.154-.337.355-.651.596-.933a1.9 1.9 0 01.975-.653c.215-.05.44-.033.645.05.187.084.356.205.496.355.247.277.443.596.579.941a9.08 9.08 0 01.562 2.04 12.024 12.024 0 010 4.18 13.028 13.028 0 00-.248-4.13 9.575 9.575 0 00-.62-1.94 3.005 3.005 0 00-.538-.827.76.76 0 00-.735-.248 1.454 1.454 0 00-.703.52 4.284 4.284 0 00-.496.827c-.265.595-.446 1.28-.661 1.94l-1.265 3.966a288.178 288.178 0 01-2.612 7.921 6.915 6.915 0 00-.298.975c-.074.33-.149.669-.207 1.007-.132.678-.239 1.363-.355 2.049l-.67 4.13z" fill="#263238"/><path d="M407.223 54.632s.256-10.11 1.041-11.96c.786-1.85 2.48-10.631 3.538-11.39 1.059-.76 2.836.643 2.811 4.592-.025 3.948-.066 8.648 0 9.135.066.488.719 8.161.827 8.979.107.818-8.217.644-8.217.644z" fill="#FFCCB3"/><path d="M406.454 51.914c.165-1.784.347-3.56.529-5.344.091-.884.19-1.776.298-2.668l.074-.669c.028-.229.072-.455.132-.677.108-.438.224-.868.348-1.305a99.513 99.513 0 011.653-5.113c.306-.826.612-1.652.942-2.528.166-.421.331-.826.513-1.247.173-.433.383-.85.628-1.247a1.04 1.04 0 01.714-.497 1.033 1.033 0 01.84.224 3.3 3.3 0 01.951 1.107c.47.822.731 1.746.761 2.693.041 1.8.041 3.584.041 5.377v5.352c0 .884.091 1.785.149 2.676.057.893.082 1.785.099 2.685a87.414 87.414 0 01-.752-5.328v-5.377c0-1.792 0-3.585-.083-5.36a5.346 5.346 0 00-.67-2.43 2.936 2.936 0 00-.76-.924.491.491 0 00-.63-.048.486.486 0 00-.147.172c-.227.366-.423.75-.587 1.148-.182.396-.347.826-.521 1.222-.331.826-.645 1.652-.951 2.478-.603 1.652-1.215 3.362-1.752 5.064-.132.42-.265.826-.372 1.272-.107.43-.187.865-.24 1.305l-.38 2.651-.827 5.336z" fill="#263238"/><path d="M355.738 378.448c-1.943.603-58.652-.619-60.727-1.999-.827-.512 4.067-54.185 4.067-54.185l35.969.685-4.134 35.898s20.923 9.912 23.039 11.672c2.117 1.759 3.729 7.326 1.786 7.929z" fill="#FFCCB3"/><path d="M355.746 378.449c-1.951.603-58.693-.62-60.727-1.999-.372-.24.488-12.101 1.513-24.656h35.224l-.827 7.054s20.923 9.912 23.048 11.671c2.124 1.76 3.703 7.327 1.769 7.93z" fill="#EBEBEB"/><path d="M356.093 378.614c-1.984.619-59.156-.141-61.281-1.545-.826-.529.224-9.639 1.191-19.246l35.406.785s20.725 10.102 22.89 11.886c2.166 1.784 3.795 7.5 1.794 8.12z" fill="#5DBD6D"/><path opacity=".1" d="M337.278 378.779c-17.525-.19-41.102-.826-42.449-1.71-.777-.504.124-8.797 1.058-17.891l41.391 19.601z" fill="#000"/><path d="M355.349 376.334c-9.465-.421-47.665-1.247-57.04-.95-.074 0-.074.058 0 .058 9.366.628 47.575 1.148 57.04 1.049.199 0 .199-.148 0-.157zm-4.629-7.938a7.604 7.604 0 00-5.704 2.189 7.363 7.363 0 00-2.224 5.006c0 .057.107.066.116 0a8.786 8.786 0 012.724-4.844 8.798 8.798 0 015.088-2.243.063.063 0 00.027.003.062.062 0 00.027-.009.072.072 0 00.018-.021.052.052 0 00.007-.027.05.05 0 00-.007-.027.053.053 0 00-.018-.021.063.063 0 00-.027-.01.063.063 0 00-.027.004zm-16.343-8.78c-3.786-.124-8.209 1.123-10.623 4.171-.099.116.074.248.19.19a52.323 52.323 0 0110.491-3.89.24.24 0 00-.058-.471zm2.902 1.206c-3.787-.132-8.209 1.115-10.623 4.13-.099.116.074.248.19.19a52.294 52.294 0 0110.49-3.891.23.23 0 00-.057-.429zm2.901 1.197c-3.786-.132-8.209 1.115-10.623 4.13-.099.116.075.248.19.19a52.323 52.323 0 0110.491-3.89.232.232 0 00-.058-.43zm2.902 1.198c-3.786-.132-8.209 1.116-10.623 4.13-.099.116.075.248.19.199a51.296 51.296 0 0110.491-3.891.24.24 0 00-.058-.438z" fill="#263238"/><path d="M300.897 366.447c-4.249-.074-4.373 6.534-.116 6.608 4.257.074 4.373-6.534.116-6.608z" fill="#fff"/><path d="M338.684 349.604c-1.893-1.652-4.34-.124-5.555 1.495a19.911 19.911 0 00-3.307 7.484 13.53 13.53 0 00-.215 1.123 4.54 4.54 0 01-.074.479v.133c0 .132 0 .264-.042.388a.1.1 0 00.124.099.471.471 0 00.381.372.34.34 0 00.289 0c.752-.496 1.546-.992 2.339-1.487l.405-.248a20.575 20.575 0 005.25-4.27c1.215-1.545 2.182-4.031.405-5.568zm-4.82 7.938c-.636.454-1.289.884-1.926 1.322l-1.653 1.123-.223.165-.199.149.075-.223c.182-.496.363-.975.537-1.462a36.876 36.876 0 011.653-3.866c.419-.871.896-1.713 1.43-2.519.827-1.231 4.638-4.32 4.96-.19.141 2.239-3.091 4.411-4.654 5.501z" fill="#263238"/><path d="M330.309 360.508a.104.104 0 00.039-.083.099.099 0 00-.01-.045.096.096 0 00-.029-.037 1.17 1.17 0 00-.231-.19.221.221 0 00-.083-.091 2.132 2.132 0 00-.388-.347 13.857 13.857 0 00-1.521-1.165 19.933 19.933 0 00-6.829-3.04c-1.984-.429-4.811.05-5.166 2.52v.264c-.124 2.156 2.141 3.304 3.984 3.643a19.3 19.3 0 005.886-.108c1.356-.198 2.712-.446 4.051-.636a.452.452 0 00.297-.685zm-5.356.338c-1.918.215-5.787.694-7.159-1.123a3.011 3.011 0 01-.67-1.412c-.273-1.925 3.307-1.983 4.514-1.652a21.44 21.44 0 012.744.95c.68.274 1.344.583 1.993.925 1.066.537 2.099 1.115 3.149 1.652.066.041.141.066.199.107a.966.966 0 00-.215 0h-.554c-1.331.207-2.621.405-4.001.553zm7.01-10.621l-35.307-.496s6.994-84.5 6.704-86.127c-.372-2.082-25.42-100.227-25.42-100.227h33.695s26.578 91.48 27.528 100.293c1.546 14.248-7.2 86.557-7.2 86.557z" fill="#263238"/><path d="M285.347 171.312c3.018 10.672 23.387 91.125 23.709 96.543.323 5.419-5.787 61.587-7.01 72.581-.149 1.379-.298 2.75-.438 4.13a.09.09 0 01-.027.064.09.09 0 01-.064.027.09.09 0 01-.064-.027.09.09 0 01-.027-.064c.727-11.027 6.77-70.615 6.944-76.133.174-5.517-20.477-84.954-23.147-97.088a.07.07 0 01-.001-.025.063.063 0 01.008-.023.06.06 0 01.039-.03.069.069 0 01.025-.002.063.063 0 01.042.025.057.057 0 01.011.022z" fill="#fff"/><path d="M287.695 171.312c3.017 10.672 23.395 91.125 23.717 96.543.322 5.419-5.787 61.587-7.018 72.581-.149 1.379-.298 2.75-.438 4.13a.09.09 0 01-.027.064.09.09 0 01-.129 0 .09.09 0 01-.026-.064c.727-11.027 6.77-70.615 6.944-76.133.173-5.517-20.477-84.954-23.147-97.088a.066.066 0 01.006-.048.065.065 0 01.118.015z" fill="#fff"/><path d="M277.932 163.392s9.093 35.559 16.608 65.204l14.103-65.204h-30.711z" fill="#37474F"/><path d="M312.619 378.448c-1.943.603-58.693-.619-60.727-1.999-.38-.247 1.248-12.968 2.141-26.019.942-13.893 1.157-28.166 1.157-28.166l34.588.685-1.943 35.898s20.923 9.912 23.048 11.672c2.125 1.759 3.679 7.326 1.736 7.929z" fill="#FFCCB3"/><path d="M312.627 378.449c-1.951.603-58.693-.62-60.727-1.999-.372-.24.488-12.101 1.513-24.656h35.224l-.826 7.054s20.923 9.912 23.047 11.671c2.125 1.76 3.704 7.327 1.769 7.93z" fill="#EBEBEB"/><path d="M312.991 378.614c-1.984.619-59.157-.141-61.281-1.545-.827-.529.223-9.639 1.19-19.246l35.406.785s20.725 10.102 22.891 11.886c2.166 1.784 3.778 7.5 1.794 8.12z" fill="#5DBD6D"/><path d="M312.231 376.334c-9.466-.421-47.666-1.247-57.04-.95-.075 0-.075.058 0 .058 9.366.628 47.574 1.148 57.04 1.049.198 0 .198-.148 0-.157zm-4.63-7.938a7.604 7.604 0 00-5.704 2.189 7.368 7.368 0 00-2.224 5.006c0 .057.108.066.116 0a8.786 8.786 0 012.724-4.844 8.798 8.798 0 015.088-2.243.065.065 0 00.054-.006.076.076 0 00.019-.021.063.063 0 000-.054.055.055 0 00-.019-.021.064.064 0 00-.026-.01.066.066 0 00-.028.004zm-16.343-8.78c-3.787-.124-8.209 1.123-10.623 4.171-.099.116.074.248.19.19a52.291 52.291 0 0110.49-3.89.24.24 0 00-.057-.471zm2.901 1.206c-3.786-.132-8.208 1.115-10.622 4.13-.099.116.074.248.19.19a52.294 52.294 0 0110.49-3.891.23.23 0 00-.058-.429zm2.902 1.197c-3.786-.132-8.208 1.115-10.622 4.13-.1.116.074.248.19.19a52.291 52.291 0 0110.49-3.89.226.226 0 00.097-.099.229.229 0 00-.035-.261.237.237 0 00-.12-.07zm2.902 1.198c-3.786-.132-8.209 1.116-10.623 4.13-.099.116.074.248.19.199a51.275 51.275 0 0110.491-3.891.24.24 0 00-.058-.438z" fill="#263238"/><path d="M257.778 366.447c-4.249-.074-4.373 6.534-.116 6.608 4.257.074 4.373-6.534.116-6.608z" fill="#fff"/><path d="M295.565 349.604c-1.893-1.652-4.34-.124-5.556 1.495a19.925 19.925 0 00-3.306 7.484 13.53 13.53 0 00-.215 1.123c0 .166-.041.322-.066.479v.133c0 .132 0 .264-.042.388 0 .015.003.03.009.044a.103.103 0 00.029.036.098.098 0 00.086.019.488.488 0 00.381.372.34.34 0 00.289 0c.752-.496 1.546-.992 2.339-1.487.141-.075.265-.165.406-.248a20.436 20.436 0 005.249-4.27c1.207-1.545 2.174-4.031.397-5.568zm-4.778 7.938c-.645.454-1.298.884-1.935 1.322l-1.653 1.123-.215.165-.207.149.075-.223c.181-.496.363-.975.537-1.462a36.876 36.876 0 011.653-3.866c.418-.871.896-1.713 1.43-2.519.827-1.231 4.638-4.32 4.96-.19.108 2.239-3.108 4.411-4.645 5.501z" fill="#263238"/><path d="M287.191 360.508a.101.101 0 00.028-.037.1.1 0 000-.091.093.093 0 00-.028-.037 1.494 1.494 0 00-.223-.19.241.241 0 00-.091-.091 2.138 2.138 0 00-.389-.347c-.478-.421-.983-.81-1.513-1.165a20.052 20.052 0 00-6.836-3.04c-1.984-.429-4.811.05-5.167 2.52v.264c-.124 2.156 2.141 3.304 3.985 3.643a19.3 19.3 0 005.886-.108c1.355-.198 2.711-.446 4.05-.636a.452.452 0 00.298-.685zm-5.357.338c-1.918.215-5.787.694-7.151-1.123a2.955 2.955 0 01-.678-1.412c-.272-1.925 3.307-1.983 4.514-1.652.935.254 1.852.572 2.745.95a21.53 21.53 0 011.992.925c1.066.537 2.1 1.115 3.158 1.652.066.041.14.066.198.107a.966.966 0 00-.215 0h-.554c-1.339.207-2.67.405-4.009.553zm28.71-197.471s-2.67 25.813-5.787 30.066a60.295 60.295 0 00-9.837 4.866s-2.422 63.412-2.381 67.236c.157 14.306-3.505 83.996-3.505 83.996l-35.596-.339s3.687-78.808 3.703-84.054c0-5.063 2.423-37.046 4.572-64.766 0 0-3.166-8.855-2.819-13.332.827-10.845 5.712-23.656 5.712-23.656l45.938-.017z" fill="#263238"/><path d="M299.781 185.231c.074-.9.157-1.793.231-2.693.149-1.652.381-3.304.562-4.956.414-3.725.827-7.434 1.439-11.167 0-.091.157-.075.157 0a99.622 99.622 0 01-.24 4.444c-.116 1.478-.165 2.965-.281 4.443-.223 2.941-.446 5.882-.752 8.806-.124 1.123-.695 3.171.942 3.419 1.29.19 2.1-1.131 2.48-2.189.662-2.015 1.935-15.562 2.257-18.799 0-.091.157-.075.157 0 .108 3.304-.694 13.595-.827 15.165a16.76 16.76 0 01-.826 4.436 3.574 3.574 0 01-.968 1.469 3.575 3.575 0 01-1.554.827h-.074a.123.123 0 01.05.091c0 .52.057 1.049 0 1.569-.058.52-.091 1.041-.157 1.553a10.088 10.088 0 01-.538 2.28c-.11.232-.237.455-.38.669-.05.099-.157.049-.174-.042v-.256c0-.09 0 0 0 0a4.45 4.45 0 010-.462c0-.248.058-.504.1-.752.074-.504.181-1.008.281-1.503.099-.496.173-1 .272-1.503.1-.504.232-1.016.315-1.537a.102.102 0 010-.049 2.315 2.315 0 01-2.332-1.264 4.026 4.026 0 01-.14-1.999z" fill="#37474F"/><path d="M293.151 198.62a73.845 73.845 0 0113.97-6.187.072.072 0 01.052.001c.016.007.029.02.035.037a.065.065 0 01-.037.086c-2.389.909-7.862 4.312-13.929 6.22-.091.025-.174-.115-.091-.157zm-21.014-17.932c2.009-.124 8.391-1.148 10.879-3.42 1.868-1.693 3.736-8.417 4.414-10.581 0-.091.174-.074.166 0-.199 2.478-1.563 9.664-3.596 11.638-2.588 2.478-9.681 2.734-11.855 2.561-.132.008-.149-.19-.008-.198zm43.565-1.247a4.368 4.368 0 01-2.241-.658 4.366 4.366 0 01-1.578-1.721c-.926-1.553-2.48-8.516-2.976-10.622 0-.083-.074-.058-.066 0 .273 2.42 1.414 9.499 2.48 11.308a3.695 3.695 0 004.439 1.875c.017.008.008-.182-.058-.182z" fill="#37474F"/><path d="M258.927 344.062l8.044-144.748c-.1-.603-2.365-8.31-2.571-12.241-.215-4.13 4.092-20.37 4.273-21.063.067-.232.381-.174.323.057-.058.232-3.935 16.933-3.728 20.956.206 4.023 2.554 12.126 2.571 12.192.016.066-8.664 144.864-8.664 144.864-.008.231-.264.223-.248-.017z" fill="#fff"/><path d="M261.11 344.062l8.051-144.748c-.099-.603-2.364-8.31-2.571-12.241-.215-4.13 4.092-20.37 4.274-21.063.066-.232.38-.174.314.057-.066.232-3.926 16.933-3.72 20.956.207 4.023 2.555 12.126 2.563 12.192.008.066-8.655 144.864-8.655 144.864-.008.231-.265.223-.256-.017z" fill="#fff"/><path d="M282.346 82.65a3.936 3.936 0 00-1.405.668c-1.901 1.43-2.422 3.916-2.48 6.154 0 2.387.496 4.956-.339 7.26a3.946 3.946 0 01-1.728 2.223 3.634 3.634 0 01-3.033 0c-1.042-.364-2.191-1.033-3.307-.686a3.127 3.127 0 00-1.86 2.09c-.769 2.329.579 4.791.76 7.12a12.379 12.379 0 01-1.595 7.17 12.31 12.31 0 01-8.267 5.84c-1.256.223-2.538.173-3.794.346a4.41 4.41 0 00-3.15 1.595c-.537.826-.678 4.32 1.794 7.855.174.256-.297.562-.57.363a14.815 14.815 0 01-1.505-1.173 16.634 16.634 0 01-5.563-14.091 17.39 17.39 0 012.885-7.864 28.153 28.153 0 002.529-3.981 8.682 8.682 0 00.678-4.047c-.14-2.652-.909-5.237-.587-7.913a14.66 14.66 0 012.646-6.608 17.236 17.236 0 0112.524-7.021c4.935-.446 15.649 4.65 15.367 4.7z" fill="#263238"/><path d="M282.189 82.691a6.795 6.795 0 00-2.604 1.652 5.553 5.553 0 00-1.256 2.478c-.504 2.04-.141 4.13.157 6.12.298 1.991.479 3.949-.413 5.733a4.598 4.598 0 01-1.654 1.9 3.543 3.543 0 01-2.703.306c-1.653-.397-3.687-1.446-5.299-.248-1.612 1.197-1.339 3.494-1.19 5.187.364 4.13 1.438 9.433-2.108 12.572a15.401 15.401 0 01-6.614 3.015c-1.653.388-3.769.867-4.588 2.535 0 .067.067.1.1 0 .892-1.759 3.091-1.875 4.803-2.197a16.171 16.171 0 005.786-2.197 7.894 7.894 0 003.373-4.956c.41-2.08.458-4.215.141-6.311-.124-1.082-.265-2.155-.356-3.237a6.808 6.808 0 01.24-2.941 2.304 2.304 0 012.298-1.503c1.009.097 2.001.325 2.951.677a4.683 4.683 0 002.654.058 4.25 4.25 0 001.81-1.198 6.683 6.683 0 001.654-4.568c0-2.346-.786-4.617-.736-6.963a6.612 6.612 0 01.884-3.469 6.773 6.773 0 012.844-2.214.141.141 0 00.056-.095.144.144 0 00-.23-.136zm-16.955-6.038c-5.018.364-9.333 3.808-11.424 8.26a17.433 17.433 0 00-1.538 8.004c.091 2.57.537 5.18.066 7.732-.512 2.833-2.48 4.865-4.133 7.12a15.523 15.523 0 00-2.621 6.104 16.509 16.509 0 002.547 12.332c.314.454.644.892 1 1.313.041.05.124 0 .082-.066a15.894 15.894 0 01-3.265-12.15 15.469 15.469 0 012.067-5.956c1.347-2.238 3.307-4.055 4.406-6.484.992-2.271.868-4.815.678-7.227-.207-2.643-.397-5.245.289-7.839a14.174 14.174 0 019.854-10.152c5.456-1.437 10.862.827 15.541 3.486l1.869 1.074c.066.041.14-.058.074-.1-4.621-2.964-9.779-5.855-15.492-5.45z" fill="#263238"/><path d="M284.174 80.312a2.404 2.404 0 00-2.315-.603c-.488.297-1.984 4.477-1.463 5.443.52.967 2.438.281 2.438.281l1.34-5.12z" fill="#5DBD6D"/><path d="M291.308 120.233c4.241 4.816 36.514 35.452 47.632 27.093 8.722-6.558 11.747-28.604 12.681-32.809.314-1.42-21.41-6.517-21.939-3.907-.67 3.304-2.712 12.547-3.084 12.465-2.538-.587-16.393-6.831-30.281-11.473-6.415-2.14-10.763 2.106-5.009 8.631z" fill="#FFCCB3"/><path d="M355.093 99.054c.364 4.956-2.844 15.289-4.571 17.486-1.728 2.197-19.551-2.651-20.667-5.311-1.116-2.66-1.033-19.337 1.819-23.483 2.852-4.146 23.047 6.203 23.419 11.308z" fill="#FFCCB3"/><path d="M329.072 80.815l-7.487-2.704-7.943 21.961 7.487 2.704 7.943-21.961z" fill="#455A64"/><path d="M320.927 79.945l-3.599-1.3-6.617 18.295 3.599 1.3 6.617-18.295z" fill="#455A64"/><path d="M319.096 79.297l-6.617 18.294 1.804.651 6.617-18.294-1.804-.651z" fill="#263238"/><path d="M351.104 113.638l7.487 2.704 7.943-21.961-7.487-2.704-7.943 21.961z" fill="#455A64"/><path d="M359.251 114.508l3.6 1.3 6.617-18.295-3.6-1.3-6.617 18.295z" fill="#455A64"/><path d="M365.862 96.175l-6.617 18.295 1.803.651 6.617-18.294-1.803-.651z" fill="#263238"/><path d="M356.27 99.374l-29.998-10.82-2.347 6.495 29.998 10.821 2.347-6.496z" fill="#37474F"/><path d="M328.582 94.99c1.521 2.132 3.166-.875 3.166-.875s-1.331 4.898 1.083 6.5c2.414 1.603 4.2-2.172 4.332-2.477-.066.255-1.174 4.79 1.422 6.145 2.595 1.355 3.926-2.627 4.001-2.891 0 .264.24 3.775 2.48 4.353 3.786.999 3.447-7.988 5.704-10.21 0 0 4.216 3.379 4.356 3.453 0 0-.14-8.557-3.306-11.423a2.733 2.733 0 00-3.414-.248s.256-2.767-1.753-3.89c-1.025-.579-2.869.553-2.869.553a3.4 3.4 0 00-1.744-3.032c-1.471-.718-3.092.53-3.092.53s-.917-2.182-2.694-2.446c-3.481-.504-10.912 11.407-7.672 15.958z" fill="#FFCCB3"/><path d="M338.626 81.617s0-.083-.058-.05a24.363 24.363 0 00-6.927 12.729c0 .149.215.264.272.1a49.947 49.947 0 016.713-12.78zm5.117 2.354s0-.099-.074-.058a22.787 22.787 0 00-6.696 14.348c0 .19.173.372.198.157.471-3.668 3.852-10.812 6.572-14.447zm-1.041 17.883c.487-5.303 2.62-9.912 5.497-14.34.041-.057-.041-.106-.091-.065-1.992 1.784-3.538 4.79-4.538 7.236a14.029 14.029 0 00-1.05 7.153c.008.091.173.124.182.016z" fill="#263238"/><path d="M331.748 94.164c-.17.962-.251 1.939-.24 2.916-.026.95.199 1.89.653 2.726a1.73 1.73 0 001 .76c.428.116.879.116 1.306 0a3.148 3.148 0 001.877-1.719l.942-1.932-.215 2.139a8.835 8.835 0 00.158 2.841 3.12 3.12 0 001.421 2.181 1.78 1.78 0 002.241-.281 5.352 5.352 0 001.281-2.395l.686-2.478.157 2.527c.042.702.173 1.396.389 2.065.182.643.55 1.218 1.058 1.652a1.653 1.653 0 001.695.19 3.614 3.614 0 001.281-1.536 27.929 27.929 0 001.504-4.13c.224-.71.447-1.42.711-2.123a5.147 5.147 0 011.083-1.95 5.708 5.708 0 00-.893 2.008c-.198.719-.363 1.437-.537 2.164a24.13 24.13 0 01-1.314 4.287 4.277 4.277 0 01-1.48 1.892 2.307 2.307 0 01-2.48-.182 4.194 4.194 0 01-1.364-2.016 8.719 8.719 0 01-.471-2.304l.826.083a6.175 6.175 0 01-1.488 2.841 2.61 2.61 0 01-1.578.776 2.986 2.986 0 01-1.703-.38 3.948 3.948 0 01-1.786-2.717 9.203 9.203 0 01-.124-3.122l.727.206a3.772 3.772 0 01-2.48 2.007 3.209 3.209 0 01-1.603-.115 2.27 2.27 0 01-1.24-1.025 5.52 5.52 0 01-.505-2.973c.059-.977.228-1.944.505-2.883z" fill="#263238"/><path d="M329.384 108.388s-9.647-18.602-.521-18.808c2.711-.058 13.921 2.924 13.359 5.187-.719 2.916-5.63 2.544-8.672 1.826 0 0 4.133 5.864.951 9.986a5.179 5.179 0 01-2.303 1.627 5.175 5.175 0 01-2.814.182z" fill="#FFCCB3"/><path d="M328.103 89.646a11.212 11.212 0 013.199 0 23.83 23.83 0 013.149.62 36.884 36.884 0 016.076 2.09 5.791 5.791 0 011.447.916c.248.213.445.478.579.776.077.164.124.34.14.52a1.81 1.81 0 01-.049.53 2.698 2.698 0 01-1.075 1.528 4.968 4.968 0 01-1.604.702 9.525 9.525 0 01-3.307.165 21.509 21.509 0 01-3.19-.562l.38-.578c.454.684.838 1.412 1.149 2.172.318.75.559 1.531.719 2.33.153.803.186 1.624.099 2.436a6.402 6.402 0 01-.702 2.297 7.032 7.032 0 00.438-2.313 8.073 8.073 0 00-.298-2.313 10.904 10.904 0 00-.826-2.189 12.868 12.868 0 00-1.191-1.982l-.57-.76.95.182c1.02.213 2.053.362 3.092.446 1.01.1 2.029.035 3.017-.19a2.645 2.645 0 002.042-1.57c.224-.694-.744-1.338-1.653-1.792-.909-.454-1.901-.826-2.885-1.24a32.868 32.868 0 00-2.976-1.065 20.301 20.301 0 00-6.15-1.156z" fill="#263238"/><path d="M291.308 120.233c4.24 4.816 36.513 35.452 47.632 27.093 8.721-6.558 13.665-24.854 14.483-31.76l-24.8-2.965c-.529 3.304-1.653 10.556-1.992 10.474-2.538-.587-16.393-6.831-30.281-11.473-6.448-2.14-10.796 2.106-5.042 8.631z" fill="#5DBD6D"/><path d="M324.936 128.857c.058-.739.166-1.473.323-2.198a20.7 20.7 0 011.496-4.179c0-.058.157-.041.14 0-.446 1.379-.719 2.792-1.041 4.179a47.97 47.97 0 00-.447 2.074c-.132.693-.305 1.42-.396 2.122 0 .042-.1.05-.1 0 0-.627-.024-1.288.025-1.998z" fill="#263238"/><path opacity=".1" d="M337.659 148.077c-12.136 5.419-42.259-23.211-46.351-27.845-4.357-4.956-2.927-8.573.826-9.086l45.525 36.931z" fill="#000"/><path d="M311.635 163.391l-1.653-14.446s4.695-5.683 1.554-12.266c-1.587-3.304-11.573-21.427-17.36-25.516-5.407-3.824-12.053 0-14.516 3.395-7.077 9.805-11.375 17.024-15.037 48.833h47.012z" fill="#FFCCB3"/><path d="M312.685 158.593l-2.703-9.615s4.695-5.683 1.554-12.266c-1.587-3.304-11.573-21.427-17.36-25.515-5.406-3.825-12.053 0-14.516 3.395-7.077 9.804-10.664 21.476-15.839 43.571l48.864.43z" fill="#5DBD6D"/><path d="M301.699 146.508c-2.455.27-4.886.72-7.275 1.346a58.457 58.457 0 00-3.497 1.115c-.578.207-1.157.389-1.736.562a7.762 7.762 0 01-1.876.396c-.058 0-.05.083 0 .083.604.019 1.209-.003 1.81-.066.579-.08 1.15-.201 1.711-.363 1.207-.314 2.389-.694 3.588-1.025 2.422-.677 4.836-1.346 7.3-1.842a.107.107 0 00.037-.175.108.108 0 00-.062-.031zm6.109 2.056a53.78 53.78 0 00-6.101-.173c-1.017 0-2.025.124-3.034.248-.479.049-.967.115-1.447.19-.479.074-1.049.223-1.579.297a.052.052 0 00-.021.018.045.045 0 00-.008.027c0 .01.002.019.008.028a.052.052 0 00.021.018c.505-.058 1.017 0 1.522-.05l1.521-.066 3.042-.132c2.033-.107 4.05-.198 6.084-.239.107 0 .099-.157-.008-.166z" fill="#263238"/><path d="M286.786 119.382c-2.96 5.691-26.925 43.175-39.73 37.724-10.003-4.296-16.806-22.889-20.807-31.132-1.017-2.107 19.236-9.747 20.981-5.642 1.314 3.106 5.638 10.449 5.977 10.275 2.331-1.172 14.276-10.564 26.635-18.403 5.712-3.618 10.945-.537 6.944 7.178z" fill="#FFCCB3"/><path d="M240.93 112.468c3.448 2.164 6.572 8.376 6.572 8.376l-18.715 9.317s-3.596-5.501-6.614-7.244c-.876-.512-5.365-3.353-9.92-5.831-5.142-2.817-10.176-6.427-10.399-7.096-.438-1.288 1.389-2.643 5.299-1.561 3.91 1.082 11.168 4.502 11.656 4.593.165.011.331.011.496 0 .206-.075 3.877-4.51 6.472-4.345 2.596.165 14.69 3.213 15.153 3.791z" fill="#FFCCB3"/><path d="M225.083 117.829s-9.862-.536-11.482-1.8c-1.621-1.264-12.5-7.385-12.921-8.648-.422-1.264 1.397-2.635 5.307-1.562 3.91 1.074 11.16 4.502 11.656 4.593.496.091 9.093-.826 9.92-.702s-2.48 8.119-2.48 8.119z" fill="#FFCCB3"/><path d="M219.487 118.317c-1.042-.298-2.067-.636-3.1-.975a49.523 49.523 0 01-1.53-.545c-.256-.091-.512-.19-.76-.298l-.38-.165c-.133-.074-.273-.148-.372-.215a729.652 729.652 0 01-5.506-3.419 203.599 203.599 0 01-5.456-3.519 6.85 6.85 0 01-1.248-1.107 3.221 3.221 0 01-.455-.694 1.403 1.403 0 01-.124-.883c.083-.297.279-.549.546-.703a2.5 2.5 0 01.785-.289 6.358 6.358 0 011.653-.066 7.334 7.334 0 00-1.595.215c-.249.072-.486.18-.703.322a.834.834 0 00-.38.578 1.71 1.71 0 00.579 1.305c.368.374.778.704 1.223.983a432.788 432.788 0 015.514 3.395 149.049 149.049 0 015.439 3.544c.444.282.915.52 1.406.71.496.215.992.413 1.496.62l2.968 1.206z" fill="#263238"/><path d="M226.803 116.4s-10.813-.628-12.4-1.891c-1.588-1.264-12.5-7.385-12.962-8.665-.463-1.28 1.397-2.635 5.307-1.561 3.91 1.074 11.16 4.501 11.656 4.592.496.091 8.936.05 9.763.199.826.148-1.364 7.326-1.364 7.326z" fill="#FFCCB3"/><path d="M221.347 117.549c-1.265-.422-2.48-.893-3.745-1.363a74.68 74.68 0 01-1.852-.752l-.909-.413c-.304-.151-.6-.32-.885-.504a925.984 925.984 0 01-6.712-4.27l-3.307-2.181-.827-.553a7.86 7.86 0 01-.826-.603 3.748 3.748 0 01-.711-.777 1.826 1.826 0 01-.364-1.057 1.03 1.03 0 01.215-.578 1.19 1.19 0 01.446-.372 3.24 3.24 0 011.009-.306 9.263 9.263 0 012.025 0c1.331.132 2.629.492 3.836 1.066a12.45 12.45 0 00-3.852-.826 9.502 9.502 0 00-1.951.091 2.758 2.758 0 00-.877.297.736.736 0 00-.292.253.738.738 0 00-.121.367c.023.282.133.55.314.768.187.248.403.473.645.669.479.388 1.075.727 1.653 1.09l3.307 2.148c2.224 1.437 4.447 2.874 6.613 4.361.262.195.538.369.827.52l.876.438c.596.289 1.199.562 1.802.826l3.663 1.661z" fill="#263238"/><path d="M226.704 116.739s-9.259-2.742-10.747-3.923c-1.488-1.182-9.201-4.89-9.631-6.08-.43-1.189 1.298-2.478 4.96-1.453 3.662 1.024 7.953 2.205 8.416 2.288.463.082 7.704 1.362 8.473 1.503.769.14-1.471 7.665-1.471 7.665z" fill="#FFCCB3"/><path d="M224.009 116.764c-1.604-.586-3.2-1.198-4.795-1.801l-2.389-.933-.595-.24c-.199-.082-.405-.19-.596-.289a29.56 29.56 0 01-1.116-.644 91.18 91.18 0 01-6.398-4.279 31.598 31.598 0 01-1.025-.784 7.63 7.63 0 01-.992-.892 1.08 1.08 0 01-.281-.785c.04-.282.188-.537.413-.71.368-.294.798-.5 1.257-.603a5.64 5.64 0 012.678 0c1.654.413 3.307.826 4.96 1.296 1.654.471 3.307.892 4.96 1.355.827.19 1.654.363 2.48.529a52.56 52.56 0 012.48.578 89.593 89.593 0 01-5.1-.628l-4.96-1.321c-1.654-.422-3.307-.826-4.96-1.248a5.046 5.046 0 00-2.406 0 2.7 2.7 0 00-1.042.479.473.473 0 00-.074.744c.279.3.584.576.909.826.323.272.662.528 1.001.784a71.213 71.213 0 002.066 1.495c1.406.975 2.803 1.95 4.233 2.867.364.231.719.454 1.083.661.368.206.749.388 1.141.545l2.356 1.007 4.712 1.991z" fill="#263238"/><path d="M286.786 119.382c-2.96 5.691-26.925 43.175-39.73 37.724-10.003-4.296-21.444-24.021-23.229-30.463l24.932-5.725c1.314 3.106 4.133 9.863 4.447 9.689 2.332-1.172 14.277-10.564 26.636-18.403 5.712-3.618 10.945-.537 6.944 7.178z" fill="#5DBD6D"/><path d="M255.86 136.381a17.723 17.723 0 00-.645-2.115 20.4 20.4 0 00-2.124-3.899c0-.057-.166 0-.133 0 .654 1.297 1.133 2.652 1.654 3.974.264.652.521 1.313.76 1.982.24.669.521 1.355.711 2.032h.099c-.115-.636-.115-1.305-.322-1.974zm23.353-3.626c-.429.331-.826.669-1.264 1.008a48.01 48.01 0 004.373-6.856c0-.049-.05-.099-.083-.058-4.96 7.17-14.632 18.874-15.649 20.064-.115.14.091.339.207.198.959-1.148 6.398-6.525 10.184-12.101.335-.217.658-.451.968-.702.504-.413 1-.826 1.471-1.28.943-.892 1.86-1.817 2.778-2.742a128.4 128.4 0 01-2.985 2.469z" fill="#263238"/><path d="M284.173 112.336c.182.925 6.118 6.013 10.16 4.617 1.496-.52-.099-4.179-.099-4.179l2.174-8.203-10.143-6.98s-2.199 14.373-2.092 14.745z" fill="#FFCCB3"/><path d="M285.438 102.977a16.224 16.224 0 008.878 9.359l2.051-7.748-10.135-6.98s-.356 2.429-.794 5.369z" fill="#263238"/><path d="M307.32 91.983c1.654 13.795-6.398 16.355-9.374 16.71-2.703.331-11.946 1.091-15.037-12.447-3.092-13.539 2.786-18.685 8.928-19.758 6.142-1.074 13.83 1.701 15.483 15.495z" fill="#FFCCB3"/><path d="M304.179 88.828a9.166 9.166 0 01-.959-.066 1.566 1.566 0 01-.968-.256.495.495 0 01-.082-.595 1.22 1.22 0 011.157-.454c.448.006.877.177 1.207.479a.52.52 0 01-.355.892zm-9.333 1.412c.309-.092.612-.203.909-.33.324-.072.614-.25.827-.504a.51.51 0 00-.083-.595 1.231 1.231 0 00-1.24-.123 1.818 1.818 0 00-1.033.784.527.527 0 00.62.769zm2.455 3.205s-.066.058-.058.091c.174.934.223 2.024-.57 2.478v.058c1.025-.322.942-1.776.628-2.627z" fill="#263238"/><path d="M296.309 92.604c-1.53.132-1.158 3.163.256 3.04 1.414-.125 1.017-3.131-.256-3.04z" fill="#263238"/><path d="M295.747 92.835c-.248.206-.471.545-.827.611-.355.066-.678-.198-.959-.479h-.049c.066.586.355 1.148.992 1.165.636.016.925-.554 1-1.157.041-.074-.075-.223-.157-.14zm7.084-.322s.074 0 .083.074c.074.942.322 2.016 1.207 2.23v.05c-1.059-.025-1.373-1.446-1.29-2.354z" fill="#263238"/><path d="M303.559 91.439c1.496-.29 1.967 2.725.57 2.998-1.397.272-1.827-2.75-.57-2.998z" fill="#263238"/><path d="M304.22 91.538c.265.124.546.38.827.355.281-.025.521-.397.686-.744h.05c.107.579 0 1.206-.529 1.405-.53.198-.935-.256-1.166-.826-.033-.042.025-.24.132-.19zm-5.754 9.721c.232.215.463.513.827.537.352-.02.695-.113 1.009-.272 0 0 .066 0 .041.049a1.251 1.251 0 01-1.182.545.997.997 0 01-.769-.826c-.033-.041.041-.066.074-.033zm3.646-3.931s.314 1.387.372 2.048c0 .066-.149.107-.372.14a3.193 3.193 0 01-3.174-.916.069.069 0 01-.022-.047.068.068 0 01.113-.052c.9.5 1.936.702 2.959.578 0-.19-.62-2.37-.521-2.387.52.003 1.037.075 1.538.214-.57-2.916-1.612-5.716-2.141-8.631a.09.09 0 01.005-.07.092.092 0 01.123-.041c.021.01.038.03.046.053a48.023 48.023 0 012.703 9.193c.058.388-1.381.008-1.629-.082z" fill="#263238"/><path d="M301.906 99.203a3.747 3.747 0 01-1.265 1.396 1.655 1.655 0 01-.992.239c-.761-.066-.901-.727-.868-1.313a4.09 4.09 0 01.165-.925c.897.51 1.934.721 2.96.603z" fill="#263238"/><path d="M300.641 100.599a1.655 1.655 0 01-.992.239c-.761-.066-.901-.727-.868-1.313a1.746 1.746 0 011.86 1.074z" fill="#FF9ABB"/><path d="M284.173 97.138c2.613.173 2.927-5.782 2.927-5.782s10.936-2.536 11.333-11.564a15.256 15.256 0 008.176 7.863s-.942-9.862-8.887-11.308c0 0-9.92-2.948-14.88 5.064-4.96 8.012-.405 15.611 1.331 15.727z" fill="#263238"/><path d="M298.45 79.09a9.749 9.749 0 01-.248 4.13 10.259 10.259 0 01-1.868 3.75c-.216.29-.45.567-.703.826l-.364.388c-.124.116-.264.223-.396.339-.282.215-.546.446-.827.66-.281.215-.595.372-.893.554l-.446.264-.48.215-.95.43c-.654.23-1.323.42-1.984.603.62-.323 1.256-.562 1.86-.884l.892-.496.438-.248c.141-.09.273-.198.414-.297.273-.198.545-.397.826-.587.282-.19.496-.437.753-.66l.38-.33.331-.372a9.33 9.33 0 00.653-.752 11.655 11.655 0 001.901-3.51 11.3 11.3 0 00.504-1.958c.129-.681.198-1.372.207-2.065z" fill="#263238"/><path d="M285.669 96.848s-3.406-4.055-5.266-2.808c-1.86 1.247.943 7.31 3.307 7.971a2.348 2.348 0 003.026-1.536l-1.067-3.627z" fill="#FFCCB3"/><path d="M281.247 95.759v.058c1.653.52 2.645 1.94 3.381 3.436a1.292 1.292 0 00-.942-.545 1.298 1.298 0 00-1.025.363c-.042 0 0 .1.049.083a1.45 1.45 0 011.654.363c.336.37.63.778.876 1.214.083.141.339 0 .273-.124-.182-2.098-2.034-4.79-4.266-4.848z" fill="#263238"/></g><defs><clipPath id="clip0_1_1508"><path fill="#fff" d="M0 0h541v413H0z"/></clipPath></defs></svg>