<svg width="657" height="559" fill="none" xmlns="http://www.w3.org/2000/svg"><path d="M232.205 132.181a2.607 2.607 0 01-1.271 2.599 2.6 2.6 0 01-3.766-1.41 2.603 2.603 0 01.74-2.797 2.601 2.601 0 011.373-.628 2.608 2.608 0 012.924 2.236zm89.738 100.709a1.294 1.294 0 01-.259.962 1.29 1.29 0 01-.862.497 1.287 1.287 0 01-.961-.259 1.314 1.314 0 01-.496-.864 1.301 1.301 0 112.578-.336zM276.232 85.482a1.315 1.315 0 01-.636 1.31 1.301 1.301 0 01-1.45-.09 1.308 1.308 0 011.585-2.08c.274.21.454.519.501.86z" fill="#5DBD6D"/><path d="M437.728 56.224a1.302 1.302 0 01-2.082 1.2 1.302 1.302 0 011.586-2.064c.273.211.452.522.496.864zm-146.765 99.088a1.305 1.305 0 01-.593 1.405 1.295 1.295 0 01-1.518-.113 1.295 1.295 0 01-.467-.945 1.31 1.31 0 011.131-1.354 1.307 1.307 0 011.447 1.007z" fill="#263238"/><path d="M410.687 272.379a1.29 1.29 0 01-.259.962 1.301 1.301 0 01-1.823.237 1.307 1.307 0 01-.496-.864 1.301 1.301 0 012.083-1.199c.273.21.451.521.495.864z" fill="#455A64"/><path d="M226.302 279.903a1.3 1.3 0 01-.638 1.291 1.285 1.285 0 01-1.435-.095 1.3 1.3 0 01-.063-2.005c.193-.168.431-.276.685-.309a1.282 1.282 0 011.451 1.118zm-123.124-2.642a2.613 2.613 0 01-1.272 2.598 2.597 2.597 0 01-3.766-1.409 2.609 2.609 0 01.74-2.798 2.6 2.6 0 011.374-.627 2.57 2.57 0 011.927.507 2.598 2.598 0 01.997 1.729zM345.58 56.045a2.606 2.606 0 01-2.741 2.946 2.6 2.6 0 01-2.296-1.756 2.604 2.604 0 013.126-3.362 2.593 2.593 0 011.582 1.21c.172.296.284.623.329.962zM522.346 320l4.654-1.488s-3.173-1.556-3.173-6.396c0-4.841 4.358-6.705 2.482-11.116l-5.19 1.341a8.756 8.756 0 01.948 3.683 8.74 8.74 0 01-.708 3.732c-1.325 2.762-2.623 6.074.987 10.244z" fill="#5DBD6D"/><path d="M178 51.098L172.377 49s1.704 4.057-2.148 8.953c-3.851 4.895-9.491 3.497-11.229 9.32L164.913 70a12 12 0 012.064-4.473 11.654 11.654 0 013.661-3.22c3.596-1.767 7.396-4.127 7.362-11.209zm385.399 165.266L559.761 215s1.116 2.594-1.407 5.724c-2.522 3.13-6.216 2.236-7.354 5.959l3.872 1.744a7.584 7.584 0 013.75-4.919c2.333-1.129 4.833-2.639 4.777-7.144zm93 263L652.761 478s1.116 2.594-1.407 5.724c-2.522 3.13-6.216 2.236-7.354 5.959l3.872 1.744a7.584 7.584 0 013.75-4.919c2.333-1.129 4.833-2.639 4.777-7.144zM469.824 295.689l.525-3.857s-2.232 1.677-5.882-.112c-3.649-1.789-3.504-5.59-7.432-5.869l-.837 4.17a7.597 7.597 0 015.58 2.582c1.618 2.001 3.671 4.103 8.046 3.086z" fill="#455A64"/><path d="M454.111 117.491l.524-3.846s-2.232 1.677-5.881-.112c-3.649-1.789-3.504-5.59-7.433-5.869l-.837 4.17a7.6 7.6 0 015.58 2.571c1.641 2.001 3.672 4.103 8.047 3.086zM656 14.972L650.698 12s-4.346 6.642.869 10c-.015.015-1.087-4.31 4.433-7.028zM651.137 29l5.86-1.843S657.346 22.89 651 22c.03-.026 4.008 3.842.137 7z" fill="#5DBD6D"/><path d="M303.372 267.202l4.297-1.61s.257-3.689-4.464-4.472c.056 0 2.98 3.354.167 6.082z" fill="#455A64"/><path d="M466.331 108.11a2.61 2.61 0 011.273-2.601 2.592 2.592 0 012.885.186 2.602 2.602 0 01.93 2.743 2.601 2.601 0 01-2.175 1.908 2.598 2.598 0 01-2.913-2.236z" fill="#263238"/><path d="M496.653 265.424a1.29 1.29 0 012.072-1.196 1.295 1.295 0 01.063 2.004 1.289 1.289 0 01-1.641.052 1.296 1.296 0 01-.494-.86z" fill="#5DBD6D"/><path d="M647.905 267.615l-6.194 1.755s-2.957-7.759 3.192-9.95c0-.045-2.098 4.137 3.002 8.195z" fill="#455A64"/><path d="M646.889 251.226l5.324 3.476s-.782 5.065-7.31 4.718c0-.044 4.955-3.633 1.986-8.194z" fill="#455A64"/><path d="M448.888 205.03l-6.227 1.8s-2.946-7.759 3.192-9.95c0-.045-2.087 4.092 3.035 8.15zm-1.038-16.39l5.323 3.477s-.781 5.065-7.32 4.718c0 0 4.966-3.633 1.997-8.195zm-210.477 53.038l-6.205 1.756s-2.947-7.759 3.192-9.951c0 0-2.099 4.137 3.013 8.195z" fill="#263238"/><path d="M497.724 192.542l4.096 2.236s3.348-5.009-.67-7.524c0-.011.815 3.231-3.426 5.288zm3.314-11.426l-4.307 1.61s-.246 3.689 4.464 4.472c-.045.045-2.969-3.309-.157-6.082z" fill="#455A64"/><path d="M355.334 172.865l4.096 2.236s3.348-4.997-.67-7.524c0-.011.848 3.242-3.426 5.288zm3.314-11.392l-4.307 1.598s-.246 3.701 4.464 4.472c-.045.023-2.969-3.32-.157-6.07z" fill="#5DBD6D"/><path d="M.683 499.534l76.76-.269 76.761-.1 153.522-.19 153.522.19 76.761.1 76.761.269-76.761.279-76.761.09-153.522.19-153.522-.19-76.76-.101-76.761-.268z" fill="#BFBFBF"/><path d="M426.222 238.603c-16.561 10.644-44.997 17.665-67.194 15.708a62.65 62.65 0 01-10.357-1.643c-4.564-1.118-9.006-2.381-13.291-3.555-28.525-7.826-53.144-14.534-95.597-2.941-50.7 13.841-62.005 20.124-62.987 20.258l7.488-8.172-9.932-6.205c.234 0 11.707-6.339 61.57-19.956 46.269-12.623 73.935-5.054 103.23 2.951 4.241 1.118 8.615 2.359 13.057 3.5a51.49 51.49 0 005.223 1.028c21.115 3.041 51.693-4.472 64.315-14.534a11.754 11.754 0 003.214-3.768l.212 15.652c.279.235.569.828 1.049 1.677z" fill="#5DBD6D"/><path opacity=".2" d="M426.222 238.603c-16.561 10.644-44.997 17.665-67.194 15.708a62.65 62.65 0 01-10.357-1.643c-4.564-1.118-9.006-2.381-13.291-3.555-28.525-7.826-53.144-14.534-95.597-2.941-50.7 13.841-62.005 20.124-62.987 20.258l7.488-8.172-9.932-6.205c.234 0 11.707-6.339 61.57-19.956 46.269-12.623 73.935-5.054 103.23 2.951 4.241 1.118 8.615 2.359 13.057 3.5a51.49 51.49 0 005.223 1.028c21.115 3.041 51.693-4.472 64.315-14.534a11.754 11.754 0 003.214-3.768l.212 15.652c.279.235.569.828 1.049 1.677z" fill="#000"/><path d="M422.907 215.841s.257 37.587-7.086 45.704c0 0-48.446 89.34-74.549 94.415-22.108 4.305-102.605-55.408-102.605-55.408l25.456-39.286s14.073 6.864 33.268 17.362c15.847 8.676 29.462 18.503 29.875 17.776 6.004-10.822 30.489-41.578 30.009-43.602C351.974 230.297 368 215.908 368 215.908l54.907-.067z" fill="#263238"/><path d="M415.81 261.545s-11.897 21.957-27.086 44.72l-31.46-53.496c-5.279-22.495 10.747-36.894 10.747-36.894h54.907s.235 37.553-7.108 45.67z" fill="#37474F"/><path d="M165.636 293.251c.725-2.716 42.944-66.174 46.091-67.56 1.183-.548 52.452 35.574 52.452 35.574l-25.434 39.13-32.654-21.085s-26.315 16.625-29.931 17.787c-3.616 1.163-11.26-1.14-10.524-3.846z" fill="#FFCCB3"/><path d="M165.647 293.251c.726-2.717 42.933-66.174 46.069-67.561.569-.268 16.74 10.756 26.393 17.396l-26.148 40.081-5.926-3.813s-26.259 16.569-29.875 17.743c-3.616 1.174-11.26-1.152-10.513-3.846z" fill="#EBEBEB"/><path d="M165.491 293.541c.736-2.694 42.798-66.968 45.912-68.365 1.183-.537 10.769 5.903 20.947 13.941l-26.415 40.897s-26.372 16.188-29.954 17.373c-3.582 1.185-11.216-1.118-10.49-3.846z" fill="#5DBD6D"/><path d="M168.616 294.325c7.31-10.42 35.768-53.138 42.196-63.994 0-.09 0-.134-.067 0-7.455 10.162-35.578 53.116-42.297 63.916-.145.19.023.29.168.078zm12.331.492a10.194 10.194 0 001.63-8.061 9.884 9.884 0 00-4.074-6.138s-.134.067-.078.123a11.811 11.811 0 012.388 13.975c-.044.101.079.19.134.101zm21.718-12.198c2.879-4.193 4.653-10.062 2.946-15.048-.067-.19-.335-.101-.357.067a70.559 70.559 0 01-3.159 14.713.326.326 0 00.57.268zm-3.449 2.471c2.88-4.192 4.654-10.062 2.947-15.059-.067-.19-.335-.09-.358.078a70.685 70.685 0 01-3.158 14.713.325.325 0 00.39.381.317.317 0 00.179-.113zm-3.448 2.381c2.879-4.204 4.654-10.062 2.946-15.059-.067-.19-.335-.09-.357.078a70.648 70.648 0 01-3.158 14.702.322.322 0 00.386.396.324.324 0 00.183-.117zm-3.448 2.427c2.879-4.204 4.653-10.118 2.946-15.06-.067-.19-.335-.089-.357.079a70.627 70.627 0 01-3.159 14.701.329.329 0 00.171.372.322.322 0 00.399-.092zm26.739-50.177c3.147-4.763-4.241-9.671-7.388-4.897-3.147 4.774 4.241 9.671 7.388 4.897z" fill="#263238"/><path d="M210.912 294.75c3.214-.973 3.27-4.841 2.31-7.379a26.832 26.832 0 00-6.093-9.168c-.357-.38-.737-.726-1.116-1.118a5.81 5.81 0 01-.502-.425l-.146-.089-.412-.335a.133.133 0 00-.201.067.663.663 0 00-.692.156.463.463 0 00-.156.369v3.723a5.837 5.837 0 000 .648 27.252 27.252 0 001.049 9.034c.825 2.527 2.935 5.411 5.959 4.517zm-5.58-11.18c0-1.051-.067-2.102-.1-3.142-.034-1.04-.067-1.766-.112-2.65v-.704l.201.246c.424.57.837 1.118 1.272 1.666a50.925 50.925 0 013.203 4.628 29.092 29.092 0 011.83 3.444c.781 1.856 1.54 8.385-3.348 5.724-2.678-1.442-2.79-6.663-2.89-9.235l-.056.023z" fill="#263238"/><path d="M204.595 277.365a.138.138 0 00.051.109.127.127 0 00.055.026.13.13 0 00.062-.001c.133-.024.264-.061.39-.112a.223.223 0 00.157 0c.234-.033.463-.096.68-.19a16.744 16.744 0 002.4-.883 26.515 26.515 0 008.37-5.59c1.919-1.934 3.415-5.489.87-7.67a2.87 2.87 0 00-.29-.212c-2.355-1.71-5.29 0-6.997 1.878a25.995 25.995 0 00-4.118 6.708c-.748 1.688-1.451 3.354-2.232 5.042a.62.62 0 00.036.627.615.615 0 00.566.268zm3.482-6.317c1.116-2.325 3.348-7.043 6.428-7.3a4.118 4.118 0 012.087.257c2.366 1.118-.145 5.176-1.361 6.328a29.38 29.38 0 01-3.058 2.437c-.803.57-1.618 1.118-2.477 1.576-1.373.828-2.779 1.577-4.174 2.37-.09 0-.168.112-.257.146a.95.95 0 00.123-.257c.134-.224.245-.425.357-.66.792-1.61 1.529-3.265 2.332-4.897z" fill="#263238"/><path d="M586.413 455.127c-1.753 2.236-65.722 43.523-69.192 43.602-1.306 0-33.893-53.564-33.893-53.564l38.926-25.714 21.539 32.422s30.69-4.707 34.462-4.338c3.772.369 9.91 5.4 8.158 7.592z" fill="#FFCCB3"/><path d="M586.401 455.126c-1.741 2.236-65.721 43.524-69.192 43.602-.625 0-11.059-16.557-17.275-26.507l39.941-26.307 3.906 5.87s30.679-4.707 34.462-4.338c3.784.369 9.922 5.5 8.158 7.68z" fill="#EBEBEB"/><path d="M586.658 454.914c-1.741 2.236-65.9 44.317-69.315 44.351-1.305 0-7.521-9.716-13.659-21.153l40.499-26.944s30.634-4.326 34.384-3.957c3.75.369 9.821 5.512 8.091 7.703z" fill="#5DBD6D"/><path d="M584.103 452.946c-10.848 6.641-53.948 34.446-64.17 41.825-.078.067 0 .123 0 .067 10.892-6.339 53.78-34.491 64.237-41.713.267-.156.167-.335-.067-.179zm-11.105-5.377a10.244 10.244 0 00-4.709 6.708 9.899 9.899 0 001.294 7.245c0 .067.157 0 .123-.079a11.831 11.831 0 013.348-13.773c.112-.034.023-.157-.056-.101zm-24.786 2.504c-4.308 2.706-8.292 7.413-8.693 12.634 0 .201.267.223.357.067a70.235 70.235 0 018.76-12.22.324.324 0 00-.424-.481zm4.14-.85c-4.319 2.706-8.292 7.424-8.693 12.634 0 .201.268.223.357.078a70.334 70.334 0 018.749-12.231.325.325 0 00-.199-.515.33.33 0 00-.214.034zm4.13-.838c-4.319 2.706-8.292 7.413-8.694 12.634 0 .201.268.224.357.067a70.256 70.256 0 018.75-12.22.325.325 0 00-.2-.515.328.328 0 00-.213.034zm4.129-.849c-4.319 2.705-8.292 7.423-8.694 12.633 0 .202.268.224.357.079a70.302 70.302 0 018.75-12.231.325.325 0 00-.013-.408.322.322 0 00-.4-.073zm-44.495 35.328c-4.788 3.108 0 10.565 4.821 7.446 4.821-3.119-.033-10.565-4.821-7.446z" fill="#263238"/><path d="M545.489 435.662c-3.348-.402-4.922 3.131-5.056 5.848a27.056 27.056 0 001.931 10.833c.179.492.391.961.603 1.42.111.19.201.391.29.581l.1.146.246.469a.13.13 0 00.106.052c.02 0 .04-.004.059-.013a.16.16 0 00.047-.039.66.66 0 00.703.134.48.48 0 00.29-.268c.458-1.118.971-2.236 1.473-3.421.101-.19.179-.38.268-.582a27.357 27.357 0 002.634-8.709c.223-2.571-.558-6.093-3.694-6.451zm.614 12.477c-.38.984-.782 1.957-1.116 2.918-.335.962-.648 1.655-.96 2.482 0 .112-.089.246-.123.347l-.111.313c0-.101-.056-.201-.079-.302-.022-.101 0 0 0 0-.167-.682-.312-1.353-.491-2.035a48.481 48.481 0 01-1.116-5.523 30.145 30.145 0 01-.301-3.89c0-2.013 1.92-8.296 5.335-3.913 1.841 2.37-.112 7.211-1.038 9.603z" fill="#263238"/><path d="M544.362 454.121a.141.141 0 00.013-.06.138.138 0 00-.057-.107.125.125 0 00-.057-.023 1.792 1.792 0 00-.401 0 .18.18 0 00-.157 0 2.93 2.93 0 00-.692-.089 16.296 16.296 0 00-2.555-.157 26.366 26.366 0 00-9.888 1.755c-2.522 1.007-5.312 3.667-3.85 6.708.053.108.112.213.178.313 1.485 2.505 4.866 2.091 7.165 1.118a25.799 25.799 0 006.473-4.55c1.361-1.241 2.678-2.538 4.029-3.745a.613.613 0 00.334-.657.613.613 0 00-.535-.506zm-5.703 4.405c-1.975 1.677-5.904 5.109-8.805 4.125a4 4 0 01-1.808-1.062c-1.741-1.956 2.232-4.695 3.761-5.265a29.408 29.408 0 013.772-1.007 36.64 36.64 0 012.901-.469c1.596-.201 3.181-.324 4.777-.503h.301a1.75 1.75 0 00-.223.19c-.212.156-.391.302-.591.469-1.373 1.141-2.701 2.348-4.085 3.522zm-15.222-37.867l-40.076 24.45s-40.856-42.964-50.22-80.06c-2.823-11.18-50.521-80.831-66.524-98.283-21.059-22.975.167-50.958.167-50.958h58.166l.29 21.029c4.576 7.435 98.197 183.822 98.197 183.822z" fill="#263238"/><path d="M413.176 226.954a49.2 49.2 0 016.406 4.55 50.116 50.116 0 015.691 5.423 48.233 48.233 0 01-6.406-4.562 49.923 49.923 0 01-5.691-5.411z" fill="#37474F"/><path d="M403.288 107.697c-.714-4.472-1.663-9.179-8.336-11.348-14.319-4.64-24.552 14.914-41.08 21.175-19.91 7.58-27.9 19.621-19.798 27.358 9.051 8.664 25.858 3.834 39.763-20.124 8.705-14.97 16.461-18.749 20.032-18.693 2.578 0 6.194 5.232 6.194 5.232l3.225-3.6z" fill="#263238"/><path d="M378.837 116.652c-1.552 2.236-2.835 4.707-4.197 7.088-1.361 2.382-2.678 4.786-4.084 7.122-1.406 2.337-2.891 4.64-4.531 6.809a40.908 40.908 0 01-5.402 6.037 20.86 20.86 0 01-6.763 4.26 23.545 23.545 0 01-8.001 1.296 17.994 17.994 0 01-7.924-1.923 16.144 16.144 0 01-3.448-2.314 16.557 16.557 0 01-1.462-1.476 7.237 7.237 0 01-1.183-1.721 10.383 10.383 0 002.422 3.443 16.374 16.374 0 003.348 2.616 17.917 17.917 0 003.961 1.677c1.387.393 2.813.626 4.252.693 1.428.072 2.859.008 4.275-.19l1.06-.167 1.038-.213a18.456 18.456 0 002.075-.581 21.99 21.99 0 007.21-4.472 52.172 52.172 0 009.921-13.282c1.35-2.415 2.578-4.874 3.772-7.345s2.366-4.942 3.661-7.357zm24.485-7.658a22.541 22.541 0 00-1.116-5.59 12.302 12.302 0 00-7.656-7.591c-.878-.3-1.782-.513-2.701-.638a13.275 13.275 0 00-2.745-.167 15.892 15.892 0 00-5.301 1.353 27.22 27.22 0 00-4.788 2.884c-3.035 2.236-5.848 4.83-8.76 7.323a76.786 76.786 0 01-9.241 6.976 75.118 75.118 0 01-10.412 5.054 85.388 85.388 0 00-10.379 4.729 22.332 22.332 0 00-4.598 3.354l-1.004.995c-.313.369-.592.749-.893 1.118l-.447.559-.379.603-.748 1.23a19.438 19.438 0 017.678-8.452 87.91 87.91 0 0110.312-5.165 84.531 84.531 0 0010.111-5.199 75.277 75.277 0 009.017-6.909c2.924-2.459 5.737-5.076 8.928-7.323a28.37 28.37 0 015.089-2.94 16.03 16.03 0 015.781-1.308c.997-.005 1.992.093 2.969.29.97.177 1.922.439 2.846.783a12.423 12.423 0 017.711 8.363c.509 1.845.753 3.754.726 5.668z" fill="#263238"/><path d="M407.864 107.954c-.134-1.386-1.339-3.041-2.232-3.175-.893-.134-7.165 3.51-7.533 5.277-.368 1.766 2.757 2.896 2.757 2.896l7.008-4.998z" fill="#5DBD6D"/><path d="M418.857 155.983c8.046-17.888 15.836-31.874 27.9-53.049 6.271-11.023 17.186-28.777 19.987-33.54 3.694-6.216 30.076 17.888 27.097 21.801-1.942 2.583-13.002 18.615-23.682 29.951-13.716 14.534-23.838 28.04-39.149 43.066-11.573 11.392-17.466 3.588-12.153-8.229z" fill="#FFCCB3"/><path d="M486.419 98.853c6.618-2.571 26.695-16.77 30.02-20.392 3.326-3.622 12.154-14.936 9.609-17.776-2.544-2.84-5.39.246-5.39.246s3.348-5.802.145-7.971c-2.545-1.722-6.774 2.414-6.774 2.414s3.348-6.551-.112-8.295c-3.136-1.599-6.573 4.025-6.573 4.025s2.232-5.77-1.116-6.708c-3.984-1.118-7.812 8.832-11.83 12.61-.904.862-26.304 16.223-26.304 16.223l18.325 25.624z" fill="#FFCCB3"/><path d="M507.188 50.802c-3.649 7.178-5.368 10.062-11.584 14.646-.123.09 0 .29.111.2 6.507-3.946 8.795-7.188 11.841-14.723.145-.37-.189-.458-.368-.123zm6.763 4.561c-3.683 7.357-6.417 10.14-12.611 15.44-.089.078 0 .224.123.156 6.484-4.684 10.044-7.703 12.711-15.529.156-.357-.056-.402-.223-.067zm6.361 5.837c-4.029 6.864-6.852 10.24-13.492 14.623a.141.141 0 00-.048.086.144.144 0 00.094.16.146.146 0 00.099 0c7.209-3.802 10.758-7.983 13.548-14.724.223-.459.089-.582-.201-.146z" fill="#263238"/><path d="M463.273 75.79S466.008 65 476.23 61.03c4.118-1.61 9.888-13.874 13.693-13.628 4.252.28 1.206 11.381-3.972 17.351 0 0 6.908 11.001 2.232 16.972-1.016 1.296-8.437 5.4-10.29 5.02l-14.62-10.957z" fill="#FFCCB3"/><path d="M485.638 65.548c2.846 4.193 4.821 10.554 2.801 15.183a.112.112 0 00-.01.087c.008.03.028.055.055.07a.114.114 0 00.087.01.116.116 0 00.069-.055c2.846-4.663.614-12.053-2.143-15.652-.536-.682-1.596-.716-.859.357z" fill="#263238"/><path d="M426.657 206.629l-1.741 9.212H368s8.928-46.721 29.741-60.584c10.424-6.932 19.932-3.891 24.552 3.89 1.172 1.968 13.08 22.584 12.745 32.422-.312 8.766-8.381 15.06-8.381 15.06z" fill="#FFCCB3"/><path d="M435.05 191.614c-.302 8.172-7.433 14.232-8.314 14.959l-55.488-3.746c1.295-4.539 2.969-9.86 5.1-15.35a101.52 101.52 0 0016.506-.749c2.422-.458 7.812-8.541 14.709-7.714 6.897.827 13.793 7.714 13.793 7.714a22.318 22.318 0 0111.272-6.518c1.473 4.26 2.533 8.363 2.422 11.404z" fill="#263238"/><path d="M422.305 159.136a14.873 14.873 0 00-.971-1.453c1.641 4.762 4.743 15.26.748 16.3-4.386 1.118-15.423-16.021-18.838-21.51a25.381 25.381 0 00-5.491 2.783c-15.97 10.454-29.351 48.209-30.991 60.551h58.166l1.729-9.212s8.069-6.294 8.393-15.015c.335-9.849-11.573-30.465-12.745-32.444zm-21.684 22.863c-2.946 6.384-9.653 11.337-14.117 10.733-3.65-.503-5.357-5.467-3.906-11.806 2.5-10.8 13.135-26.72 17.979-26.34 5.557.436 4.932 16.781.044 27.413z" fill="#455A64"/><path d="M408.255 198.892a53.875 53.875 0 019.151 2.404c1.484.559 2.924 1.207 4.374 1.878.715.347 1.44.649 2.232.95a8.399 8.399 0 002.355.694c.067 0 .056.134 0 .134a14.397 14.397 0 01-2.299-.19 15.264 15.264 0 01-2.165-.638c-1.506-.547-2.991-1.185-4.464-1.755-3.035-1.118-6.06-2.236-9.151-3.175-.234-.033-.179-.335-.033-.302zm-7.902 2.862a58.018 58.018 0 017.756 0c1.295.101 2.567.291 3.851.515.602.112 1.216.235 1.819.369.602.134 1.316.402 1.986.536.078 0 .067.146 0 .134-.636-.111-1.294-.078-1.931-.145l-1.93-.179c-1.284-.112-2.567-.212-3.862-.346a177.27 177.27 0 00-7.711-.649c-.145.011-.112-.235.022-.235z" fill="#263238"/><path d="M372.107 196.6c5.516.3 11.045.3 16.561 0 10.636-.726 22.633-2.661 22.878-2.504.447.291 21.405-.201 21.405-.201l1.618.917.257-1.118-1.44-.783c.51-1.604.625-3.307.335-4.964-.491-2.627-4.464-13.416-4.575-13.718-.112-.302-6.986-15.898-7.076-15.987-.089-.09-.736-.57-.736-.57l6.852 16.647c-2.26.499-4.554.832-6.863.995a82.695 82.695 0 01-8.415-.839s-4.91-12.924-5.692-14.254c-.781-1.331-3.437-7.961-3.705-7.826-.253.084-.51.155-.77.212 0 0 4.018 10.062 4.598 11.091.58 1.028 4.33 11.526 4.33 11.526s.804 8.765.837 10.342a59.115 59.115 0 01-1.049 6.942s-11.941 1.756-22.487 2.661c-8.794.772-16.495.727-16.606.727-.112 0-.257.704-.257.704z" fill="#fff"/><path d="M418.298 179.841l.503 10.778c0 .57-.279 1.017-.659 1.04-.379.022-.703-.403-.725-.973l-.424-8.944-.48.436a.503.503 0 01-.346.168.708.708 0 01-.614-.481 1.265 1.265 0 01.167-1.386l1.473-1.409h.19a.124.124 0 01.089 0h.302s.056.056.078.056a.132.132 0 00.056 0v.056l.056.067c.055.067 0 0 0 .078l.055.067v.179c.003.03.003.06 0 .089a.196.196 0 000 .135l.279.044zm11.406-.156l-2.623 10.956c-.089.38-.324.615-.614.626a.472.472 0 01-.268-.056 1.271 1.271 0 01-.435-1.297l2.232-9.502-3.225.145c-.379 0-.714-.447-.737-.995-.022-.548.268-1.018.637-1.029l4.296-.201c.04-.01.083-.01.123 0a.76.76 0 01.268.134v.056a.11.11 0 010 .067l.056.067v.079a1.32 1.32 0 010 .089v.179a.266.266 0 000 .089c.011.134.011.269 0 .403.301.078.301.134.29.19z" fill="#263238"/><path d="M407.496 153.166c.212 1.263 5.647 9.738 11.36 9.838 1.853 0 2.467-10.129 2.467-10.129l.212-.749 3.013-10.353-11.818-8.731-1.719-1.118s-.636 2.884-1.395 6.495c0 .168-.067.336-.112.515a9.02 9.02 0 00-.122.581c-.123.537-.246 1.118-.357 1.632-.112.515-.168.828-.235 1.264-.067.436-.156.872-.245 1.319a70.676 70.676 0 00-1.049 9.436z" fill="#FFCCB3"/><path d="M409.616 138.397a21.649 21.649 0 0011.919 13.729l3.013-10.353-11.818-8.731-1.719-1.118s-.636 2.862-1.395 6.473z" fill="#263238"/><path d="M433.32 117.446c9.251 16.524.413 23.936-3.147 25.926-3.226 1.811-14.508 7.569-25.356-7.904-10.847-15.473-6.16-25.01 1.016-29.538 7.175-4.528 18.235-4.997 27.487 11.516z" fill="#FFCCB3"/><path d="M428.8 116.093a9.95 9.95 0 01-1.239.391c-.42.201-.895.256-1.35.157a.669.669 0 01-.402-.716 1.667 1.667 0 011.239-1.118 2.469 2.469 0 011.763 0 .71.71 0 01.395.647.714.714 0 01-.406.639zm-10.792 6.16c.355-.255.69-.535 1.005-.838.398-.24.704-.606.87-1.04a.66.66 0 00-.391-.727 1.628 1.628 0 00-1.629.425 2.399 2.399 0 00-.96 1.487.718.718 0 00.719.814.71.71 0 00.386-.121zm9.04 11.147a1.94 1.94 0 001.294.201 3.171 3.171 0 001.116-.894h.078a1.738 1.738 0 01-1.116 1.352 1.373 1.373 0 01-1.406-.592c-.111-.023-.033-.09.034-.067zm2.433-6.697s1.172 1.554 1.607 2.348c0 .067-.123.212-.391.38a4.318 4.318 0 01-4.464.626.102.102 0 01-.033-.109.097.097 0 01.034-.048.095.095 0 01.055-.022 6.463 6.463 0 003.984-.928c-.067-.246-2.087-2.594-1.964-2.672a7.788 7.788 0 012.02-.592c-2.333-3.354-5.178-6.216-7.455-9.537a.127.127 0 01-.027-.086.125.125 0 01.122-.114.13.13 0 01.084.032 65.61 65.61 0 018.47 9.928c.313.425-1.607.749-2.042.794z" fill="#263238"/><path d="M429.771 129.688a4.405 4.405 0 01-.904 2.012 1.979 1.979 0 01-1.016.626c-.859.202-1.249-.48-1.428-1.118a4.215 4.215 0 01-.145-1.118 5.566 5.566 0 003.493-.402z" fill="#263238"/><path d="M428.867 131.678a1.983 1.983 0 01-1.016.626c-.859.202-1.25-.48-1.428-1.118a2.03 2.03 0 012.444.492z" fill="#FF9CBD"/><path d="M420.352 126.055a1.191 1.191 0 01-.101.458.854.854 0 01-.513.525c-.737.291-1.417-.29-1.83-.983v-.068c.48.213 1.015.414 1.384.146.231-.237.39-.536.457-.861.175.28.377.542.603.783z" fill="#263238"/><path d="M419.872 126.055a2.054 2.054 0 01-.111-1.118 1.496 1.496 0 01.691-.962 1.336 1.336 0 011.195 0c.327.154.614.384.837.671.133.169.252.348.357.536.23.389.367.825.401 1.275a5.102 5.102 0 00-.524-.816 6.725 6.725 0 00-.603-.649c-.435-.402-.959-.648-1.339-.402a1.116 1.116 0 00-.424 1.342c.142.607.344 1.199.603 1.766a4.177 4.177 0 01-1.083-1.643zm10.647-6.34c.137.076.283.132.435.168a.892.892 0 00.725-.145 1.589 1.589 0 00.179-2.069s-.067-.078-.078 0c-.089.526-.212 1.118-.636 1.241-.325.07-.664.039-.971-.089.149.284.265.584.346.894z" fill="#263238"/><path d="M430.764 119.324a2.139 2.139 0 00-.848-.671 1.501 1.501 0 00-1.183.056 1.346 1.346 0 00-.692.973c-.055.375-.02.758.1 1.118.078.201.168.402.257.592.204.405.498.757.859 1.029a3.972 3.972 0 01-.401-.895 5.557 5.557 0 01-.224-.849c-.089-.593 0-1.118.402-1.342a1.114 1.114 0 011.35.38c.421.449.795.94 1.116 1.465a4.19 4.19 0 00-.736-1.856zm-17.878-11.996a8.39 8.39 0 012.087 4.472c.178 4.74-4.9 6.138-5.67 8.452-.77 2.314 1.306 4.819.726 6.921-.815 2.906-2.79 2.168-2.4 3.633.391 1.465 1.697 6.093.313 7.502-1.384 1.408-23.581-22.36-1.339-32.892 0 0 2.354-2.996 8.213-2.895 8.404.145 13.984 8.161 13.984 8.161a6.125 6.125 0 01-2.556.134c-1.529-.369-2.422-.794-3.504-.995-1.708-.302-2.098.76-3.839.503-2.69-.413-6.015-2.996-6.015-2.996z" fill="#263238"/><path d="M412.194 106.456a16.654 16.654 0 012.388 3.007 6.871 6.871 0 011.239 3.489 5.135 5.135 0 01-1.529 3.32c-.837.928-1.92 1.632-2.801 2.672a3.87 3.87 0 00-.882 1.867c-.054.68.025 1.364.235 2.012a6.832 6.832 0 01.379 3.656 4.294 4.294 0 01-2.232 2.762c-1.116.581-2.478.905-3.292 1.956.904-.984 2.232-1.118 3.415-1.688a4.578 4.578 0 002.6-2.907 6.787 6.787 0 00-.29-3.924 4.812 4.812 0 01-.201-1.789 3.353 3.353 0 01.781-1.565c.781-.95 1.864-1.688 2.746-2.683a6.5 6.5 0 001.116-1.666c.31-.612.46-1.293.435-1.979a7.198 7.198 0 00-1.462-3.644 16.267 16.267 0 00-2.645-2.896zm.982.772a13.39 13.39 0 002.634 2.459c1 .749 2.2 1.185 3.448 1.252a9.087 9.087 0 001.808-.201 2.922 2.922 0 011.596.168 9.553 9.553 0 001.618.794 3.99 3.99 0 001.808.078 4.307 4.307 0 01-1.696-.369 8.614 8.614 0 01-1.507-.917 3.106 3.106 0 00-1.886-.324 9.537 9.537 0 01-1.719.168 6.713 6.713 0 01-3.203-1.118 28.034 28.034 0 01-2.901-1.99z" fill="#263238"/><path d="M408.6 134.775s-6.004-3.98-7.946-1.621c-1.941 2.359 4.074 9.179 7.433 9.112a3.203 3.203 0 002.351-.872 3.211 3.211 0 00.997-2.303l-2.835-4.316z" fill="#FFCCB3"/><path d="M402.429 135.065c-.056 0 0 .09 0 .09 2.377 0 4.207 1.498 5.747 3.164a1.756 1.756 0 00-2.131-.043 1.764 1.764 0 00-.502.568c0 .067 0 .123.1.09a1.96 1.96 0 012.232-.157 9.592 9.592 0 011.607 1.252c.168.146.458-.089.301-.268-.97-2.683-4.419-5.545-7.354-4.696zm33.067-13.002a20.88 20.88 0 012.12 7.625 16.021 16.021 0 01-.167 4.003 16.75 16.75 0 01-.446 1.967 17.065 17.065 0 01-.748 1.89 15.016 15.016 0 01-2.232 3.354 15.373 15.373 0 01-3.091 2.549 16.177 16.177 0 01-7.511 2.37 17.858 17.858 0 003.75-1.118 16.647 16.647 0 006.283-4.338 13.836 13.836 0 002.098-3.175 15.483 15.483 0 001.473-7.457 21.464 21.464 0 00-.435-3.857 25.378 25.378 0 00-1.094-3.813zm-41.56 47.962a77.655 77.655 0 00-.814-1.308 93.672 93.672 0 005.423 5.065s.112 0 .067-.068a157.466 157.466 0 00-5.669-6.227c-.926-.95-1.819-1.934-2.779-2.862-.959-.928-2.232-2.023-3.214-3.119-.123-.134-.335 0-.212.168.971 1.039 1.842 2.169 2.779 3.253.937 1.084 1.674 1.834 2.544 2.717.165.345.348.68.547 1.006.335.525.67 1.04 1.038 1.543.737.995 1.518 1.967 2.232 2.94-.647-.961-1.306-2.079-1.942-3.108z" fill="#263238"/><path d="M401.369 154.418c-8.538-19.006-15.691-32.723-28.492-55.207-6.696-11.705-15.11-25.713-18.09-30.767-3.917-6.607-31.929 18.928-28.759 23.143 2.053 2.75 8.861 11.627 20.88 25.893 13.705 16.244 25.311 29.761 41.571 45.726 12.276 12.041 18.537 3.756 12.89-8.788z" fill="#FFCCB3"/><path d="M332.958 97.96c-7.031-2.729-28.335-17.755-31.873-21.656-3.538-3.902-12.901-15.843-10.2-18.861 2.7-3.019 5.725.257 5.725.257s-3.549-6.16-.157-8.463c2.701-1.834 7.188 2.56 7.188 2.56s-3.527-6.954.122-8.81c3.348-1.688 6.986 4.27 6.986 4.27s-2.365-6.115 1.116-7.132c4.23-1.207 8.326 9.391 12.555 13.416.96.917 27.9 17.217 27.9 17.217L332.958 97.96z" fill="#FFCCB3"/><path d="M310.894 46.956c3.884 7.625 5.714 10.666 12.276 15.551.123.09 0 .302-.133.213-6.908-4.192-9.33-7.636-12.567-15.652-.111-.38.246-.48.424-.112zm-7.164 4.83c3.85 7.826 6.807 10.766 13.392 16.39.089.078 0 .246-.134.178-6.875-4.986-10.669-8.194-13.493-16.501-.178-.37.056-.425.235-.067zm-6.797 6.194c4.275 7.289 7.277 10.878 14.33 15.529.03.023.051.056.058.094a.155.155 0 01-.104.178.155.155 0 01-.11-.004c-7.656-4.036-11.428-8.486-14.386-15.652-.201-.48-.055-.604.212-.145z" fill="#263238"/><path d="M357.532 73.475s-2.901-11.46-13.749-15.652c-4.386-1.7-10.512-14.724-14.508-14.467-4.464.302-1.283 12.085 4.219 18.424 0 0-7.344 11.672-2.344 18.023 1.116 1.375 8.928 5.724 10.915 5.332l15.467-11.66z" fill="#FFCCB3"/><path d="M333.784 62.608c-3.013 4.472-5.123 11.18-2.969 16.11a.128.128 0 01-.147.184.128.128 0 01-.076-.06c-3.013-4.953-.647-12.802 2.288-16.614.558-.738 1.685-.738.904.38z" fill="#263238"/><path d="M424.961 218.334c-13.526-6.451-52.273-19.632-78.745-26.038-23.693-5.713-48.178 2.527-71.848 10.487-14.966 5.031-29.094 9.782-42.799 11.046-53.78 4.964-71.346-33.317-72.54-34.949l9.933 2.482 1.752-11.113c1.004 1.364 14.151 33.294 59.538 29.068 12.02-1.118 25.367-5.59 39.507-10.353 24.429-8.217 52.117-17.53 79.861-10.844 27.442 6.607 69.549 19.744 79.403 26.194l-4.062 14.02z" fill="#5DBD6D"/><path d="M237.038 499.635l10.434-1.89s-11.16-11.403-4.296-18.424c6.863-7.021 17.108-.816 17.108-.816s-1.596-16.692 11.294-20.18c12.89-3.488 24.217 21.454 24.217 21.454s1.897-5.858 11.517-3.555c9.62 2.303 17.22 15.428 17.22 15.428l197.766 7.882" fill="#fff"/><path d="M134.945 499.856l13.254-1.94v.079c-2.902-2.385-5.263-5.147-6.981-8.164-.863-1.52-1.345-3.157-1.42-4.822-.05-1.69.609-3.346 1.874-4.71a11.125 11.125 0 012.171-1.805 14.528 14.528 0 012.653-1.368 17.716 17.716 0 016.102-1.122c4.227.011 8.379.888 12.048 2.546l-.355.179a22.468 22.468 0 01.625-7.524c.593-2.49 1.777-4.868 3.491-7.009 1.313-1.605 3.028-2.981 5.039-4.044 2.01-1.062 4.275-1.789 6.654-2.135 1.607-.21 3.25-.172 4.839.112 3.147.621 6.064 1.819 8.514 3.499a42.038 42.038 0 016.627 5.427c3.899 3.975 7.23 8.277 9.933 12.829h-.596c.812-1.492 2.3-2.692 4.172-3.364a15.885 15.885 0 015.818-.886c3.97.069 7.843.983 11.211 2.647 3.309 1.671 6.296 3.711 8.869 6.055a54.023 54.023 0 016.968 7.446l-.185-.089 251.471 8.085-251.485-7.738h-.114v-.078a52.335 52.335 0 00-6.953-7.368c-2.549-2.306-5.508-4.308-8.784-5.943-3.289-1.616-7.069-2.5-10.941-2.557-1.909-.06-3.81.235-5.548.863-1.713.618-3.074 1.717-3.818 3.084l-.283.539-.313-.516c-2.712-4.503-6.043-8.756-9.933-12.683a40.656 40.656 0 00-6.499-5.361c-2.354-1.632-5.158-2.808-8.188-3.431a15.37 15.37 0 00-4.768-.112 20.893 20.893 0 00-4.413 1.121c-2.829 1.065-5.227 2.731-6.925 4.811-1.681 2.097-2.846 4.425-3.435 6.863a22.524 22.524 0 00-.667 7.401v.348l-.383-.168c-3.587-1.637-7.65-2.51-11.792-2.535a17.234 17.234 0 00-5.946 1.122c-1.843.721-3.45 1.768-4.697 3.061-1.21 1.298-1.848 2.874-1.816 4.486.044 1.633.487 3.243 1.305 4.743 1.672 3.011 3.981 5.776 6.826 8.175l.085.068h-.113l-13.198 1.883z" fill="#BFBFBF"/><path d="M368.815 209.48c-5.58.223-11.16.335-16.74.425-5.58.089-11.16.089-16.74.134-5.58.044-11.16 0-16.74-.134l-8.381-.157c-2.79-.089-5.58-.145-8.37-.268 2.79-.123 5.58-.179 8.37-.28l8.381-.156c5.58-.09 11.16-.079 16.74-.123 5.58-.045 11.16 0 16.74.134 5.58.134 11.149.19 16.74.425zm86.222-132.517c-5.58.224-11.16.336-16.74.425-5.58.09-11.16.078-16.74.123-5.58.045-11.16 0-16.74-.123l-8.381-.156c-2.79-.09-5.58-.146-8.381-.269 2.801-.134 5.58-.19 8.381-.28l8.381-.156c5.58-.09 11.16-.09 16.74-.123 5.58-.033 11.16 0 16.74.123 5.58.123 11.149.202 16.74.436zm8.794 6.775c-3.66.235-7.309.335-10.97.425-3.66.09-7.31.123-10.959.134-3.649.011-7.321 0-10.97-.123l-5.48-.156c-1.819-.101-3.649-.146-5.479-.28 1.83-.123 3.66-.179 5.479-.268l5.491-.157c3.649-.1 7.31-.123 10.97-.134 3.661-.011 7.31 0 10.959.134 3.65.134 7.299.201 10.959.425zM224.717 290.904c-4.899.223-9.81.335-14.709.425-4.899.089-9.81.089-14.709.134-4.899.045-9.81 0-14.72-.134l-7.343-.157c-2.455-.089-4.911-.145-7.355-.268 2.444-.123 4.9-.179 7.355-.28l7.354-.156c4.911-.09 9.81-.078 14.72-.123 4.911-.045 9.81 0 14.709.134 4.899.134 9.799.201 14.698.425zm32.42-10.073c-4.91.223-9.81.335-14.72.425-4.91.089-9.81.089-14.709.134-4.899.045-9.809 0-14.72-.134l-7.354-.157c-2.455-.089-4.9-.145-7.355-.268 2.455-.134 4.9-.179 7.355-.28l7.354-.156c4.911-.09 9.81-.078 14.72-.123 4.911-.045 9.81 0 14.709.123 4.899.123 9.81.223 14.72.436zm121.733-56.963c-7.812.234-15.624.335-23.436.424l-23.436.135-23.436-.123-11.695-.157c-3.906-.101-7.812-.145-11.707-.279 3.906-.123 7.812-.179 11.707-.269l11.695-.156 23.436-.134 23.436.134c7.846.089 15.635.156 23.436.425z" fill="#263238"/><path d="M498.628 479.51c-5.647.235-11.294.336-16.941.425-5.647.09-11.305.09-16.952.134-5.647.045-11.294 0-16.941-.134l-8.481-.156c-2.824-.09-5.647-.146-8.471-.269 2.824-.123 5.647-.179 8.471-.279l8.481-.157c5.647-.078 11.294-.078 16.941-.123 5.647-.044 11.305 0 16.952.134 5.647.135 11.294.191 16.941.425zm-16.416 7.301c-7.98.235-15.97.347-23.949.436l-23.961.123-23.949-.123-11.975-.157c-3.995-.089-7.979-.145-11.975-.279 3.996-.123 7.98-.179 11.975-.268l11.975-.157 23.949-.134 23.961.134c7.979.09 15.969.201 23.949.425z" fill="#BFBFBF"/><path d="M331.005 214.935c-6.696.224-13.47.336-20.2.425-6.729.09-13.47.078-20.199.134-6.73.056-13.471 0-20.211-.134l-10.1-.156c-3.348-.09-6.696-.146-10.044-.269 3.348-.134 6.696-.19 10.044-.279l10.1-.157c6.696-.089 13.47-.078 20.211-.123 6.74-.044 13.459 0 20.199.123 6.741.123 13.47.157 20.2.436z" fill="#263238"/></svg>