<svg width="553" height="511" fill="none" xmlns="http://www.w3.org/2000/svg"><path d="M72.365 257.599c0 116.021 94.296 210.075 210.615 210.075 116.32 0 210.616-94.054 210.616-210.075 0-116.022-94.296-210.076-210.616-210.076-116.319 0-210.615 94.054-210.615 210.076zm407.834 0c0 108.641-88.298 196.712-197.219 196.712-108.92 0-197.218-88.071-197.218-196.712 0-108.642 88.298-196.713 197.218-196.713 108.921 0 197.219 88.071 197.219 196.713z" fill="#FD576C"/><g clip-path="url(#clip0_1_1859)"><path d="M43.585 509.797l59.221-.259 59.232-.098 118.441-.183 118.441.183 59.232.087 59.22.27-59.22.259-59.232.097-118.441.184-118.441-.184-59.232-.097-59.22-.259z" fill="#263238"/><path d="M303.291 509.797h-93.859a37910.43 37910.43 0 01-8.284-90.424c-.076-.864-.162-1.728-.238-2.582-2.657-29.41-4.461-49.737-4.461-49.737h88.567c.006.09.006.18 0 .27.658 4.817 9.677 75.108 18.275 142.473z" fill="#37474F"/><path d="M223.657 509.797h-1.502c-4.093-34.455-7.42-68.974-10.444-103.536a971.14 971.14 0 00-.54-6.211 6686.3 6686.3 0 01-1.793-21.331c0-.216.313-.216.346 0 .662 6.3 1.303 12.586 1.922 18.858a.1.1 0 010 .054c.216 2.29.454 4.569.681 6.869 2.408 23.848 4.795 47.675 7.409 71.49a3075.944 3075.944 0 003.921 33.807z" fill="#263238"/><path d="M272.227 367.054l-11.881 78.543-.421 2.657-1.08 7.075-.086.496-.281 1.901-7.906 52.071h-50.418c-5.174-29.162-10.466-59.059-14.851-83.868-.098-.562-.195-1.08-.292-1.642l-10.131-57.244 97.347.011z" fill="#263238"/><path d="M285.102 366.978s0 .108-.054.345c-.702 4.58-8.328 53.691-20.997 85.921a9.34 9.34 0 01-.302.799s-1.782.551-5.001 1.825c-1.253.497-2.744 1.08-4.428 1.836l-1.837.821c-3.715 1.664-8.219 3.845-13.36 6.632-.497.259-.983.529-1.469.799v.583c-.259 3.381-1.577 20.727-3.24 43.204h-88.415c6.804-70.13 14.278-142.819 14.278-142.819l124.825.054z" fill="#37474F"/><path d="M170.171 380.64c-2.517 32.899-4.926 65.799-7.561 98.655a7286.101 7286.101 0 01-2.527 30.501h-1.296c3.737-43.045 7.29-86.089 10.66-129.134.022-.475.756-.475.724-.022zm98.049 71.092a194.471 194.471 0 00-30.566 14.235.348.348 0 00.281.637c10.293-4.428 20.791-8.64 30.836-13.641a.677.677 0 00.34-.891.677.677 0 00-.891-.34zm3.272-70.659c0-.357-.658-.432-.648 0 .076 12.226-.702 22.973-1.728 34.4-.486 5.303-4.752 34.617-13.944 32.478-1.544-.356-2.332-1.868-2.57-4.191-.292-2.786.756-6.21 1.22-8.986 1.08-6.145 1.847-12.302 2.366-18.491a168.489 168.489 0 00-.367-34.681.309.309 0 00-.297-.246.301.301 0 00-.193.07.309.309 0 00-.105.176c0 16.018-.41 32.003-2.808 47.869-1.145 7.625-4.99 19.107 2.992 20.273 7.982 1.167 13.371-18.026 14.365-23.286 2.765-14.689 2.873-30.534 1.717-45.385z" fill="#263238"/><path d="M255.411 448.696a50.126 50.126 0 00-2.063 6.081 13.723 13.723 0 00-.864 4.99.35.35 0 00.273.278c.067.015.138.01.202-.015a.352.352 0 00.162-.123 17.68 17.68 0 002.16-4.86c.702-1.879 1.437-3.748 2.085-5.649a1.078 1.078 0 00-1.399-1.103c-.224.07-.419.21-.556.401zm-41.616-58.032a16.586 16.586 0 00-.389-3.802.191.191 0 00-.068-.107.195.195 0 00-.31.107 15.119 15.119 0 00-.421 3.24c-.13 1.264-.302 2.517-.432 3.78a56.93 56.93 0 01-1.35 7.658 27.228 27.228 0 01-7.021 12.626 36.872 36.872 0 01-11.88 7.82c-4.936 2.095-10.142 2.873-15.24 4.374-.216.054-.152.367 0 .378a44.267 44.267 0 0016.514-3.24 35.519 35.519 0 0012.389-7.906 27.53 27.53 0 007.215-12.961c.59-2.52.923-5.093.993-7.679.086-1.428.086-2.86 0-4.288z" fill="#263238"/><path d="M247.137 253.818c7.118 15.942 58.929 89.798 100.566 98.72 7.021 1.501 28.806 8.392 41.411-9.613 17.032-24.313 27.898-70.875 25.511-95.706-1.976-20.521-58.087-5.13-61.392 6.556-2.495 8.846-6.934 37.868-8.748 37.403-11.795-3.046-46.93-33.482-81.946-52.221-16.233-8.749-20.878 2.538-15.402 14.861z" fill="#FFCCB3"/><path d="M341.039 303.793a54.08 54.08 0 011.004-5.401 57.72 57.72 0 013.608-9.99c.065-.141.324-.054.27.108-1.08 3.315-1.869 6.761-2.754 10.142a163.634 163.634 0 00-1.221 5.054c-.378 1.696-.853 3.457-1.145 5.206 0 .097-.194.087-.183 0 .118-1.739.183-3.424.421-5.119z" fill="#263238"/><path d="M414.884 251.01s-.929-26.894-10.574-44.78c-6.664-12.367-24.173-37.652-66.069-39.272-9.936-.378-24.377 6.124-8.37 12.637 11.373 4.634 19.981 4.137 26.105 8.036 0 0-17.378 10.455-17.378 20.424 0 4.461-.659 14.117.918 23.557 0 0 3.1 2.711 5.854 2.592 0 0 .302 9.332 10.801 18.966l58.713-2.16z" fill="#FFCCB3"/><path d="M286.959 194.9c-5.098 3.435-7.884 11.546-3.78 19.258 4.104 7.712 14.495 6.729 19.442 3.348 4.946-3.38 9.126-11.816 4.903-19.009-3.575-6.243-11.589-9.613-20.565-3.597z" fill="#5DBD6D"/><path opacity=".1" d="M286.959 194.9c-5.098 3.435-7.884 11.546-3.78 19.258 4.104 7.712 14.495 6.729 19.442 3.348 4.946-3.38 9.126-11.816 4.903-19.009-3.575-6.243-11.589-9.613-20.565-3.597z" fill="#000"/><path d="M288.515 196.919c-4.159 2.798-6.427 9.43-3.079 15.726 3.349 6.297 11.881 5.498 15.899 2.733 4.018-2.765 7.464-9.645 4.018-15.532-2.981-5.098-9.526-7.841-16.838-2.927z" fill="#5DBD6D"/><path d="M297.22 200.419c.367.291 1.685-.81.961-1.329-.723-.518-1.436.962-.961 1.329zm3.078 7.226c-.183.421 1.21 1.426 1.534.594.324-.832-1.285-1.156-1.534-.594zm3.089-2.808c.076.453 1.793.529 1.61-.346-.184-.875-1.707-.259-1.61.346zm-6.253-7.583c.453-.075.54-1.782-.335-1.609-.875.173-.27 1.707.335 1.609zm-8.219 5.984c.119-.442-1.415-1.22-1.609-.345-.195.875 1.447.939 1.609.345zm3.672 9.538c-.378-.27-1.642.885-.897 1.371.746.486 1.394-1.004.897-1.371zm3.013-.573c-.454-.076-1.08 1.523-.195 1.631.886.108.8-1.534.195-1.631zm-3.164-6.761c.324-.325-.627-1.761-1.221-1.081-.594.681.789 1.513 1.221 1.081z" fill="#fff"/><path d="M283.19 206.63s8.371-.929 9.472.767c1.102 1.695-4.849 9.148-5.832 8.489-.983-.659-4.547-6.426-3.64-9.256z" fill="#5DBD6D"/><path opacity=".1" d="M283.19 206.63s8.371-.929 9.472.767c1.102 1.695-4.849 9.148-5.832 8.489-.983-.659-4.547-6.426-3.64-9.256z" fill="#000"/><path d="M297.501 217.733s-2.473-8.058-1.004-9.451c1.469-1.393 9.882 3.057 9.429 4.148-.454 1.091-5.476 5.659-8.425 5.303z" fill="#5DBD6D"/><path opacity=".1" d="M297.501 217.733s-2.473-8.058-1.004-9.451c1.469-1.393 9.882 3.057 9.429 4.148-.454 1.091-5.476 5.659-8.425 5.303z" fill="#000"/><path d="M308.161 202.892s-8.187 1.988-9.494.443c-1.306-1.544 3.64-9.721 4.699-9.159 1.058.562 5.325 5.789 4.795 8.716z" fill="#5DBD6D"/><path opacity=".1" d="M308.161 202.892s-8.187 1.988-9.494.443c-1.306-1.544 3.64-9.721 4.699-9.159 1.058.562 5.325 5.789 4.795 8.716z" fill="#000"/><path d="M294.282 193.096s1.999 8.187.454 9.494c-1.545 1.307-9.721-3.64-9.17-4.699.551-1.058 5.8-5.335 8.716-4.795z" fill="#5DBD6D"/><path opacity=".1" d="M294.282 193.096s1.999 8.187.454 9.494c-1.545 1.307-9.721-3.64-9.17-4.699.551-1.058 5.8-5.335 8.716-4.795z" fill="#000"/><path d="M311.488 206.824c-3.942 1.501-22.811 5.26-22.811 5.26l.367-.896 20.23-6.297a.615.615 0 00.253-.97.604.604 0 00-.664-.186l-18.912 5.184.594-1.436 20.695-6.761a.633.633 0 00.511-.54.624.624 0 00-.879-.648l-19.365 5.638.572-1.372 21.17-7.28a.599.599 0 00.372-.3.607.607 0 00.038-.478.603.603 0 00-.297-.365.605.605 0 00-.47-.034l-19.873 6.167.486-1.166s19.916-7.691 22.271-8.144c4.245-.832 1.685 12.356-4.288 14.624z" fill="#455A64"/><path d="M315.874 195.915c2.765-1.264 14.116-6.265 15.456-6.783 1.555-.605 56.563-22.001 58.756-22.066 2.192-.065 1.199 7.463-.065 9.051s-53.377 15.942-58.627 18.016c-5.497 2.16-15.833 6.48-15.833 6.48l.313-4.698z" fill="#455A64"/><path d="M401.297 204.836c-5.973-4.32-18.805-13.188-31.83-16.817-14.463-4.028-43.409-7.884-46.271 2.819-2.106 7.852 8.824 10.304 8.824 10.304s-12.302.918-12.647 8.425c-.314 6.848 8.241 8.23 8.241 8.23s-7.366 1.847-6.394 8.5c1.166 7.993 16.406 2.808 24.582 9.894 1.836 1.587 55.495-31.355 55.495-31.355z" fill="#FFCCB3"/><path d="M367.76 204.015c-6.275-3.121-22.379-6.545-35.524-3.121-.302.075-.399.345-.119.335a147.15 147.15 0 0135.643 2.894c.043.011.076-.075 0-.108zm-4.482 14.484c-5.703-2.16-22.455-4.925-35.643-.972-.302.087-.378.357-.097.335a157.986 157.986 0 0135.718.767c.065.021.087-.108.022-.13z" fill="#263238"/><path d="M282.855 307.401l54.868-29.281s-54.382-33.136-79.472-42.663c-26.149-9.969-36.042-2.635-12.497 25.987 23.19 28.147 37.101 45.957 37.101 45.957z" fill="#5DBD6D"/><path d="M333.22 275.42c-1.05.279-2.075.64-3.068 1.08a17.254 17.254 0 00-4.093 2.495 17.088 17.088 0 004.59-1.361 17.44 17.44 0 003.24-1.825 4.018 4.018 0 01-.669-.389zm-57.806 8.176a16.532 16.532 0 00-4.083 2.495 17.068 17.068 0 004.58-1.372 16.558 16.558 0 004.093-2.484 16.37 16.37 0 00-4.59 1.361zm25.986 4.925a16.763 16.763 0 00-2.484-4.082 16.853 16.853 0 001.361 4.59 16.428 16.428 0 002.484 4.072 16.481 16.481 0 00-1.361-4.58zm-46.843-23.632a17.106 17.106 0 00-2.495-4.072c.238 1.584.7 3.126 1.372 4.58a16.284 16.284 0 002.484 4.082 16.818 16.818 0 00-1.361-4.59zm-12.961-22.509a16.632 16.632 0 00-4.644-1.08c1.286.955 2.7 1.722 4.202 2.279 1.49.576 3.053.939 4.644 1.08a16.888 16.888 0 00-4.202-2.279zm37.728 16.202c-1.49-.6-3.057-.982-4.656-1.135a16.814 16.814 0 004.213 2.29c1.49.576 3.053.939 4.644 1.08a16.712 16.712 0 00-4.126-2.289l-.075.054zm-13.339-19.885a16.104 16.104 0 00-1.08 4.483 15.607 15.607 0 002.16-3.975l-1.08-.508zm37.392 28.342a17.09 17.09 0 00-1.08 4.644 18.457 18.457 0 003.402-8.846 16.924 16.924 0 00-2.322 4.169v.033z" fill="#fff"/><path d="M281.559 295.941c1.22-.842 2.581-1.523 3.867-2.257 1.285-.735 2.657-1.501 3.985-2.257 2.7-1.523 5.4-3.003 8.144-4.472 5.4-2.927 10.876-5.886 16.374-8.716a176.66 176.66 0 014.558-2.301c1.533-.745 3.24-1.447 4.882-2.225a.095.095 0 01.052.012.08.08 0 01.035.04.09.09 0 01.005.054.091.091 0 01-.027.045c-1.318.767-2.593 1.653-3.91 2.42a205.026 205.026 0 01-4.105 2.333 466.613 466.613 0 01-8.176 4.396c-5.4 2.851-10.801 5.724-16.201 8.457l-4.623 2.311c-1.587.799-3.164 1.696-4.828 2.344-.032.032-.162-.087-.032-.184z" fill="#263238"/><path d="M245.755 261.379c23.189 28.201 37.1 46 37.1 46l17.53-9.353-65.885-65.258c-4.547 3.488-1.75 12.809 11.255 28.611z" fill="#263238"/><path d="M295.352 415.009L149.93 424.19S163.399 284.06 214 233.199c6.254-6.275 21.278-5.886 31.323-1.652 3.596 1.501 17.195 18.199 21.796 34.562 4.601 16.364 28.589 148.382 28.233 148.9z" fill="#5DBD6D"/><path d="M199.732 274.339a16.997 16.997 0 00-4.093 2.485 16.266 16.266 0 004.59-1.405 16.515 16.515 0 004.094-2.484 17.01 17.01 0 00-4.591 1.404zm71.771 11.665c-.062.041-.12.088-.172.141a.932.932 0 00.183 0s-.011-.162-.011-.195v.054zm-36.387 24.216a16.854 16.854 0 00-4.094 2.484 17.113 17.113 0 004.59-1.361 16.75 16.75 0 004.083-2.484 16.256 16.256 0 00-4.579 1.361zm-15.986 61.499a16.865 16.865 0 00-4.082 2.495 16.446 16.446 0 004.59-1.361 17.024 17.024 0 004.083-2.495 16.86 16.86 0 00-4.591 1.361zm-35.923-39.963a17.347 17.347 0 00-4.083 2.485 16.51 16.51 0 004.591-1.361 17.013 17.013 0 004.082-2.485c-1.589.25-3.135.727-4.59 1.415v-.054zm-24.55 85.683a16.59 16.59 0 00-4.083 2.484 16.486 16.486 0 004.591-1.361 16.834 16.834 0 004.082-2.495 16.395 16.395 0 00-4.59 1.426v-.054zm63.897-9.3a16.667 16.667 0 00-4.082 2.485 16.853 16.853 0 004.59-1.361 17.225 17.225 0 004.083-2.495c-1.593.243-3.14.724-4.591 1.425v-.054zm71.966 1.448a19.119 19.119 0 00-2.981 1.08 17.485 17.485 0 00-4.083 2.484 16.598 16.598 0 004.591-1.361 20.964 20.964 0 002.613-1.393c-.064-.281-.14-.551-.14-.81zm-32.845-42.199a16.906 16.906 0 00-4.094 2.495 17.028 17.028 0 004.537-1.361 16.689 16.689 0 004.093-2.495 16.619 16.619 0 00-4.558 1.361h.022zm-48.377-116.497a16.66 16.66 0 00-2.495-4.083 17.01 17.01 0 001.361 4.58 16.72 16.72 0 002.495 4.093 16.615 16.615 0 00-1.361-4.59zm-21.742 164.766a16.673 16.673 0 00-2.484-4.094 16.598 16.598 0 001.361 4.591 16.879 16.879 0 002.484 4.093 15.883 15.883 0 00-1.361-4.59zm-8.932-40.125a16.808 16.808 0 00-2.506-4.072 17.165 17.165 0 001.361 4.58 16.47 16.47 0 002.506 4.082 17.307 17.307 0 00-1.361-4.59zm53.809-27.564a17.372 17.372 0 00-2.484-4.093 16.252 16.252 0 001.361 4.59 16.546 16.546 0 002.484 4.094 17.084 17.084 0 00-1.361-4.591zm-22.854-50.763a16.906 16.906 0 00-2.495-4.094 16.22 16.22 0 001.361 4.59 16.694 16.694 0 002.495 4.094 16.62 16.62 0 00-1.361-4.536v-.054zm34.271 116.821c.193 1.33.556 2.629 1.08 3.867l1.296-.087a17.1 17.1 0 00-2.376-3.726v-.054zm39.315-32.759a16.73 16.73 0 00-2.506-4.083 17.662 17.662 0 001.361 4.58 16.941 16.941 0 002.495 4.083 16.764 16.764 0 00-1.35-4.58zm-32.608-116.378a17.106 17.106 0 00-2.495-4.072c.238 1.584.7 3.126 1.372 4.579a16.261 16.261 0 002.484 4.083 16.843 16.843 0 00-1.361-4.59zm-12.961-22.509a16.597 16.597 0 00-4.644-1.08 16.9 16.9 0 004.201 2.279c1.49.575 3.054.939 4.645 1.08a16.923 16.923 0 00-4.202-2.279zm-40.719 111.939a16.203 16.203 0 00-4.644-1.134 17.037 17.037 0 004.212 2.29c1.491.571 3.054.935 4.644 1.08a16.306 16.306 0 00-4.169-2.236h-.043zm-35.21 40.265a16.838 16.838 0 00-4.656-1.134 18.434 18.434 0 008.857 3.403 16.88 16.88 0 00-4.158-2.269h-.043zm98.924 3.241a16.76 16.76 0 00-4.655-1.134 18.439 18.439 0 008.856 3.402 17.029 17.029 0 00-4.158-2.268h-.043zm-6.923-59.901a16.28 16.28 0 00-4.645-1.08 16.578 16.578 0 004.202 2.278c1.488.59 3.051.972 4.644 1.135a16.253 16.253 0 00-4.158-2.333h-.043zm-13.22-50.375a16.214 16.214 0 00-4.645-1.08 16.545 16.545 0 004.202 2.268c1.485.598 3.05.98 4.644 1.134a16.187 16.187 0 00-4.158-2.322h-.043zm-59.016 17.907a16.348 16.348 0 00-1.08 4.645 18.843 18.843 0 003.402-8.857 16.327 16.327 0 00-2.322 4.212zm53.583 80.693a16.35 16.35 0 00-1.08 4.644 16.915 16.915 0 002.289-4.201 17.456 17.456 0 001.08-4.644 16.413 16.413 0 00-2.268 4.201h-.021zm24.906-75.789a16.488 16.488 0 00-1.08 4.666 18.526 18.526 0 003.402-8.868 16.826 16.826 0 00-2.3 4.202h-.022zm-61.165 82.399a16.422 16.422 0 00-1.08 4.655 17.24 17.24 0 002.279-4.223 16.934 16.934 0 001.08-4.644 16.652 16.652 0 00-2.257 4.212h-.022zm-40.416-38.094a17.047 17.047 0 00-1.08 4.655 16.5 16.5 0 002.279-4.212 16.214 16.214 0 001.08-4.645 17.45 17.45 0 00-2.257 4.202h-.022zm50.094-25.857a16.067 16.067 0 00-1.08 4.655 18.541 18.541 0 003.402-8.857 16.404 16.404 0 00-2.322 4.202zm15.207-60.29a17.681 17.681 0 00-1.08 4.655 16.793 16.793 0 002.29-4.202 17.12 17.12 0 001.08-4.655 17.157 17.157 0 00-2.279 4.202h-.011z" fill="#fff"/><path d="M216.106 237.239a50.2 50.2 0 0016.299 20.359 27.45 27.45 0 0011.88 5.271 11.71 11.71 0 006.772-.68 13.223 13.223 0 004.872-4.558 24.833 24.833 0 003.175-6.869 59.195 59.195 0 001.869-8.328c-.005-.013-.007-.027-.005-.041a.084.084 0 01.015-.038.074.074 0 01.031-.027.08.08 0 01.04-.01c.014 0 .027.003.04.01a.08.08 0 01.031.027.073.073 0 01.014.038.094.094 0 01-.004.041c-.389 2.668-.562 5.401-1.156 7.993a26.905 26.905 0 01-2.376 6.739 15.976 15.976 0 01-4.321 5.271 10.518 10.518 0 01-6.718 2.031 24.85 24.85 0 01-13.069-4.45 44.023 44.023 0 01-10.109-9.202 46.602 46.602 0 01-7.561-13.523.144.144 0 01.022-.107.141.141 0 01.092-.06.143.143 0 01.167.113z" fill="#263238"/><path d="M247.861 257.998c-8.511 1.426-22.066-12.334-27.067-23.092-.335-.735 1.242-8.176 2.743-17.281.886-5.541 1.75-11.73 2.161-17.433.075-1.177 35.21 11.039 35.21 11.039s-4.32 11.729-4.903 21.677a13.82 13.82 0 00.097 2.354c.006.13.006.26 0 .389.41 4.483-.011 20.954-8.241 22.347z" fill="#FFCCB3"/><path d="M252.397 235.597a21.38 21.38 0 003.684 0v-.389a12.04 12.04 0 01-.087-2.355c.594-9.947 4.882-21.666 4.882-21.666s-28.514-9.926-34.217-11.028c.659 6.697 4.677 33.58 25.738 35.438z" fill="#263238"/><path d="M220.6 161.158c-3.738 12.734 3.402 49.457 12.539 57.482 13.242 11.719 34.714 12.604 44.618-3.241 9.602-15.38-.551-62.968-10.736-70.291-14.991-10.822-40.913-2.797-46.421 16.05z" fill="#FFCCB3"/><path d="M255.486 183.44c0-.097-.162.151-.14.249.54 2.462.756 5.4-1.318 6.61-.065 0 0 .162 0 .129 2.689-.896 2.376-4.752 1.458-6.988z" fill="#263238"/><path d="M252.796 181.281c-4.028.453-2.829 8.478.908 8.057 3.737-.421 2.473-8.435-.908-8.057zm17.897-.455c0-.097.216.087.227.184.292 2.506 1.08 5.314 3.424 5.8.076 0 .086.14 0 .14-2.808.033-3.77-3.715-3.651-6.124z" fill="#263238"/><path d="M272.53 177.889c3.953-.897 5.465 7.074 1.803 7.917-3.661.842-5.119-7.161-1.803-7.917zm-23.449.195a33.193 33.193 0 002.938-1.567 5.392 5.392 0 002.7-2.16 1.726 1.726 0 00-.572-2.019c-1.372-.886-2.927-.476-4.32.205a6.241 6.241 0 00-3.165 3.24 1.841 1.841 0 00.471 1.927 1.836 1.836 0 001.948.374zm25.998-4.699a31.234 31.234 0 01-3.316-.346 5.391 5.391 0 01-3.305-1.004 1.705 1.705 0 01-.216-2.085c.939-1.328 2.538-1.533 4.072-1.425a6.337 6.337 0 014.136 1.803 1.836 1.836 0 01-1.371 3.057zm-18.362 32.64c.681.486 1.404 1.199 2.312 1.145a6.68 6.68 0 002.581-1.026.088.088 0 01.054-.018c.02 0 .039.007.054.02.015.013.026.03.029.049.004.02.002.04-.007.057a3.374 3.374 0 01-1.228 1.322 3.368 3.368 0 01-1.732.503 2.668 2.668 0 01-2.279-1.911c-.075-.13.108-.216.216-.141zm1.491-7.842a8.545 8.545 0 006.221 2.927 10.973 10.973 0 003.068-.324 3.04 3.04 0 00.561-.151c.184 0 .346-.097.54-.162a.626.626 0 00.411-.637.943.943 0 00-.065-.249v-.216c-.238-1.922-.864-4.806-.864-4.806.756.238 4.558 1.318 4.32.324-1.728-8.208-3.65-17.281-7.118-25.133a.233.233 0 00-.11-.138.23.23 0 00-.313.092.223.223 0 00-.019.175c1.35 7.95 4.093 15.618 5.584 23.578a15.367 15.367 0 00-4.18-.615c-.259.119 1.307 5.551 1.339 6.426a.227.227 0 010 .097c-3.154.886-5.724.281-9.17-1.414-.216-.141-.378.054-.205.226z" fill="#263238"/><path d="M266.222 199.987a10.22 10.22 0 01-3.564 3.726 4.544 4.544 0 01-2.722.572c-2.063-.216-2.376-2.03-2.247-3.65.074-.858.251-1.703.53-2.517a13.15 13.15 0 008.003 1.869z" fill="#263238"/><path d="M262.658 203.714a4.544 4.544 0 01-2.722.572c-2.063-.216-2.376-2.03-2.247-3.65 2.161-.097 4.483 1.026 4.969 3.078z" fill="#FF97B8"/><path d="M262.118 153.738a13.726 13.726 0 01-10.995 7.561c-4.612.389-9.775-1.577-12.443-5.476-.076-.119-.259 0-.184.119 2.852 4.169 7.561 7.02 12.702 6.48a14.11 14.11 0 0011.222-8.478c.065-.26-.216-.4-.302-.206zm-19.82-25.479c-5.886-.216-11.351 3.856-13.576 9.17a20.125 20.125 0 00-1.253 10.034c0 .029.011.056.032.076.02.021.047.032.076.032a.103.103 0 00.076-.032.103.103 0 00.032-.076c-.259-5.4 1.793-11.492 6.113-14.992a12.374 12.374 0 0114.279-1.404 12.514 12.514 0 015.4 6.351.25.25 0 00.303.121.252.252 0 00.162-.283 12.784 12.784 0 00-11.644-8.997zm44.661 3.197a16.53 16.53 0 00-8.986-6.912c-5.152-1.642-10.099 0-14.98 1.782-.13 0-.054.248.075.205 4.158-1.48 8.457-2.743 12.885-1.717a16.194 16.194 0 019.17 5.875 15.821 15.821 0 01-1.587 20.673 16.102 16.102 0 01-12 4.32c-.173 0-.238.249-.054.26a16.21 16.21 0 008.708-1.562 16.2 16.2 0 006.769-22.924z" fill="#263238"/><path d="M219.854 164.431s-1.858-10.887.173-14.819c2.03-3.931 8.003-6.113 8.003-6.113s1.501-9.937 10.034-12.54c7.658-2.333 14.516 3.316 14.516 3.316s8.295-13.199 22.023-9.958c13.026 3.056 15.661 21.212 5.66 29.518-7.021 5.833-19.582 1.426-19.582 1.426-1.005.4-10.099 9.429-20.522 1.89 0 0-5.962 7.388-11.092 4.32.032.044-4.958 4.007-9.213 2.96z" fill="#263238"/><path opacity=".2" d="M225.816 151.546c.875 5.584 3.241 21.515 1.998 25.414-1.242 3.899-3.92 13.955-5.702 15.035-2.517-11.881-3.403-24.399-1.512-30.836a26.221 26.221 0 015.216-9.613z" fill="#263238"/><path d="M227.123 190.633s-8.641-11.6-13.965-8.479c-5.325 3.122 1.49 20.144 7.895 22.293a6.416 6.416 0 008.5-3.726l-2.43-10.088z" fill="#FFCCB3"/><path d="M215.22 186.983a.087.087 0 00-.061.148.086.086 0 00.061.025c4.483 1.653 6.956 5.692 8.716 9.905-1.36-1.599-3.186-2.441-5.335-.8-.119.087 0 .259.129.227a3.965 3.965 0 014.396 1.242 19.41 19.41 0 012.161 3.456c.216.389.928.162.766-.291a1.944 1.944 0 010-.108c-.097-5.649-4.741-13.426-10.833-13.804z" fill="#263238"/><path d="M318.627 317.77c-5.757 1.08-4.223-6.535-9.559-7.032-5.335-.496-6.934 5.401-10.217 4.558-3.284-.842-.929-6.729-7.463-6.783-6.535-.054-8.025 8.943-11.979 11.017-3.953 2.074-12.453-1.447-13.468 5.757-1.015 7.204 13.576 9.602 24.053 14.646 10.477 5.044 21.807 12.712 31.258 12.172 10.131-.637 14.538-7.236 22.293-8.284 7.754-1.048 25.576 3.748 33.169-3.046 7.593-6.793 19.852-12.269 20.035-19.635.184-7.367-9.494-4.126-12.594-4.483-3.099-.356-2.808-8.489-8.77-9.623-5.962-1.134-7.431 2.559-12.615 2.927-5.184.367-7.409-9.721-14.678-7.906-7.269 1.814-5.401 5.918-8.544 7.711-3.143 1.793-9.256-2.279-13.501-.41-4.244 1.868-2.29 7.496-7.42 8.414z" fill="#455A64"/><path d="M342.119 322.598c6.005.291 3.478-7.032 8.857-8.209 5.379-1.177 7.755 4.482 11.006 3.24 3.251-1.242.086-6.783 6.74-7.679 6.653-.897 9.321 7.863 13.619 9.407 4.299 1.545 12.518-3.024 14.484 3.997 1.966 7.02-12.637 11.254-22.681 17.594-10.045 6.34-20.619 15.391-30.34 16.007-10.412.659-15.758-5.336-23.762-5.4-8.003-.065-25.619 6.977-34.227 1.198-8.608-5.778-21.796-9.634-22.93-16.914-1.134-7.279 9.159-5.314 12.269-6.059 3.111-.745 1.793-8.781 7.723-10.66 5.93-1.88 7.906 1.588 13.242 1.296 5.335-.292 6.318-10.563 13.965-9.721 7.647.843 6.243 5.185 9.721 6.556 3.478 1.372 9.159-3.434 13.717-2.16 4.558 1.275 3.251 7.247 8.597 7.507z" fill="#37474F"/><path d="M276.256 322.241c-5.098 3.435-7.885 11.546-3.78 19.258 4.104 7.712 14.494 6.729 19.441 3.348 4.947-3.381 9.127-11.816 4.903-19.009-3.618-6.243-11.632-9.613-20.564-3.597z" fill="#5DBD6D"/><path opacity=".1" d="M276.256 322.241c-5.098 3.435-7.885 11.546-3.78 19.258 4.104 7.712 14.494 6.729 19.441 3.348 4.947-3.381 9.127-11.816 4.903-19.009-3.618-6.243-11.632-9.613-20.564-3.597z" fill="#000"/><path d="M277.768 324.261c-4.158 2.798-6.48 9.429-3.078 15.726 3.402 6.297 11.881 5.498 15.899 2.733 4.018-2.765 7.463-9.645 4.018-15.532-2.981-5.098-9.527-7.841-16.839-2.927z" fill="#5DBD6D"/><path d="M286.473 327.76c.367.291 1.685-.81.961-1.329-.723-.518-1.436.962-.961 1.329zm3.079 7.226c-.184.421 1.209 1.425 1.533.594.324-.832-1.285-1.156-1.533-.594zm3.089-2.808c.076.453 1.793.529 1.609-.346-.183-.875-1.706-.248-1.609.346zm-6.254-7.582c.454-.075.54-1.782-.335-1.609-.875.173-.27 1.706.335 1.609zm-8.219 5.983c.119-.443-1.415-1.22-1.61-.345-.194.874 1.448.939 1.61.345zm3.672 9.548c-.378-.27-1.642.886-.897 1.372.746.486 1.394-1.015.897-1.372zm3.013-.583c-.453-.076-1.08 1.523-.194 1.631.886.108.799-1.534.194-1.631zm-3.164-6.761c.324-.324-.627-1.76-1.221-1.08-.594.681.789 1.512 1.221 1.08z" fill="#fff"/><path d="M272.443 333.971s8.371-.929 9.473.767c1.101 1.695-4.85 9.148-5.833 8.489-.983-.659-4.547-6.427-3.64-9.256z" fill="#5DBD6D"/><path opacity=".1" d="M272.443 333.971s8.371-.929 9.473.767c1.101 1.695-4.85 9.148-5.833 8.489-.983-.659-4.547-6.427-3.64-9.256z" fill="#000"/><path d="M286.754 345.074s-2.473-8.058-1.004-9.451c1.469-1.393 9.882 3.057 9.429 4.147-.454 1.091-5.476 5.66-8.425 5.304z" fill="#5DBD6D"/><path opacity=".1" d="M286.754 345.074s-2.473-8.058-1.004-9.451c1.469-1.393 9.882 3.057 9.429 4.147-.454 1.091-5.476 5.66-8.425 5.304z" fill="#000"/><path d="M297.414 330.233s-8.187 1.987-9.494.443c-1.307-1.545 3.64-9.721 4.699-9.159 1.058.562 5.324 5.746 4.795 8.716z" fill="#5DBD6D"/><path opacity=".1" d="M297.414 330.233s-8.187 1.987-9.494.443c-1.307-1.545 3.64-9.721 4.699-9.159 1.058.562 5.324 5.746 4.795 8.716z" fill="#000"/><path d="M283.536 320.438s1.998 8.187.453 9.493c-1.544 1.307-9.72-3.639-9.169-4.698.55-1.058 5.8-5.335 8.716-4.795z" fill="#5DBD6D"/><path opacity=".1" d="M283.536 320.438s1.998 8.187.453 9.493c-1.544 1.307-9.72-3.639-9.169-4.698.55-1.058 5.8-5.335 8.716-4.795z" fill="#000"/><path d="M320.204 303.221c-6.005-1.318-13.792 2.268-16.536 10.563-2.743 8.295 5.142 15.121 11.028 16.396 5.886 1.274 14.84-1.555 17.141-9.58 1.987-6.945-1.113-15.068-11.633-17.379z" fill="#5DBD6D"/><path opacity=".1" d="M320.204 303.221c-6.005-1.318-13.792 2.268-16.536 10.563-2.743 8.295 5.142 15.121 11.028 16.396 5.886 1.274 14.84-1.555 17.141-9.58 1.987-6.945-1.113-15.068-11.633-17.379z" fill="#000"/><path d="M319.794 305.662c-4.893-1.081-11.255 1.857-13.501 8.64-2.247 6.783 4.201 12.367 9.008 13.393 4.806 1.026 12.129-1.264 14.041-7.82 1.587-5.648-.951-12.28-9.548-14.213z" fill="#5DBD6D"/><path d="M323.272 314.421c0 .464 1.75.659 1.631-.227s-1.696-.378-1.631.227zm-3.089 7.215c-.443.162-.205 1.857.616 1.523.82-.335-.054-1.728-.616-1.523zm4.158.292c-.281.378.843 1.663 1.35.928.508-.734-.993-1.415-1.35-.928zm1.155-9.786c.368.292 1.674-.831.94-1.339s-1.426.994-.94 1.339zm-10.001-1.782c.411-.226-.097-1.868-.853-1.404-.756.465.324 1.696.853 1.404zm-4.364 9.256c-.064-.464-1.782-.583-1.62.292.162.875 1.696.302 1.62-.292zm2.496 1.772c-.259-.389-1.847.27-1.318.983.53.713 1.653-.508 1.318-.983zm2.7-6.956c.465 0 .843-1.674 0-1.652-.842.021-.605 1.641 0 1.652z" fill="#fff"/><path d="M309.09 308.557s6.481 5.4 5.995 7.387c-.486 1.988-9.969 2.809-10.175 1.642-.205-1.166 1.491-7.723 4.18-9.029z" fill="#5DBD6D"/><path opacity=".1" d="M309.09 308.557s6.481 5.4 5.995 7.387c-.486 1.988-9.969 2.809-10.175 1.642-.205-1.166 1.491-7.723 4.18-9.029z" fill="#000"/><path d="M310.948 326.582s4.115-7.355 6.135-7.258c2.02.097 4.612 9.267 3.51 9.721-1.101.454-7.873-.076-9.645-2.463z" fill="#5DBD6D"/><path opacity=".1" d="M310.948 326.582s4.115-7.355 6.135-7.258c2.02.097 4.612 9.267 3.51 9.721-1.101.454-7.873-.076-9.645-2.463z" fill="#000"/><path d="M329.083 324.024s-7.096-4.558-6.88-6.567c.216-2.009 9.526-4.05 9.871-2.927.346 1.123-.55 7.884-2.991 9.494z" fill="#5DBD6D"/><path opacity=".1" d="M329.083 324.024s-7.096-4.558-6.88-6.567c.216-2.009 9.526-4.05 9.871-2.927.346 1.123-.55 7.884-2.991 9.494z" fill="#000"/><path d="M326.545 307.239s-4.547 7.096-6.556 6.88c-2.009-.216-4.051-9.516-2.927-9.872 1.123-.357 7.852.507 9.483 2.992z" fill="#5DBD6D"/><path opacity=".1" d="M326.545 307.239s-4.547 7.096-6.556 6.88c-2.009-.216-4.051-9.516-2.927-9.872 1.123-.357 7.852.507 9.483 2.992z" fill="#000"/><path d="M337.14 342.773c4.525 4.159 13.058 4.969 19.603-.82 6.546-5.79 3.154-15.672-1.296-19.712-4.45-4.039-13.62-6.113-19.636-.335-5.206 5.012-6.61 13.588 1.329 20.867z" fill="#5DBD6D"/><path opacity=".1" d="M337.14 342.773c4.525 4.159 13.058 4.969 19.603-.82 6.546-5.79 3.154-15.672-1.296-19.712-4.45-4.039-13.62-6.113-19.636-.335-5.206 5.012-6.61 13.588 1.329 20.867z" fill="#000"/><path d="M338.739 340.829c3.694 3.392 10.671 4.051 16.017-.669 5.347-4.72 2.582-12.799-1.08-16.115-3.661-3.316-11.125-4.99-16.039-.27-4.234 4.094-5.379 11.103 1.102 17.054z" fill="#5DBD6D"/><path d="M340.121 331.584c.194-.421-1.188-1.447-1.523-.626-.335.821 1.285 1.145 1.523.626zm6.297-4.72c.454.086 1.08-1.502.216-1.631-.864-.13-.821 1.523-.216 1.631zm-3.456-2.344c.432-.173.108-1.858-.702-1.48-.81.378.151 1.718.702 1.48zm-5.908 7.863c-.173-.432-1.858-.119-1.491.691.368.81 1.729-.14 1.491-.691zm7.743 6.589c-.464 0-.853 1.652 0 1.641.854-.01.605-1.631 0-1.641zm8.426-5.811c-.173.432 1.242 1.393 1.544.561.303-.831-1.318-1.123-1.544-.561zm-1.275-2.787c0 .465 1.739.691 1.631-.194-.108-.886-1.675-.411-1.631.194zm-5.832 4.655c-.4-.237-1.567 1.027-.778 1.448.788.421 1.307-1.134.778-1.448z" fill="#fff"/><path d="M349.431 343.746s-2.862-7.928-1.469-9.397c1.393-1.469 10.023 2.582 9.624 3.683-.4 1.102-5.185 5.93-8.155 5.714z" fill="#5DBD6D"/><path opacity=".1" d="M349.431 343.746s-2.862-7.928-1.469-9.397c1.393-1.469 10.023 2.582 9.624 3.683-.4 1.102-5.185 5.93-8.155 5.714z" fill="#000"/><path d="M356.883 327.263s-7.258 4.321-8.953 3.187c-1.696-1.135.659-10.326 1.825-10.132 1.166.195 6.783 3.954 7.128 6.945z" fill="#5DBD6D"/><path opacity=".1" d="M356.883 327.263s-7.258 4.321-8.953 3.187c-1.696-1.135.659-10.326 1.825-10.132 1.166.195 6.783 3.954 7.128 6.945z" fill="#000"/><path d="M339.959 320.34s3.845 7.496 2.657 9.127c-1.188 1.63-10.271-1.286-10.012-2.431.259-1.145 4.396-6.534 7.355-6.696z" fill="#5DBD6D"/><path opacity=".1" d="M339.959 320.34s3.845 7.496 2.657 9.127c-1.188 1.63-10.271-1.286-10.012-2.431.259-1.145 4.396-6.534 7.355-6.696z" fill="#000"/><path d="M333.673 336.109s7.507-3.845 9.138-2.646c1.631 1.199-1.285 10.272-2.441 10.012-1.156-.259-6.535-4.396-6.697-7.366z" fill="#5DBD6D"/><path opacity=".1" d="M333.673 336.109s7.507-3.845 9.138-2.646c1.631 1.199-1.285 10.272-2.441 10.012-1.156-.259-6.535-4.396-6.697-7.366z" fill="#000"/><path d="M370.126 329.197c4.526 4.158 13.058 4.957 19.603-.832 6.546-5.789 3.154-15.661-1.296-19.711-4.45-4.05-13.619-6.113-19.635-.335-5.152 5.012-6.611 13.544 1.328 20.878z" fill="#5DBD6D"/><path opacity=".1" d="M370.126 329.197c4.526 4.158 13.058 4.957 19.603-.832 6.546-5.789 3.154-15.661-1.296-19.711-4.45-4.05-13.619-6.113-19.635-.335-5.152 5.012-6.611 13.544 1.328 20.878z" fill="#000"/><path d="M371.725 327.264c3.693 3.391 10.671 4.05 16.017-.68 5.346-4.731 2.581-12.799-1.08-16.104-3.661-3.305-11.125-5.001-16.039-.27-4.234 4.093-5.379 11.081 1.102 17.054z" fill="#5DBD6D"/><path d="M373.106 317.964c.195-.421-1.188-1.437-1.523-.616-.334.821 1.264 1.167 1.523.616zm6.297-4.677c.454.076 1.08-1.512.216-1.631-.864-.118-.853 1.566-.216 1.631zm-3.456-2.344c.433-.184.108-1.868-.702-1.49-.81.378.152 1.728.702 1.49zm-5.908 7.853c-.173-.432-1.858-.108-1.491.691.368.799 1.728-.13 1.491-.691zm7.744 6.589c-.464 0-.853 1.663 0 1.641.854-.021.605-1.62 0-1.641zm8.425-5.801c-.173.432 1.242 1.394 1.544.551.303-.842-1.317-1.112-1.544-.551zm-1.275-2.798c0 .465 1.739.692 1.631-.183-.108-.875-1.674-.421-1.631.183zm-5.832 4.667c-.399-.238-1.566 1.015-.777 1.447.788.432 1.307-1.134.777-1.447z" fill="#fff"/><path d="M382.417 330.158s-2.862-7.928-1.469-9.386c1.393-1.458 10.023 2.571 9.623 3.683-.399 1.113-5.184 5.919-8.154 5.703z" fill="#5DBD6D"/><path opacity=".1" d="M382.417 330.158s-2.862-7.928-1.469-9.386c1.393-1.458 10.023 2.571 9.623 3.683-.399 1.113-5.184 5.919-8.154 5.703z" fill="#000"/><path d="M389.869 313.644s-7.258 4.32-8.953 3.24c-1.696-1.08.658-10.326 1.825-10.142 1.166.184 6.826 3.953 7.128 6.902z" fill="#5DBD6D"/><path opacity=".1" d="M389.869 313.644s-7.258 4.32-8.953 3.24c-1.696-1.08.658-10.326 1.825-10.142 1.166.184 6.826 3.953 7.128 6.902z" fill="#000"/><path d="M372.945 306.742s3.845 7.496 2.657 9.127c-1.188 1.631-10.272-1.275-10.013-2.43.26-1.156 4.396-6.524 7.356-6.697z" fill="#5DBD6D"/><path opacity=".1" d="M372.945 306.742s3.845 7.496 2.657 9.127c-1.188 1.631-10.272-1.275-10.013-2.43.26-1.156 4.396-6.524 7.356-6.697z" fill="#000"/><path d="M366.658 322.532s7.507-3.845 9.138-2.657c1.631 1.188-1.286 10.272-2.441 10.013-1.156-.26-6.535-4.385-6.697-7.356z" fill="#5DBD6D"/><path opacity=".1" d="M366.658 322.532s7.507-3.845 9.138-2.657c1.631 1.188-1.286 10.272-2.441 10.013-1.156-.26-6.535-4.385-6.697-7.356z" fill="#000"/><path d="M259.968 336.368l31.625 43.085 82.583-5.206 25.965-46.714-140.173 8.835z" fill="#EBEBEB"/><path d="M193.997 264.425c-19.754 52.567-35.912 109.833-23.686 121.26 9.872 9.213 91.861 22.682 109.801 21.461 7.625-.497 15.369-59.404 2.16-61.467-3.759-.583-62.644-1.933-63.228-3.24-1.933-4.04-.388-32.597.335-66.63.907-43.743-17.022-33.634-25.382-11.384z" fill="#FFCCB3"/><path d="M276.051 406.649c21.353 2.528 47.782 6.978 70-2.775a12.05 12.05 0 005.897-5.206c10.034-4.191 11.071-10.196 11.071-10.196 8.143-6.772 8.359-13.048 8.359-13.048s11.719-5.054 9.84-12.647c-2.085-8.533-18.145.237-29.918-.335-27.002-1.329-68.974-10.985-76.686-12.14l1.437 56.347z" fill="#FFCCB3"/><path d="M322.073 380.89c7.949.226 15.758.669 23.696-.184 8.717-.929 16.947-3.24 25.382-5.465a.206.206 0 01.161.012.212.212 0 01.091.283.198.198 0 01-.051.064.2.2 0 01-.071.04c-14.646 6.373-33.483 8.241-49.23 5.606-.378-.054-.378-.367.022-.356zm-3.164 16.179c7.744-.206 21.364-.648 44.056-8.879.076 0 .14.087.065.13-14.041 7.301-28.46 10.012-44.111 9.116-.486-.033-.529-.357-.01-.367zm-1.545 8.716c13.166-.842 21.353-3.046 34.563-7.193.064 0 .129.097.054.129-14.506 6.297-20.522 6.935-34.649 7.561-.486-.022-.486-.464.032-.497z" fill="#263238"/><path d="M318.876 358.78c-3.445-1.566-2.657-3.38 3.888-4.979 6.546-1.598 33.764-2.387 32.684-11.881-1.081-9.494-39.056-6.027-50.159-4.32a76.77 76.77 0 00-32.251 13.555c7.539 1.188 31.073 5.141 45.838 7.625z" fill="#FFCCB3"/><path d="M220.697 329.856l-57.449 12.788s19.646-60.539 32.402-84.149c13.393-24.604 25.684-25.479 26.505 11.524.724 36.55-1.458 59.837-1.458 59.837z" fill="#5DBD6D"/><path d="M170.646 331.314c1.404-.475 2.895-.756 4.321-1.08l4.449-1.08a432.235 432.235 0 019.062-2.052c6.038-1.307 12.086-2.647 18.146-3.856 1.674-.324 3.337-.659 5.011-.94 1.674-.281 3.554-.486 5.314-.788.108 0 .119.14 0 .162-1.49.367-2.948.864-4.439 1.242-1.49.378-3.046.756-4.58 1.08a816.923 816.923 0 01-9.072 1.976c-5.962 1.242-11.881 2.517-17.908 3.629l-5.022.929c-1.739.324-3.51.756-5.282.918-.054.022-.097-.108 0-.14z" fill="#263238"/><path d="M176.338 307.897c1.382-3.899 2.646-7.82 3.975-11.729 1.501-4.44 2.862-8.922 4.32-13.383 0-.108-.162-.172-.205-.064-1.804 4.752-7.95 20.586-8.922 23.275-2.84 7.831-5.681 15.661-8.457 23.514-1.555 4.406-3.24 9.493-4.774 13.9-.108.324 4.504-.929 6.924-1.652.129 0 .216-.486.054-.443-2.29.518-5.401.853-5.746.939 2.948-7.452 5.778-14.959 8.554-22.487a1107.53 1107.53 0 004.277-11.87z" fill="#263238"/><path d="M212.434 328.808a19.226 19.226 0 00-.918 3.089l.94-.205c.423-.788.802-1.599 1.134-2.43a17.406 17.406 0 001.08-4.645 16.394 16.394 0 00-2.236 4.191zm-27.002-23.351a16.35 16.35 0 00-1.08 4.644 18.84 18.84 0 003.402-8.856 16.281 16.281 0 00-2.322 4.212zm28.082-8.198a16.9 16.9 0 00-2.495-4.093 16.271 16.271 0 001.361 4.59 16.72 16.72 0 002.495 4.093 16.638 16.638 0 00-1.296-4.59h-.065zm-.281-46.368a16.605 16.605 0 00-2.495-4.082 17.05 17.05 0 001.361 4.579 16.744 16.744 0 002.495 4.094 16.6 16.6 0 00-1.296-4.591h-.065zm-30.091 80.92a17.35 17.35 0 00-4.082 2.484 16.48 16.48 0 004.59-1.361 17.035 17.035 0 004.083-2.484 16.858 16.858 0 00-4.526 1.361h-.065zm16.59-57.471a16.993 16.993 0 00-4.093 2.484 16.264 16.264 0 004.59-1.404 16.546 16.546 0 004.094-2.484 16.975 16.975 0 00-4.591 1.404z" fill="#fff"/><path d="M61.45 484.182a7.087 7.087 0 006.384-4.104s2.873 2.797 7.56.864c4.688-1.933 9.592-13.706 6.114-23.503-3.478-9.796-12.615-12.107-19.97-4.45-9.948-3.639-17.174 2.463-15.943 12.789 1.232 10.325 10.823 18.75 15.856 18.404z" fill="#5DBD6D"/><path d="M53.102 441.821a14.698 14.698 0 0110.26 11.244c.476 2.419-3.24 3.305-3.758.864-.81-4.083-4.32-5.898-8.295-7.086-2.377-.712-.594-5.735 1.793-5.022z" fill="#37474F"/><path d="M60.846 455.549s.723-11.266 11.567-12.735a15.594 15.594 0 01-11.567 12.735z" fill="#37474F"/><path d="M97.817 482.27a7.07 7.07 0 007.204 2.441s-.421 3.996 3.997 6.48c4.417 2.485 16.708-.939 22.26-9.72 5.552-8.781 1.717-17.4-8.846-18.459-3.24-10.066-12.55-11.978-19.906-4.633-7.355 7.344-8.111 20.111-4.709 23.891z" fill="#5DBD6D"/><path d="M125.964 449.523a14.703 14.703 0 01-2.495 15.013c-1.609 1.879-4.623-.529-3.003-2.409 2.711-3.164 1.977-7.031.443-10.909-.918-2.3 4.137-4.007 5.055-1.695z" fill="#37474F"/><path d="M119.991 464.06s9.31-6.394 17.163 1.231a15.606 15.606 0 01-17.163-1.231z" fill="#37474F"/><path d="M90.689 489.226a7.085 7.085 0 01-5.649-5.066s-3.24 2.311-7.625-.335-7.29-15.056-2.312-24.183c4.98-9.126 14.365-9.958 20.425-1.242 10.401-2.009 16.568 5.163 13.717 15.121-2.852 9.959-13.599 16.839-18.556 15.705z" fill="#5DBD6D"/><path opacity=".1" d="M90.689 489.226a7.085 7.085 0 01-5.649-5.066s-3.24 2.311-7.625-.335-7.29-15.056-2.312-24.183c4.98-9.126 14.365-9.958 20.425-1.242 10.401-2.009 16.568 5.163 13.717 15.121-2.852 9.959-13.599 16.839-18.556 15.705z" fill="#000"/><path d="M105.637 448.712a14.703 14.703 0 00-11.881 9.483c-.853 2.311 2.71 3.78 3.575 1.447 1.436-3.899 5.184-5.141 9.31-5.681 2.43-.324 1.458-5.573-1.004-5.249z" fill="#37474F"/><path d="M95.83 460.949s1.08-11.233-9.408-14.397a15.578 15.578 0 009.408 14.397z" fill="#37474F"/><path d="M147.814 487.293a7.109 7.109 0 01-7.313-2.063s-1.922 3.521-6.988 3.046c-5.065-.476-13.177-10.304-12.712-20.695.464-10.39 8.522-15.261 17.8-10.098 8.446-6.384 17.14-2.657 18.977 7.56 1.836 10.218-4.818 21.094-9.764 22.25z" fill="#5DBD6D"/><path opacity=".1" d="M147.814 487.293a7.109 7.109 0 01-7.313-2.063s-1.922 3.521-6.988 3.046c-5.065-.476-13.177-10.304-12.712-20.695.464-10.39 8.522-15.261 17.8-10.098 8.446-6.384 17.14-2.657 18.977 7.56 1.836 10.218-4.818 21.094-9.764 22.25z" fill="#000"/><path d="M143.407 444.338a14.717 14.717 0 00-6.48 13.749c.248 2.463 4.093 2.161 3.845-.27-.421-4.136 2.398-6.89 5.865-9.202 2.03-1.372-1.156-5.649-3.23-4.277z" fill="#37474F"/><path d="M140.005 459.675s-3.985-10.563-14.786-8.792a15.594 15.594 0 0014.786 8.792z" fill="#37474F"/><g filter="url(#filter0_bii_1_1859)"><path d="M157.383 472.538s-9.882 37.014-22.811 37.014H66.138c-12.96 0-22.8-37.014-22.8-37.014h114.045z" fill="#F7FCF7"/></g></g><g filter="url(#filter1_b_1_1859)"><path d="M536.506 46.357H420.444v83.502h116.062V46.357z" fill="#fff"/><path d="M536.799 130.153H420.15V46.065h116.649v84.088zm-116.062-.587h115.475V46.651H420.737v82.915z" fill="#C7C7C7"/><path opacity=".3" d="M526.646 77.42h-67.955v8.434h67.955v-8.433zM483.898 89.1h-53.6v8.434h53.6v-8.433z" fill="#5DBD6D"/><path d="M536.506 28.082H420.444v18.276h116.062V28.082zM469.542 77.42h-10.851v8.434h10.851v-8.433zm14.361 11.68h-10.851v8.434h10.851v-8.433zm-49.609-29.948a.365.365 0 01.51-.053c.377.32.846.509 1.339.54a1.51 1.51 0 00.874-.258.616.616 0 00.299-.505.415.415 0 00-.058-.223.65.65 0 00-.212-.211 2.764 2.764 0 00-.956-.329 4.068 4.068 0 01-.904-.27 1.587 1.587 0 01-.651-.546 1.123 1.123 0 01-.159-.587 1.294 1.294 0 01.558-1.02c.355-.251.78-.382 1.214-.376.557.035 1.09.24 1.526.587a.354.354 0 01.149.365.351.351 0 01-.055.128.345.345 0 01-.493.105 2.064 2.064 0 00-1.127-.446 1.33 1.33 0 00-.786.24.554.554 0 00-.264.44.33.33 0 00.047.195c.05.072.114.133.188.181.268.161.565.267.874.311.332.057.656.155.963.294.284.126.528.33.704.587.108.176.165.38.164.587a1.369 1.369 0 01-.587 1.086 2.194 2.194 0 01-1.297.399 3.03 3.03 0 01-1.79-.699.374.374 0 01-.07-.522zm17.771-3.299v4.108a.395.395 0 01-.393.382.386.386 0 01-.388-.382v-2.934l-.98 1.408a.378.378 0 01-.317.159.39.39 0 01-.323-.159l-1.003-1.402v2.934a.386.386 0 01-.661.274.386.386 0 01-.114-.274V55.86a.386.386 0 01.382-.387.387.387 0 01.311.164l1.391 1.93 1.391-1.93a.379.379 0 01.316-.164.4.4 0 01.388.381zm13.926.393h-1.115v3.739a.37.37 0 01-.11.271.375.375 0 01-.271.11.381.381 0 01-.388-.381v-3.739h-1.103a.392.392 0 01-.387-.393.378.378 0 01.387-.387h2.987a.383.383 0 01.382.387.394.394 0 01-.382.393zm15.559-.198l-1.72 4.108a.183.183 0 01-.029.059l-.035.04-.047.036s-.035.035-.065.041h-.275a.108.108 0 01-.065-.041l-.053-.035v-.101l-.915-2.17-.916 2.17a.438.438 0 00-.029.06l-.047.04-.041.036a.293.293 0 01-.059.041h-.282a.12.12 0 01-.064-.041l-.053-.035-.035-.041a.466.466 0 01-.035-.06l-1.72-4.107a.383.383 0 01.205-.5.381.381 0 01.499.206l1.374 3.24.903-2.148a.384.384 0 01.364-.235.401.401 0 01.364.235l.904 2.148 1.361-3.24a.393.393 0 01.363-.232.39.39 0 01.148.033.378.378 0 010 .493zm12.67.198h-1.115v3.739a.387.387 0 01-.768 0v-3.739h-1.11a.382.382 0 01-.272-.117.398.398 0 01-.001-.551.369.369 0 01.273-.112h2.993a.39.39 0 01.382.387.394.394 0 01-.382.393zm11.345 3.739v-4.108a.374.374 0 01.109-.274.386.386 0 01.272-.114h2.289a.396.396 0 01.247.13.396.396 0 010 .521.396.396 0 01-.247.13h-1.896v1.28h1.632a.385.385 0 01.387.387.396.396 0 01-.113.273.39.39 0 01-.274.114h-1.632v1.684a.39.39 0 01-.393.382.376.376 0 01-.278-.12.367.367 0 01-.081-.132.364.364 0 01-.022-.153zm13.803-.833a.365.365 0 01.511-.053c.377.318.846.507 1.338.54.311.006.617-.084.875-.258a.627.627 0 00.305-.505.41.41 0 00-.065-.223.648.648 0 00-.211-.211 2.727 2.727 0 00-.957-.329 4.06 4.06 0 01-.903-.27 1.543 1.543 0 01-.646-.546 1.077 1.077 0 01-.164-.587 1.282 1.282 0 01.587-1.02c.353-.25.776-.382 1.209-.376.556.035 1.089.24 1.525.587a.356.356 0 01.1.492.352.352 0 01-.499.106 2.049 2.049 0 00-1.126-.446 1.333 1.333 0 00-.787.24.554.554 0 00-.264.44.33.33 0 00.047.195.641.641 0 00.194.181c.267.161.565.267.874.311.334.058.659.157.968.294.283.127.525.33.699.587.11.176.169.38.17.587a1.357 1.357 0 01-.587 1.086 2.194 2.194 0 01-1.297.399 3.027 3.027 0 01-1.79-.699.373.373 0 01-.162-.386.392.392 0 01.056-.136z" fill="#5DBD6D"/><path d="M434.84 83.061a.113.113 0 01-.03-.076.113.113 0 01.112-.113.11.11 0 01.045.01.121.121 0 01.038.026.831.831 0 00.586.241.837.837 0 00.587-1.42.797.797 0 00-.587-.24.812.812 0 00-.586.24.115.115 0 01-.036.026.106.106 0 01-.123-.026.053.053 0 01-.004-.018c0-.006.002-.012.004-.017v-.036l.153-1.255a.093.093 0 01.041-.077.105.105 0 01.07-.03h1.45a.11.11 0 01.111.112.11.11 0 01-.111.112h-1.356l-.158.886c.16-.092.343-.14.528-.14a1.057 1.057 0 01.745 1.795 1.058 1.058 0 01-1.496 0h.017zm14.355-2.125a1.247 1.247 0 011.086-.675c.013 0 .027.001.04.006a.096.096 0 01.036.02.11.11 0 01.035.073.12.12 0 01-.03.08.12.12 0 01-.076.038 1.047 1.047 0 00-.903.587 1.947 1.947 0 00-.223.622 1.019 1.019 0 011.724.337 1.02 1.02 0 01-1.729 1.016 1.025 1.025 0 01-.254-.643v-.205a2.53 2.53 0 01.294-1.256zm-.076 1.42a.145.145 0 000 .059c.003.01.003.02 0 .03a.816.816 0 100-.106v.017zm14.572.864l1.174-2.73h-1.503a.105.105 0 01-.074-.18c.02-.02.046-.03.074-.03h1.614a.088.088 0 01.033-.008.08.08 0 01.032.007.101.101 0 01.036.026c.01.011.018.024.023.039a.104.104 0 010 .035.096.096 0 010 .058l-1.203 2.847a.112.112 0 01-.1.07.07.07 0 01-.047 0 .113.113 0 01-.053-.057.116.116 0 01-.006-.078zm14.513-2.96a.646.646 0 01.382 1.175 1.012 1.012 0 01.606 1.129 1.011 1.011 0 01-1.981 0 1.009 1.009 0 01.606-1.13.663.663 0 01-.211-.77.645.645 0 01.598-.403zm0 2.894a.792.792 0 00.798-.792.8.8 0 00-.474-.8.795.795 0 00-1.076.474.8.8 0 00-.04.326.787.787 0 00.792.792zm0-1.807a.442.442 0 00.435-.44.433.433 0 00-.832-.166.428.428 0 00-.031.165.432.432 0 00.263.405.43.43 0 00.165.036zm14.437-1.085a1.021 1.021 0 011.022.903v.27a2.63 2.63 0 01-.294 1.239 1.295 1.295 0 01-1.091.675.108.108 0 01-.062-.04.11.11 0 01-.024-.069.11.11 0 01.024-.07.108.108 0 01.062-.038 1.05 1.05 0 00.903-.587c.108-.194.183-.404.223-.622a1.022 1.022 0 01-.921.334 1.028 1.028 0 01.147-2.042l.011.047zm.816 1.02a.807.807 0 00-.966-.794.809.809 0 00-.298 1.466.813.813 0 001.202-.36.81.81 0 00.062-.311zm12.39-.703l-.441.258h-.052a.116.116 0 01-.094-.053.112.112 0 01-.014-.04.106.106 0 01.022-.08.103.103 0 01.033-.026l.587-.364a.11.11 0 01.146.035.129.129 0 010 .082v2.893a.108.108 0 01-.034.076.113.113 0 01-.077.03.112.112 0 01-.106-.106l.03-2.705zm1.027 1.238a1.95 1.95 0 01.299-1.086.967.967 0 01.775-.47.982.982 0 01.78.47c.199.327.303.703.3 1.086.004.381-.1.755-.3 1.08a.872.872 0 01-1.233.346.872.872 0 01-.322-.346 1.917 1.917 0 01-.299-1.08zm.217 0c-.007.34.085.674.264.962a.74.74 0 00.587.376.766.766 0 00.587-.376 1.884 1.884 0 000-1.924.737.737 0 00-.587-.376.71.71 0 00-.587.376 1.758 1.758 0 00-.264.962zm13.504-1.238l-.434.258h-.059a.109.109 0 01-.088-.053.094.094 0 01-.017-.039.101.101 0 01.019-.08.1.1 0 01.033-.028l.587-.364a.106.106 0 01.141.035.143.143 0 010 .083v2.893a.113.113 0 01-.106.106.116.116 0 01-.075-.032.111.111 0 01-.036-.074l.035-2.706zm1.491 0l-.44.258h-.053a.113.113 0 01-.054-.014.115.115 0 01-.04-.039.112.112 0 01-.014-.04.1.1 0 01.023-.08.1.1 0 01.032-.026l.587-.364a.11.11 0 01.08-.011.115.115 0 01.067.046.144.144 0 010 .082v2.893a.111.111 0 01-.008.04.114.114 0 01-.023.035.109.109 0 01-.075.031.112.112 0 01-.106-.106l.024-2.705zm-43.688-11.884l-.44.258a.083.083 0 01-.053 0 .109.109 0 01-.053-.014.11.11 0 01-.041-.039.11.11 0 01-.01-.082.103.103 0 01.052-.065l.586-.363a.11.11 0 01.083-.011.11.11 0 01.064.052.111.111 0 010 .076v2.858a.097.097 0 01-.029.077.1.1 0 01-.076.029.107.107 0 01-.075-.031.105.105 0 01-.031-.075l.023-2.67zm13.305 2.605l1.45-1.314a.792.792 0 00.27-.587.8.8 0 00-.804-.786.818.818 0 00-.54.2l-.153.14a.1.1 0 01-.147 0 .116.116 0 01-.024-.035.117.117 0 01-.008-.041.12.12 0 01.008-.042.116.116 0 01.024-.034l.153-.141a1.06 1.06 0 01.687-.264 1.025 1.025 0 011.015 1.015 1.017 1.017 0 01-.335.757l-1.244 1.12h1.473a.103.103 0 01.077.034.101.101 0 01.029.079.112.112 0 01-.008.04.105.105 0 01-.098.065h-1.76a.092.092 0 01-.082-.03.108.108 0 01-.035-.092.116.116 0 01.016-.048.117.117 0 01.036-.035zm16.315-2.722l-.804.821c.202.042.388.142.534.288a1.052 1.052 0 01-.006 1.49 1.054 1.054 0 01-1.147.232 1.007 1.007 0 01-.337-.232.12.12 0 01-.024-.035.116.116 0 01-.008-.04c0-.015.003-.03.008-.042a.12.12 0 01.024-.035.107.107 0 01.152 0c.157.153.368.24.587.24a.863.863 0 00.587-.24.837.837 0 000-1.174.828.828 0 00-.587-.24.11.11 0 01-.05-.013.11.11 0 01-.038-.035.11.11 0 01-.036-.08.11.11 0 01.036-.078l.769-.798h-1.174a.1.1 0 01-.043-.007.112.112 0 01-.038-.024.125.125 0 01-.024-.037.108.108 0 01-.006-.044.11.11 0 01.111-.111h1.45c.029 0 .058.011.079.032a.11.11 0 01.032.08.156.156 0 010 .052l-.047.03zm13.763 2.27h-1.696a.089.089 0 01-.065 0 .092.092 0 01-.023-.034.093.093 0 010-.08.092.092 0 01.023-.033l1.802-2.242a.094.094 0 01.147 0 .141.141 0 01.035.053v2.148h.211a.11.11 0 01.075.03.105.105 0 010 .15.106.106 0 01-.075.031h-.211v.534a.119.119 0 01-.008.042.104.104 0 01-.025.035.104.104 0 01-.078.029.105.105 0 01-.106-.106l-.006-.557zm0-.212v-1.819l-1.467 1.82h1.467zm-87.44 33.189l-.44.258h-.053a.111.111 0 01-.094-.052.103.103 0 01.008-.12.109.109 0 01.033-.027l.587-.364a.113.113 0 01.147.035.143.143 0 010 .082v2.853a.123.123 0 01-.007.042.103.103 0 01-.057.06.102.102 0 01-.042.009.108.108 0 01-.075-.035.108.108 0 01-.031-.076l.024-2.665zm2.054-.317a1.023 1.023 0 01.998.904v.27c.005.43-.096.856-.294 1.238a1.308 1.308 0 01-1.091.675.115.115 0 01-.041-.008.108.108 0 01-.057-.057.115.115 0 01-.008-.041.1.1 0 01.029-.078.107.107 0 01.035-.025.116.116 0 01.042-.008 1.047 1.047 0 00.903-.587c.105-.183.181-.381.223-.587a1.026 1.026 0 01-1.633-1.235 1.03 1.03 0 01.859-.473l.035.012zm.816 1.021a.814.814 0 00-.499-.748.812.812 0 00-1.105.586.806.806 0 00.34.833.812.812 0 001.264-.671zm10.271 1.896l1.449-1.309a.816.816 0 00.197-.265.814.814 0 00.073-.322.809.809 0 00-1.344-.587l-.152.135a.116.116 0 01-.034.024.106.106 0 01-.08 0 .112.112 0 01-.033-.024.104.104 0 01-.036-.076.11.11 0 01.036-.077l.147-.14a1.017 1.017 0 011.367 1.502l-1.244 1.127h1.473c.028 0 .055.011.075.031.019.02.03.046.03.074a.104.104 0 01-.03.077.115.115 0 01-.075.035h-1.761a.1.1 0 01-.082-.035.118.118 0 01-.024-.042.117.117 0 01-.004-.049.103.103 0 01.017-.045.103.103 0 01.035-.034zm2.67-1.362a1.975 1.975 0 01.299-1.092.874.874 0 01.775-.462.874.874 0 01.774.462c.203.328.309.706.305 1.092.006.382-.1.757-.305 1.079a.859.859 0 01-.774.476.869.869 0 01-.775-.476 1.916 1.916 0 01-.299-1.079zm.217 0c-.009.339.083.674.264.962a.744.744 0 00.587.376.758.758 0 00.587-.376 1.856 1.856 0 000-1.925.739.739 0 00-.587-.376.722.722 0 00-.587.376 1.724 1.724 0 00-.264.963zm12.149 1.362l1.449-1.309a.816.816 0 00.197-.265.814.814 0 00.073-.322.809.809 0 00-1.344-.587l-.146.135a.104.104 0 01-.035.024.099.099 0 01-.083 0 .104.104 0 01-.035-.024.104.104 0 01-.036-.076.11.11 0 01.036-.077l.147-.14c.19-.17.437-.264.692-.264a1.021 1.021 0 011.01 1.009 1.04 1.04 0 01-.335.757l-1.238 1.127h1.467a.106.106 0 01.106.105.113.113 0 01-.106.112h-1.761a.119.119 0 01-.045-.008.126.126 0 01-.037-.027.125.125 0 01-.023-.09.12.12 0 01.047-.08zm3.133-2.6l-.44.258h-.053a.108.108 0 01-.053-.014.107.107 0 01-.041-.038.117.117 0 01-.013-.04.103.103 0 01.022-.08.109.109 0 01.033-.027l.586-.364a.109.109 0 01.081-.011.108.108 0 01.066.046.128.128 0 010 .082v2.853a.102.102 0 01-.064.102.099.099 0 01-.042.009.11.11 0 01-.105-.111l.023-2.665zm10.294 2.6l1.45-1.309a.8.8 0 00.269-.587.809.809 0 00-.798-.792.799.799 0 00-.545.205l-.147.135a.104.104 0 01-.035.024.099.099 0 01-.083 0 .104.104 0 01-.035-.024.097.097 0 01-.035-.076c0-.015.003-.029.009-.042a.11.11 0 01.026-.035l.147-.14a1.04 1.04 0 01.692-.264 1.021 1.021 0 011.01 1.009 1.023 1.023 0 01-.335.757l-1.238 1.127h1.467a.106.106 0 01.106.105.109.109 0 01-.031.077.11.11 0 01-.075.035h-1.76a.112.112 0 01-.045-.008.13.13 0 01-.038-.027.118.118 0 01-.024-.042.117.117 0 01-.004-.049.103.103 0 01.017-.045.103.103 0 01.035-.034zm2.624-.001l1.449-1.308a.816.816 0 00.197-.265.814.814 0 00.073-.322.802.802 0 00-.482-.728.805.805 0 00-.862.141l-.152.135a.116.116 0 01-.034.024.106.106 0 01-.08 0 .112.112 0 01-.033-.024.104.104 0 01-.024-.035.098.098 0 010-.083.104.104 0 01.024-.035l.152-.141c.189-.169.433-.263.687-.264a.988.988 0 01.751.306.988.988 0 01.183 1.088 1.041 1.041 0 01-.247.344l-1.244 1.126h1.473a.106.106 0 01.105.106.11.11 0 01-.105.111h-1.761a.097.097 0 01-.045-.007.104.104 0 01-.037-.028.11.11 0 01-.02-.072.12.12 0 01.032-.069zm11.831.001l1.449-1.309a.806.806 0 00.192-.267.8.8 0 00.072-.32.8.8 0 00-.929-.78.806.806 0 00-.409.193l-.152.135a.104.104 0 01-.035.024.099.099 0 01-.083 0 .104.104 0 01-.035-.024.114.114 0 01-.03-.076.11.11 0 01.03-.076l.153-.141a1.024 1.024 0 011.096-.179.993.993 0 01.336.249.997.997 0 01.182 1.089c-.057.13-.142.247-.247.343l-1.244 1.127h1.473a.11.11 0 01.073.032c.02.02.031.046.033.074a.124.124 0 01-.032.075.124.124 0 01-.074.036h-1.761a.097.097 0 01-.076-.035.116.116 0 01-.025-.041.1.1 0 01-.006-.048.119.119 0 01.015-.046.114.114 0 01.034-.035zm4.507-2.723l-.804.827c.201.042.386.14.534.282a1.064 1.064 0 01.226 1.156 1.075 1.075 0 01-.977.651 1.023 1.023 0 01-.74-.311.11.11 0 01-.036-.079c0-.015.004-.03.01-.043a.114.114 0 01.102-.066c.029 0 .056.011.077.03.157.153.367.24.587.241a.861.861 0 00.586-.241.825.825 0 00.241-.587.806.806 0 00-.241-.587.832.832 0 00-.586-.246.117.117 0 01-.088-.041.114.114 0 01-.037-.083c0-.015.004-.03.01-.044a.102.102 0 01.027-.038l.774-.792h-1.174a.11.11 0 01-.078-.033.11.11 0 010-.157.11.11 0 01.078-.033h1.45a.095.095 0 01.044.007.103.103 0 01.061.061.13.13 0 01.007.043.124.124 0 010 .047.051.051 0 01-.021.027.06.06 0 01-.032.009zm9.842 2.723l1.45-1.309a.8.8 0 00.27-.587.813.813 0 00-.798-.792.801.801 0 00-.546.205l-.147.135a.104.104 0 01-.035.024.098.098 0 01-.083 0 .104.104 0 01-.035-.024.097.097 0 01-.035-.076c0-.015.003-.029.009-.042a.11.11 0 01.026-.035l.147-.14c.191-.17.437-.264.693-.264a1.02 1.02 0 011.009 1.009 1.023 1.023 0 01-.334.757l-1.239 1.127h1.467a.106.106 0 01.106.105.112.112 0 01-.03.077.115.115 0 01-.076.035h-1.76a.112.112 0 01-.045-.008.12.12 0 01-.062-.069.117.117 0 01-.004-.049.117.117 0 01.017-.045.103.103 0 01.035-.034zm4.273-.447h-1.696a.082.082 0 01-.065 0 .097.097 0 01-.035-.076.097.097 0 01.035-.076l1.796-2.236a.112.112 0 01.033-.024.092.092 0 01.04-.008.09.09 0 01.04.008.116.116 0 01.034.024c.016.015.03.033.041.053v2.159h.211a.111.111 0 01.095.022c.013.01.024.023.031.038a.113.113 0 01-.076.158.12.12 0 01-.05-.001h-.211v.529a.117.117 0 01-.021.094.105.105 0 01-.039.031.104.104 0 01-.097 0 .098.098 0 01-.039-.031.105.105 0 01-.021-.094l-.006-.57zm0-.217v-1.819l-1.467 1.819h1.467zm9.901.664l1.449-1.309a.818.818 0 00.265-.587.81.81 0 00-.481-.722.804.804 0 00-.858.135l-.152.135a.104.104 0 01-.035.024.098.098 0 01-.083 0 .104.104 0 01-.035-.024.114.114 0 01-.03-.076.11.11 0 01.03-.076l.153-.141a1.024 1.024 0 011.096-.179.993.993 0 01.336.249.992.992 0 01.182 1.089 1.01 1.01 0 01-.247.343l-1.244 1.127h1.461a.114.114 0 01.074.032c.019.02.031.046.032.074a.118.118 0 01-.032.075.118.118 0 01-.074.036h-1.76a.086.086 0 01-.042-.009.088.088 0 01-.034-.026.122.122 0 01-.024-.043.116.116 0 01.017-.095.102.102 0 01.036-.032zm2.687-.118a.112.112 0 01.127-.179.11.11 0 01.038.027.83.83 0 001.174-.005.841.841 0 00.184-.905.817.817 0 00-.766-.511.825.825 0 00-.587.241.117.117 0 01-.035.027.112.112 0 01-.087 0 .122.122 0 01-.036-.027.034.034 0 01-.004-.018c0-.006.001-.012.004-.017v-.035l.153-1.256c0-.015.004-.03.011-.043a.09.09 0 01.03-.034.105.105 0 01.07 0h1.45c.029 0 .058.012.079.033.02.021.032.049.032.079s-.012.058-.032.079a.112.112 0 01-.079.032h-1.356l-.112.922c.161-.094.343-.142.529-.141a1.056 1.056 0 01.745 1.796c-.201.196-.47.308-.751.311a1.059 1.059 0 01-.781-.376zm-88.232 11.662l1.45-1.309a.8.8 0 00-.082-1.251.802.802 0 00-.452-.14.785.785 0 00-.54.205l-.153.135a.088.088 0 01-.033.024.09.09 0 01-.04.008.092.092 0 01-.04-.008.088.088 0 01-.033-.024.085.085 0 01-.024-.035.098.098 0 010-.082.085.085 0 01.024-.035l.152-.141c.191-.166.435-.258.687-.258a1.018 1.018 0 01.928 1.423c-.058.13-.142.247-.247.343l-1.244 1.121h1.473a.115.115 0 01.075.035c.019.02.03.048.03.077a.113.113 0 01-.032.073.113.113 0 01-.073.032h-1.761a.099.099 0 01-.041.01.099.099 0 01-.041-.01.108.108 0 01-.048-.102.127.127 0 01.02-.055.113.113 0 01.045-.036zm2.964-2.242a1.27 1.27 0 011.092-.675.116.116 0 01.095.021.12.12 0 01.031.039.116.116 0 01.011.048.117.117 0 01-.011.049.13.13 0 01-.031.039.116.116 0 01-.095.021c-.19.006-.374.064-.533.168-.16.103-.288.248-.371.419-.105.193-.181.4-.223.616a1.023 1.023 0 011.725.337 1.025 1.025 0 01-.445 1.223 1.022 1.022 0 01-1.538-.85v-.199a2.609 2.609 0 01.293-1.256zm-.076 1.42a.194.194 0 000 .059.07.07 0 010 .035.815.815 0 001.401.511.82.82 0 000-1.134.816.816 0 00-1.401.511v.018zm11.485.823l1.45-1.309a.825.825 0 00.27-.587.8.8 0 00-.798-.792.801.801 0 00-.546.205l-.153.135a.1.1 0 01-.033.024.11.11 0 01-.04.008.11.11 0 01-.04-.008.1.1 0 01-.033-.024.107.107 0 01-.025-.035.115.115 0 010-.083.107.107 0 01.025-.035l.152-.14c.193-.166.438-.258.693-.259a1.01 1.01 0 01.922 1.423 1.031 1.031 0 01-.247.344l-1.245 1.121h1.473a.098.098 0 01.077.033.102.102 0 01.029.078.106.106 0 01-.106.106h-1.76a.098.098 0 01-.082 0 .113.113 0 01-.047-.045.12.12 0 01-.013-.064.11.11 0 01.077-.096zm3.058.035l1.174-2.723h-1.503a.11.11 0 01-.075-.031.11.11 0 010-.15.106.106 0 01.075-.031h1.708a.116.116 0 01.037.029.13.13 0 01.022.042.103.103 0 010 .035.099.099 0 010 .059l-1.174 2.858a.129.129 0 01-.041.046.123.123 0 01-.059.018h-.082a.12.12 0 01-.072-.059.121.121 0 01-.01-.093zm11.063-.036l1.449-1.309a.787.787 0 00.268-.554.785.785 0 00-.209-.579.812.812 0 00-1.133-.053l-.152.135a.1.1 0 01-.147 0 .095.095 0 01-.024-.035.098.098 0 010-.082.095.095 0 01.024-.035l.153-.141c.19-.166.434-.258.686-.258a1.018 1.018 0 01.928 1.423c-.058.13-.142.247-.247.343l-1.244 1.121h1.473c.014 0 .028.003.042.009a.104.104 0 01.057.06.104.104 0 01.006.043.11.11 0 01-.03.074.11.11 0 01-.075.031h-1.761a.099.099 0 01-.041.01.099.099 0 01-.041-.01.116.116 0 01-.038-.044.115.115 0 01.01-.113.116.116 0 01.046-.036zm3.633-2.917a.644.644 0 01.575.934.666.666 0 01-.194.234 1.007 1.007 0 01.256 1.713 1.01 1.01 0 11-1.025-1.713.685.685 0 01-.258-.529.65.65 0 01.189-.454.655.655 0 01.457-.185zm0 2.893a.8.8 0 00.789-.95.8.8 0 10-.789.95zm0-1.813a.444.444 0 00.434-.441.43.43 0 00-.599-.397.413.413 0 00-.233.233.42.42 0 00-.031.164.444.444 0 00.117.321c.04.043.088.077.142.1a.413.413 0 00.17.037v-.017zm10.346 1.838l1.455-1.309a.82.82 0 00.265-.587.801.801 0 00-.799-.792.799.799 0 00-.545.205l-.147.135a.121.121 0 01-.035.024.098.098 0 01-.083 0 .121.121 0 01-.035-.024.097.097 0 01-.035-.076.1.1 0 01.035-.077l.153-.14a1.04 1.04 0 01.687-.259 1.01 1.01 0 01.923 1.422 1.02 1.02 0 01-.243.345l-1.244 1.121h1.467c.015 0 .029.003.042.008a.107.107 0 01.035.025.102.102 0 01.029.078.106.106 0 01-.106.106h-1.76a.098.098 0 01-.082 0 .116.116 0 01-.036-.049.113.113 0 01-.008-.06.116.116 0 01.021-.057.123.123 0 01.046-.039zm3.703-2.918a1.02 1.02 0 011.022.904v.264c.007.431-.096.857-.3 1.238a1.274 1.274 0 01-1.085.675.097.097 0 01-.042-.004.091.091 0 01-.037-.021.092.092 0 01-.024-.034.098.098 0 01-.009-.041c0-.029.011-.057.03-.079a.118.118 0 01.076-.038 1.062 1.062 0 00.909-.587c.109-.193.183-.404.217-.622a.999.999 0 01-.768.34 1.019 1.019 0 110-2.042l.011.047zm.81 1.021a.815.815 0 00-.133-.452.818.818 0 00-.831-.349.815.815 0 00-.639.635.802.802 0 00.343.833.81.81 0 001.26-.667zm11.744-.827l-.804.827c.202.037.389.136.534.282a1.051 1.051 0 01.305.745 1.033 1.033 0 01-.311.745 1.057 1.057 0 01-1.147.232 1.006 1.006 0 01-.338-.232.093.093 0 01-.023-.035.098.098 0 010-.082.101.101 0 01.058-.058.098.098 0 01.083 0 .101.101 0 01.035.023c.157.153.367.24.586.241a.862.862 0 00.587-.241.828.828 0 00.179-.905.831.831 0 00-.766-.515.105.105 0 01-.049-.013.107.107 0 01-.039-.034.104.104 0 01-.035-.08.107.107 0 01.035-.079l.769-.798h-1.173a.104.104 0 01-.043-.006.105.105 0 01-.06-.058.099.099 0 01-.009-.042.093.093 0 01.007-.043.091.091 0 01.024-.037.091.091 0 01.037-.024.095.095 0 01.044-.007h1.449a.095.095 0 01.044.007.103.103 0 01.061.061.13.13 0 01.007.043.124.124 0 010 .047l-.047.036zm.874 1.355a1.95 1.95 0 01.3-1.086.965.965 0 01.774-.463.97.97 0 01.781.463c.201.326.305.703.299 1.086.008.383-.096.761-.299 1.086a.968.968 0 01-.781.469.946.946 0 01-.774-.469 1.922 1.922 0 01-.3-1.086zm.217 0c-.007.342.084.678.264.968a.747.747 0 00.587.37.754.754 0 00.587-.37 1.892 1.892 0 000-1.93.736.736 0 00-.587-.37.716.716 0 00-.587.37c-.179.288-.27.623-.264.962zm-58.576-24.443l-.44.258a.082.082 0 01-.053 0 .095.095 0 01-.052-.013.097.097 0 01-.036-.04.11.11 0 01-.017-.039.121.121 0 01.001-.042.109.109 0 01.019-.038.096.096 0 01.032-.028l.587-.363a.118.118 0 01.147.04.144.144 0 010 .083v2.852a.105.105 0 01-.031.075.107.107 0 01-.075.03.113.113 0 01-.077-.03.112.112 0 01-.034-.075l.029-2.67zm1.009 2.605l1.45-1.308a.817.817 0 00.27-.587.803.803 0 00-1.344-.587l-.147.135a.097.097 0 01-.076.035.1.1 0 01-.077-.036.093.093 0 01-.035-.072.093.093 0 01.035-.073l.147-.148c.193-.165.438-.257.693-.258a1.008 1.008 0 01.921 1.423c-.057.13-.141.248-.247.344l-1.238 1.12h1.467a.109.109 0 01.075.035.11.11 0 01.031.077.105.105 0 01-.031.075.107.107 0 01-.075.03h-1.76a.1.1 0 01-.082 0 .109.109 0 01-.046-.046.11.11 0 01.014-.123.112.112 0 01.055-.036zm13.194-2.605l-.441.258a.079.079 0 01-.052 0 .11.11 0 01-.108-.093.106.106 0 01.022-.08.103.103 0 01.033-.027l.587-.363a.118.118 0 01.081-.007c.027.008.05.025.065.048a.129.129 0 010 .082v2.852a.105.105 0 01-.031.075.103.103 0 01-.074.03.112.112 0 01-.112-.105l.03-2.67zm2.863-.118l-.798.828c.203.037.389.136.534.282a1.059 1.059 0 01-1.156 1.723 1.016 1.016 0 01-.34-.233.11.11 0 010-.152.112.112 0 01.035-.027.109.109 0 01.044-.009.105.105 0 01.079.036.833.833 0 001.355-.905.836.836 0 00-.45-.45.797.797 0 00-.318-.06.114.114 0 01-.053-.011.118.118 0 01-.041-.035.105.105 0 01-.026-.036.095.095 0 01-.01-.044.09.09 0 01.01-.043.105.105 0 01.026-.036l.769-.792h-1.174a.113.113 0 01-.075-.035.11.11 0 01-.031-.077c0-.014.002-.028.007-.042a.103.103 0 01.099-.07h1.456a.106.106 0 01.111.112.124.124 0 010 .047l-.053.03zm11.133.118l-.44.258a.083.083 0 01-.053 0 .095.095 0 01-.052-.013.098.098 0 01-.036-.04.092.092 0 01-.016-.038.101.101 0 010-.043.1.1 0 01.052-.065l.586-.364a.112.112 0 01.141.041.144.144 0 010 .082v2.853a.105.105 0 01-.105.105.112.112 0 01-.112-.105l.035-2.67zm2.741 2.153h-1.696a.081.081 0 01-.064 0 .103.103 0 01-.027-.034.102.102 0 010-.084.102.102 0 01.027-.034l1.795-2.236a.104.104 0 01.074-.032.1.1 0 01.073.032.3.3 0 01.041.058v2.16h.212c.028 0 .054.011.074.031a.105.105 0 010 .15.104.104 0 01-.074.03h-.212v.534a.12.12 0 01-.008.042.104.104 0 01-.025.035.106.106 0 01-.078.03.11.11 0 01-.073-.033.108.108 0 01-.033-.073l-.006-.576zm0-.21v-1.82l-1.467 1.82h1.467zm11.521-1.943l-.44.258a.082.082 0 01-.053 0 .1.1 0 01-.094-.053.112.112 0 01-.014-.04.1.1 0 01.023-.08.111.111 0 01.032-.026l.587-.364a.118.118 0 01.147.04.144.144 0 010 .083v2.852a.105.105 0 01-.031.075.107.107 0 01-.15 0 .11.11 0 01-.031-.075l.024-2.67zm1.044 2.488a.113.113 0 01.082-.189.11.11 0 01.045.01.11.11 0 01.038.027.828.828 0 00.587.234.81.81 0 00.586-.24.82.82 0 00.247-.587.853.853 0 00-.241-.587.815.815 0 00-.587-.235.81.81 0 00-.586.24.109.109 0 01-.08.036.105.105 0 01-.079-.036.043.043 0 010-.034v-.036c0-.035 0 0 0 0l.153-1.25a.112.112 0 01.034-.075.113.113 0 01.077-.03h1.45c.029 0 .058.011.079.032a.11.11 0 01.032.08.11.11 0 01-.111.11h-1.379l-.112.922c.161-.092.343-.14.528-.14a1.017 1.017 0 01.746.304 1.034 1.034 0 01.305.745c0 .28-.109.548-.305.746a1.088 1.088 0 01-.746.305 1.05 1.05 0 01-.763-.352zm13.258-2.488l-.44.258a.094.094 0 01-.053 0 .1.1 0 01-.094-.053.097.097 0 01-.016-.04.124.124 0 01.002-.043.095.095 0 01.021-.038.096.096 0 01.034-.026l.587-.363a.118.118 0 01.147.04.144.144 0 010 .083v2.852a.11.11 0 01-.031.075.107.107 0 01-.15 0 .105.105 0 01-.031-.075l.024-2.67zm1.344.364a1.274 1.274 0 011.092-.675c.028 0 .056.01.077.03.02.02.033.047.034.075a.12.12 0 01-.034.08.122.122 0 01-.077.038 1.038 1.038 0 00-.904.587 2.122 2.122 0 00-.223.622 1.01 1.01 0 01.769-.352 1.032 1.032 0 01.945.626 1.031 1.031 0 01-.208 1.115 1.023 1.023 0 01-1.574-.119 1.027 1.027 0 01-.19-.56v-.206a2.61 2.61 0 01.293-1.261zm-.076 1.426a.156.156 0 000 .053.07.07 0 010 .035.816.816 0 100-.106v.018zm13.333-1.79l-.44.258a.082.082 0 01-.053 0 .095.095 0 01-.054-.013.1.1 0 01-.04-.04.094.094 0 01-.013-.04.1.1 0 01.003-.042.092.092 0 01.019-.038.111.111 0 01.032-.026l.587-.364a.118.118 0 01.147.04.129.129 0 010 .083v2.852a.098.098 0 01-.064.1.103.103 0 01-.042.006.104.104 0 01-.074-.031.105.105 0 01-.031-.075l.023-2.67zm1.48 2.647l1.174-2.73h-1.526a.105.105 0 01-.075-.18c.02-.02.047-.03.075-.03h1.708a.108.108 0 01.058.07.07.07 0 010 .035.099.099 0 010 .059l-1.203 2.858a.103.103 0 01-.04.047.103.103 0 01-.059.017h-.047a.117.117 0 01-.065-.146zm12.482-2.647l-.44.258a.082.082 0 01-.053 0 .1.1 0 01-.094-.053.094.094 0 01-.013-.04.1.1 0 01.003-.042.092.092 0 01.019-.038.111.111 0 01.032-.026l.587-.364a.118.118 0 01.147.04.144.144 0 010 .083v2.852a.098.098 0 01-.064.1.103.103 0 01-.042.006.103.103 0 01-.074-.031.105.105 0 01-.031-.075l.023-2.67zm1.99-.311a.647.647 0 01.652.64.662.662 0 01-.27.528 1.012 1.012 0 01.605 1.129 1.005 1.005 0 01-.99.813 1.01 1.01 0 01-.384-1.942.681.681 0 01-.253-.528.64.64 0 01.64-.64zm0 2.893a.8.8 0 10.012-1.598.8.8 0 00-.012 1.598zm0-1.813a.442.442 0 00.434-.44.433.433 0 00-.83-.164.438.438 0 00-.001.33.429.429 0 00.397.274z" fill="#777575"/><path d="M432.111 38.757V35.74l-1.813 1.508 1.813 1.509zm92.727-3.017v3.017l1.814-1.508-1.814-1.509zm-52.162 1.885a.949.949 0 001.038.622.946.946 0 00.799-.91V34.62a.38.38 0 01.381-.382.38.38 0 01.382.382v2.717a1.705 1.705 0 01-1.441 1.676 1.701 1.701 0 01-1.881-1.16.367.367 0 01.241-.47.372.372 0 01.408.112.367.367 0 01.073.13zm4.983 1.409a1.437 1.437 0 01-1.427-1.426v-1.632a.372.372 0 01.364-.364.366.366 0 01.364.364v1.632a.696.696 0 00.429.648.69.69 0 00.27.05.709.709 0 00.716-.698v-1.632a.347.347 0 01.102-.257.366.366 0 01.256-.107.377.377 0 01.363.364v1.632a1.441 1.441 0 01-1.437 1.426zm3.052-4.79a.38.38 0 01.381.376v4.061a.378.378 0 01-.378.334.384.384 0 01-.379-.334V34.62a.378.378 0 01.376-.376zm4.301 1.731v2.583a1.609 1.609 0 01-.472 1.16 1.611 1.611 0 01-1.159.477 1.683 1.683 0 01-.71-.17.368.368 0 01-.19-.207.359.359 0 01.014-.28.38.38 0 01.487-.153c.123.065.26.099.399.1a.9.9 0 00.851-.622 1.36 1.36 0 01-.652.164 1.438 1.438 0 01-1.426-1.438v-1.614a.363.363 0 01.494-.34.355.355 0 01.222.34v1.614a.711.711 0 001.421 0v-1.614a.33.33 0 01.097-.258.342.342 0 01.255-.105.369.369 0 01.369.363z" fill="#fff"/></g><g filter="url(#filter2_b_1_1859)"><path d="M16.451 102.857H141.24V262.73H16.451V102.857z" fill="#fff" stroke="#D2D2D2" stroke-width=".5"/><path d="M141.49 111.587H16.201v9.354H141.49v-9.354zm-125.289 9.354h68.385l-5.74 10.055H16.2v-10.055z" fill="#263238"/><path d="M16.201 109.732h68.385l-2.819 3.702H16.201v-3.702zm0 5.469h36.54l-2.817 3.71H16.2v-3.71z" fill="#5DBD6D"/><path d="M130.027 168.126H27.665v7.873h102.362v-7.873z" fill="#fff"/><path d="M130.027 160.252H27.665v7.873h102.362v-7.873z" fill="#5DBD6D"/><path d="M130.027 175.991H27.665v7.874h102.362v-7.874z" fill="#DBDBDB"/><path d="M130.027 183.864H27.665v7.874h102.362v-7.874z" fill="#fff"/><path d="M130.027 191.738H27.665v7.874h102.362v-7.874z" fill="#DBDBDB"/><path d="M130.027 199.603H27.665v7.873h102.362v-7.873z" fill="#fff"/><path d="M130.027 207.477H27.665v7.873h102.362v-7.873z" fill="#DBDBDB"/><path d="M130.027 215.35H58.355v7.873h71.672v-7.873z" fill="#5DBD6D"/><path d="M58.354 160.252H27.665v55.098h30.69v-55.098z" fill="#C7C7C7"/><path d="M27.665 175.991l51.18-.095 51.182.095-51.181.104-51.181-.104zm0 7.874l51.18-.095 51.182.095-51.181.104-51.181-.104zm0 7.873l51.18-.103 51.182.103-51.181.096-51.181-.096zm0 7.865l51.18-.095 51.182.095-51.181.104-51.181-.104zm0 7.873l51.18-.095 51.182.095-51.181.104-51.181-.104zm0 7.875l51.18-.104 51.182.104-51.181.095-51.181-.095zm5.485-51.182c3.264-.159 6.536-.175 9.8-.199 3.264-.023 6.536 0 9.808.199-3.272.168-6.536.176-9.808.2-3.272.023-6.536-.016-9.8-.2zm0 7.89c2.468-.167 4.944-.175 7.412-.199 2.468-.024 4.944 0 7.42.199-2.476.167-4.944.175-7.42.199a95.9 95.9 0 01-7.412-.199zm0 7.873c3.264-.167 6.536-.175 9.8-.199 3.264-.024 6.536 0 9.808.199-3.272.167-6.536.175-9.808.199a174.92 174.92 0 01-9.8-.199zm0 7.865c2.683-.159 5.374-.175 8.065-.199 2.69-.023 5.381 0 8.072.199-2.69.168-5.381.176-8.072.199a112.93 112.93 0 01-8.065-.199zm0 7.873c3.264-.167 6.536-.175 9.8-.199 3.264-.023 6.536 0 9.808.199-3.272.168-6.536.176-9.808.199a166.73 166.73 0 01-9.8-.199zm0 7.874c3.264-.168 6.536-.176 9.8-.2 3.264-.023 6.536 0 9.808.2-3.272.167-6.536.175-9.808.199a175.88 175.88 0 01-9.8-.199zm0 7.866c1.983-.152 3.98-.191 5.947-.199a74.15 74.15 0 015.955.199c-1.982.159-3.98.191-5.955.199-1.974.008-3.964-.04-5.947-.199zm32.377-47.241c2.452-.159 4.912-.175 7.364-.199 2.452-.023 4.92 0 7.372.199-2.452.168-4.912.176-7.372.2-2.46.023-4.896-.016-7.364-.2zm0 7.89c2.452-.167 4.912-.175 7.364-.199 2.452-.024 4.92 0 7.372.199-2.452.167-4.912.175-7.372.199a94.884 94.884 0 01-7.364-.199zm0 7.873c2.452-.167 4.912-.175 7.364-.199 2.452-.024 4.92 0 7.372.199-2.452.167-4.912.175-7.372.199-2.46.024-4.896-.04-7.364-.199zm0 7.865c2.452-.159 4.912-.175 7.364-.199 2.452-.023 4.92 0 7.372.199-2.452.168-4.912.176-7.372.199a94.39 94.39 0 01-7.364-.199zm0 7.873c2.452-.167 4.912-.175 7.364-.199 2.452-.023 4.92 0 7.372.199-2.452.168-4.912.176-7.372.199a94.39 94.39 0 01-7.364-.199zm0 7.874c2.452-.168 4.912-.176 7.364-.2 2.452-.023 4.92 0 7.372.2-2.452.167-4.912.175-7.372.199a99.58 99.58 0 01-7.364-.199zm0 7.866c2.452-.159 4.912-.175 7.364-.199 2.452-.024 4.92 0 7.372.199-2.452.167-4.912.175-7.372.199a94.884 94.884 0 01-7.364-.199zm21.295-47.241c2.46-.159 4.912-.175 7.372-.199 2.46-.023 4.912 0 7.364.199-2.452.168-4.912.176-7.364.2-2.452.023-4.912-.016-7.372-.2zm5.056 47.24a14.021 14.021 0 014.705 0 14.021 14.021 0 01-4.705 0zm0-7.864a13.97 13.97 0 014.705 0 14.021 14.021 0 01-4.705 0zm0-7.874c.788-.14 1.588-.206 2.388-.2a12.33 12.33 0 012.349.2 14.021 14.021 0 01-4.705 0h-.032zm0-7.874a13.97 13.97 0 014.705 0 14.021 14.021 0 01-4.705 0zm0-7.866a14.021 14.021 0 014.705 0 13.97 13.97 0 01-4.705 0zm0-7.872a13.096 13.096 0 012.388-.199c.788-.009 1.574.058 2.349.199-.775.141-1.561.208-2.349.199-.8.007-1.6-.06-2.388-.199zm1.362 47.224a40.326 40.326 0 014.155-.199c1.39-.009 2.78.057 4.163.199a43.622 43.622 0 01-8.319 0zm14.878-55.114c2.46-.159 4.912-.175 7.372-.199 2.46-.023 4.912 0 7.364.199-2.452.168-4.912.176-7.364.2-2.452.023-4.912-.016-7.372-.2zm0 7.89c2.46-.167 4.912-.175 7.372-.199 2.46-.024 4.912 0 7.364.199-2.452.167-4.912.175-7.364.199a95.092 95.092 0 01-7.372-.199zm0 7.873c2.46-.167 4.912-.175 7.372-.199 2.46-.024 4.912 0 7.364.199-2.452.167-4.912.175-7.364.199a99.251 99.251 0 01-7.372-.199zm0 7.865c2.46-.159 4.912-.175 7.372-.199 2.46-.023 4.912 0 7.364.199-2.452.168-4.912.176-7.364.199a94.597 94.597 0 01-7.372-.199zm0 7.873c2.46-.167 4.912-.175 7.372-.199 2.46-.023 4.912 0 7.364.199-2.452.168-4.912.176-7.364.199a94.597 94.597 0 01-7.372-.199zm0 7.874c2.46-.168 4.912-.176 7.372-.2 2.46-.023 4.912 0 7.364.2-2.452.167-4.912.175-7.364.199a99.797 99.797 0 01-7.372-.199zm0 7.866c2.46-.159 4.912-.175 7.372-.199 2.46-.024 4.912 0 7.364.199-2.452.167-4.912.175-7.364.199a95.092 95.092 0 01-7.372-.199zm0 7.873c2.46-.167 4.912-.175 7.372-.199 2.46-.024 4.912 0 7.364.199-2.452.167-4.912.175-7.364.199a95.092 95.092 0 01-7.372-.199z" fill="#263238"/><path d="M27.665 126.753c3.033-.159 6.074-.239 9.115-.303 3.041-.063 6.075-.063 9.108-.095 3.033-.032 6.074 0 9.115.095l4.553.112c1.521.063 3.042.103 4.562.191-1.52.095-3.041.127-4.561.199l-4.554.111c-3.041.064-6.074.056-9.115.088-3.041.032-6.075 0-9.108-.088-3.033-.087-6.082-.135-9.115-.31zm0-3.869c3.447-.167 6.894-.247 10.35-.311 3.454-.063 6.893-.055 10.348-.087 3.456-.032 6.895 0 10.35.087l5.174.112c1.728.063 3.455.103 5.175.199-1.72.087-3.447.127-5.175.191l-5.174.111c-3.447.064-6.895.064-10.35.088-3.455.024-6.902 0-10.349-.088-3.447-.087-6.902-.143-10.349-.302z" fill="#fff"/><path d="M27.665 146.369c2.826-.128 5.644-.183 8.47-.231 2.827-.048 5.653 0 8.479-.064 2.826-.063 5.644 0 8.47.064 2.826.064 5.645.103 8.47.231-2.825.127-5.644.183-8.47.231-2.826.047-5.652 0-8.47.063-2.818.064-5.652 0-8.478-.063-2.827-.064-5.645-.112-8.471-.231zm0 3.351c1.767-.119 3.543-.183 5.31-.231 1.767-.047 3.543 0 5.318-.063 1.775-.064 3.543 0 5.31.063 1.767.064 3.542.112 5.318.231-1.776.128-3.543.183-5.318.231-1.776.048-3.543.048-5.31.072a98.35 98.35 0 01-5.318-.072c-1.775-.071-3.543-.111-5.31-.231zm0 3.352c2.468-.119 4.928-.175 7.396-.223 2.468-.048 4.928-.048 7.395-.071 2.468-.024 4.936 0 7.396.071 2.46.072 4.936.104 7.396.223-2.46.127-4.928.183-7.396.231-2.468.048-4.928.048-7.395.072-2.468.023-4.928 0-7.396-.072s-4.928-.104-7.396-.231zm0 76.226c1.815-.128 3.622-.183 5.437-.231 1.816-.048 3.63-.048 5.438-.072 1.807-.024 3.63 0 5.445.072 1.815.072 3.622.103 5.437.231-1.815.119-3.63.183-5.437.231-1.807.047-3.63.039-5.445.063-1.815.024-3.623 0-5.438-.071-1.815-.072-3.622-.072-5.437-.223zm0 3.335c2.094-.127 4.195-.183 6.29-.231 2.093-.048 4.187 0 6.288-.072 2.102-.071 4.188 0 6.29.072 2.101.072 4.187.104 6.289.231-2.102.127-4.196.183-6.29.231-2.093.048-4.195.04-6.289.064-2.093.023-4.195 0-6.289-.064-2.094-.064-4.171-.096-6.289-.231zm0 13.382c3.296-.119 6.592-.175 9.888-.223l9.879-.071 9.887.063c3.296.048 6.592.112 9.888.231-3.296.128-6.592.183-9.887.231l-9.888.072-9.88-.072c-3.295-.079-6.591-.079-9.887-.231zm0-10.014a69.517 69.517 0 013.837-.231c1.282-.047 2.556-.055 3.837-.063 1.282-.008 2.556 0 3.837.063 1.282.064 2.556.112 3.838.231-1.282.128-2.564.183-3.838.231-1.273.048-2.563.064-3.837.072-1.273.008-2.563 0-3.837-.072-1.273-.072-2.515-.103-3.837-.231zm64.213 3.311c3.184-.127 6.369-.183 9.553-.231l9.553-.071 9.553.071c3.185.048 6.369.104 9.553.231-3.184.12-6.368.183-9.553.231l-9.553.064-9.553-.064a422.906 422.906 0 01-9.553-.231zm0-3.311c2.587-.12 5.167-.183 7.754-.231 2.587-.048 5.167-.04 7.754-.064 2.587-.024 5.174 0 7.754.064 2.579.064 5.174.111 7.754.231-2.58.127-5.167.183-7.754.231-2.588.048-5.167.048-7.754.071-2.587.024-5.167 0-7.754-.071-2.587-.072-5.207-.104-7.754-.231zm0 6.663a249.14 249.14 0 017.292-.231c2.436-.048 4.856-.04 7.284-.064 2.428-.023 4.865 0 7.293.064s4.856.104 7.284.231c-2.428.127-4.856.183-7.284.231-2.428.048-4.865.048-7.293.072-2.428.023-4.856 0-7.284-.072s-4.904-.104-7.292-.231zm0 3.352c1.743-.12 3.487-.176 5.222-.223 1.736-.048 3.487-.048 5.231-.072 1.743-.024 3.479 0 5.222.064 1.743.063 3.479.111 5.222.231-1.743.127-3.479.183-5.222.23-1.743.048-3.487.048-5.222.072-1.736.024-3.487 0-5.23-.072-1.744-.071-3.52-.079-5.223-.23z" fill="#263238"/><path d="M28.708 243.269a41.076 41.076 0 012.93-1.847 13.974 13.974 0 013.184-1.425 2.83 2.83 0 01.438-.08.466.466 0 01.486.159c.147.273.216.582.199.892a10.518 10.518 0 01-.184 1.743c-.199 1.139-.485 2.261-.796 3.376a51.761 51.761 0 01-2.292 6.536 11.23 11.23 0 01-.796 1.592 3.084 3.084 0 01-.31.358.468.468 0 01-.303.136.302.302 0 01-.112-.019.3.3 0 01-.095-.061l-.104-.104a1.693 1.693 0 01-.247-.923c.027-1.173.231-2.335.605-3.447.34-1.111.777-2.19 1.306-3.224a9.533 9.533 0 012.03-2.826 3.183 3.183 0 011.592-.797c.302-.049.611-.021.9.08.278.138.503.365.637.645.133.248.293.48.477.693a.724.724 0 00.7.238 4.57 4.57 0 001.45-.851c.23-.176.462-.351.7-.518.117-.089.242-.166.374-.231.128-.056.311-.159.478 0 .231.279.167.581.287.836a.51.51 0 00.589.382c.48-.297.907-.671 1.266-1.106.39-.422.796-.86 1.146-1.29.756-.876 1.497-1.759 2.269-2.619.382-.43.796-.852 1.194-1.258.215-.199.43-.39.669-.573.12-.093.25-.17.39-.231a.606.606 0 01.255-.056.354.354 0 01.263.144c.129.286.17.605.119.915a7.877 7.877 0 01-.136.868c-.127.573-.286 1.13-.461 1.68a17.214 17.214 0 01-1.386 3.184 3.293 3.293 0 01-.54.724.617.617 0 01-.51.199 1.544 1.544 0 01-.462-.127 2.162 2.162 0 01-1.202-1.417.795.795 0 01.063-.541.566.566 0 01.526-.279c.305.028.605.097.891.207.558.199 1.083.43 1.593.661.51.231 1.05.469 1.592.676.259.112.525.208.796.287.128.039.258.068.39.088a.57.57 0 00.31-.072c.438-.215.725-.748 1.163-1.178a1.38 1.38 0 01.875-.454.461.461 0 01.359.119.465.465 0 01.12.351 2.38 2.38 0 01-.088.469c-.08.263-.112.589-.04.597.071.008.422 0 .66 0a4.42 4.42 0 001.457-.796 8.31 8.31 0 01.733-.493c.284-.187.625-.268.963-.231a3.603 3.603 0 011.48 1.075c.185.199.39.378.614.533.103.064.199.088.223.064a2.92 2.92 0 00.326-.207c.455-.339.891-.703 1.306-1.091a15.534 15.534 0 002.229-2.571c.321-.435.514-.951.557-1.489 0-.518-.533-.796-1.083-.844a9.476 9.476 0 00-3.383.048c-.559.1-1.106.258-1.632.47-.257.099-.5.23-.724.39-.215.159-.407.382-.343.589.064.207.31.374.55.501.238.128.517.207.795.319.541.188 1.091.347 1.649.477 2.26.429 4.554.65 6.854.661a36.519 36.519 0 01-6.902-.509 15.578 15.578 0 01-1.672-.462c-.279-.104-.55-.191-.796-.319a1.249 1.249 0 01-.685-.644.855.855 0 01.422-.852c.246-.179.514-.326.796-.438a8.34 8.34 0 011.68-.502 9.73 9.73 0 013.495-.095c.31.043.61.143.883.294a1.085 1.085 0 01.502.852 3.266 3.266 0 01-.597 1.72 13.982 13.982 0 01-2.277 2.651c-.422.406-.868.787-1.337 1.138a2.705 2.705 0 01-.406.247.672.672 0 01-.597-.088 4.6 4.6 0 01-.693-.589 3.411 3.411 0 00-1.266-.963c-.422-.064-.915.334-1.37.661a4.767 4.767 0 01-1.591.796 1.289 1.289 0 01-1.027-.04.65.65 0 01-.2-.581 2.6 2.6 0 01.096-.454c.036-.122.06-.247.072-.374v-.056c0 .016 0 0-.056 0a1.018 1.018 0 00-.613.327c-.39.366-.66.923-1.266 1.25a.985.985 0 01-.525.103 2.52 2.52 0 01-.454-.103 8.838 8.838 0 01-.836-.303c-.533-.223-1.058-.462-1.592-.693-.533-.23-1.05-.461-1.592-.66a2.991 2.991 0 00-.796-.191c-.183 0-.287.151-.239.398a1.828 1.828 0 00.955 1.178c.116.054.24.089.367.103.071 0 .159 0 .254-.119a3.19 3.19 0 00.502-.645 16.855 16.855 0 001.385-3.121c.19-.539.35-1.09.478-1.647.065-.262.113-.528.143-.797.06-.265.037-.543-.064-.796-.08-.151-.406 0-.613.191a5.897 5.897 0 00-.645.55c-.413.39-.796.796-1.202 1.234-.796.851-1.52 1.727-2.284 2.595-.383.43-.797.86-1.163 1.282-.38.448-.831.83-1.337 1.13a.653.653 0 01-.74-.454c-.112-.27-.104-.613-.255-.796-.152-.183-.207 0-.327.048a3.357 3.357 0 00-.358.223c-.23.167-.454.35-.684.525a4.707 4.707 0 01-1.505.9.89.89 0 01-.868-.279 4.375 4.375 0 01-.51-.716c-.159-.231-.31-.486-.54-.565a1.692 1.692 0 00-.797-.056 3.06 3.06 0 00-1.473.724 9.61 9.61 0 00-1.95 2.779 20.23 20.23 0 00-1.25 3.184 11.581 11.581 0 00-.557 3.344 1.5 1.5 0 00.183.724l.048.048a.201.201 0 00.08-.056 1.62 1.62 0 00.246-.295c.302-.478.568-.979.796-1.496a49.82 49.82 0 002.349-6.472c.325-1.1.59-2.216.796-3.344a9.378 9.378 0 00.19-1.688 1.402 1.402 0 00-.15-.796c-.072-.087-.136-.111-.287-.079-.14.012-.278.036-.414.071a14.77 14.77 0 00-3.184 1.346 39.558 39.558 0 00-2.962 1.759l.008.072z" fill="#263238"/><path d="M80.724 128.519H79.44v-3.623h1.295c.364 0 .678.073.94.218.264.143.466.35.607.62.143.27.214.594.214.97 0 .377-.071.701-.214.973a1.47 1.47 0 01-.61.624c-.264.145-.58.218-.948.218zm-.518-.657h.486c.227 0 .417-.04.572-.12a.772.772 0 00.35-.377c.079-.171.118-.391.118-.661 0-.268-.04-.487-.118-.656a.766.766 0 00-.349-.375 1.22 1.22 0 00-.571-.121h-.488v2.31zm3.848-2.966v3.623h-.766v-3.623h.766zm.854 3.623v-3.623h2.44v.632h-1.674v.863h1.55v.631h-1.55v.865h1.682v.632h-2.448zm3.136-2.991v-.632h2.975v.632H89.91v2.991h-.757v-2.991h-1.109zm6.853 1.179c0 .395-.075.731-.225 1.009a1.563 1.563 0 01-.608.635 1.72 1.72 0 01-.863.217c-.322 0-.611-.073-.867-.219a1.561 1.561 0 01-.607-.635c-.148-.277-.223-.613-.223-1.007 0-.395.075-.731.223-1.008a1.55 1.55 0 01.607-.633c.256-.146.544-.219.867-.219.319 0 .607.073.863.219.257.145.46.356.608.633.15.277.225.613.225 1.008zm-.777 0a1.61 1.61 0 00-.115-.647.876.876 0 00-.32-.4.86.86 0 00-.484-.136.86.86 0 00-.485.136.887.887 0 00-.322.4 1.639 1.639 0 00-.113.647c0 .256.037.472.113.648a.884.884 0 00.322.399.86.86 0 00.485.137.86.86 0 00.484-.137.874.874 0 00.32-.399c.077-.176.115-.392.115-.648zm1.568 1.812v-3.623h.766v2.991h1.553v.632h-2.319zm6.238-1.812c0 .395-.075.731-.224 1.009a1.568 1.568 0 01-.609.635 1.718 1.718 0 01-.863.217c-.322 0-.61-.073-.867-.219a1.56 1.56 0 01-.606-.635c-.149-.277-.223-.613-.223-1.007 0-.395.074-.731.223-1.008a1.55 1.55 0 01.606-.633c.256-.146.545-.219.867-.219.32 0 .607.073.863.219.257.145.46.356.609.633.149.277.224.613.224 1.008zm-.776 0c0-.256-.039-.471-.115-.647a.88.88 0 00-.32-.4.861.861 0 00-.485-.136.86.86 0 00-.485.136.887.887 0 00-.322.4 1.64 1.64 0 00-.113.647c0 .256.038.472.113.648a.884.884 0 00.322.399.86.86 0 00.485.137.862.862 0 00.485-.137.876.876 0 00.32-.399c.076-.176.115-.392.115-.648zm3.97-.64a.796.796 0 00-.105-.228.632.632 0 00-.164-.17.723.723 0 00-.219-.108.925.925 0 00-.271-.037.869.869 0 00-.488.138.91.91 0 00-.326.401 1.586 1.586 0 00-.116.641c0 .252.038.467.115.644a.9.9 0 00.325.405c.14.092.306.138.497.138a.99.99 0 00.444-.092.664.664 0 00.283-.264.782.782 0 00.099-.401l.156.023h-.934v-.577h1.516v.456c0 .319-.068.592-.202.821-.134.228-.32.403-.555.527a1.727 1.727 0 01-.81.184c-.34 0-.638-.075-.895-.225a1.55 1.55 0 01-.602-.642c-.143-.278-.214-.608-.214-.99 0-.294.043-.556.127-.786.087-.231.207-.426.361-.587.155-.16.335-.282.54-.366a1.74 1.74 0 01.667-.125c.205 0 .396.03.573.09.177.059.333.142.47.251a1.33 1.33 0 01.506.879h-.778zm4.94.64c0 .395-.075.731-.225 1.009a1.559 1.559 0 01-.608.635 1.72 1.72 0 01-.863.217c-.322 0-.611-.073-.867-.219a1.563 1.563 0 01-.607-.635c-.148-.277-.223-.613-.223-1.007 0-.395.075-.731.223-1.008.149-.277.351-.488.607-.633.256-.146.545-.219.867-.219.319 0 .607.073.863.219.257.145.46.356.608.633.15.277.225.613.225 1.008zm-.776 0c0-.256-.039-.471-.115-.647a.881.881 0 00-.321-.4.858.858 0 00-.484-.136.861.861 0 00-.485.136.89.89 0 00-.322.4 1.648 1.648 0 00-.113.647c0 .256.038.472.113.648a.886.886 0 00.322.399c.138.091.3.137.485.137a.858.858 0 00.484-.137.878.878 0 00.321-.399c.076-.176.115-.392.115-.648zm4.597-1.811v3.623h-.661l-1.576-2.28h-.027v2.28h-.766v-3.623h.673l1.563 2.278h.032v-2.278h.762zm.857 3.623v-3.623h.766v2.991h1.553v.632h-2.319zm3.817-3.623v3.623h-.766v-3.623h.766zm3.884 0v3.623h-.662l-1.576-2.28h-.026v2.28h-.766v-3.623h.672l1.564 2.278h.031v-2.278h.763zm.857 3.623v-3.623h2.441v.632h-1.675v.863h1.549v.631h-1.549v.865h1.682v.632h-2.448z" fill="#5DBD6D"/></g><g filter="url(#filter3_b_1_1859)"><path d="M192.126 4.431c7.976-6.755 19.839-5.54 27.16 1.967a4.008 4.008 0 005.735 0c7.307-7.507 19.184-8.722 27.161-1.967 9.14 7.753 9.621 21.669 1.441 30.073l-28.165 28.901a4.583 4.583 0 01-6.594 0l-28.165-28.901c-8.194-8.404-7.714-22.32 1.427-30.073z" fill="#fff"/><path d="M190.878 34.33h0c-8.095-8.302-7.619-22.05 1.41-29.708 7.864-6.66 19.579-5.474 26.819 1.95l.179-.174-.179.175a4.258 4.258 0 006.093 0l-.179-.175.179.175c7.226-7.425 18.955-8.612 26.82-1.951 9.029 7.658 9.504 21.406 1.424 29.708h-62.566zm0 0l28.165 28.9a4.333 4.333 0 006.236 0l28.164-28.9h-62.565z" stroke="#C7C7C7" stroke-width=".5"/></g><path d="M231.412 52.924l5.882-19.765 3.823 6.967h23.701v-2.234h-21.907l-6.413-11.65-4.571 15.41-6.46-31.931-5.711 25.268-4.525-10.552-7.115 17.266-1.576-3.811h-30.289v2.221h28.308l3.557 8.633 7.162-17.38 5.29 12.37 4.743-20.952 6.101 30.14z" fill="#5DBD6D"/><defs><filter id="filter0_bii_1_1859" x="17.338" y="446.538" width="166.045" height="89.014" filterUnits="userSpaceOnUse" color-interpolation-filters="sRGB"><feFlood flood-opacity="0" result="BackgroundImageFix"/><feGaussianBlur in="BackgroundImage" stdDeviation="13"/><feComposite in2="SourceAlpha" operator="in" result="effect1_backgroundBlur_1_1859"/><feBlend in="SourceGraphic" in2="effect1_backgroundBlur_1_1859" result="shape"/><feColorMatrix in="SourceAlpha" values="0 0 0 0 0 0 0 0 0 0 0 0 0 0 0 0 0 0 127 0" result="hardAlpha"/><feOffset dx="3" dy="-2"/><feGaussianBlur stdDeviation="4"/><feComposite in2="hardAlpha" operator="arithmetic" k2="-1" k3="1"/><feColorMatrix values="0 0 0 0 0.289159 0 0 0 0 0.527306 0 0 0 0 0.327262 0 0 0 0.13 0"/><feBlend in2="shape" result="effect2_innerShadow_1_1859"/><feColorMatrix in="SourceAlpha" values="0 0 0 0 0 0 0 0 0 0 0 0 0 0 0 0 0 0 127 0" result="hardAlpha"/><feOffset dx="-3" dy="2"/><feGaussianBlur stdDeviation="4"/><feComposite in2="hardAlpha" operator="arithmetic" k2="-1" k3="1"/><feColorMatrix values="0 0 0 0 0.192654 0 0 0 0 0.423868 0 0 0 0 0.229648 0 0 0 0.12 0"/><feBlend in2="effect2_innerShadow_1_1859" result="effect3_innerShadow_1_1859"/></filter><filter id="filter1_b_1_1859" x="303.949" y="-88.119" width="349.051" height="333.93" filterUnits="userSpaceOnUse" color-interpolation-filters="sRGB"><feFlood flood-opacity="0" result="BackgroundImageFix"/><feGaussianBlur in="BackgroundImage" stdDeviation="50"/><feComposite in2="SourceAlpha" operator="in" result="effect1_backgroundBlur_1_1859"/><feBlend in="SourceGraphic" in2="effect1_backgroundBlur_1_1859" result="shape"/></filter><filter id="filter2_b_1_1859" x="-100" y="-13.594" width="357.691" height="393.334" filterUnits="userSpaceOnUse" color-interpolation-filters="sRGB"><feFlood flood-opacity="0" result="BackgroundImageFix"/><feGaussianBlur in="BackgroundImage" stdDeviation="50"/><feComposite in2="SourceAlpha" operator="in" result="effect1_backgroundBlur_1_1859"/><feBlend in="SourceGraphic" in2="effect1_backgroundBlur_1_1859" result="shape"/></filter><filter id="filter3_b_1_1859" x="87.892" y="-97" width="268.525" height="258.805" filterUnits="userSpaceOnUse" color-interpolation-filters="sRGB"><feFlood flood-opacity="0" result="BackgroundImageFix"/><feGaussianBlur in="BackgroundImage" stdDeviation="48.5"/><feComposite in2="SourceAlpha" operator="in" result="effect1_backgroundBlur_1_1859"/><feBlend in="SourceGraphic" in2="effect1_backgroundBlur_1_1859" result="shape"/></filter><clipPath id="clip0_1_1859"><path fill="#fff" transform="translate(9.92 43.203)" d="M0 0h540.039v467.674H0z"/></clipPath></defs></svg>