<svg width="67" height="67" viewBox="0 0 67 67" fill="none" xmlns="http://www.w3.org/2000/svg">
<path d="M33.5 0C14.9912 0 0 15.3806 0 34.3501C0 49.5297 9.59775 62.4023 22.9056 66.9407C24.5806 67.2641 25.1948 66.2008 25.1948 65.2891C25.1948 64.4734 25.1669 62.312 25.1529 59.4485C15.8343 61.5196 13.869 54.8401 13.869 54.8401C12.3447 50.8755 10.1421 49.8152 10.1421 49.8152C7.10758 47.6858 10.3766 47.7295 10.3766 47.7295C13.7406 47.9684 15.5077 51.2688 15.5077 51.2688C18.4948 56.5209 23.3495 55.0033 25.2646 54.1264C25.5661 51.9038 26.4287 50.392 27.3862 49.5326C19.9465 48.6733 12.127 45.7195 12.127 32.5586C12.127 28.8096 13.4251 25.7451 15.5747 23.3419C15.1978 22.4738 14.0672 18.9811 15.8678 14.2504C15.8678 14.2504 18.6735 13.3299 25.0803 17.7722C27.7603 17.009 30.6078 16.6303 33.4553 16.6128C36.3028 16.6303 39.1503 17.009 41.8303 17.7722C48.1953 13.3299 51.001 14.2504 51.001 14.2504C52.8016 18.9811 51.671 22.4738 51.336 23.3419C53.4716 25.7451 54.7697 28.8096 54.7697 32.5586C54.7697 45.7545 46.9391 48.6587 39.4853 49.5035C40.6578 50.5347 41.7466 52.6408 41.7466 55.8597C41.7466 60.4564 41.7047 64.1501 41.7047 65.2658C41.7047 66.1659 42.291 67.2408 44.0078 66.897C57.4106 62.3877 67 49.5064 67 34.3501C67 15.3806 52.0004 0 33.5 0Z" fill="black"/>
</svg>
