<svg width="29" height="65" viewBox="0 0 29 65" fill="none" xmlns="http://www.w3.org/2000/svg">
<g clip-path="url(#clip0_62892_6)">
<path d="M22.4562 63.0188L23.0794 52.6338L24.8003 49.6962C24.8003 49.6962 20.8836 51.2984 14.3263 51.2984C7.76883 51.2984 3.91144 49.7258 3.91144 49.7258L5.84008 52.9303L6.52235 63.0188C6.52235 64.1004 10.0892 64.9771 14.4893 64.9771C18.8892 64.9771 22.4562 64.1004 22.4562 63.0188V63.0188ZM20.4902 14.5221L21.7984 9.35137L29.0427 1.72868L27.1333 0.102417L19.4638 8.22248L17.9449 14.4001C16.8017 14.3618 15.658 14.3428 14.5142 14.343C6.43679 14.343 -0.111328 15.2636 -0.111328 16.3989C-0.111328 17.5344 6.43679 18.4548 14.5142 18.4548C22.5916 18.4548 29.1396 17.5344 29.1396 16.3989C29.1396 15.5629 25.5883 14.8433 20.4902 14.5221" fill="#D34A47"/>
<path d="M19.7293 17.4178C19.7293 17.4178 19.446 17.4813 18.6126 17.4849C17.7789 17.4883 17.187 17.4795 16.9513 17.2647C16.8879 17.2071 16.8532 17.0926 16.8535 17.0151C16.8542 16.8675 16.959 16.7806 17.0924 16.7261L17.2186 16.9241C17.1637 16.9431 17.1324 16.9654 17.1323 16.9893C17.1318 17.1014 17.9846 17.1781 18.6369 17.1699C19.2893 17.1618 20.0776 17.1081 20.0783 16.9976C20.0783 16.9642 20.0187 16.9327 19.915 16.9079L20.0406 16.7113C20.2097 16.7638 20.3572 16.8652 20.3569 17.0407C20.3553 17.339 19.9756 17.3844 19.7293 17.4178" fill="white"/>
<path d="M29.0284 1.74371C29.2106 1.53332 28.9341 0.995172 28.411 0.541894C27.8877 0.0888467 27.3158 -0.107991 27.1333 0.102398C26.9511 0.312787 27.2276 0.850932 27.7509 1.30398C28.274 1.75714 28.8462 1.95421 29.0284 1.74371ZM22.1078 37.6523C21.9361 36.0004 25.7209 33.6081 24.7496 33.5315C22.6585 33.651 21.6178 35.9819 20.5658 38.4232C20.1803 39.318 18.8611 43.1332 17.9959 42.6635C17.1309 42.194 19.1173 39.0567 19.674 37.1935C19.0316 37.6646 16.6757 39.495 16.0685 37.7808C15.0924 38.6099 13.0065 39.059 13.2418 36.8813C12.7225 37.8011 11.557 39.0854 10.158 38.5517C8.32075 37.8511 11.2226 31.9987 11.9441 32.2939C12.6658 32.5891 11.7985 33.9223 11.5713 34.44C11.0718 35.5793 10.4947 37.0116 10.8802 37.3048C11.5407 37.8071 13.3379 35.4045 13.3779 35.3517C13.714 34.9076 14.6717 32.0022 15.4435 32.3359C16.2154 32.6695 13.5183 36.5055 14.5268 37.2668C14.7301 37.4204 15.5623 37.172 16.0685 36.6244C16.396 36.2701 16.2834 35.4854 17.3752 32.8817C18.467 30.2781 19.44 27.0357 20.1888 27.2827C20.9375 27.5296 20.3204 29.1938 20.0518 29.8142C18.7913 32.7259 16.6116 37.5362 17.6395 37.172C18.6675 36.808 19.2027 36.7866 20.2093 35.6087C21.2159 34.4308 21.1695 32.4906 21.8404 32.5318C22.5115 32.5731 22.3989 33.1952 22.2362 33.6689C22.8965 32.9133 25.3663 31.3218 25.9625 32.898C26.6688 34.7641 22.429 37.4595 23.4861 37.322C24.5168 37.188 26.1866 36.1304 26.8995 35.1689L28.8619 17.5263C28.8619 17.5263 26.8872 19.1605 14.3243 19.1605C1.76127 19.1605 -0.00912476 17.5603 -0.00912476 17.5603L1.66158 33.6638C2.54838 31.1433 4.65422 26.0453 7.97359 26.2164C9.48352 26.2943 11.4992 29.2017 9.77257 29.3003C9.04172 29.3418 8.96754 27.849 8.1021 27.6298C7.47759 27.4715 6.60813 27.9792 6.04621 28.5293C4.92559 29.6261 2.51542 33.9532 2.83388 36.1105C3.23961 38.8608 6.62914 35.1547 7.20266 34.0545C7.60656 33.2794 7.87942 30.983 8.76278 31.224C9.64625 31.4649 8.68572 33.8348 8.04536 35.93C7.326 38.2828 6.94783 40.7646 6.04621 40.4791C5.14448 40.1939 6.6133 37.1565 6.56012 36.6244C5.7126 37.4063 4.15122 39.3859 2.15368 38.4061L3.19126 48.4062C3.19126 48.4062 5.94894 50.5851 14.2562 50.5851C22.5634 50.5851 25.4232 48.4402 25.4232 48.4402L26.7116 36.8577C25.6575 37.8842 22.3214 39.7069 22.1078 37.6523" fill="#D34A47"/>
</g>
<defs>
<clipPath id="clip0_62892_6">
<rect width="29" height="65" fill="white"/>
</clipPath>
</defs>
</svg>
