<svg width="86" height="64" viewBox="0 0 86 64" fill="none" xmlns="http://www.w3.org/2000/svg">
<g clip-path="url(#clip0_62955_3)">
<path d="M73.4321 36.7852C70.4568 36.8007 67.8709 37.5177 65.7057 38.5777C64.9112 37.0034 64.1168 35.6005 63.9766 34.5718C63.8208 33.3716 63.6339 32.639 63.8208 31.205C64.0077 29.771 64.8489 27.7291 64.8333 27.5733C64.8178 27.4174 64.6464 26.6848 62.9329 26.6692C61.2194 26.6536 59.7395 26.9966 59.5682 27.4486C59.3968 27.9006 59.0697 28.9293 58.8516 29.9892C58.5556 31.5479 55.4245 37.1125 53.6331 40.0272C53.0568 38.8894 52.5583 37.8918 52.4493 37.0969C52.2935 35.8967 52.1066 35.1641 52.2935 33.7301C52.4804 32.2961 53.3216 30.2542 53.306 30.0984C53.2904 29.9425 53.1191 29.2099 51.4056 29.1943C49.692 29.1787 48.2122 29.5216 48.0408 29.9737C47.8695 30.4257 47.6826 31.4856 47.3243 32.5143C46.966 33.5431 42.8068 42.8329 41.7164 45.2333C41.1556 46.4646 40.6727 47.4466 40.33 48.1169C40.33 48.1169 40.3144 48.1636 40.2677 48.2416C39.9717 48.8183 39.8004 49.13 39.8004 49.13C39.8004 49.13 39.8004 49.13 39.8004 49.1456C39.5667 49.5664 39.3175 49.9561 39.1928 49.9561C39.0994 49.9561 38.928 48.8339 39.224 47.3063C39.8471 44.0798 41.327 39.0608 41.3114 38.8894C41.3114 38.7959 41.5918 37.923 40.3456 37.471C39.1305 37.019 38.6944 37.7671 38.5853 37.7671C38.4763 37.7671 38.3984 38.0321 38.3984 38.0321C38.3984 38.0321 39.7536 32.3896 35.8125 32.3896C33.3513 32.3896 29.9554 35.0862 28.273 37.5177C27.2138 38.0945 24.955 39.3258 22.5405 40.6507C21.6215 41.1651 20.6712 41.6795 19.7833 42.1626C19.721 42.1003 19.6587 42.0224 19.5964 41.96C14.8297 36.8631 6.01286 33.2625 6.38672 26.4198C6.52692 23.9259 7.38368 17.3794 23.3194 9.43006C36.4356 2.96148 46.8725 4.75398 48.6795 8.72865C51.2654 14.4023 43.0872 24.9391 29.5348 26.4666C24.3631 27.0433 21.6526 25.0482 20.9672 24.3C20.2507 23.5207 20.1416 23.4739 19.8768 23.6298C19.4406 23.8636 19.721 24.565 19.8768 24.9702C20.2818 26.0302 21.9486 27.9006 24.7681 28.8202C27.2605 29.6307 33.3201 30.0828 40.6571 27.2459C48.8664 24.0662 55.2843 15.2284 53.3995 7.82461C51.5146 0.3117 39.0526 -2.16662 27.2605 2.02626C20.2507 4.52017 12.6489 8.44809 7.18117 13.5606C0.685372 19.6395 -0.34274 24.9235 0.0778517 27.1368C1.58886 34.9927 12.4152 40.1052 16.7457 43.8928C16.5276 44.0175 16.3251 44.1266 16.1538 44.2201C13.9885 45.2956 5.73247 49.6132 3.67624 54.1802C1.33963 59.355 4.0501 63.0647 5.84151 63.5635C11.4027 65.1066 17.1196 62.3322 20.1883 57.7496C23.2571 53.167 22.8832 47.2128 21.4657 44.4851C21.4501 44.4539 21.4345 44.4228 21.4034 44.3916C21.9642 44.0643 22.5405 43.7213 23.1013 43.394C24.2073 42.7394 25.2977 42.1315 26.2324 41.6327C25.7028 43.0823 25.3133 44.8124 25.1264 47.3063C24.8927 50.2367 26.0922 54.0399 27.6655 55.5362C28.3665 56.1909 29.1921 56.2065 29.7217 56.2065C31.5599 56.2065 32.3855 54.679 33.3046 52.8709C34.4261 50.6575 35.4387 48.0857 35.4387 48.0857C35.4387 48.0857 34.1769 55.0375 37.6039 55.0375C38.8501 55.0375 40.1119 53.4164 40.6727 52.5903C40.6727 52.6059 40.6727 52.6059 40.6727 52.6059C40.6727 52.6059 40.7039 52.5591 40.7662 52.45C40.8908 52.2474 40.9687 52.1227 40.9687 52.1227C40.9687 52.1227 40.9687 52.1071 40.9687 52.0915C41.4671 51.2187 42.5887 49.2391 44.2555 45.9503C46.4052 41.7106 48.477 36.4111 48.477 36.4111C48.477 36.4111 48.6639 37.7048 49.3026 39.8558C49.6765 41.1183 50.4553 42.5056 51.0784 43.846C50.58 44.5474 50.2684 44.9371 50.2684 44.9371C50.2684 44.9371 50.2684 44.9371 50.284 44.9527C49.879 45.4827 49.4428 46.0594 48.9599 46.6205C47.262 48.6468 45.2369 50.9693 44.9565 51.6395C44.6294 52.4344 44.7073 53.0112 45.3304 53.4788C45.7821 53.8217 46.5921 53.8684 47.4177 53.8217C48.9443 53.7126 50.0192 53.3385 50.5488 53.1047C51.3744 52.8085 52.3402 52.3565 53.2437 51.6863C54.9105 50.4549 55.923 48.6936 55.8296 46.3711C55.7828 45.093 55.3622 43.8149 54.8482 42.6147C55.004 42.3965 55.1442 42.1782 55.2999 41.96C57.9325 38.11 59.9732 33.886 59.9732 33.886C59.9732 33.886 60.1601 35.1797 60.7988 37.3307C61.1103 38.4218 61.749 39.6064 62.3098 40.7598C59.833 42.7705 58.3064 45.1086 57.7612 46.6361C56.7798 49.4729 57.5431 50.7511 58.9918 51.0472C59.646 51.1875 60.5807 50.8757 61.2661 50.5796C62.1384 50.299 63.1665 49.8158 64.1479 49.0988C65.8147 47.8675 67.4192 46.1529 67.3257 43.8305C67.279 42.7705 66.9986 41.7262 66.6092 40.7131C68.7121 39.8402 71.4226 39.357 74.8808 39.7623C82.2957 40.6351 83.7599 45.2644 83.4796 47.2128C83.1992 49.1612 81.6414 50.2211 81.1274 50.5484C80.6133 50.8757 80.4419 50.9849 80.4887 51.2187C80.551 51.5616 80.8002 51.546 81.2364 51.4836C81.8439 51.3745 85.1308 49.9094 85.271 46.3244C85.5046 41.7418 81.1429 36.7384 73.4321 36.7852ZM16.2317 56.0818C13.7704 58.7627 10.3434 59.7759 8.86354 58.9186C7.27464 57.999 7.89773 54.0399 10.9198 51.2031C12.7579 49.4729 15.1257 47.8675 16.699 46.8855C17.0573 46.6673 17.5869 46.3555 18.2256 45.9659C18.3346 45.9035 18.3969 45.8723 18.3969 45.8723C18.5216 45.7944 18.6462 45.7165 18.7708 45.6385C19.8768 49.6911 18.8175 53.2605 16.2317 56.0818ZM34.1457 43.8928C33.289 45.9814 31.4976 51.3278 30.4072 51.0316C29.4725 50.7822 28.8961 46.7296 30.2202 42.7238C30.8901 40.7131 32.3076 38.3127 33.1332 37.3775C34.4729 35.8811 35.9527 35.3823 36.311 35.9902C36.7628 36.7852 34.6754 42.5835 34.1457 43.8928ZM48.9288 50.9693C48.5705 51.1563 48.2278 51.281 48.072 51.1875C47.9629 51.1251 48.2278 50.8757 48.2278 50.8757C48.2278 50.8757 50.0815 48.8806 50.8136 47.9766C51.2342 47.4466 51.7327 46.8231 52.2623 46.1217C52.2623 46.1841 52.2623 46.262 52.2623 46.3244C52.2623 48.7092 49.9569 50.3146 48.9288 50.9693ZM60.3314 48.3662C60.0666 48.1792 60.1134 47.5557 61.0013 45.6074C61.344 44.8436 62.154 43.5655 63.5404 42.3341C63.6962 42.8329 63.8052 43.3161 63.7896 43.7681C63.7741 46.7764 61.6244 47.8986 60.3314 48.3662Z" fill="#CD6799"/>
</g>
<defs>
<clipPath id="clip0_62955_3">
<rect width="85.3333" height="64" fill="white"/>
</clipPath>
</defs>
</svg>
